M48
;Layer_Color=9474304
;FILE_FORMAT=2:4
INCH,LZ
;TYPE=PLATED
T01F00S00C0.0280
T02F00S00C0.0354
T03F00S00C0.0551
T04F00S00C0.1260
%
T01
X004528Y001535
X006024
X00748
X006732Y009173
X008268Y010118
X011732Y009409
X012559Y009252
Y010039
X01252Y008465
X013307
X013346Y009213
X012992Y001811
X01378
X013543Y01374
X012677
X014567Y013701
X016063Y014252
Y016339
X014606Y01811
X01063Y016575
X009606Y011772
X007402Y012087
X007638Y014134
Y015063
X00874Y01626
X009094Y019016
X006378Y020157
X005157
X00389Y020167
X004803Y016339
X003858Y015276
X001272Y016862
X00126Y017756
T02
X006732Y005354
Y006354
T03
X002835Y003465
Y004965
Y008071
Y009571
X013819Y004882
Y003382
X002913Y012913
Y014413
T04
X001142Y001142
X015512
Y020039
X001142
M30
