%FSTAX24Y24*%
%MOIN*%
%SFA1B1*%

%IPPOS*%
%AMD28*
4,1,8,-0.019200,-0.011100,0.019200,-0.011100,0.030300,0.000000,0.030300,0.000000,0.019200,0.011100,-0.019200,0.011100,-0.030300,0.000000,-0.030300,0.000000,-0.019200,-0.011100,0.0*
1,1,0.022200,-0.019200,0.000000*
1,1,0.022200,0.019200,0.000000*
1,1,0.022200,0.019200,0.000000*
1,1,0.022200,-0.019200,0.000000*
%
%AMD34*
4,1,8,0.020000,0.012100,-0.020000,0.012100,-0.032200,0.000000,-0.032200,0.000000,-0.020000,-0.012100,0.020000,-0.012100,0.032200,0.000000,0.032200,0.000000,0.020000,0.012100,0.0*
1,1,0.024400,0.020000,0.000000*
1,1,0.024400,-0.020000,0.000000*
1,1,0.024400,-0.020000,0.000000*
1,1,0.024400,0.020000,0.000000*
%
%ADD23R,0.055100X0.047200*%
%ADD24R,0.047200X0.055100*%
%ADD25R,0.063000X0.078700*%
%ADD26R,0.055100X0.047200*%
%ADD27R,0.047200X0.055100*%
G04~CAMADD=28~8~0.0~0.0~606.0~223.0~111.0~0.0~15~0.0~0.0~0.0~0.0~0~0.0~0.0~0.0~0.0~0~0.0~0.0~0.0~180.0~605.0~223.0*
%ADD28D28*%
%ADD29R,0.023600X0.043300*%
%ADD30R,0.137800X0.090600*%
%ADD31R,0.118100X0.090600*%
%ADD32R,0.039400X0.059100*%
%ADD33R,0.059100X0.039400*%
G04~CAMADD=34~8~0.0~0.0~645.0~243.0~122.0~0.0~15~0.0~0.0~0.0~0.0~0~0.0~0.0~0.0~0.0~0~0.0~0.0~0.0~0.0~645.0~243.0*
%ADD34D34*%
%ADD35R,0.047200X0.059100*%
%ADD36R,0.059100X0.047200*%
%ADD37R,0.060600X0.022300*%
%ADD38R,0.064500X0.024300*%
%ADD39R,0.043300X0.023600*%
%ADD40R,0.048000X0.047200*%
%ADD41R,0.137800X0.224400*%
%LNpcb1-1*%
%LPD*%
G54D23*
X00563Y012087D03*
X005709Y017913D03*
X004803D03*
Y017126D03*
X005709D03*
X00563Y012874D03*
G54D24*
X000866Y015433D03*
Y014528D03*
X014331Y008228D03*
Y008976D03*
X011732Y012205D03*
X01252D03*
X015118Y008976D03*
Y008228D03*
X001654Y014528D03*
Y015433D03*
G54D25*
X011654Y009449D03*
X010472D03*
G54D26*
X012165Y002756D03*
X004606Y015276D03*
X003622Y019055D03*
X009252Y010197D03*
Y010984D03*
Y009213D03*
Y008425D03*
X003622Y018268D03*
X010079Y018228D03*
Y019016D03*
X006535Y012087D03*
Y012874D03*
X004606D03*
Y013661D03*
Y014488D03*
X012165Y003543D03*
G54D27*
X011102Y002756D03*
X009134D03*
X00874Y015394D03*
X010669D03*
X009094Y006535D03*
X008307D03*
X015118Y007441D03*
X014331D03*
X009528Y01374D03*
X00874D03*
Y014567D03*
X009528D03*
X011457Y015394D03*
X009528D03*
X008346Y002756D03*
X010315D03*
G54D28*
X006685Y014134D03*
X011423Y01061D03*
Y011358D03*
Y010984D03*
X010466Y01061D03*
Y010984D03*
X006685Y014508D03*
X00563D03*
Y01376D03*
G54D29*
X007472Y010121D03*
X007102Y010981D03*
X006732Y010121D03*
G54D30*
X005276Y005354D03*
Y010039D03*
Y008071D03*
Y003386D03*
G54D31*
X007126Y019016D03*
Y017047D03*
G54D32*
X012559Y007441D03*
X013346D03*
X009528Y004055D03*
X010315D03*
G54D33*
X010197Y007638D03*
X012165Y005236D03*
X010197Y008425D03*
X011102Y019016D03*
Y018228D03*
X012165Y004449D03*
X012677Y015394D03*
Y014606D03*
G54D34*
X002704Y016713D03*
Y016339D03*
X003622D03*
Y017087D03*
G54D35*
X010801Y005236D03*
X013844Y006024D03*
X012073Y017244D03*
X01336D03*
X012073Y01811D03*
X01336D03*
X015132Y006024D03*
X009514Y005236D03*
G54D36*
X015236Y004856D03*
Y003569D03*
G54D37*
X010466Y011358D03*
X006685Y01376D03*
G54D38*
X002704Y017087D03*
G54D39*
X006617Y008071D03*
X007477Y008441D03*
Y007701D03*
X011532Y013228D03*
X010672Y012858D03*
Y013598D03*
X006617Y003386D03*
X007477Y003756D03*
Y003016D03*
X00583Y015433D03*
X00669Y015803D03*
Y015063D03*
G54D40*
X008307Y007715D03*
Y009215D03*
X008346Y003756D03*
Y005256D03*
G54D41*
X013858Y011378D03*
X015709D03*
M02*