%FSTAX24Y24*%
%MOIN*%
%SFA1B1*%

%IPPOS*%
%ADD11C,0.010000*%
%ADD12C,0.007900*%
%LNpcb1-1*%
%LPD*%
G36*
X006256Y019943D02*
X005979Y019942D01*
X005976Y019939*
X005975Y019936*
X005977Y019932*
X005979Y01993*
X00598Y019928*
X005983Y019923*
X005984Y019919*
X005988Y019912*
X006006Y019877*
X006009Y019872*
X006011Y019871*
X006015Y019869*
X006333Y019868*
X006337Y019867*
X006348Y019862*
X006352Y019861*
X006358Y019857*
X006372Y019847*
X006374Y019845*
X006376Y019844*
X006381Y019839*
Y019838*
X006384Y019835*
X006385Y019833*
X006387Y019831*
X006388Y019829*
X00639Y019827*
X006391Y019826*
X006396Y019818*
X0064Y019811*
X006407Y019796*
X00641Y019788*
X006412Y019784*
X006414Y019775*
X006416Y019769*
X006418Y019763*
X006421Y019752*
X006423Y019745*
X006425Y019727*
X006426Y019716*
X006427Y019712*
X006428Y019705*
X006429Y019637*
X006428Y019634*
X006425Y019615*
X006424Y019604*
X006423Y019598*
X00642Y019585*
X006416Y019573*
X006414Y019563*
X00641Y019554*
X006406Y019545*
X006405Y01954*
X006397Y019527*
Y019526*
X006392Y01952*
Y019518*
X006386Y01951*
X006384Y019507*
X006378Y019501*
X006377Y0195*
X006374Y019497*
X006368Y019491*
X006366Y01949*
X006364Y019488*
X006357Y019484*
X006352Y019481*
X006348Y01948*
X006344Y019478*
X006336Y019476*
X006329Y019474*
X006322Y019473*
X006313Y019472*
X006006Y019471*
X006004Y019472*
X005996Y019471*
X005993Y019468*
X005991Y019462*
X005992Y019405*
X005996Y0194*
X005999Y019399*
X00601*
X006323*
X006326Y0194*
X006338Y019401*
X006341Y019402*
X006346Y019403*
X006353Y019405*
X006357*
X00636Y019406*
X006365Y019407*
X006371Y01941*
X006379Y019413*
X006384Y019415*
X006388Y019416*
X006393Y01942*
X006405Y019427*
X006408Y019429*
X00641Y01943*
X006417Y019436*
X006419Y019438*
X006421Y019439*
X006437Y019455*
X006438Y019457*
X00644Y019459*
X006441Y019461*
X006445Y019465*
X006452Y019476*
X006455Y019482*
X006456Y019484*
X006461Y019489*
X006464Y019497*
X006466Y019502*
X006471Y019512*
X006473Y019521*
X006475Y019525*
X006478Y019532*
X006479Y019538*
X00648Y019542*
X006482Y019547*
X006485Y019558*
X006487Y019563*
Y019567*
X006488Y019578*
X006489Y019581*
X00649Y019587*
X006491Y019591*
X006492Y019596*
X006494Y019613*
X006495Y019619*
X006496Y01965*
X006495Y019729*
X006494Y019732*
X006493Y019741*
X006491Y019751*
X00649Y019758*
X006488Y019769*
X006487Y019773*
Y01978*
X006486Y019783*
X006481Y019799*
X006479Y019804*
X006478Y019811*
X006476Y019816*
X006473Y019822*
X006469Y019832*
X006465Y019842*
X006463Y019846*
X006458Y019855*
X006455Y019861*
X006449Y019869*
X006445Y019876*
X006443Y019879*
X006441Y01988*
X00644Y019882*
X006438Y019885*
X006437Y019886*
X006434Y019889*
Y01989*
X006428Y019896*
X006427Y019898*
X006424Y0199*
X006419Y019905*
X006417Y019906*
X006415Y019909*
X006413*
X006411Y019911*
X00641Y019912*
X006405Y019916*
X00639Y019925*
X006386Y019926*
X006375Y019931*
X006371Y019933*
X006364Y019935*
X006359Y019936*
X006347Y01994*
X006337Y019941*
X006317Y019942*
X006315Y019943*
X006257*
X006256*
G37*
G36*
X006553Y019939D02*
X006554Y019933D01*
X006557Y019929*
X006558Y019927*
X00656Y019923*
X006569Y019904*
X006572Y019898*
X006577Y019889*
X00658Y019883*
X006584Y019875*
X006588Y019871*
X006594Y019869*
X006912Y019868*
X006914Y019867*
X00692Y019865*
X006927Y019862*
X006931Y019861*
X006937Y019857*
X006938Y019856*
X00694Y019855*
X006948Y019849*
X006953Y019845*
X006954Y019844*
X006956Y019843*
X006957Y019841*
X006962Y019836*
Y019834*
X006964Y019832*
X006965Y019831*
X006969Y019827*
X006973Y019819*
X006978Y019813*
X00698Y019808*
X006985Y019797*
X006987Y019791*
X00699Y019783*
X006994Y019774*
X006996Y019761*
X006999Y019754*
X007001Y019747*
X007002Y019741*
X007003Y019732*
X007004Y019719*
Y019716*
X007005Y019707*
X007006Y019705*
X007007Y019697*
X007006Y019695*
X007007Y01964*
X007005Y019629*
X007004Y019618*
X007003Y01961*
X007002Y019598*
X007001Y019593*
X006997Y019584*
X006996Y019579*
X006995Y019576*
X006994Y01957*
Y019567*
X006991Y019561*
X006987Y019551*
X006986Y019545*
X006981Y019539*
X006979Y019534*
X006974Y019525*
X006971Y01952*
X006967Y019514*
X006965Y019511*
X006964Y01951*
X006962Y019508*
Y019506*
X006949Y019494*
X006948Y019493*
X006943Y019488*
X006933Y019483*
X006928Y01948*
X006914Y019476*
X006907Y019474*
X006899Y019473*
X006894Y019472*
X006885Y019471*
X006882Y019472*
X00688Y019471*
X006582Y019472*
X006573Y019471*
X00657Y019468*
X006568Y019462*
X006569Y019405*
X006572Y019401*
X006579Y019399*
X00691Y0194*
X006912Y019401*
X006921Y019402*
X006923*
X006933Y019405*
X006943Y019407*
X006947Y019409*
X006959Y019413*
X006962Y019414*
X00697Y019418*
X006975Y019422*
X006982Y019426*
X006984Y019428*
X006986*
X006987Y01943*
X006989Y019431*
X006996Y019437*
X006999Y019439*
X007001Y01944*
X007004Y019443*
Y019445*
X007007Y019448*
X007009Y019449*
X007011Y019451*
X007012Y019452*
X007019Y019459*
X007021Y019463*
X007025Y019467*
X007026Y019468*
X007029Y019474*
X007035Y019483*
X007039Y01949*
X007041Y019492*
X007042Y019496*
X007043Y0195*
X007045Y019505*
X007047Y019506*
X007051Y019516*
X007052Y019522*
X007055Y019529*
X007056Y01953*
X007057Y019534*
X007059Y019539*
X00706Y019545*
X007061Y019551*
X007064Y019558*
X007066Y019565*
X007067Y019571*
X007068Y019583*
X007069Y019588*
X00707Y019592*
X007071Y019603*
X007073Y019611*
X007074Y019625*
X007075Y019633*
Y019708*
X007074Y019711*
X007073Y019727*
Y019736*
X007072Y019738*
X007071Y019744*
X00707Y019748*
X007068Y019758*
Y019761*
X007066Y019774*
X007065Y019782*
X007062Y01979*
X00706Y019795*
X007059Y019801*
X007058Y019805*
X007057Y019809*
X007052Y019819*
X007051Y019826*
X007049Y019831*
X007045Y019836*
X007044Y01984*
X007042Y019845*
X007041Y019848*
X007036Y019854*
X007034Y01986*
X007031Y019865*
X007029Y019867*
X007024Y019876*
X00702Y01988*
X007019Y019882*
X007014Y019887*
X007013Y019889*
X007011Y01989*
X00701Y019892*
X007Y019903*
X006998Y019904*
X006993Y019909*
X006991*
X00698Y019918*
X006978Y019919*
X006973Y019922*
X006971Y019923*
X006959Y019929*
X006949Y019933*
X006944Y019934*
X00694Y019935*
X006925Y01994*
X006915Y019941*
X006896Y019942*
X006894Y019943*
X006557Y019942*
X006553Y01994*
Y019939*
G37*
G36*
X007636Y019394D02*
X007646Y019396D01*
X00765Y019397*
X00766Y019398*
X007668Y019399*
X007678Y0194*
X007686Y019402*
X007696Y019405*
X007712Y019407*
X007722Y01941*
X007734Y019413*
X007747Y019416*
X00775Y019417*
X007754Y019419*
X007764Y019422*
X007767Y019423*
X007778Y019426*
X007783Y01943*
X007786Y019432*
Y019436*
X007782Y019444*
X007762Y019484*
X007759Y019487*
X007756*
X007746*
X007743Y019486*
X007735Y019483*
X007728Y019481*
X007721Y019479*
X007715Y019478*
X007712Y019477*
X007704Y019475*
X007698Y019473*
X007694Y019472*
X007688Y019471*
X007685*
X007675Y019469*
X007659Y019466*
X007654Y019465*
X00764Y019463*
X007633*
X007622Y019462*
X007616Y019461*
X007606Y01946*
X007595Y019458*
X007504*
X007502Y019459*
X00749Y01946*
X007477Y019462*
X007464Y019463*
X007456Y019464*
X007448Y019466*
X007435Y01947*
X007425Y019472*
X00742Y019474*
X007416Y019476*
X00741Y019478*
X007391Y019488*
X007383Y019494*
X007373Y019505*
X007372Y019506*
X007369Y019509*
Y01951*
X007366Y019515*
X007364Y019521*
X007363Y019524*
X007362Y019529*
X007361Y019533*
Y019538*
X00736Y019541*
X007361Y019543*
X007362Y019548*
X007365Y019558*
X007366Y019562*
X007369Y019567*
X007372Y019569*
X007373Y019571*
X007374Y019573*
X007375Y019574*
X007385Y019584*
X007387Y019585*
X007388Y019587*
X00739*
X007396Y019592*
X007398*
X007403Y019596*
X00741Y019599*
X007426Y019607*
X007432Y019609*
X007436Y019611*
X007453Y019616*
X007461Y019619*
X007468Y019621*
X00748Y019624*
X007483Y019625*
X007492Y019628*
X007498Y019629*
X007508Y019632*
X007512Y019633*
X007519Y019635*
X007524Y019636*
X00753Y019638*
X007536Y019639*
X00754Y01964*
X007543Y019641*
X007548Y019642*
X007558Y019645*
X007568Y019647*
X007572Y019648*
X007582Y01965*
X007587Y019651*
X007593Y019653*
X007596Y019654*
X007602Y019655*
X007609Y019657*
X007621Y019661*
X007627Y019662*
X007633Y019663*
X007637Y019665*
X007648Y019669*
X007652Y01967*
X007661Y019672*
X007669Y019676*
X007678Y019678*
X007685Y019681*
X007696Y019686*
X0077Y019687*
X007723Y019699*
X007729Y019703*
X007739Y01971*
X007742Y019712*
X007747Y019716*
X00775Y019718*
X007751Y019719*
X007753Y01972*
X007757Y019724*
X007758*
X007762Y019728*
X007763Y01973*
X007767Y019734*
X007768Y019736*
X00777Y019737*
Y019739*
X007772Y019741*
X007773Y019743*
X007777Y019748*
X007785Y019764*
X007786Y019769*
X007788Y019774*
X007789Y01978*
X00779Y019785*
X007791Y019793*
Y019817*
Y01982*
X007789Y019828*
X007788Y019836*
X007787Y01984*
X007784Y019846*
X007783Y019851*
X007776Y019863*
X007768Y019875*
X007764Y01988*
X007762Y019883*
X007754Y019891*
X007752Y019892*
X00775Y019894*
X007748Y019895*
X007745Y019898*
X007743Y019899*
X007731Y019908*
X007719Y019914*
X007709Y019919*
X007704Y019921*
X007693Y019925*
X00769Y019926*
X007677Y019931*
X007674Y019932*
X007669Y019933*
X007664Y019934*
X007654Y019936*
X00765Y019937*
X007646Y019938*
X007639Y01994*
X007625Y019941*
X007621Y019942*
X007605Y019943*
X007593Y019945*
X007571Y019946*
X007568*
X00756Y019947*
X007518Y019946*
X007515*
X007504Y019945*
X007487Y019944*
X007484Y019943*
X007466Y019942*
X007463Y019941*
X007452*
X00745Y01994*
X007444Y019938*
X007439*
X007431Y019936*
X007408Y019933*
X007405Y019932*
X0074Y01993*
X007394Y019929*
X007391Y019928*
X007385Y019927*
X007382Y019926*
X007373Y019924*
X007369Y019923*
X007362Y019921*
X007356Y019919*
X007353*
X007346Y019917*
X007342*
X007338Y019916*
X007335Y019914*
X007334Y019912*
X007332Y019908*
X007333Y019901*
X007339Y019893*
X007342Y019885*
X007348Y019873*
X007355Y01986*
X007358Y019854*
X00736Y019853*
X007363Y019852*
X007369Y019853*
X007371Y019854*
X007375Y019855*
X00738Y019856*
X007385Y019857*
X007402Y019861*
X007408Y019862*
X007411Y019863*
X007419Y019864*
X007423Y019865*
X007428Y019866*
X007438Y019869*
X00745Y01987*
X007473Y019874*
X007484Y019875*
X007503Y019877*
X007524Y019878*
X007563Y019879*
X007566Y019878*
X007578Y019879*
X007594Y019878*
X007603Y019877*
X007611Y019876*
X007616Y019875*
X007619*
X007627Y019873*
X007633Y019872*
X007649Y019869*
X007654Y019867*
X007658Y019866*
X007664Y019864*
X007675Y019859*
X007683Y019856*
X007688Y019852*
X007696Y019846*
X007698Y019845*
X007699Y019844*
X007705Y019838*
X007706Y019837*
X007709Y019833*
X00771Y019832*
X007714Y019825*
X007715Y01982*
X007716Y019817*
X007717Y019806*
X007716Y019794*
X007715Y019791*
X00771Y019782*
X007708Y019779*
X007706Y019777*
X007705Y019775*
X0077Y019771*
X007699Y01977*
X007693Y019765*
X007692Y019764*
X007687Y019761*
X007685Y01976*
X007678Y019756*
X007667Y01975*
X007662Y019748*
X007654Y019745*
X007646Y019741*
X007641Y01974*
X007635Y019738*
X007619Y019733*
X007611Y01973*
X007607Y019729*
X007601Y019727*
X007597Y019726*
X007591Y019725*
X007587Y019724*
X007576Y01972*
X007572Y019719*
X007567Y019718*
X007559Y019716*
X007546Y019713*
X00754Y019711*
X007535Y01971*
X007531Y019709*
X007527Y019708*
X007523Y019707*
X007519Y019706*
X007514Y019704*
X007507Y019703*
X007501Y019701*
X007497Y0197*
X007493Y019699*
X007489Y019698*
X007483Y019697*
X00748Y019696*
X007474Y019694*
X007469Y019693*
X007466Y019692*
X007459Y01969*
X007451Y019687*
X007447*
X007437Y019683*
X007433Y019682*
X007428Y01968*
X007423Y019679*
X007411Y019674*
X007398Y019669*
X007394Y019668*
X007389Y019666*
X007383Y019663*
X007372Y019658*
X007358Y01965*
X007352Y019647*
X007335Y019636*
X007332Y019633*
X00733Y019632*
X007324Y019626*
X007323Y019625*
X007318Y019621*
X007317Y019619*
X00731Y019611*
X007309Y01961*
X007307Y019608*
X007306Y019606*
X007305Y019605*
X007304Y019603*
X007302Y019601*
X007297Y019592*
X007293Y019583*
X007292Y019579*
X007287Y019562*
X007286Y019558*
X007285Y019547*
X007286Y019521*
X007287Y019519*
X007288Y019516*
X007291Y019505*
X007292Y019501*
X007293Y019496*
X007295Y019492*
X0073Y019481*
X007301Y019479*
X007307Y019471*
X00731Y019466*
X007312Y019463*
X007315Y019461*
X007316Y019459*
X007329Y019445*
X007331Y019444*
X007334Y019441*
X007336Y01944*
X007344Y019435*
X007349Y019431*
X007356Y019428*
X007361Y019424*
X007367Y019422*
X007371Y019421*
X007381Y019416*
X007387Y019414*
X007395Y019411*
X007399Y01941*
X007404Y019407*
X007418Y019405*
X007421Y019404*
X007426Y019402*
X007433Y019401*
X007443Y019399*
X007446Y019398*
X007455Y019397*
X007467Y019395*
X007471Y019394*
X007478*
X007487Y019393*
X007494Y019392*
X007521Y019391*
X007527Y01939*
X007579*
X007582Y019391*
X007619Y019392*
X007622Y019393*
X007635Y019394*
X007636*
G37*
G36*
X008348Y01993D02*
X008347Y019561D01*
X008344Y019551*
X008343Y019547*
X008342Y01954*
X008338Y019535*
X008332Y019523*
X008329Y01952*
X008328Y019518*
X008325Y019516*
X008324Y019514*
X008322Y019512*
X008321Y019511*
X008316Y019506*
X008315Y019504*
X008313Y019503*
X008308Y0195*
X008307Y019498*
X008306Y019497*
X0083Y019493*
X008298Y019492*
X008292Y019488*
X008286Y019486*
X008272Y019479*
X008259Y019474*
X008255Y019473*
X008248Y019471*
X008241Y019469*
X008235Y019467*
X008228Y019465*
X008214Y019463*
X008211Y019462*
X008198Y019461*
X008195Y01946*
X008182*
X008179Y019459*
X008176Y019458*
X008116Y019459*
X008113Y01946*
X008105*
X008093Y019462*
X008087Y019463*
X008079*
X008071Y019465*
X008067Y019466*
X008063Y019467*
X008055Y01947*
X008048Y019471*
X008043Y019473*
X008036Y019476*
X008031Y019477*
X008023Y01948*
X008002Y019492*
X007997Y019495*
X007995Y019496*
X007988Y019502*
X007986Y019503*
X007984Y019504*
X00798Y019508*
X007975Y019513*
X007974*
X007973Y019515*
X007971Y019516*
X00797Y019518*
X007969Y01952*
X007968Y019521*
X007965Y019524*
Y019526*
X00796Y019532*
Y019534*
X007957Y01954*
X007956Y019543*
X007955Y019547*
X007953Y019553*
X007952Y019558*
X007951Y019567*
X007949Y019579*
Y019932*
X007945Y019936*
X007941Y019937*
X007883Y019936*
X007879Y019933*
X007877Y019928*
X007878Y019556*
X007879Y019553*
X00788Y019544*
X007881Y019539*
X007885Y019523*
X007889Y019513*
X007891Y019509*
X007893Y019503*
X007902Y019487*
X007906Y019481*
X007907Y019479*
X00791Y019475*
X007912Y019472*
X007915Y019469*
X007916Y019468*
X00792Y019463*
X007921Y019462*
X007927Y019455*
X007929*
X007935Y019449*
X007936Y019448*
X007941Y019444*
X007942Y019443*
X007944Y019442*
X00795Y019438*
X007952Y019437*
X00796Y019431*
X007969Y019426*
X007977Y019423*
X007981Y019421*
X007994Y019415*
X007997Y019414*
X008005Y019411*
X00801Y019409*
X008014Y019407*
X008024Y019405*
X008028*
X008037Y019402*
X008047Y019399*
X008058Y019398*
X008062Y019397*
X008067Y019396*
X008071Y019395*
X008076Y019394*
X008082*
X00809Y019393*
X008095Y019392*
X008118Y019391*
X008126Y01939*
X008172*
X008174Y019391*
X008185*
X008206Y019392*
X008209Y019393*
X008221Y019394*
X008226Y019396*
X008236Y019397*
X008247Y019399*
X008252*
X008261Y019401*
X008273Y019405*
X008276Y019406*
X008282Y019407*
X008285Y019408*
X008292Y01941*
X008299Y019413*
X008302Y019414*
X00831Y019417*
X008319Y019422*
X008323Y019423*
X008331Y019428*
X008343Y019434*
X008346Y019437*
X008352Y01944*
X008365Y01945*
X008382Y019468*
X008383Y019469*
X008388Y019474*
X008389Y019476*
X008399Y01949*
X008401Y019494*
X008405Y0195*
X008408Y019509*
X008414Y019521*
X008415Y019531*
X008416Y019537*
X008417Y019541*
X008419Y019555*
X00842Y019928*
X008419Y019931*
X008418Y019933*
X008417Y019934*
X008413Y019936*
X00841Y019937*
X008353Y019936*
X008349Y019933*
X008348Y01993*
G37*
G36*
X008531Y01989D02*
X008535Y019885D01*
X008538Y019877*
X00854Y019875*
X008541Y019872*
X008543*
X008549Y019869*
X008736Y019868*
X00874Y019864*
X008741Y019859*
Y019405*
X008745Y019401*
X008751Y019399*
X008807Y0194*
X008812Y019404*
X008813Y01941*
X008814Y019863*
X008818Y019867*
X008822Y019869*
X009009Y01987*
X009015Y019874*
X009016Y019875*
X009036Y019915*
X00904Y019922*
X009042Y019924*
Y019927*
X009043Y01993*
X009041Y019934*
X009039Y019935*
X009033Y019937*
X008526*
X008516*
X008513Y019934*
X008512Y019928*
X008516Y019921*
X008518Y019919*
X008519Y019915*
X008522Y019909*
X008525Y019905*
X008528Y019897*
X008531Y019891*
Y01989*
G37*
G36*
X01103Y020127D02*
X011033Y020126D01*
X011035Y020124*
X011036Y020122*
X011035Y020118*
X011033Y020117*
X011008Y020067*
X011006Y020061*
X010992Y020035*
X010982Y020014*
X010976Y020003*
X010941Y019932*
X01094Y01993*
X010934Y019926*
X010863Y019925*
X01086*
X010858Y01992*
X010854Y019914*
X010652Y01951*
X010647Y0195*
X010644Y019494*
X010643Y019493*
X010639Y019484*
X010636Y019478*
X010635Y019476*
X010631Y019467*
X010626Y019459*
X010621Y019448*
X010618Y019442*
X010615Y019435*
X010609Y019424*
X010608Y019421*
X010604Y019414*
X010603Y019412*
X010598Y019401*
X010597Y019399*
X010594Y019394*
X010589Y019391*
X010523Y01939*
X010517Y019391*
X010515Y019393*
X010514Y019397*
X010515Y0194*
X010517Y019403*
X01052Y019409*
X010609Y019586*
X010611Y019592*
X010656Y01968*
X010659Y019688*
X01068Y019729*
X010774Y019917*
X010777Y019922*
X010782Y019926*
X010857Y019927*
X010858Y019928*
X010859Y01993*
X010861Y019934*
X010951Y020115*
X010954Y020123*
X010959Y020126*
X010965Y020127*
X010967Y020128*
X011014*
X011021*
X01103Y020127*
G37*
G36*
X010648Y019995D02*
X010651Y019994D01*
X010652Y019993*
X010655Y019989*
X010654Y019986*
X010652Y019982*
X010634Y019946*
X010628Y019933*
X010626Y019932*
Y01993*
X01062Y019926*
X010555Y019925*
X010552Y019926*
X010545Y019925*
X010541Y019924*
X010539Y019922*
X010536Y019917*
X010533Y01991*
X010529Y019902*
X010525Y019895*
X010521Y019887*
X010517Y019878*
X010514Y019872*
X010509Y019861*
X010505Y019855*
X010501Y019846*
X010497Y019838*
X010493Y019829*
X010489Y019822*
X010485Y019814*
X010481Y019806*
X010477Y019797*
X010473Y019791*
X010469Y019782*
X010465Y019774*
X010461Y019765*
X010457Y019758*
X010452Y019748*
X010449Y019743*
X010445Y019733*
X010441Y019726*
X010436Y019716*
X010433Y019711*
X010428Y0197*
X010425Y019694*
X01042Y019684*
X010416Y019677*
X010412Y019668*
X010409Y019662*
X010404Y019653*
X0104Y019645*
X010396Y019636*
X010393Y01963*
X010388Y019621*
X010384Y019613*
X01038Y019604*
X010377Y019598*
X010372Y019589*
X010368Y019581*
X010364Y019572*
X01036Y019564*
X010356Y019555*
X010352Y019549*
X010348Y01954*
X010344Y019532*
X01034Y019523*
X010336Y019517*
X010332Y019508*
X010328Y0195*
X010324Y019491*
X01032Y019485*
X010317Y019477*
X010313Y01947*
X010312Y019467*
X010308Y019457*
X010304Y019452*
X010299Y019441*
X010296Y019435*
X010292Y019426*
X010291Y019424*
X01029Y019423*
X010288Y019418*
X010286Y019413*
X010281Y019405*
X01028Y019404*
X010279Y019402*
X010273Y019399*
X010215*
X010204*
X0102Y019401*
X010198Y019402*
Y019404*
X010195Y019406*
X010191Y019414*
X010187Y019423*
X010182Y019431*
X010179Y019438*
X010174Y019447*
X010171Y019455*
X010166Y019463*
X010163Y01947*
X010158Y019479*
X010155Y019487*
X01015Y019496*
X010148Y019502*
X010143Y019508*
X010141Y019514*
X010139Y019518*
X010135Y019525*
X010132Y019533*
X010128Y019539*
X010124Y01955*
X010122Y019552*
X010121Y019553*
X01012Y019555*
X010116Y019565*
X010112Y019571*
X01011Y019575*
X010107Y019583*
X010106Y019584*
X010104Y019587*
X010101Y019595*
X010099Y019599*
X010098Y0196*
X010097Y019602*
X010095Y019603*
X010093Y019609*
X010091Y019615*
X01009Y019616*
X010088Y019619*
X010086Y019624*
X010084Y019628*
X010082Y019632*
X010081Y019634*
X010079Y019635*
X010078Y01964*
X010077Y019644*
X010073Y019649*
X01007Y019654*
X010069Y019657*
X010067Y019663*
X010066Y019664*
X010065Y019666*
X010064Y019667*
X010061Y019673*
X010058Y01968*
X010056Y019682*
X010054Y019687*
X010052Y019692*
X01005Y019696*
X010049Y019698*
X010048Y019699*
X010045Y019705*
X010044Y019709*
X010041Y019713*
X010039Y019716*
X010037Y019721*
X010035Y019726*
Y019727*
X01003Y019733*
X010029Y019737*
X010028Y019741*
X010025Y019745*
X010022Y019751*
X010018Y01976*
X010013Y019768*
X010009Y019777*
X010006Y019783*
X010001Y019794*
X009998Y0198*
X009993Y019809*
X00999Y019815*
X009985Y019826*
X009982Y019832*
X009977Y019841*
X009973Y019848*
X009969Y019858*
X009966Y019864*
X009961Y019873*
X009957Y01988*
X009953Y01989*
X00995Y019894*
X009948Y0199*
X009946Y019904*
X009942Y019909*
X00994Y019917*
X009937Y019921*
X009934Y019926*
X009933Y019931*
X009934Y019935*
X009936Y019936*
X010003Y019937*
X010009Y019936*
X010012Y019933*
X010017Y019924*
X010021Y019917*
X010025Y019907*
X010029Y019901*
X010033Y019892*
X010037Y019885*
X010041Y019875*
X010045Y019869*
X010049Y01986*
X010053Y019853*
X010057Y019843*
X010061Y019836*
X010065Y019828*
X010069Y019821*
X010073Y019811*
X010077Y019804*
X010081Y019796*
X010085Y019789*
X010089Y019779*
X010092Y019775*
X010094Y019769*
X010096Y019765*
X010101Y019758*
X010103Y01975*
X010108Y019744*
X010109Y01974*
X010113Y019732*
X010118Y019723*
X010121Y019716*
X010126Y019706*
X010128Y019701*
X010132Y019694*
X010135Y019689*
X010137Y019684*
X010141Y019677*
X010144Y019669*
X010148Y019663*
X01015Y019659*
X010153Y019652*
X010157Y019645*
X01016Y019637*
X010164Y019632*
X010165Y01963*
X010166Y019626*
X010169Y01962*
X010175Y019609*
X010176Y019605*
X01018Y0196*
X010181Y019597*
X010184Y019589*
X010188Y019583*
X01019Y019579*
X010193Y019571*
X010199Y01956*
X0102Y019557*
X010204Y019551*
X010206Y019547*
X010209Y019541*
X010212Y019536*
X010213Y019534*
X010215Y019528*
X010216Y019525*
X01022Y019519*
X010221Y019517*
X010223Y019513*
X010224Y01951*
X010227Y019505*
X01023Y0195*
X010231Y019496*
X010232Y019493*
X010234Y019491*
X010238Y01949*
X010241Y019491*
X010242Y019492*
X010246Y0195*
X01025Y019507*
X010255Y019516*
X010257Y019522*
X010263Y019533*
X010266Y019539*
X010271Y019548*
X010273Y019554*
X010278Y019563*
X010282Y019571*
X010287Y01958*
X010288Y019584*
X010303Y019612*
X010305Y019618*
X010311Y019629*
X010313Y019633*
X010327Y019661*
X010329Y019665*
X010351Y01971*
X010353Y019714*
X010367Y019742*
X010369Y019746*
X010375Y019757*
X010378Y019763*
X010381Y019768*
X010408Y019822*
X010409Y019827*
X010415Y019838*
X010417Y019842*
X010447Y019901*
Y019902*
X01045Y019907*
X010456Y019918*
X010457Y019922*
X010458Y019924*
X010462Y019929*
Y019931*
X010464Y019933*
X010469Y019936*
X010515Y019937*
X010544Y019936*
X010548Y019938*
X01055Y019941*
X010568Y019977*
X010573Y019986*
X010575Y019989*
X010576Y019991*
X010578Y019993*
X010584Y019996*
X010592*
X010642*
X010648Y019995*
G37*
G36*
X011021Y019794D02*
X011025Y01979D01*
X011024Y019784*
X011022Y019778*
X010964Y019664*
X010962Y019662*
X010956Y019659*
X010913Y019658*
X010887Y019659*
X010883Y019658*
X010779Y01945*
X010752Y019394*
X010746Y019391*
X010681Y01939*
X010676Y019391*
X010673Y019394*
X010672Y019397*
X010674Y019403*
X010679Y01941*
X010781Y019616*
X0108Y019654*
X010802Y019656*
X010807Y01966*
X010881Y019661*
X010882Y019662*
X010884Y019666*
X010945Y019788*
X010949Y019792*
X010953Y019794*
X011018Y019795*
X011021Y019794*
G37*
G36*
X009812Y019936D02*
X009816Y019935D01*
X009818Y019933*
Y019931*
X009819Y019928*
Y019919*
Y0196*
Y019599*
Y019412*
X009818Y019406*
Y019403*
X009814Y0194*
X009757Y019399*
X00975Y019401*
X009747Y019405*
X009746Y019927*
X009748Y019933*
X009752Y019936*
X009806Y019937*
X009812Y019936*
G37*
G36*
X009625Y019935D02*
X009628Y019931D01*
Y019927*
X009624Y01992*
X009601Y019874*
X009596Y01987*
X00934Y019869*
X009338Y019868*
X009298Y019867*
X009294*
X009283Y019865*
X009272Y019864*
X009265*
X009258Y019863*
X009249Y019862*
X009241Y019861*
X009235Y019859*
X009224Y019856*
X009218Y019854*
X009214Y019853*
X009202Y019847*
X009195Y019843*
X009193Y019842*
X009188Y019837*
X009187Y019836*
X009184Y019833*
X009183Y019832*
X009181Y01983*
X00918Y019828*
X009178Y019826*
X009174Y01982*
X009173Y019819*
X009169Y019806*
X009167Y0198*
X009166Y019796*
X009165Y019794*
X009164Y019753*
X009165Y019745*
X009166Y019742*
X009168Y019736*
X009171Y019725*
X009174Y019719*
X009179Y019711*
X00918Y019709*
X009192Y019698*
X009193Y019697*
X009195Y019695*
X009206Y019689*
X009211Y019687*
X009217Y019684*
X009222Y019683*
X009228Y01968*
X009232Y019679*
X009237*
X00925Y019676*
X009255Y019675*
X009267Y019674*
X00927Y019673*
X009291Y019672*
X009293Y019671*
X009605*
X00961Y019669*
X009612Y019665*
X009613Y01941*
X009612Y019406*
Y019404*
X009611Y019402*
X009605Y019399*
X009596*
X009555*
X009552Y0194*
X009546Y019401*
X009542Y019405*
X009541Y01959*
X009538Y019596*
Y019598*
X009534Y0196*
X00931*
X009303Y019601*
X009288Y019603*
X009277Y019602*
X009273Y0196*
X009272Y019599*
X009269Y019596*
X009176Y01941*
X009173Y019405*
X009172Y019404*
X009169Y019402*
X009165Y0194*
X009162Y019399*
X009109*
X009098*
X009094Y019401*
X009093Y019403*
X009092Y019406*
X009179Y01958*
X009183Y01959*
X009193Y019608*
Y019612*
Y019616*
X00919Y019619*
X009186Y019622*
X009182Y019624*
X009164Y019632*
X009158Y019635*
X009156Y019636*
X00915Y01964*
X009145Y019644*
X00914Y019649*
X009138Y01965*
X009125Y019663*
X009124Y019664*
X00912Y019668*
X009115Y019676*
X009114Y019678*
X009112Y019679*
X009105Y019694*
X009104Y019696*
X009103Y019698*
X009099Y019708*
X009098Y019711*
X009096Y019717*
X009095Y019722*
X009094Y019725*
X009093Y019729*
X009092Y019737*
X009091Y01974*
X00909Y019777*
X009091Y019795*
X009092Y019801*
X009094Y019811*
X009097Y019822*
X009098Y019826*
X0091Y019832*
Y019835*
X009111Y019857*
X009116Y019865*
X009117Y019867*
X009121Y01987*
Y019872*
X009123Y019874*
X009124Y019875*
X009127Y019878*
X009129Y019881*
X00913Y019882*
X009135Y019886*
X009137Y019888*
X009154Y0199*
X00916Y019904*
X009171Y019909*
X009183Y019915*
X009186Y019917*
X009192Y019919*
X009195*
X009203Y019922*
X009208Y019924*
X009211Y019925*
X009218Y019926*
X009221Y019927*
X009227Y019928*
X009232Y019929*
X009235Y01993*
X009239Y019931*
X009249Y019933*
X009256*
X009272Y019935*
X009288*
X00929Y019936*
X009621Y019937*
X009625Y019935*
G37*
G36*
X01066Y019861D02*
X010664Y019859D01*
X010667Y019855*
X010666Y019852*
X010513Y019545*
X01051Y019539*
X010497Y019513*
X010494Y019505*
X010481Y019481*
X010478Y019473*
X010473Y019464*
X01047Y019458*
X010464Y019447*
X010462Y019442*
X010457Y019432*
X010453Y019425*
X010448Y019415*
X010446Y01941*
X010441Y0194*
X010438Y019395*
X010433Y019391*
X010379Y01939*
X010364*
X010359Y019391*
X010357Y019396*
X010362Y019405*
X010367Y019416*
X010371Y019424*
X010375Y019431*
X010379Y019441*
X010383Y019448*
X010387Y019456*
X010391Y019463*
X010395Y019473*
X010399Y01948*
X010403Y019488*
X010408Y019497*
X010411Y019505*
X010415Y019512*
X01042Y019521*
X010424Y019529*
X010427Y019537*
X010431Y019544*
X010436Y019553*
X01044Y019561*
X010443Y019568*
X010444Y01957*
X010445Y019571*
X010448Y019579*
X01058Y019844*
X010586Y019856*
X010592Y019861*
X010656*
X01066*
G37*
G54D11*
X016614Y020039D02*
D01*
X016611Y020115*
X016603Y020192*
X016589Y020268*
X016571Y020342*
X016547Y020415*
X016518Y020487*
X016485Y020556*
X016446Y020622*
X016403Y020686*
X016356Y020747*
X016304Y020804*
X016249Y020857*
X01619Y020907*
X016128Y020952*
X016063Y020993*
X015995Y021029*
X015924Y02106*
X015852Y021087*
X015778Y021108*
X015703Y021124*
X015627Y021134*
X01555Y02114*
X015473*
X015396Y021134*
X01532Y021124*
X015245Y021108*
X015171Y021087*
X015099Y02106*
X015028Y021029*
X01496Y020993*
X014895Y020952*
X014833Y020907*
X014774Y020857*
X014719Y020804*
X014667Y020747*
X01462Y020686*
X014577Y020622*
X014538Y020556*
X014505Y020487*
X014476Y020415*
X014452Y020342*
X014434Y020268*
X01442Y020192*
X014412Y020115*
X01441Y020039*
X014412Y019962*
X01442Y019885*
X014434Y019809*
X014452Y019735*
X014476Y019662*
X014505Y01959*
X014538Y019521*
X014577Y019455*
X01462Y019391*
X014667Y01933*
X014719Y019273*
X014774Y01922*
X014833Y01917*
X014895Y019125*
X014961Y019084*
X015028Y019048*
X015099Y019017*
X015171Y01899*
X015245Y018969*
X01532Y018953*
X015396Y018943*
X015473Y018937*
X01555*
X015627Y018943*
X015703Y018953*
X015778Y018969*
X015852Y01899*
X015924Y019017*
X015995Y019048*
X016063Y019084*
X016128Y019125*
X01619Y01917*
X016249Y01922*
X016304Y019273*
X016356Y01933*
X016403Y019391*
X016446Y019455*
X016485Y019521*
X016518Y01959*
X016547Y019662*
X016571Y019735*
X016589Y019809*
X016603Y019885*
X016611Y019962*
X016614Y020039*
X002244D02*
D01*
X002241Y020115*
X002233Y020192*
X002219Y020268*
X002201Y020342*
X002177Y020415*
X002148Y020487*
X002115Y020556*
X002076Y020622*
X002033Y020686*
X001986Y020747*
X001934Y020804*
X001879Y020857*
X00182Y020907*
X001758Y020952*
X001693Y020993*
X001625Y021029*
X001554Y02106*
X001482Y021087*
X001408Y021108*
X001333Y021124*
X001257Y021134*
X00118Y02114*
X001103*
X001026Y021134*
X00095Y021124*
X000875Y021108*
X000801Y021087*
X000729Y02106*
X000658Y021029*
X00059Y020993*
X000525Y020952*
X000463Y020907*
X000404Y020857*
X000349Y020804*
X000297Y020747*
X00025Y020686*
X000207Y020622*
X000168Y020556*
X000135Y020487*
X000106Y020415*
X000082Y020342*
X000064Y020268*
X00005Y020192*
X000042Y020115*
X00004Y020039*
X000042Y019962*
X00005Y019885*
X000064Y019809*
X000082Y019735*
X000106Y019662*
X000135Y01959*
X000168Y019521*
X000207Y019455*
X00025Y019391*
X000297Y01933*
X000349Y019273*
X000404Y01922*
X000463Y01917*
X000525Y019125*
X000591Y019084*
X000658Y019048*
X000729Y019017*
X000801Y01899*
X000875Y018969*
X00095Y018953*
X001026Y018943*
X001103Y018937*
X00118*
X001257Y018943*
X001333Y018953*
X001408Y018969*
X001482Y01899*
X001554Y019017*
X001625Y019048*
X001693Y019084*
X001758Y019125*
X00182Y01917*
X001879Y01922*
X001934Y019273*
X001986Y01933*
X002033Y019391*
X002076Y019455*
X002115Y019521*
X002148Y01959*
X002177Y019662*
X002201Y019735*
X002219Y019809*
X002233Y019885*
X002241Y019962*
X002244Y020039*
Y001142D02*
D01*
X002241Y001218*
X002233Y001295*
X002219Y001371*
X002201Y001445*
X002177Y001518*
X002148Y00159*
X002115Y001659*
X002076Y001725*
X002033Y001789*
X001986Y00185*
X001934Y001907*
X001879Y00196*
X00182Y00201*
X001758Y002055*
X001693Y002096*
X001625Y002132*
X001554Y002163*
X001482Y00219*
X001408Y002211*
X001333Y002227*
X001257Y002237*
X00118Y002243*
X001103*
X001026Y002237*
X00095Y002227*
X000875Y002211*
X000801Y00219*
X000729Y002163*
X000658Y002132*
X00059Y002096*
X000525Y002055*
X000463Y00201*
X000404Y00196*
X000349Y001907*
X000297Y00185*
X00025Y001789*
X000207Y001725*
X000168Y001659*
X000135Y00159*
X000106Y001518*
X000082Y001445*
X000064Y001371*
X00005Y001295*
X000042Y001218*
X00004Y001142*
X000042Y001065*
X00005Y000988*
X000064Y000912*
X000082Y000838*
X000106Y000765*
X000135Y000693*
X000168Y000624*
X000207Y000558*
X00025Y000494*
X000297Y000433*
X000349Y000376*
X000404Y000323*
X000463Y000273*
X000525Y000228*
X000591Y000187*
X000658Y000151*
X000729Y00012*
X000801Y000093*
X000875Y000072*
X00095Y000056*
X001026Y000046*
X001103Y00004*
X00118*
X001257Y000046*
X001333Y000056*
X001408Y000072*
X001482Y000093*
X001554Y00012*
X001625Y000151*
X001693Y000187*
X001758Y000228*
X00182Y000273*
X001879Y000323*
X001934Y000376*
X001986Y000433*
X002033Y000494*
X002076Y000558*
X002115Y000624*
X002148Y000693*
X002177Y000765*
X002201Y000838*
X002219Y000912*
X002233Y000988*
X002241Y001065*
X002244Y001142*
X016614D02*
D01*
X016611Y001218*
X016603Y001295*
X016589Y001371*
X016571Y001445*
X016547Y001518*
X016518Y00159*
X016485Y001659*
X016446Y001725*
X016403Y001789*
X016356Y00185*
X016304Y001907*
X016249Y00196*
X01619Y00201*
X016128Y002055*
X016063Y002096*
X015995Y002132*
X015924Y002163*
X015852Y00219*
X015778Y002211*
X015703Y002227*
X015627Y002237*
X01555Y002243*
X015473*
X015396Y002237*
X01532Y002227*
X015245Y002211*
X015171Y00219*
X015099Y002163*
X015028Y002132*
X01496Y002096*
X014895Y002055*
X014833Y00201*
X014774Y00196*
X014719Y001907*
X014667Y00185*
X01462Y001789*
X014577Y001725*
X014538Y001659*
X014505Y00159*
X014476Y001518*
X014452Y001445*
X014434Y001371*
X01442Y001295*
X014412Y001218*
X01441Y001142*
X014412Y001065*
X01442Y000988*
X014434Y000912*
X014452Y000838*
X014476Y000765*
X014505Y000693*
X014538Y000624*
X014577Y000558*
X01462Y000494*
X014667Y000433*
X014719Y000376*
X014774Y000323*
X014833Y000273*
X014895Y000228*
X014961Y000187*
X015028Y000151*
X015099Y00012*
X015171Y000093*
X015245Y000072*
X01532Y000056*
X015396Y000046*
X015473Y00004*
X01555*
X015627Y000046*
X015703Y000056*
X015778Y000072*
X015852Y000093*
X015924Y00012*
X015995Y000151*
X016063Y000187*
X016128Y000228*
X01619Y000273*
X016249Y000323*
X016304Y000376*
X016356Y000433*
X016403Y000494*
X016446Y000558*
X016485Y000624*
X016518Y000693*
X016547Y000765*
X016571Y000838*
X016589Y000912*
X016603Y000988*
X016611Y001065*
X016614Y001142*
X012108Y003171D02*
X011793D01*
X011635Y003328*
X011793Y003486*
X012108*
X012029Y003958D02*
X012108Y003879D01*
Y003722*
X012029Y003643*
X01195*
X011872Y003722*
Y003879*
X011793Y003958*
X011714*
X011635Y003879*
Y003722*
X011714Y003643*
X012108Y004115D02*
X012029D01*
X011872Y004273*
X012029Y00443*
X012108*
X011872Y004273D02*
X011635D01*
X012029Y004903D02*
X012108Y004824D01*
Y004666*
X012029Y004588*
X01195*
X011872Y004666*
Y004824*
X011793Y004903*
X011714*
X011635Y004824*
Y004666*
X011714Y004588*
X005294Y00431D02*
Y004624D01*
X00553*
X005451Y004467*
Y004388*
X00553Y00431*
X005687*
X005766Y004388*
Y004546*
X005687Y004624*
X005294Y004152D02*
X005609D01*
X005766Y003995*
X005609Y003837*
X005294*
X004467Y005097D02*
X004782D01*
X004939Y004939*
X004782Y004782*
X004467*
Y004625D02*
X004939D01*
Y004388*
X004861Y00431*
X004782*
X004703Y004388*
Y004625*
Y004388*
X004625Y00431*
X004546*
X004467Y004388*
Y004625*
Y004152D02*
X004861D01*
X004939Y004074*
Y003916*
X004861Y003837*
X004467*
X004546Y003365D02*
X004467Y003444D01*
Y003601*
X004546Y00368*
X004625*
X004703Y003601*
Y003444*
X004782Y003365*
X004861*
X004939Y003444*
Y003601*
X004861Y00368*
X004467Y009546D02*
X004782D01*
X004939Y009388*
X004782Y009231*
X004467*
X004546Y008759D02*
X004467Y008837D01*
Y008995*
X004546Y009073*
X004861*
X004939Y008995*
Y008837*
X004861Y008759*
X004546Y008286D02*
X004467Y008365D01*
Y008522*
X004546Y008601*
X004861*
X004939Y008522*
Y008365*
X004861Y008286*
X004349Y015057D02*
X004821D01*
Y014821*
X004743Y014743*
X004664*
X004585Y014821*
Y015057*
Y014821*
X004506Y014743*
X004428*
X004349Y014821*
Y015057*
X004506Y014506D02*
Y014349D01*
X004585Y01427*
X004821*
Y014506*
X004743Y014585*
X004664Y014506*
Y01427*
X004428Y014034D02*
X004506D01*
Y014113*
Y013955*
Y014034*
X004743*
X004821Y013955*
Y013483D02*
Y013641D01*
X004743Y013719*
X004585*
X004506Y013641*
Y013483*
X004585Y013404*
X004664*
Y013719*
X004506Y013247D02*
X004821D01*
X004664*
X004585Y013168*
X004506Y01309*
Y013011*
X004821Y012775D02*
Y012617D01*
Y012696*
X004506*
Y012775*
Y012302D02*
Y012145D01*
X004585Y012066*
X004821*
Y012302*
X004743Y012381*
X004664Y012302*
Y012066*
X010373Y018919D02*
X010451Y018997D01*
X010609*
X010687Y018919*
Y01884*
X010609Y018761*
X010451*
X010373Y018683*
Y018604*
X010451Y018525*
X010609*
X010687Y018604*
X010136Y018525D02*
X009979D01*
X0099Y018604*
Y018761*
X009979Y01884*
X010136*
X010215Y018761*
Y018604*
X010136Y018525*
X009743Y01884D02*
Y018604D01*
X009664Y018525*
X009428*
Y01884*
X009271D02*
Y018525D01*
Y018683*
X009192Y018761*
X009113Y01884*
X009034*
X008483D02*
X00872D01*
X008798Y018761*
Y018604*
X00872Y018525*
X008483*
X00809D02*
X008247D01*
X008326Y018604*
Y018761*
X008247Y01884*
X00809*
X008011Y018761*
Y018683*
X008326*
X007854Y018446D02*
X007539D01*
X007381Y018997D02*
X007224D01*
X007303*
Y018525*
X007381*
X007224*
X006909D02*
X006752D01*
X006673Y018604*
Y018761*
X006752Y01884*
X006909*
X006988Y018761*
Y018604*
X006909Y018525*
X006516Y018997D02*
X006201D01*
X006358*
Y018525*
X015139Y004552D02*
X015339D01*
X015239*
Y004052*
X015339Y003952*
X015439*
X015539Y004052*
X014939Y004552D02*
X01454D01*
Y004452*
X014939Y004052*
Y003952*
X001714Y004434D02*
X001914D01*
X001814*
Y003934*
X001914Y003834*
X002014*
X002114Y003934*
X001114Y004434D02*
X001314Y004334D01*
X001514Y004134*
Y003934*
X001414Y003834*
X001214*
X001114Y003934*
Y004034*
X001214Y004134*
X001514*
X001754Y014001D02*
X001953D01*
X001853*
Y013501*
X001953Y013401*
X002053*
X002153Y013501*
X001554Y013901D02*
X001454Y014001D01*
X001254*
X001154Y013901*
Y013801*
X001254Y013701*
X001354*
X001254*
X001154Y013601*
Y013501*
X001254Y013401*
X001454*
X001554Y013501*
X001675Y009276D02*
X001875D01*
X001775*
Y008776*
X001875Y008676*
X001975*
X002075Y008776*
X001075Y008676D02*
X001475D01*
X001075Y009076*
Y009176*
X001175Y009276*
X001375*
X001475Y009176*
X007769Y005315D02*
X007835Y00525D01*
Y005118*
X007769Y005053*
X007507*
X007441Y005118*
Y00525*
X007507Y005315*
X007835Y005643D02*
Y005512D01*
X007769Y005446*
X007507*
X007441Y005512*
Y005643*
X007507Y005709*
X007769*
X007835Y005643*
X007441Y00584D02*
X007835D01*
X007441Y006102*
X007835*
X007441Y006233D02*
X007835D01*
X007441Y006496*
X007835*
X007441Y006627D02*
Y006758D01*
Y006693*
X007835*
X007769Y006627*
G54D12*
X013268Y002358D02*
X016968D01*
Y005906*
X013268Y002358D02*
Y005906D01*
X016968*
X003661Y012953D02*
X004134D01*
X003898Y012717D02*
Y013189D01*
Y014291D02*
Y014764D01*
X003661Y008071D02*
X004134D01*
X003898Y007835D02*
Y008307D01*
Y009409D02*
Y009882D01*
X003622Y003386D02*
X004094D01*
X003858Y00315D02*
Y003622D01*
Y004724D02*
Y005197D01*
X012717Y003071D02*
Y003543D01*
Y004646D02*
Y005118D01*
X01248Y004882D02*
X012953D01*
X-000315Y007047D02*
X003386D01*
Y010594*
X-000315Y007047D02*
Y010594D01*
X003386*
X-000236Y01189D02*
X003465D01*
Y015437*
X-000236Y01189D02*
Y015437D01*
X003465*
X-000315Y002441D02*
X003386D01*
Y005988*
X-000315Y002441D02*
Y005988D01*
X003386*
X007232Y004854D02*
Y006854D01*
X006232D02*
X007232D01*
X006232Y004854D02*
Y006854D01*
Y004854D02*
X007232D01*
M02*