%FSTAX24Y24*%
%MOIN*%
%SFA1B1*%

%IPPOS*%
%ADD10C,0.009800*%
%ADD11C,0.010000*%
%ADD12C,0.007900*%
%ADD13C,0.006000*%
%ADD14C,0.007000*%
%ADD15C,0.006000*%
%ADD16C,0.011800*%
%ADD17R,0.079100X0.014200*%
%ADD18R,0.014200X0.079100*%
%ADD19R,0.079100X0.014200*%
%ADD20R,0.079100X0.014200*%
%ADD21R,0.102400X0.015700*%
%ADD22R,0.157500X0.015700*%
%LNpcb1-1*%
%LPD*%
G36*
X008504Y008346D02*
X00811D01*
X008307Y008661*
X008504Y008346*
G37*
G36*
X008543Y004388D02*
X00815D01*
X008346Y004703*
X008543Y004388*
G37*
G36*
X005767Y000993D02*
X005773Y000992D01*
X005778Y000989*
X005781Y000981*
X005871Y0008*
X005873Y000796*
X005874Y000794*
X005875Y000793*
X005951Y000792*
X005955Y000789*
X005959Y000783*
X006052Y000595*
X006073Y000554*
X006076Y000546*
X006121Y000458*
X006124Y000452*
X006212Y000275*
X006215Y000269*
X006218Y000266*
X006219Y000263*
X006218Y000259*
X006216Y000257*
X00621Y000256*
X006143Y000257*
X006139Y000261*
X006135Y000266*
X006134Y000267*
X006129Y000278*
Y00028*
X006124Y000287*
Y00029*
X006118Y000301*
X006114Y000309*
X006111Y000314*
X006106Y000325*
X006102Y000333*
X006097Y000342*
Y000344*
X006093Y00035*
X006089Y000359*
X006088Y000361*
X006085Y000367*
X006081Y000376*
X005878Y00078*
X005875Y000786*
X005873Y000791*
X005869Y000792*
X005799*
X005793Y000797*
X005791Y000798*
X005756Y000869*
X00575Y00088*
X00574Y000901*
X005727Y000927*
X005724Y000933*
X005699Y000983*
X005697Y000984*
X005696Y000988*
X005697Y00099*
X005699Y000992*
X005703Y000993*
X005711Y000994*
X005718*
X005765*
X005767Y000993*
G37*
G36*
X006154Y000859D02*
X006156Y000857D01*
X006157Y000855*
X00616Y000852*
X006164Y000843*
X006182Y000807*
X006184Y000804*
X006189Y000802*
X006217Y000803*
X006264Y000802*
X006268Y000799*
X00627Y000797*
X006271Y000795*
X006274Y00079*
X006275Y000789*
X006277Y000784*
X006282Y000773*
X006285Y000768*
X006315Y000708*
X006317Y000704*
X006323Y000693*
X006324Y000689*
X006351Y000634*
X006355Y000629*
X006357Y000623*
X006363Y000612*
X006365Y000608*
X006379Y00058*
X006381Y000576*
X006404Y000531*
X006405Y000527*
X006419Y000499*
X006421Y000495*
X006427Y000484*
X00643Y000478*
X006444Y000451*
X006446Y000446*
X006451Y000437*
X006454Y00043*
X006459Y00042*
X006462Y000414*
X006467Y000405*
X006469Y000399*
X006475Y000388*
X006478Y000382*
X006483Y000373*
X006486Y000366*
X00649Y000358*
X006491Y000357*
X006495Y000356*
X006498Y000357*
X0065Y000359*
X006501Y000362*
X006503Y000367*
X006505Y000371*
X006509Y000376*
Y000379*
X006511Y000383*
X006512Y000385*
X006516Y000391*
X006517Y000394*
X00652Y0004*
Y000402*
X006524Y000407*
X006526Y000413*
X006528Y000417*
X006532Y000423*
X006533Y000426*
X006539Y000437*
X006542Y000445*
X006544Y000449*
X006548Y000455*
X006551Y000463*
X006552Y000466*
X006557Y000472*
Y000475*
X006563Y000486*
X006566Y000492*
X006567Y000496*
X006568Y000498*
X006572Y000504*
X006575Y000512*
X00658Y000518*
X006583Y000525*
X006584Y00053*
X006588Y000536*
X006591Y000543*
X006596Y00055*
X006598Y000555*
X0066Y00056*
X006604Y000567*
X006606Y000573*
X006611Y000582*
X006615Y000589*
X00662Y000599*
X006623Y000606*
X006625Y00061*
X006629Y000616*
X006632Y000624*
X006636Y000631*
X006638Y000636*
X00664Y000641*
X006643Y000646*
X006647Y000655*
X006652Y000662*
X006655Y00067*
X006659Y000678*
X006663Y000687*
X006668Y000694*
X006671Y000702*
X006675Y00071*
X006679Y000719*
X006683Y000726*
X006688Y000736*
X006691Y000741*
X006695Y000751*
X006699Y000758*
X006704Y000768*
X006707Y000773*
X006711Y000783*
X006715Y00079*
X00672Y000799*
X006723Y000802*
X006729Y000803*
X006797Y000802*
X006798Y000801*
X006799Y000797*
Y000792*
X006795Y000787*
X006793Y000784*
X00679Y000776*
X006786Y00077*
X006784Y000766*
X006782Y00076*
X006779Y000756*
X006775Y000747*
X006771Y000739*
X006767Y00073*
X006763Y000724*
X006759Y000715*
X006755Y000707*
X006751Y000698*
X006747Y000692*
X006742Y000681*
X006739Y000675*
X006735Y000666*
X006731Y00066*
X006726Y000649*
X006723Y000643*
X006719Y000634*
X006715Y000626*
X00671Y000617*
X006707Y000611*
X006704Y000607*
X006703Y000603*
X006702Y000599*
X006698Y000594*
X006697Y000592*
X006695Y000588*
X006693Y000582*
X006691Y000579*
X006689Y000575*
X006687Y000571*
X006685Y000565*
X006683Y000564*
Y000562*
X00668Y000558*
X006678Y000553*
X006676Y000549*
X006674Y000546*
X006671Y000539*
X006669Y000533*
X006668Y000532*
X006667Y00053*
X006665Y000529*
X006663Y000523*
X006662Y00052*
X006659Y000515*
X006656Y00051*
X006654Y000506*
X006653Y000501*
X006652Y0005*
X006651Y000499*
X006648Y000494*
X006646Y00049*
X006644Y000485*
X006642Y000483*
X006641Y000481*
X006639Y000475*
X006637Y00047*
X006636Y000468*
X006635Y000467*
X006633Y000465*
X006631Y000461*
X006628Y000453*
X006626Y000451*
X006625Y000449*
X006622Y000441*
X00662Y000437*
X006616Y000431*
X006612Y000421*
X006611Y000419*
X00661Y000418*
X006609Y000416*
X006604Y000405*
X0066Y000399*
X006597Y000391*
X006593Y000385*
X006591Y00038*
X006589Y000375*
X006585Y000368*
X006583Y000362*
X006578Y000353*
X006574Y000345*
X006569Y000336*
X006566Y000329*
X006562Y000321*
X006558Y000314*
X006553Y000304*
X00655Y000297*
X006546Y000289*
X006541Y00028*
X006537Y000272*
X006535Y00027*
X006534Y000268*
X006533Y000267*
X006528Y000265*
X006517Y000266*
X006459Y000265*
X006454Y000269*
X006452Y00027*
X006451Y000272*
X006446Y000279*
X006444Y000285*
X006443Y000289*
X006441Y00029*
Y000292*
X006436Y000301*
X006433Y000307*
X006428Y000318*
X006425Y000324*
X00642Y000333*
X006419Y000336*
X006415Y000343*
X006412Y000351*
X006409Y000357*
X006404Y000367*
X0064Y000374*
X006396Y000383*
X006393Y000389*
X006388Y000398*
X006384Y000406*
X00638Y000415*
X006377Y000421*
X006372Y00043*
X006368Y000438*
X006364Y000447*
X00636Y000455*
X006356Y000464*
X006352Y00047*
X006348Y000479*
X006344Y000487*
X00634Y000496*
X006336Y000502*
X006332Y000511*
X006328Y000519*
X006324Y000528*
X00632Y000534*
X006316Y000543*
X006312Y000551*
X006308Y00056*
X006304Y000566*
X006299Y000577*
X006296Y000583*
X006292Y000592*
X006287Y000599*
X006283Y000609*
X00628Y000615*
X006276Y000624*
X006272Y000631*
X006267Y000641*
X006263Y000648*
X006259Y000657*
X006256Y000663*
X006251Y000673*
X006247Y00068*
X006244Y000688*
X00624Y000695*
X006235Y000705*
X006231Y000712*
X006227Y000721*
X006224Y000727*
X006219Y000738*
X006215Y000744*
X006211Y000753*
X006207Y000761*
X006203Y000768*
X006199Y000776*
X006196Y000784*
X006193Y000788*
X006191Y00079*
X006187Y000792*
X00618*
X006178*
X006112*
X006107Y000796*
X006106Y000798*
X006104Y000799*
X006098Y000812*
X00608Y000848*
X006078Y000852*
X006077Y000855*
X00608Y000859*
X006081Y00086*
X006084Y000861*
X00609Y000862*
X00614*
X006148*
X006154Y000859*
G37*
G36*
X00822Y0008D02*
Y000794D01*
X008216Y000787*
X008214Y000785*
X008213Y000781*
X008211Y000776*
X008208Y000771*
X008204Y000763*
X008201Y000757*
X008198Y000752*
X008195Y000744*
X008193Y000741*
X008191Y000739*
X00819Y000738*
X008184Y000735*
X007996Y000734*
X007993Y000731*
X007992Y000725*
X007991Y000272*
X007987Y000267*
X007981Y000265*
X007925Y000266*
X00792Y00027*
X007919Y000276*
Y000729*
X007915Y000733*
X007911Y000735*
X007723Y000736*
X007717Y00074*
X007716Y000741*
X007697Y000781*
X007692Y000789*
X007691Y00079*
X00769Y000794*
X007689Y000796*
X007692Y0008*
X007693Y000802*
X0077Y000803*
X008206*
X008217*
X00822Y0008*
G37*
G36*
X009215Y000813D02*
X009217Y000812D01*
X009228Y000811*
X009246Y00081*
X009248Y000809*
X009267Y000808*
X009269Y000807*
X00928*
X009283Y000806*
X009288Y000805*
X009293Y000804*
X009302Y000802*
X009324Y000799*
X009328Y000798*
X009332Y000797*
X009338Y000795*
X009341Y000794*
X009347Y000793*
X009351Y000792*
X00936Y00079*
X009363Y000789*
X00937Y000787*
X009376Y000786*
X009379Y000785*
X009386Y000784*
X009391Y000783*
X009394Y000782*
X009397Y00078*
X009398Y000778*
X0094Y000774*
X009399Y000768*
X009394Y00076*
X00939Y000751*
X009384Y000739*
X009377Y000726*
X009374Y00072*
X009373Y000719*
X009369Y000718*
X009363Y000719*
X009361Y00072*
X009357Y000721*
X009352Y000722*
X009347Y000723*
X009331Y000728*
X009325*
X009321Y000729*
X009313Y000731*
X009309*
X009304Y000732*
X009294Y000735*
X009283Y000736*
X009259Y00074*
X009249Y000741*
X00923Y000744*
X009209*
X009169Y000745*
X009167Y000744*
X009154Y000745*
X009138Y000744*
X009129Y000743*
X009122Y000742*
X009117Y000741*
X009113*
X009105Y000739*
X0091Y000738*
X009083Y000735*
X009078Y000733*
X009074Y000732*
X009069Y00073*
X009057Y000726*
X00905Y000722*
X009044Y000718*
X009036Y000712*
X009035Y000711*
X009033Y00071*
X009027Y000705*
Y000703*
X009023Y000699*
X009022Y000698*
X009018Y000691*
X009017Y000686*
X009016Y000683*
X009015Y000672*
X009016Y00066*
X009017Y000657*
X009022Y000649*
X009024Y000646*
X009027Y000643*
Y000641*
X009032Y000637*
X009034Y000636*
X009039Y000631*
X00904Y00063*
X009046Y000627*
X009047Y000626*
X009054Y000622*
X009065Y000617*
X009071Y000614*
X009078Y000611*
X009087Y000607*
X009091Y000606*
X009097Y000604*
X009113Y000599*
X009121Y000596*
X009125Y000595*
X009131Y000594*
X009135Y000592*
X009141Y000591*
X009146Y00059*
X009157Y000586*
X00916*
X009165Y000584*
X009174Y000583*
X009186Y000579*
X009192Y000577*
X009197Y000576*
X009201Y000575*
X009205Y000574*
X009209Y000573*
X009213Y000572*
X009219Y00057*
X009225Y000569*
X009231Y000567*
X009235*
X00924Y000565*
X009243*
X009249Y000563*
X009252Y000562*
X009258Y00056*
X009263Y000559*
X009266Y000558*
X009273Y000556*
X009282Y000554*
X009285Y000553*
X009296Y000549*
X009299Y000548*
X009304Y000546*
X009309Y000545*
X009321Y000541*
X009334Y000536*
X009339Y000534*
X009343Y000532*
X009349Y000529*
X00936Y000524*
X009374Y000517*
X00938Y000513*
X009397Y000502*
X0094Y000499*
X009402Y000498*
X009408Y000492*
X00941Y000491*
X009414Y000487*
X009415Y000485*
X009423Y000477*
Y000476*
X009425Y000474*
X009426Y000472*
X009428Y000471*
Y000469*
X00943Y000467*
X009435Y000458*
X009439Y000449*
X00944Y000446*
X009445Y000428*
X009446Y000425*
X009447Y000414*
X009446Y000388*
X009445Y000385*
X009444Y000382*
X009441Y000371*
X00944Y000367*
X009439Y000362*
X009437Y000358*
X009432Y000347*
X009431Y000345*
X009426Y000338*
X009422Y000332*
X00942Y00033*
X009418Y000327*
X009417Y000325*
X009403Y000311*
X009401*
X009398Y000307*
X009396Y000306*
X009388Y000301*
X009383Y000298*
X009376Y000294*
X009371Y00029*
X009365Y000288*
X009361Y000287*
X009352Y000282*
X009346Y00028*
X009338Y000277*
X009333Y000276*
X009328Y000274*
X009314Y000271*
X009311Y00027*
X009306Y000269*
X009299Y000267*
X009289Y000265*
X009286Y000264*
X009278*
X009265Y000261*
X009261*
X009254Y00026*
X009245Y000259*
X009238Y000258*
X009212Y000257*
X009205Y000256*
X009153*
X009151Y000257*
X009113Y000258*
X00911Y000259*
X009097Y00026*
X009096*
X009086Y000262*
X009083Y000263*
X009072Y000264*
X009064Y000265*
X009054Y000266*
X009046Y000268*
X009036Y000271*
X009021Y000273*
X009011Y000276*
X008998Y00028*
X008985Y000282*
X008982Y000283*
X008978Y000285*
X008968Y000288*
X008965Y000289*
X008954Y000293*
X008949Y000296*
X008947Y000298*
X008946Y000303*
X00895Y00031*
X00897Y00035*
X008973Y000353*
X008977*
X008987*
X008989Y000352*
X008997Y000349*
X009004Y000347*
X009011Y000345*
X009017Y000344*
X00902Y000343*
X009029Y000341*
X009035Y000339*
X009038Y000338*
X009044*
X009047Y000337*
X009057Y000335*
X009074Y000332*
X009079Y000331*
X009092Y00033*
X0091Y000329*
X00911Y000328*
X009117Y000327*
X009127Y000326*
X009138Y000324*
X009228*
X00923Y000325*
X009242Y000327*
X009255Y000328*
X009269Y00033*
X009276*
X009285Y000332*
X009297Y000336*
X009307Y000338*
X009312Y00034*
X009317Y000342*
X009322Y000344*
X009341Y000354*
X009349Y00036*
X00936Y000371*
Y000372*
X009363Y000375*
X009364Y000377*
X009366Y000381*
X009368Y000387*
X009369Y00039*
X00937Y000396*
X009371Y000399*
X009372Y000404*
Y000407*
X009371Y000409*
X00937Y000414*
X009368Y000424*
X009366Y000428*
X009363Y000433*
X00936Y000435*
Y000437*
X009358Y000439*
X009357Y000441*
X009347Y00045*
X009346Y000451*
X009344Y000453*
X009342Y000454*
X009336Y000458*
X009335Y000459*
X00933Y000462*
X009322Y000465*
X009306Y000473*
X009301Y000475*
X009296Y000477*
X009279Y000482*
X009271Y000485*
X009264Y000487*
X009252Y000491*
X009249*
X009241Y000494*
X009235Y000496*
X009225Y000498*
X00922Y000499*
X009213Y000501*
X009209Y000502*
X009202Y000504*
X009196Y000505*
X009192Y000506*
X009189Y000507*
X009184Y000508*
X009174Y000511*
X009165Y000513*
X00916Y000514*
X00915Y000516*
X009146Y000517*
X00914Y000519*
X009136Y00052*
X00913Y000521*
X009123Y000523*
X009111Y000527*
X009105Y000528*
X0091Y00053*
X009095Y000531*
X009085Y000535*
X00908Y000536*
X009072Y000538*
X009063Y000542*
X009055Y000544*
X009047Y000547*
X009036Y000552*
X009032Y000554*
X009009Y000565*
X009003Y000569*
X008993Y000576*
X00899Y000578*
X008985Y000582*
X008982Y000584*
X008981Y000586*
X008979*
X008976Y00059*
X008974Y000591*
X00897Y000594*
X008969Y000596*
X008965Y0006*
X008964Y000602*
X008963Y000604*
X008962Y000605*
X00896Y000607*
X008959Y000609*
X008955Y000615*
X008948Y000631*
X008946Y000635*
X008944Y000641*
X008943Y000646*
X008942Y000651*
X008941Y00066*
Y000683*
X008942Y000686*
X008943Y000694*
X008945Y000702*
Y000706*
X008948Y000712*
X00895Y000717*
X008956Y000729*
X008964Y000741*
X008968Y000746*
X00897Y000749*
X008978Y000757*
X00898Y000758*
X008982Y00076*
X008984Y000761*
X008988Y000765*
X008989*
X009001Y000774*
X009014Y000781*
X009023Y000785*
X009028Y000787*
X009039Y000792*
X009042*
X009055Y000797*
X009059Y000798*
X009063Y000799*
X009069Y0008*
X009079Y000802*
X009082Y000803*
X009087Y000804*
X009093Y000806*
X009108Y000807*
X009111Y000808*
X009127Y000809*
X009139Y000811*
X009162Y000812*
X009164Y000813*
X009172*
X009215*
G37*
G36*
X008849Y000802D02*
X008853Y000799D01*
X008855Y000794*
X008854Y000422*
X008853Y000419*
X008852Y00041*
X008851Y000406*
X008847Y000389*
X008844Y00038*
X008842Y000375*
X00884Y000369*
X008831Y000353*
X008827Y000347*
X008826Y000345*
X008822Y000341*
X00882Y000338*
X008817Y000335*
X008816Y000334*
X008812Y00033*
X008811Y000328*
X008805Y000322*
X008803Y000321*
X008798Y000315*
X008796Y000314*
X008791Y00031*
X00879Y000309*
X008788Y000308*
X008782Y000304*
X008781Y000303*
X008772Y000297*
X008763Y000292*
X008755Y000289*
X008751Y000287*
X008739Y000281*
X008735Y00028*
X008727Y000277*
X008723Y000275*
X008718Y000274*
X008708Y000272*
X008705Y000271*
X008695Y000268*
X008685Y000265*
X008674Y000264*
X00867Y000263*
X008665Y000262*
X008662Y000261*
X008657*
X00865Y00026*
X008642Y000259*
X008637Y000258*
X008615Y000257*
X008606Y000256*
X00856*
X008558Y000257*
X008547Y000258*
X008526*
X008523Y000259*
X008511Y00026*
X008507Y000262*
X008496Y000263*
X008485Y000265*
X00848Y000266*
X008472Y000267*
X00846Y000271*
X008456Y000272*
X008451Y000273*
X008447Y000274*
X008441Y000277*
X008433Y00028*
X00843*
X008422Y000283*
X008413Y000288*
X008409Y00029*
X008402Y000294*
X008389Y000301*
X008386Y000303*
X008381Y000306*
X008367Y000316*
X00835Y000334*
X008349Y000335*
X008344Y00034*
X008343Y000342*
X008333Y000356*
X008331Y000361*
X008327Y000367*
X008325Y000375*
X008319Y000388*
X008317Y000398*
X008316Y000404*
X008315Y000407*
X008313Y000421*
X008312Y000794*
X008313Y000797*
X008315Y000799*
Y0008*
X008319Y000802*
X008322Y000803*
X008379Y000802*
X008383Y000799*
X008384Y000796*
X008385*
X008386Y000427*
X008388Y000417*
X008389Y000413*
X008391Y000406*
X008394Y000401*
X0084Y000389*
X008404Y000386*
Y000384*
X008407Y000382*
X008408Y00038*
X00841Y000378*
X008412Y000377*
X008416Y000372*
X008418Y00037*
X008419Y000369*
X008424Y000366*
X008425Y000364*
X008427*
X008433Y000359*
X008434*
X00844Y000354*
X008446Y000352*
X00846Y000345*
X008473Y00034*
X008478Y000339*
X008485Y000337*
X008491Y000335*
X008497Y000333*
X008504Y000332*
X008518Y000329*
X008522Y000328*
X008534Y000327*
X008537*
X00855Y000326*
X008553Y000325*
X008556Y000324*
X008617Y000325*
X008619Y000326*
X008628Y000327*
X008639Y000328*
X008646Y000329*
X008653Y00033*
X008662Y000331*
X008665Y000332*
X008669Y000333*
X008677Y000336*
X008684Y000338*
X008689Y000339*
X008697Y000342*
X008701Y000343*
X008709Y000346*
X00873Y000358*
X008735Y000361*
X008737Y000362*
X008745Y000368*
X008746Y000369*
X008748Y00037*
X008753Y000374*
X008757Y000379*
X008758*
X008759Y000381*
X008761Y000382*
X008762Y000384*
X008763Y000386*
X008764Y000388*
X008767Y00039*
X008768Y000392*
X008772Y000398*
X008773Y0004*
X008775Y000406*
X008776Y000409*
X008778Y000414*
X008779Y000419*
X00878Y000424*
X008782Y000433*
X008783Y000445*
X008784Y000798*
X008787Y000802*
X008791Y000803*
X008849Y000802*
G37*
G36*
X010753Y000808D02*
X010756Y000805D01*
X010757Y000802*
X010755Y000798*
X010754Y000796*
X010753Y000794*
X010749Y000789*
X010748Y000785*
X010744Y000778*
X010727Y000743*
X010723Y000738*
X010721Y000737*
X010717Y000735*
X010399Y000734*
X010395Y000733*
X010384Y000728*
X01038Y000727*
X010374Y000723*
X01036Y000713*
X010358Y000711*
X010356Y00071*
X010352Y000705*
X010351Y000704*
X010348Y000701*
X010347Y000699*
X010345Y000697*
X010344Y000695*
X010342Y000694*
Y000692*
X010336Y000684*
X010332Y000677*
X010326Y000662*
X010323Y000654*
X010321Y00065*
X010318Y000641*
X010316Y000635*
X010315Y000629*
X010311Y000618*
X01031Y000611*
X010307Y000593*
X010306Y000582*
X010305Y000578*
X010304Y000571*
Y000503*
X010305Y0005*
X010307Y000481*
X010309Y00047*
X01031Y000464*
X010313Y000451*
X010316Y000439*
X010318Y000429*
X010323Y00042*
X010326Y000411*
X010328Y000406*
X010335Y000393*
X010336Y000392*
X01034Y000386*
X010341Y000384*
X010346Y000376*
X010348Y000373*
X010354Y000367*
X010355Y000366*
X010358Y000364*
X010365Y000357*
X010366Y000356*
X010368Y000354*
X010376Y00035*
X010381Y000347*
X010384Y000346*
X010388Y000344*
X010397Y000342*
X010403Y00034*
X01041Y000339*
X010419Y000338*
X010726*
X010729*
X010736*
X010739Y000335*
X010741Y000328*
X01074Y000271*
X010736Y000266*
X010733Y000265*
X010722Y000266*
X010409Y000265*
X010407Y000266*
X010394Y000267*
X010392Y000268*
X010386Y000269*
X010379Y000271*
X010375Y000272*
X010372*
X010368Y000273*
X010361Y000276*
X010354Y000279*
X010348Y000281*
X010344Y000282*
X010339Y000286*
X010327Y000293*
X010324Y000295*
X010323Y000296*
X010315Y000302*
X010313Y000304*
X010312Y000305*
X010295Y000321*
X010294Y000323*
X010292Y000325*
X010291Y000327*
X010287Y000332*
X010281Y000342*
X010277Y000348*
X010276Y00035*
X010272Y000356*
X010268Y000363*
X010266Y000369*
X010262Y000378*
X010259Y000387*
X010257Y000391*
X010254Y000398*
X010253Y000404*
X010252Y000408*
X010251Y000413*
X010247Y000424*
X010246Y00043*
X010245Y000433*
X010244Y000444*
X010243Y000447*
X010242Y000454*
X010241Y000457*
X01024Y000462*
X010238Y000479*
X010237Y000485*
X010236Y000516*
X010237Y000595*
X010238Y000598*
X010239Y000607*
X010241Y000617*
X010243Y000624*
X010244Y000636*
X010245Y000639*
X010246Y000646*
X010247Y000649*
X010252Y000665*
X010253Y00067*
X010255Y000677*
X010257Y000682*
X010259Y000688*
X010263Y000698*
X010268Y000708*
X010269Y000712*
X010274Y000721*
X010278Y000727*
X010283Y000735*
X010287Y000742*
X010289Y000745*
X010291Y000747*
X010292Y000748*
X010294Y000751*
X010295Y000752*
X010298Y000755*
X010299Y000757*
X010305Y000763*
Y000764*
X010308Y000766*
X010313Y000771*
X010315Y000772*
X010318Y000775*
X010319Y000776*
X010321Y000777*
X010323Y000778*
X010327Y000782*
X010342Y000791*
X010346Y000792*
X010357Y000797*
X010361Y000799*
X010368Y000801*
X010373Y000802*
X010386Y000806*
X010396Y000807*
X010415Y000808*
X010418Y000809*
X010476*
X010753Y000808*
G37*
G36*
X010175D02*
X010179Y000806D01*
Y000805*
X010178Y000799*
X010175Y000795*
X010174Y000794*
X010173Y000789*
X010163Y00077*
X01016Y000764*
X010156Y000755*
X010152Y000749*
X010148Y000741*
X010144Y000737*
X010138Y000735*
X009821Y000734*
X009818Y000733*
X009813Y000731*
X009806Y000728*
X009801Y000727*
X009795Y000723*
X009794Y000722*
X009792Y000721*
X009784Y000715*
X009779Y000711*
X009778Y00071*
X009777Y000709*
X009776Y000707*
X009771Y000702*
X00977Y0007*
X009768Y000699*
X009767Y000697*
X009763Y000693*
X009759Y000685*
X009755Y000679*
X009753Y000674*
X009747Y000663*
X009745Y000657*
X009743Y000649*
X009739Y000641*
X009736Y000627*
X009733Y00062*
X009731Y000613*
X00973Y000607*
X009729Y000599*
Y000585*
X009728Y000582*
X009727Y000573*
X009726Y000571*
X009725Y000563*
X009726Y000561*
Y000506*
X009727Y000496*
X009729Y000484*
Y000476*
X009731Y000464*
X009732Y000459*
X009735Y00045*
X009736Y000446*
X009737Y000442*
X009738Y000436*
X009739Y000433*
X009741Y000427*
X009745Y000417*
X009747Y000411*
X009751Y000405*
X009753Y0004*
X009758Y000391*
X009761Y000386*
X009765Y00038*
X009767Y000377*
X009768Y000376*
X00977Y000374*
X009771Y000372*
X009783Y00036*
X009785Y000359*
X00979Y000354*
X009799Y000349*
X009805Y000346*
X009818Y000342*
X009825Y00034*
X009833Y000339*
X009838Y000338*
X009848*
X00985*
X009853*
X010151*
X010159Y000337*
X010162Y000335*
X010164Y000328*
X010163Y000271*
X01016Y000267*
X010154Y000265*
X009822Y000266*
X00982Y000267*
X009811Y000268*
X009809Y000269*
X009799Y000271*
X009789Y000273*
X009785Y000275*
X009774Y00028*
X00977*
X009763Y000285*
X009758Y000288*
X00975Y000292*
X009748Y000294*
X009747Y000295*
X009745Y000296*
X009743Y000297*
X009736Y000303*
X009733Y000306*
X009732*
X009729Y000309*
X009728Y000311*
X009725Y000314*
X009723Y000315*
X009721Y000317*
X00972Y000319*
X009714Y000325*
X009711Y00033*
X009708Y000333*
X009707Y000335*
X009703Y00034*
X009698Y000349*
X009693Y000356*
X009692Y000358*
X00969Y000362*
X009689Y000366*
X009687Y000371*
X009686Y000372*
X009682Y000382*
X00968Y000388*
X009678Y000395*
X009677Y000396*
X009675Y0004*
X009674Y000406*
X009673Y000411*
X009671Y000417*
X009669Y000424*
X009666Y000431*
Y000437*
X009664Y000449*
X009663Y000454*
Y000459*
X009661Y000469*
X009659Y000477*
X009658Y000491*
Y000499*
X009657Y000574*
X009658Y000577*
X009659Y000593*
X00966Y000602*
X009661Y000604*
Y00061*
X009662Y000614*
X009664Y000624*
X009665Y000627*
X009666Y00064*
X009667Y000648*
X009671Y000656*
X009672Y000662*
X009673Y000667*
X009674Y000671*
X009675Y000675*
X00968Y000685*
X009682Y000692*
X009684Y000697*
X009687Y000702*
X009688Y000706*
X00969Y000712*
X009692Y000715*
X009696Y00072*
X009698Y000726*
X009701Y000731*
X009703Y000733*
X009708Y000742*
X009713Y000747*
X009714Y000748*
X009719Y000753*
Y000755*
X009721Y000757*
X009722Y000758*
X009732Y000769*
X009734Y00077*
X009739Y000775*
X009741Y000776*
X009753Y000784*
X009754Y000785*
X009759Y000788*
X009761Y000789*
X009774Y000795*
X009783Y000799*
X009788Y0008*
X009793Y000801*
X009807Y000806*
X009817Y000807*
X009836Y000808*
X009838Y000809*
X010175Y000808*
G37*
G36*
X007442Y000802D02*
X007445D01*
X007461Y000801*
X007476Y000799*
X007483*
X007493Y000797*
X007497Y000796*
X007501Y000795*
X007505Y000794*
X007511Y000793*
X007515Y000792*
X007521Y000791*
X007524Y00079*
X007529Y000788*
X007537Y000786*
X007541Y000785*
X007546Y000783*
X007549Y000781*
X007562Y000776*
X007573Y00077*
X007578Y000766*
X007595Y000754*
X007598Y000752*
X007602Y000748*
X007604Y000747*
X007606Y000744*
X007608Y000741*
X007609Y00074*
X007611Y000738*
X007612Y000736*
X007615Y000733*
X007616Y000731*
X007621Y000723*
X007632Y000701*
X007633Y000698*
X007634Y000692*
X007635Y000689*
X007639Y000678*
X00764Y000667*
X007641Y000662*
X007642Y000643*
X007641Y000606*
X00764Y000604*
X007639Y000596*
X007638Y000591*
X007637Y000588*
X007636Y000583*
X007634Y000578*
Y000574*
X00763Y000564*
X007628Y000562*
Y00056*
X00762Y000546*
X007618Y000544*
Y000542*
X007612Y000534*
X007608Y00053*
X007607Y000529*
X007594Y000516*
X007593Y000515*
X007588Y00051*
X007582Y000507*
X007576Y000502*
X007574Y000501*
X007568Y000498*
X007551Y00049*
X007546Y000488*
X007542Y000485*
X007539Y000483*
Y000478*
X00754Y000475*
X007549Y000456*
X007554Y000446*
X00764Y000272*
X007639Y000269*
X007638Y000267*
X007634Y000265*
X007623Y000266*
X00757Y000265*
X007568Y000266*
X007563Y000268*
X00756Y00027*
Y000272*
X007556Y000277*
X007463Y000462*
X007461Y000465*
X007459Y000466*
X007455Y000468*
X007444Y000469*
X007429Y000467*
X007422*
X007198Y000466*
X007195Y000464*
X007194Y000462*
X007191Y000456*
X00719Y000271*
X007187Y000267*
X007181Y000266*
X007177Y000265*
X007137Y000266*
X007127Y000265*
X007122Y000268*
X007121Y00027*
X00712Y000272*
X007119Y000276*
X00712Y000531*
X007123Y000535*
X007127Y000537*
X007439Y000538*
X007441*
X007462Y000539*
X007465Y00054*
X007477Y000541*
X007482Y000542*
X007495Y000545*
X0075Y000546*
X007504*
X007511Y000549*
X007515Y000551*
X007522Y000553*
X007526Y000555*
X007537Y000561*
X007539Y000563*
X007541Y000564*
X007552Y000575*
X007553Y000577*
X007559Y000585*
X007561Y000591*
X007565Y000602*
X007566Y000608*
X007567Y000611*
X007568Y00062*
X007567Y00066*
X007566Y000662*
X007565Y000666*
X007564Y000672*
X007559Y000685*
X007558Y000686*
X007554Y000692*
X007552Y000694*
X007551Y000696*
X007549Y000698*
Y000699*
X007546Y000702*
X007544Y000703*
X007539Y000708*
X007537Y000709*
X007531Y000713*
X007518Y000719*
X007515Y00072*
X007509Y000722*
X007498Y000725*
X007491Y000727*
X007483Y000728*
X007475Y000729*
X007467Y00073*
X00746Y000731*
X007449*
X007438Y000733*
X007435*
X007394Y000734*
X007392Y000735*
X007136Y000736*
X007132Y00074*
X007108Y000786*
X007105Y000794*
X007104Y000797*
X007107Y000802*
X007111Y000803*
X007442Y000802*
G37*
G36*
X006981D02*
X006984Y000799D01*
X006986Y000794*
X006985Y000271*
X006982Y000267*
X006976Y000265*
X006918Y000266*
X006915Y000269*
X006914Y000272*
X006913Y000278*
Y000465*
Y000466*
Y000786*
Y000794*
X006914Y000797*
X006915Y000799*
X006916Y000801*
X00692Y000802*
X006926Y000803*
X006981Y000802*
G37*
G36*
X00614Y000727D02*
X006146Y000723D01*
X006152Y00071*
X006284Y000446*
X006287Y000438*
X006288Y000436*
X006289Y000435*
X006293Y000427*
X006297Y000419*
X006301Y00041*
X006305Y000403*
X006309Y000395*
X006313Y000388*
X006317Y000378*
X006321Y000371*
X006324Y000363*
X00633Y000354*
X006333Y000346*
X006337Y000339*
X006341Y00033*
X006345Y000322*
X006349Y000314*
X006353Y000307*
X006357Y000298*
X006361Y00029*
X006365Y000282*
X006371Y000272*
X006375Y000262*
X006373Y000258*
X006369Y000256*
X006353*
X0063Y000257*
X006294Y000261*
X006292Y000266*
X006287Y000276*
X006284Y000282*
X006279Y000291*
X006276Y000298*
X006271Y000308*
X006268Y000314*
X006262Y000324*
X00626Y00033*
X006255Y00034*
X006251Y000347*
X006239Y000372*
X006235Y000379*
X006222Y000405*
X006219Y000411*
X006066Y000718*
Y000721*
X006068Y000726*
X006073Y000727*
X006076Y000728*
X00614Y000727*
G37*
G36*
X005779Y00066D02*
X005783Y000658D01*
X005787Y000654*
X005848Y000532*
X00585Y000528*
X005852Y000527*
X005926Y000526*
X00593Y000522*
X005932Y00052*
X005951Y000483*
X006054Y000277*
X006058Y000269*
X00606Y000263*
Y00026*
X006057Y000257*
X006051Y000256*
X005986Y000257*
X005981Y000261*
X005953Y000316*
X005849Y000524*
X005846Y000525*
X00582Y000524*
X005776Y000525*
X00577Y000528*
X005768Y00053*
X005711Y000644*
X005708Y00065*
X005707Y000656*
X005711Y00066*
X005715Y000661*
X005779Y00066*
G37*
G54D10*
X00999Y011358D02*
D01*
X009989Y011361*
X009989Y011364*
X009988Y011368*
X009988Y011371*
X009987Y011374*
X009985Y011377*
X009984Y011381*
X009982Y011383*
X00998Y011386*
X009978Y011389*
X009976Y011392*
X009973Y011394*
X009971Y011396*
X009968Y011398*
X009965Y0114*
X009962Y011402*
X009959Y011403*
X009956Y011404*
X009952Y011405*
X009949Y011406*
X009946Y011406*
X009942Y011406*
X009939*
X009935Y011406*
X009932Y011406*
X009929Y011405*
X009925Y011404*
X009922Y011403*
X009919Y011402*
X009916Y0114*
X009913Y011398*
X00991Y011396*
X009908Y011394*
X009905Y011392*
X009903Y011389*
X009901Y011386*
X009899Y011383*
X009897Y011381*
X009896Y011377*
X009894Y011374*
X009893Y011371*
X009893Y011368*
X009892Y011364*
X009892Y011361*
X009892Y011358*
X009892Y011354*
X009892Y011351*
X009893Y011347*
X009893Y011344*
X009894Y011341*
X009896Y011338*
X009897Y011334*
X009899Y011332*
X009901Y011329*
X009903Y011326*
X009905Y011323*
X009908Y011321*
X00991Y011319*
X009913Y011317*
X009916Y011315*
X009919Y011313*
X009922Y011312*
X009925Y011311*
X009929Y01131*
X009932Y011309*
X009935Y011309*
X009939Y011309*
X009942*
X009946Y011309*
X009949Y011309*
X009952Y01131*
X009956Y011311*
X009959Y011312*
X009962Y011313*
X009965Y011315*
X009968Y011317*
X009971Y011319*
X009973Y011321*
X009976Y011323*
X009978Y011326*
X00998Y011329*
X009982Y011332*
X009984Y011334*
X009985Y011338*
X009987Y011341*
X009988Y011344*
X009988Y011347*
X009989Y011351*
X009989Y011354*
X00999Y011358*
X002234Y017087D02*
D01*
X002233Y01709*
X002233Y017093*
X002232Y017097*
X002232Y0171*
X002231Y017103*
X002229Y017106*
X002228Y01711*
X002226Y017112*
X002224Y017115*
X002222Y017118*
X00222Y017121*
X002217Y017123*
X002215Y017125*
X002212Y017127*
X002209Y017129*
X002206Y017131*
X002203Y017132*
X0022Y017133*
X002196Y017134*
X002193Y017135*
X00219Y017135*
X002186Y017135*
X002183*
X002179Y017135*
X002176Y017135*
X002173Y017134*
X002169Y017133*
X002166Y017132*
X002163Y017131*
X00216Y017129*
X002157Y017127*
X002154Y017125*
X002152Y017123*
X002149Y017121*
X002147Y017118*
X002145Y017115*
X002143Y017112*
X002141Y01711*
X00214Y017106*
X002138Y017103*
X002137Y0171*
X002137Y017097*
X002136Y017093*
X002136Y01709*
X002136Y017087*
X002136Y017083*
X002136Y01708*
X002137Y017076*
X002137Y017073*
X002138Y01707*
X00214Y017067*
X002141Y017063*
X002143Y017061*
X002145Y017058*
X002147Y017055*
X002149Y017052*
X002152Y01705*
X002154Y017048*
X002157Y017046*
X00216Y017044*
X002163Y017042*
X002166Y017041*
X002169Y01704*
X002173Y017039*
X002176Y017038*
X002179Y017038*
X002183Y017038*
X002186*
X00219Y017038*
X002193Y017038*
X002196Y017039*
X0022Y01704*
X002203Y017041*
X002206Y017042*
X002209Y017044*
X002212Y017046*
X002215Y017048*
X002217Y01705*
X00222Y017052*
X002222Y017055*
X002224Y017058*
X002226Y017061*
X002228Y017063*
X002229Y017067*
X002231Y01707*
X002232Y017073*
X002232Y017076*
X002233Y01708*
X002233Y017083*
X002234Y017087*
G54D11*
X006542Y013474D02*
D01*
X006541Y013476*
X006541Y013479*
X006541Y013482*
X00654Y013484*
X006539Y013487*
X006538Y013489*
X006537Y013492*
X006536Y013494*
X006534Y013496*
X006532Y013499*
X006531Y013501*
X006529Y013502*
X006527Y013504*
X006524Y013506*
X006522Y013507*
X00652Y013509*
X006517Y01351*
X006515Y013511*
X006512Y013511*
X006509Y013512*
X006507Y013512*
X006504Y013512*
X006501*
X006498Y013512*
X006496Y013512*
X006493Y013511*
X00649Y013511*
X006488Y01351*
X006485Y013509*
X006483Y013507*
X006481Y013506*
X006478Y013504*
X006476Y013502*
X006474Y013501*
X006473Y013499*
X006471Y013496*
X006469Y013494*
X006468Y013492*
X006467Y013489*
X006466Y013487*
X006465Y013484*
X006464Y013482*
X006464Y013479*
X006464Y013476*
X006464Y013474*
X006464Y013471*
X006464Y013468*
X006464Y013465*
X006465Y013463*
X006466Y01346*
X006467Y013458*
X006468Y013455*
X006469Y013453*
X006471Y013451*
X006473Y013448*
X006474Y013446*
X006476Y013445*
X006478Y013443*
X006481Y013441*
X006483Y01344*
X006485Y013438*
X006488Y013437*
X00649Y013436*
X006493Y013436*
X006496Y013435*
X006498Y013435*
X006501Y013435*
X006504*
X006507Y013435*
X006509Y013435*
X006512Y013436*
X006515Y013436*
X006517Y013437*
X00652Y013438*
X006522Y01344*
X006524Y013441*
X006527Y013443*
X006529Y013445*
X006531Y013446*
X006532Y013448*
X006534Y013451*
X006536Y013453*
X006537Y013455*
X006538Y013458*
X006539Y01346*
X00654Y013463*
X006541Y013465*
X006541Y013468*
X006541Y013471*
X006542Y013474*
X016614Y020039D02*
D01*
X016611Y020115*
X016603Y020192*
X016589Y020268*
X016571Y020342*
X016547Y020415*
X016518Y020487*
X016485Y020556*
X016446Y020622*
X016403Y020686*
X016356Y020747*
X016304Y020804*
X016249Y020857*
X01619Y020907*
X016128Y020952*
X016063Y020993*
X015995Y021029*
X015924Y02106*
X015852Y021087*
X015778Y021108*
X015703Y021124*
X015627Y021134*
X01555Y02114*
X015473*
X015396Y021134*
X01532Y021124*
X015245Y021108*
X015171Y021087*
X015099Y02106*
X015028Y021029*
X01496Y020993*
X014895Y020952*
X014833Y020907*
X014774Y020857*
X014719Y020804*
X014667Y020747*
X01462Y020686*
X014577Y020622*
X014538Y020556*
X014505Y020487*
X014476Y020415*
X014452Y020342*
X014434Y020268*
X01442Y020192*
X014412Y020115*
X01441Y020039*
X014412Y019962*
X01442Y019885*
X014434Y019809*
X014452Y019735*
X014476Y019662*
X014505Y01959*
X014538Y019521*
X014577Y019455*
X01462Y019391*
X014667Y01933*
X014719Y019273*
X014774Y01922*
X014833Y01917*
X014895Y019125*
X014961Y019084*
X015028Y019048*
X015099Y019017*
X015171Y01899*
X015245Y018969*
X01532Y018953*
X015396Y018943*
X015473Y018937*
X01555*
X015627Y018943*
X015703Y018953*
X015778Y018969*
X015852Y01899*
X015924Y019017*
X015995Y019048*
X016063Y019084*
X016128Y019125*
X01619Y01917*
X016249Y01922*
X016304Y019273*
X016356Y01933*
X016403Y019391*
X016446Y019455*
X016485Y019521*
X016518Y01959*
X016547Y019662*
X016571Y019735*
X016589Y019809*
X016603Y019885*
X016611Y019962*
X016614Y020039*
X002244D02*
D01*
X002241Y020115*
X002233Y020192*
X002219Y020268*
X002201Y020342*
X002177Y020415*
X002148Y020487*
X002115Y020556*
X002076Y020622*
X002033Y020686*
X001986Y020747*
X001934Y020804*
X001879Y020857*
X00182Y020907*
X001758Y020952*
X001693Y020993*
X001625Y021029*
X001554Y02106*
X001482Y021087*
X001408Y021108*
X001333Y021124*
X001257Y021134*
X00118Y02114*
X001103*
X001026Y021134*
X00095Y021124*
X000875Y021108*
X000801Y021087*
X000729Y02106*
X000658Y021029*
X00059Y020993*
X000525Y020952*
X000463Y020907*
X000404Y020857*
X000349Y020804*
X000297Y020747*
X00025Y020686*
X000207Y020622*
X000168Y020556*
X000135Y020487*
X000106Y020415*
X000082Y020342*
X000064Y020268*
X00005Y020192*
X000042Y020115*
X00004Y020039*
X000042Y019962*
X00005Y019885*
X000064Y019809*
X000082Y019735*
X000106Y019662*
X000135Y01959*
X000168Y019521*
X000207Y019455*
X00025Y019391*
X000297Y01933*
X000349Y019273*
X000404Y01922*
X000463Y01917*
X000525Y019125*
X000591Y019084*
X000658Y019048*
X000729Y019017*
X000801Y01899*
X000875Y018969*
X00095Y018953*
X001026Y018943*
X001103Y018937*
X00118*
X001257Y018943*
X001333Y018953*
X001408Y018969*
X001482Y01899*
X001554Y019017*
X001625Y019048*
X001693Y019084*
X001758Y019125*
X00182Y01917*
X001879Y01922*
X001934Y019273*
X001986Y01933*
X002033Y019391*
X002076Y019455*
X002115Y019521*
X002148Y01959*
X002177Y019662*
X002201Y019735*
X002219Y019809*
X002233Y019885*
X002241Y019962*
X002244Y020039*
Y001142D02*
D01*
X002241Y001218*
X002233Y001295*
X002219Y001371*
X002201Y001445*
X002177Y001518*
X002148Y00159*
X002115Y001659*
X002076Y001725*
X002033Y001789*
X001986Y00185*
X001934Y001907*
X001879Y00196*
X00182Y00201*
X001758Y002055*
X001693Y002096*
X001625Y002132*
X001554Y002163*
X001482Y00219*
X001408Y002211*
X001333Y002227*
X001257Y002237*
X00118Y002243*
X001103*
X001026Y002237*
X00095Y002227*
X000875Y002211*
X000801Y00219*
X000729Y002163*
X000658Y002132*
X00059Y002096*
X000525Y002055*
X000463Y00201*
X000404Y00196*
X000349Y001907*
X000297Y00185*
X00025Y001789*
X000207Y001725*
X000168Y001659*
X000135Y00159*
X000106Y001518*
X000082Y001445*
X000064Y001371*
X00005Y001295*
X000042Y001218*
X00004Y001142*
X000042Y001065*
X00005Y000988*
X000064Y000912*
X000082Y000838*
X000106Y000765*
X000135Y000693*
X000168Y000624*
X000207Y000558*
X00025Y000494*
X000297Y000433*
X000349Y000376*
X000404Y000323*
X000463Y000273*
X000525Y000228*
X000591Y000187*
X000658Y000151*
X000729Y00012*
X000801Y000093*
X000875Y000072*
X00095Y000056*
X001026Y000046*
X001103Y00004*
X00118*
X001257Y000046*
X001333Y000056*
X001408Y000072*
X001482Y000093*
X001554Y00012*
X001625Y000151*
X001693Y000187*
X001758Y000228*
X00182Y000273*
X001879Y000323*
X001934Y000376*
X001986Y000433*
X002033Y000494*
X002076Y000558*
X002115Y000624*
X002148Y000693*
X002177Y000765*
X002201Y000838*
X002219Y000912*
X002233Y000988*
X002241Y001065*
X002244Y001142*
X016614D02*
D01*
X016611Y001218*
X016603Y001295*
X016589Y001371*
X016571Y001445*
X016547Y001518*
X016518Y00159*
X016485Y001659*
X016446Y001725*
X016403Y001789*
X016356Y00185*
X016304Y001907*
X016249Y00196*
X01619Y00201*
X016128Y002055*
X016063Y002096*
X015995Y002132*
X015924Y002163*
X015852Y00219*
X015778Y002211*
X015703Y002227*
X015627Y002237*
X01555Y002243*
X015473*
X015396Y002237*
X01532Y002227*
X015245Y002211*
X015171Y00219*
X015099Y002163*
X015028Y002132*
X01496Y002096*
X014895Y002055*
X014833Y00201*
X014774Y00196*
X014719Y001907*
X014667Y00185*
X01462Y001789*
X014577Y001725*
X014538Y001659*
X014505Y00159*
X014476Y001518*
X014452Y001445*
X014434Y001371*
X01442Y001295*
X014412Y001218*
X01441Y001142*
X014412Y001065*
X01442Y000988*
X014434Y000912*
X014452Y000838*
X014476Y000765*
X014505Y000693*
X014538Y000624*
X014577Y000558*
X01462Y000494*
X014667Y000433*
X014719Y000376*
X014774Y000323*
X014833Y000273*
X014895Y000228*
X014961Y000187*
X015028Y000151*
X015099Y00012*
X015171Y000093*
X015245Y000072*
X01532Y000056*
X015396Y000046*
X015473Y00004*
X01555*
X015627Y000046*
X015703Y000056*
X015778Y000072*
X015852Y000093*
X015924Y00012*
X015995Y000151*
X016063Y000187*
X016128Y000228*
X01619Y000273*
X016249Y000323*
X016304Y000376*
X016356Y000433*
X016403Y000494*
X016446Y000558*
X016485Y000624*
X016518Y000693*
X016547Y000765*
X016571Y000838*
X016589Y000912*
X016603Y000988*
X016611Y001065*
X016614Y001142*
X009783Y007248D02*
Y007819D01*
Y007248D02*
X010606D01*
Y007819*
X009787Y008244D02*
Y008732D01*
X01061Y008244D02*
Y008732D01*
X009787D02*
X01061D01*
X012169Y007854D02*
X01274D01*
X012169Y007031D02*
Y007854D01*
Y007031D02*
X01274D01*
X013165Y00785D02*
X013654D01*
X013165Y007028D02*
X013654D01*
Y00785*
X010689Y017839D02*
Y018409D01*
Y017839D02*
X011512D01*
Y018409*
X010693Y018835D02*
Y019323D01*
X011516Y018835D02*
Y019323D01*
X010693D02*
X011516D01*
X010134Y003642D02*
X010705D01*
Y004465*
X010134D02*
X010705D01*
X00922Y003646D02*
X009709D01*
X00922Y004469D02*
X009709D01*
X00922Y003646D02*
Y004469D01*
X011752Y004059D02*
Y00463D01*
Y004059D02*
X012575D01*
Y00463*
X011756Y005055D02*
Y005543D01*
X012579Y005055D02*
Y005543D01*
X011756D02*
X012579D01*
X012264Y014299D02*
X013087D01*
X012264D02*
Y014787D01*
X013087Y014299D02*
Y014787D01*
X012268Y015213D02*
Y015783D01*
X013091*
Y015213D02*
Y015783D01*
X006614Y017677D02*
Y018386D01*
Y017677D02*
X007638D01*
Y018386*
X006614Y017835D02*
X007638D01*
X004537Y008701D02*
Y009409D01*
Y008701D02*
X006014D01*
Y009409*
X004537Y008858D02*
X006014D01*
X004537Y004016D02*
Y004724D01*
Y004016D02*
X006014D01*
Y004724*
X004537Y004173D02*
X006014D01*
X009016Y010551D02*
Y01063D01*
X009488Y010551D02*
Y01063D01*
X008661Y006772D02*
X00874D01*
X008661Y006299D02*
X00874D01*
X009488Y00878D02*
Y008858D01*
X009016Y00878D02*
Y008858D01*
X014685Y007205D02*
X014764D01*
X014685Y007677D02*
X014764D01*
X003386Y018622D02*
Y018701D01*
X003858Y018622D02*
Y018701D01*
X009843Y018583D02*
Y018661D01*
X010315Y018583D02*
Y018661D01*
X006299Y012441D02*
Y01252D01*
X006772Y012441D02*
Y01252D01*
X00437Y013228D02*
Y013307D01*
X004843Y013228D02*
Y013307D01*
X009094Y013504D02*
X009173D01*
X009094Y013976D02*
X009173D01*
X009094Y014803D02*
X009173D01*
X009094Y014331D02*
X009173D01*
X011024Y01563D02*
X011102D01*
X011024Y015157D02*
X011102D01*
X009094D02*
X009173D01*
X009094Y01563D02*
X009173D01*
X00437Y014843D02*
Y014921D01*
X004843Y014843D02*
Y014921D01*
X008701Y002992D02*
X00878D01*
X008701Y00252D02*
X00878D01*
X010669Y002992D02*
X010748D01*
X010669Y00252D02*
X010748D01*
X012402Y00311D02*
Y003189D01*
X011929Y00311D02*
Y003189D01*
X005656Y016614D02*
Y016286D01*
X005722Y016221*
X005853*
X005919Y016286*
Y016614*
X006247Y016221D02*
Y016614D01*
X00605Y016417*
X006312*
X005026Y015157D02*
Y014829D01*
X005092Y014764*
X005223*
X005289Y014829*
Y015157*
X00542Y015092D02*
X005486Y015157D01*
X005617*
X005682Y015092*
Y015026*
X005617Y014961*
X005551*
X005617*
X005682Y014895*
Y014829*
X005617Y014764*
X005486*
X00542Y014829*
X00227Y015709D02*
Y015381D01*
X002336Y015315*
X002467*
X002533Y015381*
Y015709*
X002926Y015315D02*
X002664D01*
X002926Y015577*
Y015643*
X002861Y015709*
X00273*
X002664Y015643*
X01248Y011207D02*
X012152D01*
X012087Y011142*
Y01101*
X012152Y010945*
X01248*
X012087Y010814D02*
Y010682D01*
Y010748*
X01248*
X012415Y010814*
X00668Y00252D02*
X006942D01*
X006811*
Y002126*
X00727D02*
Y00252D01*
X007073Y002323*
X007336*
X011089Y014409D02*
X011352D01*
X011221*
Y014016*
X011483Y014344D02*
X011549Y014409D01*
X01168*
X011745Y014344*
Y014278*
X01168Y014213*
X011614*
X01168*
X011745Y014147*
Y014081*
X01168Y014016*
X011549*
X011483Y014081*
X007365Y011614D02*
X007627D01*
X007496*
Y011221*
X008021D02*
X007758D01*
X008021Y011483*
Y011549*
X007955Y011614*
X007824*
X007758Y011549*
X006181Y007179D02*
Y007441D01*
Y00731*
X006575*
Y007572D02*
Y007703D01*
Y007638*
X006181*
X006247Y007572*
X012756Y003523D02*
X01315D01*
Y003327*
X013084Y003261*
X012953*
X012887Y003327*
Y003523*
Y003392D02*
X012756Y003261D01*
Y00313D02*
Y002999D01*
Y003064*
X01315*
X013084Y00313*
X01315Y00254D02*
Y002802D01*
X012953*
X013018Y002671*
Y002605*
X012953Y00254*
X012822*
X012756Y002605*
Y002736*
X012822Y002802*
X010256Y00185D02*
Y002244D01*
X010453*
X010518Y002178*
Y002047*
X010453Y001982*
X010256*
X010387D02*
X010518Y00185D01*
X01065D02*
X010781D01*
X010715*
Y002244*
X01065Y002178*
X011174Y00185D02*
Y002244D01*
X010978Y002047*
X01124*
X008209Y001787D02*
Y002181D01*
X008406*
X008471Y002115*
Y001984*
X008406Y001919*
X008209*
X00834D02*
X008471Y001787D01*
X008602D02*
X008734D01*
X008668*
Y002181*
X008602Y002115*
X009193Y002181D02*
X009062Y002115D01*
X00893Y001984*
Y001853*
X008996Y001787*
X009127*
X009193Y001853*
Y001919*
X009127Y001984*
X00893*
X004134Y013839D02*
X00374D01*
Y014036*
X003806Y014101*
X003937*
X004003Y014036*
Y013839*
Y01397D02*
X004134Y014101D01*
Y014232D02*
Y014364D01*
Y014298*
X00374*
X003806Y014232*
Y01456D02*
X00374Y014626D01*
Y014757*
X003806Y014823*
X003871*
X003937Y014757*
Y014691*
Y014757*
X004003Y014823*
X004068*
X004134Y014757*
Y014626*
X004068Y01456*
X008878Y015945D02*
Y016339D01*
X009075*
X00914Y016273*
Y016142*
X009075Y016076*
X008878*
X009009D02*
X00914Y015945D01*
X009272D02*
X009403D01*
X009337*
Y016339*
X009272Y016273*
X009862Y015945D02*
X0096D01*
X009862Y016207*
Y016273*
X009796Y016339*
X009665*
X0096Y016273*
X01065Y015866D02*
Y01626D01*
X010847*
X010912Y016194*
Y016063*
X010847Y015997*
X01065*
X010781D02*
X010912Y015866D01*
X011043D02*
X011175D01*
X011109*
Y01626*
X011043Y016194*
X011371D02*
X011437Y01626D01*
X011568*
X011634Y016194*
Y015932*
X011568Y015866*
X011437*
X011371Y015932*
Y016194*
X009928Y01437D02*
Y014764D01*
X010125*
X01019Y014698*
Y014567*
X010125Y014501*
X009928*
X010059D02*
X01019Y01437D01*
X010322D02*
X010453D01*
X010387*
Y014764*
X010322Y014698*
X01065Y01437D02*
X010781D01*
X010715*
Y014764*
X01065Y014698*
X008885Y012835D02*
Y013228D01*
X009081*
X009147Y013163*
Y013032*
X009081Y012966*
X008885*
X009016D02*
X009147Y012835D01*
X009278Y0129D02*
X009344Y012835D01*
X009475*
X009541Y0129*
Y013163*
X009475Y013228*
X009344*
X009278Y013163*
Y013097*
X009344Y013032*
X009541*
X004134Y0129D02*
X00374D01*
Y013097*
X003806Y013163*
X003937*
X004003Y013097*
Y0129*
Y013032D02*
X004134Y013163D01*
X003806Y013294D02*
X00374Y01336D01*
Y013491*
X003806Y013556*
X003871*
X003937Y013491*
X004003Y013556*
X004068*
X004134Y013491*
Y01336*
X004068Y013294*
X004003*
X003937Y01336*
X003871Y013294*
X003806*
X003937Y01336D02*
Y013491D01*
X007008Y013202D02*
X007402D01*
Y013005*
X007336Y01294*
X007205*
X007139Y013005*
Y013202*
Y013071D02*
X007008Y01294D01*
X007402Y012808D02*
Y012546D01*
X007336*
X007074Y012808*
X007008*
X009606Y017979D02*
X009213D01*
Y018176*
X009278Y018241*
X009409*
X009475Y018176*
Y017979*
Y01811D02*
X009606Y018241D01*
X009213Y018635D02*
X009278Y018504D01*
X009409Y018373*
X009541*
X009606Y018438*
Y018569*
X009541Y018635*
X009475*
X009409Y018569*
Y018373*
X00315Y017979D02*
X002756D01*
Y018176*
X002822Y018241*
X002953*
X003018Y018176*
Y017979*
Y01811D02*
X00315Y018241D01*
X002756Y018635D02*
Y018373D01*
X002953*
X002887Y018504*
Y018569*
X002953Y018635*
X003084*
X00315Y018569*
Y018438*
X003084Y018373*
X015578Y007205D02*
Y007598D01*
X015774*
X01584Y007533*
Y007402*
X015774Y007336*
X015578*
X015709D02*
X01584Y007205D01*
X016233D02*
X015971D01*
X016233Y007467*
Y007533*
X016168Y007598*
X016037*
X015971Y007533*
X008924Y007559D02*
Y007953D01*
X009121*
X009186Y007887*
Y007756*
X009121Y00769*
X008924*
X009055D02*
X009186Y007559D01*
X009514D02*
Y007953D01*
X009318Y007756*
X00958*
X007874Y006168D02*
X00748D01*
Y006365*
X007546Y00643*
X007677*
X007743Y006365*
Y006168*
Y006299D02*
X007874Y00643D01*
X007546Y006562D02*
X00748Y006627D01*
Y006758*
X007546Y006824*
X007612*
X007677Y006758*
Y006693*
Y006758*
X007743Y006824*
X007808*
X007874Y006758*
Y006627*
X007808Y006562*
X009029Y011417D02*
Y011811D01*
X009226*
X009291Y011745*
Y011614*
X009226Y011549*
X009029*
X00916D02*
X009291Y011417D01*
X009423D02*
X009554D01*
X009488*
Y011811*
X009423Y011745*
X01336Y013189D02*
Y012795D01*
X013622*
X013753D02*
X013884D01*
X013819*
Y013189*
X013753Y013123*
X013189Y005256D02*
X012795D01*
Y005059*
X012861Y004993*
X013123*
X013189Y005059*
Y005256*
X012795Y004862D02*
Y004731D01*
Y004797*
X013189*
X013123Y004862*
X012795Y004337D02*
X013189D01*
X012992Y004534*
Y004272*
X011378Y004468D02*
X010984D01*
Y004272*
X01105Y004206*
X011312*
X011378Y004272*
Y004468*
X010984Y004075D02*
Y003944D01*
Y004009*
X011378*
X011312Y004075*
Y003747D02*
X011378Y003681D01*
Y00355*
X011312Y003484*
X011247*
X011181Y00355*
Y003616*
Y00355*
X011116Y003484*
X01105*
X010984Y00355*
Y003681*
X01105Y003747*
X00378Y003721D02*
X004173D01*
Y003917*
X004108Y003983*
X003845*
X00378Y003917*
Y003721*
X004173Y004114D02*
Y004245D01*
Y00418*
X00378*
X003845Y004114*
X00378Y004705D02*
X003845Y004573D01*
X003976Y004442*
X004108*
X004173Y004508*
Y004639*
X004108Y004705*
X004042*
X003976Y004639*
Y004442*
X007323Y004311D02*
X007716D01*
Y004508*
X007651Y004574*
X007388*
X007323Y004508*
Y004311*
X007716Y004705D02*
Y004836D01*
Y00477*
X007323*
X007388Y004705*
X007323Y005295D02*
Y005033D01*
X00752*
X007454Y005164*
Y00523*
X00752Y005295*
X007651*
X007716Y00523*
Y005098*
X007651Y005033*
X009705Y00626D02*
Y005866D01*
X009902*
X009967Y005932*
Y006194*
X009902Y00626*
X009705*
X010098Y005866D02*
X01023D01*
X010164*
Y00626*
X010098Y006194*
X010689Y005866D02*
X010426D01*
X010689Y006129*
Y006194*
X010623Y00626*
X010492*
X010426Y006194*
X012566Y006417D02*
Y006024D01*
X012763*
X012828Y006089*
Y006352*
X012763Y006417*
X012566*
X012959Y006024D02*
X013091D01*
X013025*
Y006417*
X012959Y006352*
X013287Y006024D02*
X013419D01*
X013353*
Y006417*
X013287Y006352*
X014724Y004941D02*
X014331D01*
Y004744*
X014396Y004678*
X014659*
X014724Y004744*
Y004941*
X014331Y004547D02*
Y004416D01*
Y004482*
X014724*
X014659Y004547*
Y004219D02*
X014724Y004154D01*
Y004022*
X014659Y003957*
X014396*
X014331Y004022*
Y004154*
X014396Y004219*
X014659*
X012349Y016378D02*
Y015984D01*
X012546*
X012612Y01605*
Y016312*
X012546Y016378*
X012349*
X012743Y01605D02*
X012808Y015984D01*
X01294*
X013005Y01605*
Y016312*
X01294Y016378*
X012808*
X012743Y016312*
Y016247*
X012808Y016181*
X013005*
X007913Y017625D02*
X008307D01*
Y017822*
X008241Y017887*
X007979*
X007913Y017822*
Y017625*
X007979Y018018D02*
X007913Y018084D01*
Y018215*
X007979Y018281*
X008045*
X00811Y018215*
X008176Y018281*
X008241*
X008307Y018215*
Y018084*
X008241Y018018*
X008176*
X00811Y018084*
X008045Y018018*
X007979*
X00811Y018084D02*
Y018215D01*
X011719Y019409D02*
Y019016D01*
X011916*
X011982Y019081*
Y019344*
X011916Y019409*
X011719*
X012113D02*
X012375D01*
Y019344*
X012113Y019081*
Y019016*
X01353Y018976D02*
Y018583D01*
X013727*
X013793Y018648*
Y018911*
X013727Y018976*
X01353*
X014186D02*
X014055Y018911D01*
X013924Y01878*
Y018648*
X013989Y018583*
X014121*
X014186Y018648*
Y018714*
X014121Y01878*
X013924*
X013491Y016811D02*
Y016417D01*
X013688*
X013753Y016483*
Y016745*
X013688Y016811*
X013491*
X014147D02*
X013884D01*
Y016614*
X014016Y01668*
X014081*
X014147Y016614*
Y016483*
X014081Y016417*
X01395*
X013884Y016483*
X00378Y008452D02*
X004173D01*
Y008648*
X004108Y008714*
X003845*
X00378Y008648*
Y008452*
X004173Y009042D02*
X00378D01*
X003976Y008845*
Y009107*
X007362Y008727D02*
X007756D01*
Y008924*
X00769Y00899*
X007428*
X007362Y008924*
Y008727*
X007756Y009383D02*
Y009121D01*
X007493Y009383*
X007428*
X007362Y009317*
Y009186*
X007428Y009121*
X011575Y007113D02*
X011968D01*
Y00731*
X011903Y007375*
X01164*
X011575Y00731*
Y007113*
X01164Y007507D02*
X011575Y007572D01*
Y007703*
X01164Y007769*
X011706*
X011772Y007703*
Y007638*
Y007703*
X011837Y007769*
X011903*
X011968Y007703*
Y007572*
X011903Y007507*
X01122Y008215D02*
X010827D01*
Y008018*
X010892Y007953*
X011155*
X01122Y008018*
Y008215*
X010827Y007822D02*
Y00769D01*
Y007756*
X01122*
X011155Y007822*
X004777Y01206D02*
X004711Y012126D01*
X00458*
X004515Y01206*
Y011798*
X00458Y011732*
X004711*
X004777Y011798*
X004908D02*
X004974Y011732D01*
X005105*
X005171Y011798*
Y01206*
X005105Y012126*
X004974*
X004908Y01206*
Y011995*
X004974Y011929*
X005171*
X00084Y016234D02*
X000774Y016299D01*
X000643*
X000578Y016234*
Y015971*
X000643Y015906*
X000774*
X00084Y015971*
X000971Y016234D02*
X001037Y016299D01*
X001168*
X001233Y016234*
Y016168*
X001168Y016102*
X001233Y016037*
Y015971*
X001168Y015906*
X001037*
X000971Y015971*
Y016037*
X001037Y016102*
X000971Y016168*
Y016234*
X001037Y016102D02*
X001168D01*
X000564Y014423D02*
X000499Y014488D01*
X000368*
X000302Y014423*
Y01416*
X000368Y014095*
X000499*
X000564Y01416*
X000696Y014488D02*
X000958D01*
Y014423*
X000696Y01416*
Y014095*
X005617Y018596D02*
X005551Y01853D01*
Y018399*
X005617Y018333*
X005879*
X005945Y018399*
Y01853*
X005879Y018596*
X005551Y018989D02*
X005617Y018858D01*
X005748Y018727*
X005879*
X005945Y018793*
Y018924*
X005879Y018989*
X005814*
X005748Y018924*
Y018727*
X004672Y018596D02*
X004606Y01853D01*
Y018399*
X004672Y018333*
X004934*
X005Y018399*
Y01853*
X004934Y018596*
X004606Y018989D02*
Y018727D01*
X004803*
X004738Y018858*
Y018924*
X004803Y018989*
X004934*
X005Y018924*
Y018793*
X004934Y018727*
X011667Y008832D02*
X011601Y008898D01*
X01147*
X011404Y008832*
Y00857*
X01147Y008504*
X011601*
X011667Y00857*
X011995Y008504D02*
Y008898D01*
X011798Y008701*
X01206*
X015801Y00832D02*
X015735Y008386D01*
X015604*
X015538Y00832*
Y008058*
X015604Y007992*
X015735*
X015801Y008058*
X015932Y00832D02*
X015997Y008386D01*
X016129*
X016194Y00832*
Y008255*
X016129Y008189*
X016063*
X016129*
X016194Y008123*
Y008058*
X016129Y007992*
X015997*
X015932Y008058*
X015801Y009068D02*
X015735Y009134D01*
X015604*
X015538Y009068*
Y008806*
X015604Y00874*
X015735*
X015801Y008806*
X016194Y00874D02*
X015932D01*
X016194Y009003*
Y009068*
X016129Y009134*
X015997*
X015932Y009068*
X01248Y012966D02*
X012415Y013031D01*
X012284*
X012218Y012966*
Y012703*
X012284Y012638*
X012415*
X01248Y012703*
X012612Y012638D02*
X012743D01*
X012677*
Y013031*
X012612Y012966*
G54D12*
X010966Y010413D02*
Y011555D01*
X010923Y010413D02*
X010966D01*
X010923D02*
Y011555D01*
X010966*
X002612Y016043D02*
X003714D01*
X002612Y017382D02*
X003714D01*
X012459Y016919D02*
Y017569D01*
X012518Y016919D02*
Y017569D01*
X012409Y016919D02*
Y017569D01*
Y016919D02*
X013024D01*
Y017569*
X012409D02*
X013024D01*
X012459Y017785D02*
Y018435D01*
X012518Y017785D02*
Y018435D01*
X012409Y017785D02*
Y018435D01*
Y017785D02*
X013024D01*
Y018435*
X012409D02*
X013024D01*
X014911Y00447D02*
X015561D01*
X014911Y004411D02*
X015561D01*
X014911Y00452D02*
X015561D01*
X014911Y003906D02*
Y00452D01*
Y003906D02*
X015561D01*
Y00452*
X01423Y005699D02*
Y006348D01*
X014289Y005699D02*
Y006348D01*
X014181Y005699D02*
Y006348D01*
Y005699D02*
X014795D01*
Y006348*
X014181D02*
X014795D01*
X010415Y004911D02*
Y005561D01*
X010356Y004911D02*
Y005561D01*
X010465Y004911D02*
Y005561D01*
X00985D02*
X010465D01*
X00985Y004911D02*
Y005561D01*
Y004911D02*
X010465D01*
X006266Y013593D02*
Y014675D01*
X006049Y013593D02*
Y014675D01*
X006266*
X006049Y013593D02*
X006266D01*
X014321Y012618D02*
X015246D01*
X014321Y010138D02*
X015246D01*
G54D13*
X006787Y007501D02*
X007157D01*
X006787Y008311D02*
Y008641D01*
X007157*
X006787Y007501D02*
Y007831D01*
X006532Y010441D02*
Y010811D01*
X007342D02*
X007672D01*
Y010441D02*
Y010811D01*
X006532D02*
X006862D01*
X010992Y013798D02*
X011362D01*
Y012658D02*
Y012988D01*
X010992Y012658D02*
X011362D01*
Y013468D02*
Y013798D01*
X006787Y002816D02*
X007157D01*
X006787Y003626D02*
Y003956D01*
X007157*
X006787Y002816D02*
Y003146D01*
X006Y014863D02*
X00637D01*
X006Y015673D02*
Y016003D01*
X00637*
X006Y014863D02*
Y015193D01*
X00811Y008661D02*
X008504D01*
X00815Y004703D02*
X008543D01*
G54D14*
X007957Y008065D02*
Y008865D01*
X007996Y004106D02*
Y004906D01*
G54D15*
X008657Y008065D02*
Y008865D01*
X008696Y004106D02*
Y004906D01*
G54D16*
X010906Y009764D02*
X01122D01*
X010906Y009134D02*
X01122D01*
X012126Y011968D02*
Y012441D01*
X014724Y00874D02*
Y009213D01*
Y007992D02*
Y008465D01*
X004567Y01752D02*
X005039D01*
X005472D02*
X005945D01*
X00126Y014291D02*
Y014764D01*
Y015197D02*
Y015669D01*
X005394Y01248D02*
X005866D01*
G54D17*
X010179Y007309D03*
G54D18*
X01223Y007459D03*
X010644Y004037D03*
G54D19*
X011085Y017899D03*
X012695Y015723D03*
G54D20*
X012148Y00412D03*
G54D21*
X007126Y017756D03*
G54D22*
X005276Y00878D03*
Y004094D03*
M02*