%FSTAX24Y24*%
%MOIN*%
%SFA1B1*%

%IPPOS*%
%ADD11C,0.010000*%
%ADD16C,0.011800*%
%LNpcb1-1*%
%LPD*%
G36*
X-000633Y011974D02*
X-000893D01*
X-000894*
X-000896*
X-0009*
X-000904*
X-000916Y011973*
X-00093Y011972*
X-000944Y011971*
X-000959Y011969*
X-000972Y011966*
X-000976Y011963*
X-000981Y011961*
X-000982Y01196*
X-000985Y011958*
X-000989Y011954*
X-000994Y011949*
X-000999Y011941*
X-001004Y011932*
X-001006Y011921*
X-001007Y011909*
Y011905*
X-001006Y0119*
X-001005Y011894*
X-001004Y011887*
X-001001Y011878*
X-000997Y011869*
X-000992Y011861*
X-000991Y01186*
X-000989Y011858*
X-000985Y011854*
X-00098Y011849*
X-000973Y011844*
X-000966Y011838*
X-000957Y011834*
X-000946Y011829*
X-000944*
X-000941Y011827*
X-000933*
X-000923Y011825*
X-00091Y011823*
X-000893Y011822*
X-000874Y01182*
X-000851*
X-000633*
Y011699*
X-000882*
X-000883*
X-000885*
X-000889*
X-000893*
X-000904*
X-000918Y011698*
X-000932Y011697*
X-000946Y011696*
X-000959Y011694*
X-000964Y011693*
X-000968Y011692*
X-000969*
X-000972Y011691*
X-000975Y011689*
X-000979Y011687*
X-000989Y011681*
X-000994Y011676*
X-000997Y011672*
X-000998Y011671*
X-000999Y011669*
X-001001Y011666*
X-001003Y011663*
X-001004Y011657*
X-001005Y011651*
X-001007Y011643*
Y011631*
X-001006Y011625*
X-001005Y011619*
X-001004Y011611*
X-001001Y011602*
X-000997Y011594*
X-000992Y011585*
X-000991Y011584*
X-000989Y011581*
X-000985Y011578*
X-000981Y011573*
X-000974Y011568*
X-000967Y011562*
X-000958Y011558*
X-000948Y011553*
X-000947*
X-000943Y011551*
X-000935*
X-000926Y011549*
X-000912Y011547*
X-000897Y011546*
X-000877Y011544*
X-000854*
X-000633*
Y011423*
X-00109*
Y011534*
X-001027*
X-001028Y011535*
X-00103Y011537*
X-001034Y01154*
X-001039Y011545*
X-001045Y011551*
X-00105Y011557*
X-001057Y011565*
X-001064Y011574*
X-00107Y011584*
X-001077Y011595*
X-001089Y011619*
X-001094Y011632*
X-001097Y011646*
X-001099Y011661*
X-0011Y011676*
Y011684*
X-001099Y011692*
X-001098Y011702*
X-001096Y011714*
X-001093Y011726*
X-001088Y011739*
X-001082Y011752*
X-001081Y011754*
X-001078Y011757*
X-001075Y011764*
X-001068Y011771*
X-00106Y011779*
X-001051Y011788*
X-001039Y011797*
X-001026Y011806*
X-001028Y011807*
X-001033Y011811*
X-001039Y011817*
X-001047Y011825*
X-001056Y011835*
X-001065Y011846*
X-001075Y011858*
X-001082Y01187*
X-001083Y011872*
X-001085Y011877*
X-001087Y011884*
X-001091Y011893*
X-001095Y011904*
X-001097Y011917*
X-001099Y01193*
X-0011Y011945*
Y011953*
X-001099Y011962*
X-001097Y011974*
X-001095Y011988*
X-001091Y012001*
X-001086Y012016*
X-001079Y01203*
X-001078Y012032*
X-001076Y012035*
X-001071Y012042*
X-001065Y01205*
X-001055Y012058*
X-001045Y012067*
X-001034Y012075*
X-001019Y012083*
X-001018*
X-001014Y012084*
X-001006Y012086*
X-000996Y012089*
X-000984Y012092*
X-000967Y012093*
X-000947Y012094*
X-000924Y012095*
X-000633*
Y011974*
G37*
G36*
Y011191D02*
X-000893D01*
X-000894*
X-000896*
X-0009*
X-000904*
X-000916Y01119*
X-00093Y011189*
X-000944Y011188*
X-000959Y011185*
X-000972Y011182*
X-000976Y01118*
X-000981Y011178*
X-000982Y011177*
X-000985Y011174*
X-000989Y011171*
X-000994Y011165*
X-000999Y011158*
X-001004Y011149*
X-001006Y011138*
X-001007Y011126*
Y011121*
X-001006Y011117*
X-001005Y01111*
X-001004Y011103*
X-001001Y011095*
X-000997Y011086*
X-000992Y011078*
X-000991Y011077*
X-000989Y011074*
X-000985Y01107*
X-00098Y011066*
X-000973Y01106*
X-000966Y011055*
X-000957Y01105*
X-000946Y011046*
X-000944*
X-000941Y011044*
X-000933Y011043*
X-000923Y011041*
X-00091Y011039*
X-000893*
X-000874Y011037*
X-000851*
X-000633*
Y010916*
X-000882*
X-000883*
X-000885*
X-000889*
X-000893*
X-000904*
X-000918Y010915*
X-000932Y010914*
X-000946Y010913*
X-000959Y010911*
X-000964Y010909*
X-000968Y010908*
X-000969*
X-000972Y010907*
X-000975Y010906*
X-000979Y010904*
X-000989Y010897*
X-000994Y010893*
X-000997Y010888*
X-000998Y010887*
X-000999Y010885*
X-001001Y010883*
X-001003Y010879*
X-001004Y010874*
X-001005Y010867*
X-001007Y01086*
Y010847*
X-001006Y010842*
X-001005Y010835*
X-001004Y010827*
X-001001Y010819*
X-000997Y010811*
X-000992Y010802*
X-000991Y010801*
X-000989Y010798*
X-000985Y010794*
X-000981Y01079*
X-000974Y010784*
X-000967Y010779*
X-000958Y010774*
X-000948Y01077*
X-000947*
X-000943Y010768*
X-000935Y010767*
X-000926Y010765*
X-000912Y010763*
X-000897Y010762*
X-000877Y010761*
X-000854*
X-000633*
Y010639*
X-00109*
Y010751*
X-001027*
X-001028Y010752*
X-00103Y010753*
X-001034Y010757*
X-001039Y010762*
X-001045Y010767*
X-00105Y010773*
X-001057Y010782*
X-001064Y010791*
X-00107Y010801*
X-001077Y010812*
X-001089Y010835*
X-001094Y010849*
X-001097Y010863*
X-001099Y010877*
X-0011Y010893*
Y0109*
X-001099Y010908*
X-001098Y010918*
X-001096Y01093*
X-001093Y010943*
X-001088Y010956*
X-001082Y010968*
X-001081Y01097*
X-001078Y010974*
X-001075Y01098*
X-001068Y010987*
X-00106Y010996*
X-001051Y011005*
X-001039Y011014*
X-001026Y011022*
X-001028Y011024*
X-001033Y011028*
X-001039Y011033*
X-001047Y011041*
X-001056Y011051*
X-001065Y011062*
X-001075Y011074*
X-001082Y011087*
X-001083Y011089*
X-001085Y011093*
X-001087Y0111*
X-001091Y01111*
X-001095Y011121*
X-001097Y011133*
X-001099Y011147*
X-0011Y011162*
Y01117*
X-001099Y011179*
X-001097Y011191*
X-001095Y011204*
X-001091Y011218*
X-001086Y011233*
X-001079Y011246*
X-001078Y011248*
X-001076Y011252*
X-001071Y011258*
X-001065Y011266*
X-001055Y011274*
X-001045Y011284*
X-001034Y011292*
X-001019Y011299*
X-001018Y0113*
X-001014Y011301*
X-001006Y011303*
X-000996Y011305*
X-000984Y011308*
X-000967Y01131*
X-000947Y011311*
X-000924Y011312*
X-000633*
Y011191*
G37*
G36*
X-000914Y01054D02*
X-0009Y010539D01*
X-000882Y010537*
X-000864Y010536*
X-000844Y010534*
X-000823Y01053*
X-000801Y010526*
X-00078Y010521*
X-000759Y010515*
X-000738Y010508*
X-000719Y010499*
X-000701Y01049*
X-000686Y010479*
X-000685Y010478*
X-000683Y010476*
X-000679Y010474*
X-000676Y01047*
X-000671Y010465*
X-000666Y010458*
X-000659Y01045*
X-000654Y010442*
X-000647Y010432*
X-000641Y010422*
X-000635Y01041*
X-000631Y010397*
X-000627Y010384*
X-000624Y010368*
X-000622Y010353*
X-000621Y010336*
Y010332*
X-000622Y010327*
Y010321*
X-000623Y010313*
X-000625Y010304*
X-000626Y010294*
X-00063Y010283*
X-000634Y010271*
X-000638Y01026*
X-000644Y010247*
X-000651Y010235*
X-000658Y010222*
X-000668Y01021*
X-000678Y010199*
X-000691Y010188*
X-000692Y010187*
X-000695Y010185*
X-000699Y010182*
X-000705Y010179*
X-000713Y010175*
X-000723Y01017*
X-000736Y010165*
X-000749Y01016*
X-000766Y010155*
X-000784Y010149*
X-000805Y010145*
X-000828Y010141*
X-000853Y010138*
X-000881Y010135*
X-000912Y010133*
X-000944Y010132*
X-000945*
X-000946*
X-000949*
X-000953*
X-000962*
X-000973Y010133*
X-000988Y010134*
X-001005Y010136*
X-001024Y010138*
X-001044Y010139*
X-001065Y010143*
X-001086Y010147*
X-001107Y010152*
X-001128Y010158*
X-001148Y010165*
X-001168Y010173*
X-001186Y010182*
X-001201Y010193*
X-001202Y010194*
X-001204Y010196*
X-001208Y010199*
X-001211Y010203*
X-001217Y010208*
X-001222Y010214*
X-001228Y010222*
X-001234Y01023*
X-00124Y01024*
X-001246Y010251*
X-001251Y010262*
X-001257Y010275*
X-00126Y010289*
X-001264Y010304*
X-001266Y01032*
X-001267Y010336*
Y010345*
X-001266Y010352*
X-001265Y010359*
X-001263Y010368*
X-001261Y010377*
X-001259Y010388*
X-001255Y0104*
X-00125Y010411*
X-001246Y010423*
X-001239Y010435*
X-001231Y010446*
X-001223Y010458*
X-001213Y010469*
X-001201Y010479*
X-0012Y01048*
X-001198Y010482*
X-001193Y010485*
X-001187Y010489*
X-001178Y010494*
X-001167Y010499*
X-001155Y010505*
X-001139Y01051*
X-001123Y010516*
X-001104Y010522*
X-001083Y010527*
X-001059Y010531*
X-001034Y010536*
X-001006Y010538*
X-000976Y01054*
X-000943Y010541*
X-000942*
X-000939*
X-000935*
X-000926*
X-000914Y01054*
G37*
G36*
X-000637Y01003D02*
X-000625Y010029D01*
X-000611Y010027*
X-000597Y010025*
X-000585Y010022*
X-000584*
X-00058Y01002*
X-000574Y010017*
X-000567Y010015*
X-000558Y010009*
X-000549Y010004*
X-00054Y009996*
X-000531Y009987*
X-00053Y009986*
X-000527Y009983*
X-000523Y009977*
X-000517Y00997*
X-000511Y009961*
X-000504Y00995*
X-000498Y009937*
X-000492Y009923*
X-000543Y0099*
Y009902*
X-000545Y009906*
X-000548Y009913*
X-000552Y00992*
X-000556Y009929*
X-000563Y009937*
X-000569Y009945*
X-000576Y009952*
X-000577Y009953*
X-00058Y009954*
X-000584Y009957*
X-000591Y00996*
X-000599Y009964*
X-000609Y009966*
X-00062Y009968*
X-000633Y009969*
Y00991*
X-000754*
Y010031*
X-000667*
X-000666*
X-000663*
X-000659*
X-000649*
X-000637Y01003*
G37*
G36*
X-000803Y00981D02*
X-000796Y009809D01*
X-000787Y009808*
X-000778Y009806*
X-000768Y009803*
X-000745Y009797*
X-000733Y009792*
X-000721Y009787*
X-000709Y00978*
X-000697Y009772*
X-000687Y009764*
X-000676Y009754*
X-000675Y009753*
X-000673Y009751*
X-00067Y009749*
X-000667Y009744*
X-000663Y009739*
X-000658Y009731*
X-000654Y009724*
X-000648Y009715*
X-000643Y009705*
X-000638Y009693*
X-000634Y009681*
X-000629Y009668*
X-000626Y009654*
X-000624Y009638*
X-000622Y009623*
X-000621Y009606*
Y009597*
X-000622Y009591*
X-000623Y009584*
X-000624Y009575*
X-000625Y009566*
X-000626Y009555*
X-000632Y009533*
X-00064Y009509*
X-000645Y009497*
X-000651Y009485*
X-000657Y009473*
X-000666Y009462*
X-000668Y00946*
X-000671Y009456*
X-000676Y009452*
X-000681Y009447*
X-000687Y009442*
X-000696Y009435*
X-000704Y009429*
X-000714Y009422*
X-000725Y009416*
X-000737Y009411*
X-00075Y009406*
X-000764Y009401*
X-000779Y009398*
X-000795Y009396*
X-000812Y009395*
X-000813*
X-000815*
X-000818*
X-000821*
X-000831Y009396*
X-000843Y009398*
X-000858Y009401*
X-000874Y009405*
X-000891Y009411*
X-000907Y00942*
X-000908*
X-000909Y009421*
X-000914Y009424*
X-000922Y009431*
X-000932Y00944*
X-000943Y009451*
X-000953Y009464*
X-000963Y009481*
X-000973Y0095*
Y009499*
X-000974Y009498*
X-000977Y009493*
X-000982Y009484*
X-000987Y009474*
X-000995Y009462*
X-001004Y009452*
X-001015Y009441*
X-001027Y009432*
X-001029Y009431*
X-001034Y009428*
X-00104Y009425*
X-00105Y009421*
X-001061Y009417*
X-001075Y009414*
X-001088Y009411*
X-001104*
X-001105*
X-001106*
X-00111*
X-001116*
X-001121Y009412*
X-001128Y009413*
X-001145Y009417*
X-001163Y009422*
X-001183Y009432*
X-001192Y009437*
X-001202Y009443*
X-001211Y009452*
X-00122Y00946*
X-001221Y009461*
X-001222Y009462*
X-001225Y009465*
X-001228Y009469*
X-001231Y009474*
X-001235Y00948*
X-001239Y009487*
X-001244Y009496*
X-001248Y009505*
X-001252Y009515*
X-001256Y009527*
X-00126Y00954*
X-001262Y009554*
X-001265Y009568*
X-001266Y009584*
X-001267Y0096*
Y009609*
X-001266Y009615*
X-001265Y009623*
X-001264Y009631*
X-001263Y009641*
X-001261Y009651*
X-001256Y009674*
X-001248Y009698*
X-001242Y009708*
X-001236Y00972*
X-001229Y00973*
X-00122Y00974*
X-001219Y009741*
Y009742*
X-001216Y009745*
X-001212Y009749*
X-001208Y009752*
X-001202Y009756*
X-001188Y009766*
X-001171Y009775*
X-001152Y009782*
X-001129Y009789*
X-001116Y00979*
X-001104*
X-001103*
X-001102*
X-001096*
X-001088*
X-001077Y009788*
X-001065Y009785*
X-001053Y00978*
X-001039Y009775*
X-001025Y009767*
X-001024Y009766*
X-00102Y009762*
X-001014Y009758*
X-001006Y00975*
X-000997Y009741*
X-000989Y00973*
X-000981Y009718*
X-000973Y009703*
Y009704*
Y009706*
X-000972Y009708*
X-00097Y009712*
X-000964Y009721*
X-000957Y009733*
X-000949Y009746*
X-000938Y009759*
X-000925Y009772*
X-000911Y009783*
X-000909Y009784*
X-000903Y009788*
X-000895Y009792*
X-000884Y009797*
X-000871Y009802*
X-000854Y009806*
X-000837Y00981*
X-000818*
X-000817*
X-000814*
X-000809*
X-000803*
G37*
G36*
X-000759Y009261D02*
X-000633D01*
Y009145*
X-000759*
Y008886*
X-000864*
X-001266Y009159*
Y009261*
X-000865*
Y00934*
X-000759*
Y009261*
G37*
G36*
X-001759Y021746D02*
X-002019D01*
X-00202*
X-002022*
X-002026*
X-00203*
X-002042Y021745*
X-002056Y021744*
X-00207Y021743*
X-002085Y021741*
X-002097Y021738*
X-002102Y021735*
X-002107Y021733*
X-002108Y021732*
X-002111Y02173*
X-002115Y021726*
X-00212Y02172*
X-002125Y021713*
X-002129Y021704*
X-002132Y021693*
X-002133Y021681*
Y021677*
X-002132Y021672*
X-002131Y021666*
X-002129Y021659*
X-002127Y02165*
X-002123Y021641*
X-002118Y021633*
X-002117Y021632*
X-002115Y021629*
X-002111Y021626*
X-002106Y021621*
X-002099Y021616*
X-002092Y02161*
X-002083Y021606*
X-002072Y021601*
X-00207*
X-002067Y021599*
X-002059Y021598*
X-002049Y021597*
X-002036Y021595*
X-002019Y021594*
X-002Y021592*
X-001977*
X-001759*
Y021471*
X-002008*
X-002009*
X-002011*
X-002015*
X-002019*
X-00203*
X-002044Y02147*
X-002058Y021469*
X-002072Y021468*
X-002085Y021466*
X-00209Y021465*
X-002094Y021464*
X-002095*
X-002097Y021463*
X-002101Y021461*
X-002105Y021459*
X-002115Y021453*
X-002119Y021448*
X-002123Y021444*
X-002124Y021443*
X-002125Y021441*
X-002127Y021438*
X-002128Y021434*
X-00213Y021429*
X-002131Y021423*
X-002133Y021415*
Y021403*
X-002132Y021397*
X-002131Y021391*
X-002129Y021383*
X-002127Y021374*
X-002123Y021366*
X-002118Y021357*
X-002117Y021356*
X-002115Y021353*
X-002111Y02135*
X-002107Y021345*
X-0021Y02134*
X-002093Y021334*
X-002084Y02133*
X-002074Y021325*
X-002073*
X-002068Y021323*
X-002061Y021322*
X-002052Y021321*
X-002038Y021319*
X-002023Y021318*
X-002003Y021316*
X-00198*
X-001759*
Y021195*
X-002216*
Y021306*
X-002153*
X-002154Y021307*
X-002156Y021309*
X-002159Y021312*
X-002165Y021317*
X-00217Y021322*
X-002176Y021329*
X-002183Y021337*
X-00219Y021346*
X-002196Y021356*
X-002203Y021367*
X-002215Y021391*
X-00222Y021404*
X-002223Y021418*
X-002225Y021433*
X-002226Y021448*
Y021455*
X-002225Y021464*
X-002224Y021474*
X-002221Y021485*
X-002219Y021498*
X-002214Y021511*
X-002208Y021524*
X-002207Y021526*
X-002204Y021529*
X-0022Y021536*
X-002194Y021543*
X-002186Y021551*
X-002177Y02156*
X-002165Y021569*
X-002152Y021577*
X-002154Y021579*
X-002159Y021583*
X-002165Y021588*
X-002173Y021597*
X-002182Y021607*
X-002191Y021618*
X-0022Y021629*
X-002208Y021642*
X-002209Y021644*
X-00221Y021649*
X-002213Y021656*
X-002217Y021665*
X-00222Y021676*
X-002223Y021689*
X-002225Y021702*
X-002226Y021717*
Y021725*
X-002225Y021734*
X-002223Y021746*
X-00222Y02176*
X-002217Y021773*
X-002212Y021788*
X-002205Y021802*
X-002204Y021803*
X-002201Y021807*
X-002197Y021813*
X-00219Y021822*
X-002181Y02183*
X-002171Y021839*
X-002159Y021847*
X-002145Y021854*
X-002144Y021855*
X-002139Y021856*
X-002132Y021858*
X-002122Y021861*
X-002109Y021864*
X-002093Y021865*
X-002073Y021866*
X-00205Y021867*
X-001759*
Y021746*
G37*
G36*
Y020963D02*
X-002019D01*
X-00202*
X-002022*
X-002026*
X-00203*
X-002042Y020962*
X-002056Y020961*
X-00207Y02096*
X-002085Y020957*
X-002097Y020954*
X-002102Y020952*
X-002107Y02095*
X-002108Y020949*
X-002111Y020946*
X-002115Y020943*
X-00212Y020937*
X-002125Y02093*
X-002129Y020921*
X-002132Y02091*
X-002133Y020898*
Y020893*
X-002132Y020889*
X-002131Y020882*
X-002129Y020875*
X-002127Y020867*
X-002123Y020858*
X-002118Y02085*
X-002117Y020849*
X-002115Y020846*
X-002111Y020842*
X-002106Y020838*
X-002099Y020832*
X-002092Y020827*
X-002083Y020822*
X-002072Y020818*
X-00207*
X-002067Y020816*
X-002059Y020815*
X-002049Y020813*
X-002036Y020811*
X-002019Y02081*
X-002Y020809*
X-001977*
X-001759*
Y020687*
X-002008*
X-002009*
X-002011*
X-002015*
X-002019*
X-00203*
X-002044*
X-002058Y020686*
X-002072Y020685*
X-002085Y020683*
X-00209Y020681*
X-002094Y02068*
X-002095*
X-002097Y020679*
X-002101Y020677*
X-002105Y020676*
X-002115Y020669*
X-002119Y020665*
X-002123Y02066*
X-002124Y020659*
X-002125Y020657*
X-002127Y020655*
X-002128Y020651*
X-00213Y020646*
X-002131Y020639*
X-002133Y020632*
Y020619*
X-002132Y020614*
X-002131Y020607*
X-002129Y020599*
X-002127Y020591*
X-002123Y020583*
X-002118Y020574*
X-002117Y020573*
X-002115Y02057*
X-002111Y020566*
X-002107Y020562*
X-0021Y020556*
X-002093Y020551*
X-002084Y020546*
X-002074Y020542*
X-002073*
X-002068Y02054*
X-002061Y020539*
X-002052Y020537*
X-002038Y020535*
X-002023Y020534*
X-002003Y020533*
X-00198*
X-001759*
Y020411*
X-002216*
Y020523*
X-002153*
X-002154*
X-002156Y020525*
X-002159Y020529*
X-002165Y020533*
X-00217Y020539*
X-002176Y020545*
X-002183Y020554*
X-00219Y020563*
X-002196Y020573*
X-002203Y020584*
X-002215Y020607*
X-00222Y020621*
X-002223Y020635*
X-002225Y020649*
X-002226Y020665*
Y020672*
X-002225Y02068*
X-002224Y02069*
X-002221Y020702*
X-002219Y020715*
X-002214Y020728*
X-002208Y02074*
X-002207Y020742*
X-002204Y020746*
X-0022Y020752*
X-002194Y020759*
X-002186Y020768*
X-002177Y020777*
X-002165Y020786*
X-002152Y020794*
X-002154Y020796*
X-002159Y020799*
X-002165Y020805*
X-002173Y020813*
X-002182Y020823*
X-002191Y020834*
X-0022Y020846*
X-002208Y020859*
X-002209Y020861*
X-00221Y020865*
X-002213Y020872*
X-002217Y020881*
X-00222Y020892*
X-002223Y020905*
X-002225Y020919*
X-002226Y020933*
Y020942*
X-002225Y020951*
X-002223Y020963*
X-00222Y020976*
X-002217Y02099*
X-002212Y021004*
X-002205Y021018*
X-002204Y02102*
X-002201Y021024*
X-002197Y02103*
X-00219Y021038*
X-002181Y021046*
X-002171Y021055*
X-002159Y021064*
X-002145Y021071*
X-002144Y021072*
X-002139Y021073*
X-002132Y021075*
X-002122Y021077*
X-002109Y02108*
X-002093Y021082*
X-002073Y021083*
X-00205Y021084*
X-001759*
Y020963*
G37*
G36*
X-002045Y020315D02*
X-00203Y020314D01*
X-002014Y020312*
X-001996Y02031*
X-001977Y020308*
X-001956Y020304*
X-001936Y0203*
X-001915Y020295*
X-001894Y020288*
X-001875Y020281*
X-001856Y020272*
X-001839Y020263*
X-001823Y020251*
X-001822Y02025*
X-00182Y020248*
X-001816Y020245*
X-001811Y020239*
X-001806Y020233*
X-001799Y020226*
X-001792Y020216*
X-001785Y020206*
X-001778Y020195*
X-001771Y020183*
X-001765Y020169*
X-001759Y020154*
X-001754Y020138*
X-00175Y020122*
X-001748Y020104*
X-001747Y020085*
Y020078*
X-001748Y020073*
Y020067*
X-001749Y02006*
X-001751Y020042*
X-001757Y020023*
X-001763Y020004*
X-001773Y019984*
X-001779Y019975*
X-001786Y019966*
X-001787Y019965*
X-001788Y019964*
X-00179Y019961*
X-001793Y019959*
X-001798Y019955*
X-001802Y01995*
X-001809Y019947*
X-001815Y019941*
X-001823Y019937*
X-001831Y019931*
X-001841Y019927*
X-001852Y019922*
X-001863Y019918*
X-001876Y019914*
X-001889Y01991*
X-001903Y019908*
X-001917Y020024*
X-001915*
X-001911Y020025*
X-001904Y020026*
X-001897Y020029*
X-001888Y020031*
X-001879Y020035*
X-001871Y02004*
X-001863Y020046*
X-001862Y020047*
X-001861Y02005*
X-001858Y020053*
X-001855Y020059*
X-001852Y020066*
X-00185Y020073*
X-001848Y020083*
X-001847Y020093*
Y020095*
X-001848Y0201*
X-001849Y020106*
X-001852Y020115*
X-001855Y020125*
X-001862Y020135*
X-00187Y020146*
X-001881Y020156*
X-001883Y020157*
X-001884Y020159*
X-001888Y020161*
X-001892Y020163*
X-001897Y020165*
X-001903Y020167*
X-001912Y020171*
X-001921Y020174*
X-001931Y020176*
X-001943Y020179*
X-001955Y020182*
X-00197Y020185*
X-001986Y020186*
X-002005Y020188*
X-002024Y02019*
X-002023Y020189*
X-002022Y020188*
X-002019Y020185*
X-002016Y020182*
X-002012Y020177*
X-002007Y020172*
X-001997Y020159*
X-001987Y020143*
X-001979Y020123*
X-001975Y020112*
X-001974Y020101*
X-001972Y020089*
X-001971Y020076*
Y020069*
X-001972Y020063*
X-001973Y020057*
X-001974Y02005*
X-001978Y020032*
X-001985Y020012*
X-00199Y020002*
X-001995Y019991*
X-002002Y01998*
X-002009Y01997*
X-002018Y019959*
X-002028Y019949*
X-002029Y019948*
X-002031Y019946*
X-002035Y019944*
X-002038Y01994*
X-002045Y019936*
X-002051Y019931*
X-002059Y019927*
X-002068Y019922*
X-002078Y019917*
X-00209Y019912*
X-002102Y019908*
X-002116Y019903*
X-002129Y019899*
X-002145Y019898*
X-002161Y019896*
X-002178Y019895*
X-002179*
X-002182*
X-002187*
X-002194Y019896*
X-002202Y019897*
X-002211Y019898*
X-002222Y019899*
X-002233Y019902*
X-002258Y019909*
X-002271Y019913*
X-002284Y019919*
X-002297Y019925*
X-00231Y019933*
X-002322Y019941*
X-002333Y019951*
X-002334Y019952*
X-002336Y019954*
X-002339Y019957*
X-002343Y019961*
X-002347Y019968*
X-002353Y019974*
X-002357Y019982*
X-002364Y019991*
X-002369Y020001*
X-002374Y020012*
X-002379Y020024*
X-002384Y020037*
X-002387Y020051*
X-00239Y020065*
X-002392Y02008*
X-002393Y020096*
Y020101*
X-002392Y020105*
Y020113*
X-002391Y020121*
X-002389Y02013*
X-002386Y020141*
X-002384Y020152*
X-002379Y020165*
X-002374Y020177*
X-002368Y02019*
X-002361Y020204*
X-002353Y020216*
X-002343Y020229*
X-002331Y020242*
X-002318Y020254*
X-002317Y020255*
X-002314Y020257*
X-00231Y020259*
X-002303Y020264*
X-002295Y020268*
X-002285Y020274*
X-002273Y020279*
X-00226Y020285*
X-002243Y02029*
X-002225Y020297*
X-002205Y020301*
X-002183Y020306*
X-002159Y02031*
X-002132Y020313*
X-002104Y020315*
X-002073Y020316*
X-002072*
X-002071*
X-002068*
X-002066*
X-002057*
X-002045Y020315*
G37*
G36*
X-001763Y019802D02*
X-00175Y019801D01*
X-001737Y019799*
X-001723Y019796*
X-001711Y019794*
X-00171*
X-001706Y019792*
X-0017Y019789*
X-001693Y019786*
X-001684Y019781*
X-001675Y019776*
X-001666Y019768*
X-001657Y019759*
X-001656Y019758*
X-001653Y019755*
X-001648Y019749*
X-001643Y019742*
X-001637Y019733*
X-00163Y019722*
X-001624Y019709*
X-001618Y019695*
X-001668Y019672*
X-001669Y019673*
X-001671Y019678*
X-001674Y019684*
X-001678Y019692*
X-001682Y019701*
X-001688Y019709*
X-001695Y019717*
X-001702Y019724*
X-001703Y019725*
X-001706Y019726*
X-00171Y019729*
X-001717Y019732*
X-001725Y019735*
X-001735Y019738*
X-001746Y01974*
X-001759Y019741*
Y019682*
X-00188*
Y019803*
X-001793*
X-001792*
X-001791*
X-001789*
X-001785*
X-001775*
X-001763Y019802*
G37*
G36*
X-001759Y019153D02*
X-00176D01*
X-001761*
X-001765Y019154*
X-00177Y019155*
X-001775Y019156*
X-001781Y019157*
X-001798Y019161*
X-001816Y019166*
X-001836Y019173*
X-001858Y019182*
X-001879Y019194*
X-00188*
X-001882Y019196*
X-001885Y019198*
X-001889Y019202*
X-001895Y019205*
X-001902Y019211*
X-00191Y019217*
X-001919Y019224*
X-00193Y019233*
X-001941Y019243*
X-001954Y019254*
X-001967Y019266*
X-001981Y01928*
X-001996Y019295*
X-002013Y019312*
X-00203Y01933*
X-002031Y019331*
X-002034Y019334*
X-002037Y019337*
X-002043Y019343*
X-002048Y01935*
X-002056Y019357*
X-002072Y019374*
X-002089Y01939*
X-002107Y019407*
X-002114Y019414*
X-002122Y019421*
X-002128Y019427*
X-002134Y01943*
X-002136Y019431*
X-00214Y019434*
X-002148Y019438*
X-002158Y019443*
X-002169Y019448*
X-002181Y019452*
X-002194Y019455*
X-002208Y019456*
X-002209*
X-00221*
X-002214*
X-002222Y019455*
X-002231Y019453*
X-002241Y01945*
X-002251Y019447*
X-002261Y019441*
X-002271Y019434*
Y019433*
X-002274Y01943*
X-002278Y019425*
X-002282Y019418*
X-002285Y019409*
X-002289Y019399*
X-002292Y019387*
Y019374*
Y019367*
Y01936*
X-00229Y019352*
X-002287Y019342*
X-002282Y019332*
X-002277Y019322*
X-00227Y019313*
X-002269Y019312*
X-002265Y019309*
X-00226Y019305*
X-002251Y019302*
X-002241Y019297*
X-002228Y019294*
X-002212Y01929*
X-002194Y019288*
X-002206Y019168*
X-002207*
X-00221Y019169*
X-002215*
X-002222Y019171*
X-00223Y019172*
X-00224Y019174*
X-00225Y019177*
X-002261Y01918*
X-002284Y019189*
X-002308Y0192*
X-00232Y019207*
X-002331Y019215*
X-00234Y019224*
X-002349Y019234*
X-00235Y019235*
X-002351Y019237*
X-002353Y01924*
X-002356Y019244*
X-002359Y01925*
X-002363Y019257*
X-002367Y019264*
X-002371Y019274*
X-002375Y019284*
X-002379Y019295*
X-002386Y019318*
X-002391Y019346*
X-002392Y019361*
X-002393Y019376*
Y019386*
X-002392Y019392*
X-002391Y0194*
X-00239Y019409*
X-002388Y019419*
X-002386Y01943*
X-00238Y019454*
X-002371Y019478*
X-002365Y01949*
X-002359Y019501*
X-002351Y019513*
X-002342Y019523*
X-002341Y019524*
X-00234Y019526*
X-002336Y019528*
X-002333Y019531*
X-002328Y019536*
X-002322Y01954*
X-002315Y019545*
X-002307Y01955*
X-002289Y01956*
X-002268Y019569*
X-002256Y019572*
X-002243Y019574*
X-00223Y019576*
X-002216Y019577*
X-002214*
X-002209*
X-0022Y019576*
X-00219Y019575*
X-002178Y019573*
X-002164Y019571*
X-002149Y019567*
X-002135Y019561*
X-002133*
X-002128Y019559*
X-00212Y019555*
X-00211Y01955*
X-002098Y019543*
X-002085Y019535*
X-00207Y019525*
X-002055Y019513*
X-002054Y019512*
X-002049Y019509*
X-002043Y019503*
X-002034Y019495*
X-002023Y019484*
X-002008Y01947*
X-001993Y019454*
X-001974Y019434*
X-001973Y019433*
X-001972Y019431*
X-001969Y019428*
X-001965Y019425*
X-001956Y019415*
X-001945Y019403*
X-001934Y019391*
X-001922Y019379*
X-001912Y019368*
X-001907Y019365*
X-001903Y019361*
Y01936*
X-001901Y019358*
X-001897Y019356*
X-001893Y019352*
X-001883Y019344*
X-001871Y019336*
Y019577*
X-001759*
Y019153*
G37*
G36*
X007367Y-001093D02*
X007374D01*
X007381Y-001094*
X007397Y-001097*
X007416Y-001102*
X007436Y-001109*
X007456Y-001119*
X007465Y-001125*
X007474Y-001133*
X007475*
X007476Y-001135*
X007478Y-001137*
X007481Y-00114*
X007486Y-001145*
X007489Y-001149*
X007499Y-001162*
X007509Y-001179*
X007519Y-001199*
X007528Y-001222*
X007535Y-001249*
X007418Y-001262*
Y-00126*
X007417Y-001257*
X007416Y-00125*
X007414Y-001242*
X007411Y-001234*
X007406Y-001225*
X007402Y-001217*
X007395Y-001209*
Y-001208*
X007392Y-001206*
X007388Y-001204*
X007383Y-0012*
X007376Y-001197*
X007368Y-001195*
X007358Y-001193*
X007348Y-001192*
X007346*
X007342Y-001193*
X007334Y-001194*
X007325Y-001196*
X007315Y-0012*
X007304Y-001206*
X007293Y-001215*
X007283Y-001227*
Y-001228*
X007281Y-00123*
X007279Y-001234*
X007277Y-001237*
X007274Y-001243*
X007272Y-001249*
X00727Y-001258*
X007266Y-001267*
X007263Y-001277*
X007261Y-001288*
X007258Y-001301*
X007255Y-001316*
X007253Y-001332*
X007252Y-00135*
X00725Y-00137*
X007251Y-001369*
X007252Y-001367*
X007254Y-001365*
X007258Y-001361*
X007262Y-001357*
X007268Y-001352*
X007281Y-001342*
X007297Y-001333*
X007316Y-001324*
X007327Y-00132*
X007338Y-001319*
X00735Y-001317*
X007363Y-001316*
X00737*
X007375Y-001317*
X007382Y-001318*
X007389Y-001319*
X007398Y-00132*
X007407Y-001323*
X007427Y-00133*
X007438Y-001335*
X007449Y-00134*
X00746Y-001347*
X007471Y-001355*
X007482Y-001364*
X007492Y-001374*
X007493Y-001375*
X007495Y-001377*
X007498Y-00138*
X0075Y-001384*
X007505Y-001391*
X007509Y-001397*
X007514Y-001405*
X007519Y-001414*
X007525Y-001424*
X007529Y-001436*
X007534Y-001448*
X007539Y-001462*
X007541Y-001475*
X007544Y-001491*
X007546Y-001506*
X007547Y-001524*
Y-001528*
Y-001533*
X007546Y-00154*
X007545Y-001548*
X007544Y-001557*
X007542Y-001568*
X007539Y-001579*
X007533Y-001605*
X007528Y-001617*
X007522Y-00163*
X007516Y-001643*
X007508Y-001656*
X007499Y-001668*
X007489Y-001679*
X007488Y-00168*
X007487Y-001682*
X007484Y-001685*
X007479Y-001688*
X007474Y-001693*
X007467Y-001698*
X007459Y-001703*
X00745Y-001708*
X00744Y-001714*
X007429Y-001719*
X007417Y-001724*
X007404Y-001728*
X00739Y-001732*
X007375Y-001735*
X00736Y-001737*
X007344Y-001738*
X007339*
X007334Y-001737*
X007328*
X00732Y-001735*
X00731Y-001734*
X0073Y-001731*
X007288Y-001728*
X007276Y-001725*
X007263Y-001719*
X00725Y-001714*
X007237Y-001707*
X007223Y-001698*
X007211Y-001688*
X007198Y-001677*
X007186Y-001664*
X007185Y-001663*
X007183Y-00166*
X00718Y-001656*
X007177Y-001649*
X007171Y-001641*
X007167Y-001631*
X007161Y-001619*
X007156Y-001606*
X00715Y-001589*
X007144Y-001572*
X007139Y-001552*
X007135Y-001529*
X00713Y-001505*
X007128Y-001479*
X007126Y-001451*
X007125Y-00142*
Y-001419*
Y-001418*
Y-001415*
Y-001412*
Y-001403*
X007126Y-001391*
X007127Y-001377*
X007129Y-00136*
X00713Y-001342*
X007133Y-001323*
X007136Y-001303*
X00714Y-001282*
X007146Y-001261*
X007152Y-00124*
X00716Y-001221*
X007168Y-001202*
X007178Y-001185*
X007189Y-001169*
X00719Y-001168*
X007191Y-001165*
X007195Y-001162*
X007201Y-001157*
X007207Y-001151*
X007214Y-001145*
X007223Y-001137*
X007233Y-00113*
X007245Y-001124*
X007257Y-001116*
X007272Y-00111*
X007286Y-001104*
X007302Y-001099*
X007319Y-001095*
X007336Y-001093*
X007355Y-001092*
X007363*
X007367Y-001093*
G37*
G36*
X00969Y-001259D02*
X009702Y-001261D01*
X009716Y-001264*
X009729Y-001268*
X009744Y-001272*
X009758Y-001279*
X00976Y-00128*
X009763Y-001283*
X00977Y-001288*
X009778Y-001294*
X009786Y-001303*
X009795Y-001313*
X009803Y-001325*
X009811Y-001339*
Y-00134*
X009812Y-001345*
X009814Y-001352*
X009817Y-001362*
X00982Y-001375*
X009821Y-001391*
X009822Y-001411*
X009823Y-001434*
Y-001726*
X009702*
Y-001465*
Y-001464*
Y-001462*
Y-001459*
Y-001454*
X009701Y-001442*
X0097Y-001429*
X009699Y-001414*
X009697Y-0014*
X009694Y-001387*
X009691Y-001382*
X009689Y-001378*
X009688Y-001377*
X009686Y-001373*
X009682Y-00137*
X009677Y-001364*
X009669Y-00136*
X00966Y-001355*
X009649Y-001352*
X009637Y-001351*
X009633*
X009628Y-001352*
X009622Y-001353*
X009615Y-001355*
X009606Y-001358*
X009597Y-001361*
X009589Y-001367*
X009588Y-001368*
X009586Y-00137*
X009582Y-001373*
X009577Y-001379*
X009572Y-001385*
X009566Y-001392*
X009562Y-001401*
X009557Y-001412*
Y-001414*
X009555Y-001418*
Y-001425*
X009553Y-001435*
X009551Y-001449*
X00955Y-001465*
X009548Y-001484*
Y-001507*
Y-001726*
X009427*
Y-001476*
Y-001475*
Y-001473*
Y-00147*
Y-001465*
Y-001454*
X009426Y-001441*
X009425Y-001426*
X009424Y-001412*
X009422Y-0014*
X009421Y-001394*
X00942Y-001391*
Y-00139*
X009419Y-001387*
X009417Y-001383*
X009415Y-00138*
X009409Y-00137*
X009404Y-001365*
X0094Y-001361*
X009399Y-00136*
X009397*
X009394Y-001358*
X009391Y-001356*
X009385Y-001354*
X009379Y-001353*
X009371Y-001351*
X009359*
X009353Y-001352*
X009347Y-001353*
X009339Y-001355*
X00933Y-001358*
X009322Y-001361*
X009313Y-001367*
X009312Y-001368*
X009309Y-00137*
X009306Y-001373*
X009301Y-001378*
X009296Y-001384*
X00929Y-001391*
X009286Y-001401*
X009281Y-001411*
X009279Y-001416*
Y-001423*
X009277Y-001432*
X009275Y-001446*
X009274Y-001462*
X009272Y-001482*
Y-001504*
Y-001726*
X009151*
Y-001268*
X009262*
Y-001331*
X009263Y-00133*
X009265Y-001329*
X009269Y-001325*
X009273Y-001319*
X009279Y-001314*
X009285Y-001309*
X009293Y-001301*
X009302Y-001295*
X009312Y-001288*
X009323Y-001281*
X009347Y-001269*
X009361Y-001265*
X009374Y-001261*
X009389Y-001259*
X009404Y-001258*
X009412*
X00942Y-001259*
X00943Y-00126*
X009442Y-001263*
X009454Y-001266*
X009467Y-00127*
X00948Y-001277*
X009482Y-001278*
X009485Y-00128*
X009492Y-001284*
X009499Y-00129*
X009507Y-001299*
X009516Y-001308*
X009525Y-001319*
X009534Y-001332*
X009535Y-00133*
X009539Y-001326*
X009545Y-001319*
X009553Y-001311*
X009563Y-001302*
X009574Y-001293*
X009586Y-001284*
X009598Y-001277*
X0096Y-001276*
X009605Y-001274*
X009612Y-001271*
X009621Y-001268*
X009632Y-001264*
X009645Y-001261*
X009658Y-001259*
X009673Y-001258*
X009681*
X00969Y-001259*
G37*
G36*
X008907D02*
X008919Y-001261D01*
X008932Y-001264*
X008946Y-001268*
X008961Y-001272*
X008974Y-001279*
X008976Y-00128*
X00898Y-001283*
X008986Y-001288*
X008994Y-001294*
X009002Y-001303*
X009012Y-001313*
X00902Y-001325*
X009027Y-001339*
X009028Y-00134*
X009029Y-001345*
X009031Y-001352*
X009033Y-001362*
X009036Y-001375*
X009038Y-001391*
X009039Y-001411*
X00904Y-001434*
Y-001726*
X008919*
Y-001465*
Y-001464*
Y-001462*
Y-001459*
Y-001454*
X008918Y-001442*
X008917Y-001429*
X008916Y-001414*
X008913Y-0014*
X00891Y-001387*
X008908Y-001382*
X008906Y-001378*
X008905Y-001377*
X008902Y-001373*
X008899Y-00137*
X008893Y-001364*
X008886Y-00136*
X008877Y-001355*
X008866Y-001352*
X008854Y-001351*
X008849*
X008845Y-001352*
X008839Y-001353*
X008831Y-001355*
X008823Y-001358*
X008814Y-001361*
X008806Y-001367*
X008805Y-001368*
X008802Y-00137*
X008798Y-001373*
X008794Y-001379*
X008788Y-001385*
X008783Y-001392*
X008778Y-001401*
X008774Y-001412*
Y-001414*
X008772Y-001418*
X008771Y-001425*
X008769Y-001435*
X008767Y-001449*
Y-001465*
X008765Y-001484*
Y-001507*
Y-001726*
X008644*
Y-001476*
Y-001475*
Y-001473*
Y-00147*
Y-001465*
Y-001454*
X008643Y-001441*
X008642Y-001426*
X008641Y-001412*
X008639Y-0014*
X008637Y-001394*
X008636Y-001391*
Y-00139*
X008635Y-001387*
X008634Y-001383*
X008632Y-00138*
X008625Y-00137*
X008621Y-001365*
X008616Y-001361*
X008615Y-00136*
X008613*
X008611Y-001358*
X008607Y-001356*
X008602Y-001354*
X008595Y-001353*
X008588Y-001351*
X008575*
X00857Y-001352*
X008563Y-001353*
X008555Y-001355*
X008547Y-001358*
X008539Y-001361*
X00853Y-001367*
X008529Y-001368*
X008526Y-00137*
X008522Y-001373*
X008518Y-001378*
X008512Y-001384*
X008507Y-001391*
X008502Y-001401*
X008498Y-001411*
X008496Y-001416*
X008495Y-001423*
X008493Y-001432*
X008491Y-001446*
Y-001462*
X008489Y-001482*
Y-001504*
Y-001726*
X008368*
Y-001268*
X008479*
Y-001331*
X00848Y-00133*
X008481Y-001329*
X008485Y-001325*
X00849Y-001319*
X008495Y-001314*
X008501Y-001309*
X00851Y-001301*
X008519Y-001295*
X008529Y-001288*
X00854Y-001281*
X008563Y-001269*
X008577Y-001265*
X008591Y-001261*
X008605Y-001259*
X008621Y-001258*
X008628*
X008636Y-001259*
X008646Y-00126*
X008658Y-001263*
X008671Y-001266*
X008684Y-00127*
X008696Y-001277*
X008698Y-001278*
X008702Y-00128*
X008708Y-001284*
X008716Y-00129*
X008724Y-001299*
X008733Y-001308*
X008742Y-001319*
X00875Y-001332*
X008752Y-00133*
X008756Y-001326*
X008761Y-001319*
X008769Y-001311*
X008779Y-001302*
X00879Y-001293*
X008802Y-001284*
X008815Y-001277*
X008817Y-001276*
X008821Y-001274*
X008828Y-001271*
X008838Y-001268*
X008849Y-001264*
X008861Y-001261*
X008875Y-001259*
X00889Y-001258*
X008898*
X008907Y-001259*
G37*
G36*
X006848Y-001093D02*
X006856Y-001094D01*
X006864*
X006874Y-001096*
X006884Y-001099*
X006907Y-001105*
X006919Y-00111*
X006932Y-001116*
X006944Y-001123*
X006955Y-00113*
X006966Y-001139*
X006976Y-001149*
X006977Y-00115*
X006978Y-001151*
X006981Y-001154*
X006984Y-001157*
X006991Y-001166*
X006999Y-001179*
X007007Y-001195*
X007014Y-001213*
X007019Y-001233*
X00702Y-001243*
X007021Y-001254*
Y-001255*
Y-001258*
X00702Y-001262*
X007019Y-001268*
X007018Y-001275*
X007017Y-001283*
X007014Y-001292*
X00701Y-001302*
X007005Y-001312*
X006999Y-001323*
X006992Y-001334*
X006983Y-001345*
X006972Y-001356*
X00696Y-001367*
X006946Y-001377*
X00693Y-001387*
X006931*
X006933Y-001388*
X006935*
X006939Y-00139*
X006949Y-001392*
X006961Y-001398*
X006975Y-001405*
X006989Y-001414*
X007004Y-001426*
X007017Y-00144*
X007018Y-001442*
X007022Y-001447*
X007027Y-001455*
X007033Y-001467*
X007039Y-001481*
X007044Y-001498*
X007047Y-001516*
X007049Y-001537*
Y-001538*
Y-001541*
Y-001545*
X007048Y-001551*
X007047Y-001558*
X007046Y-001566*
X007044Y-001576*
X007042Y-001586*
X007035Y-001608*
X007029Y-00162*
X007024Y-001633*
X007017Y-001645*
X007008Y-001657*
X006999Y-001668*
X006988Y-001679*
X006987Y-00168*
X006986Y-001682*
X006982Y-001685*
X006977Y-001688*
X006971Y-001693*
X006965Y-001698*
X006955Y-001703*
X006946Y-001708*
X006936Y-001714*
X006924Y-001719*
X006912Y-001724*
X006899Y-001728*
X006884Y-001732*
X00687Y-001735*
X006853Y-001737*
X006837Y-001738*
X006829*
X006822Y-001737*
X006815Y-001736*
X006807Y-001735*
X006798Y-001733*
X006787Y-001731*
X006765Y-001726*
X006741Y-001717*
X006729Y-001711*
X006718Y-001705*
X006706Y-001697*
X006695Y-001688*
X006694*
X006692Y-001686*
X006689Y-001683*
X006686Y-001679*
X006681Y-001675*
X006677Y-001668*
X006671Y-001662*
X006666Y-001654*
X00666Y-001645*
X006654Y-001636*
X006644Y-001614*
X006636Y-001588*
X006632Y-001575*
X00663Y-00156*
X006747Y-001545*
Y-001546*
Y-001547*
X006748Y-001553*
X00675Y-001561*
X006752Y-001571*
X006757Y-001582*
X006761Y-001594*
X006769Y-001605*
X006777Y-001615*
X006778Y-001616*
X006781Y-001618*
X006787Y-001622*
X006793Y-001626*
X006802Y-00163*
X006812Y-001634*
X006823Y-001636*
X006836Y-001637*
X006838*
X006843Y-001636*
X006849*
X006858Y-001634*
X006868Y-00163*
X006878Y-001626*
X006889Y-001618*
X006899Y-001609*
X0069Y-001608*
X006904Y-001604*
X006907Y-001597*
X006913Y-001589*
X006917Y-001578*
X006922Y-001565*
X006924Y-001549*
X006925Y-001532*
Y-001531*
Y-00153*
Y-001524*
X006924Y-001516*
X006923Y-001505*
X006919Y-001493*
X006914Y-001482*
X006908Y-00147*
X0069Y-001459*
X006899Y-001458*
X006895Y-001454*
X00689Y-00145*
X006884Y-001445*
X006874Y-00144*
X006864Y-001436*
X006853Y-001432*
X006841*
X006832*
X006825*
X006817Y-001433*
X006807Y-001435*
X006797Y-001438*
X006785Y-001441*
X006798Y-001343*
X006806*
X006815Y-001342*
X006826Y-001341*
X006838Y-001339*
X006851Y-001335*
X006863Y-001329*
X006873Y-001322*
X006874Y-001321*
X006878Y-001318*
X006882Y-001313*
X006887Y-001306*
X006892Y-001298*
X006896Y-001288*
X006899Y-001276*
X0069Y-001262*
Y-00126*
Y-001257*
X006899Y-001251*
X006897Y-001244*
X006895Y-001236*
X006892Y-001227*
X006887Y-001218*
X006881Y-001211*
X00688Y-00121*
X006877Y-001208*
X006873Y-001205*
X006867Y-001201*
X00686Y-001198*
X006852Y-001195*
X006841Y-001193*
X00683Y-001192*
X006824*
X006819Y-001193*
X006812Y-001195*
X006803Y-001197*
X006794Y-001201*
X006785Y-001206*
X006777Y-001214*
X006776Y-001215*
X006773Y-001217*
X00677Y-001223*
X006765Y-00123*
X006761Y-001238*
X006757Y-001249*
X006753Y-001262*
X006751Y-001277*
X006639Y-001258*
X00664Y-001256*
Y-001253*
X006641Y-001248*
X006644Y-001238*
X006648Y-001225*
X006653Y-00121*
X006658Y-001195*
X006666Y-00118*
X006674Y-001166*
X006675Y-001165*
X006679Y-001161*
X006684Y-001155*
X006691Y-001146*
X0067Y-001138*
X006711Y-001129*
X006725Y-00112*
X00674Y-001112*
X006741Y-001111*
X006747Y-001109*
X006756Y-001105*
X006767Y-001102*
X006781Y-001098*
X006797Y-001094*
X006814Y-001093*
X006833Y-001092*
X006842*
X006848Y-001093*
G37*
G36*
X008258Y-001217D02*
X00803D01*
X00801Y-001324*
X008011*
X008012Y-001323*
X008018Y-00132*
X008026Y-001318*
X008036Y-001313*
X008049Y-001309*
X008062Y-001307*
X008078Y-001304*
X008093Y-001303*
X008102*
X008107Y-001304*
X008113Y-001305*
X008122Y-001306*
X008131Y-001308*
X008141Y-00131*
X008162Y-001318*
X008173Y-001322*
X008184Y-001328*
X008196Y-001335*
X008208Y-001343*
X008219Y-001352*
X00823Y-001362*
X008231Y-001363*
X008233Y-001365*
X008235Y-001369*
X008239Y-001373*
X008243Y-001379*
X008248Y-001386*
X008253Y-001394*
X008258Y-001403*
X008264Y-001413*
X008268Y-001425*
X008274Y-001438*
X008277Y-001451*
X008281Y-001465*
X008284Y-001481*
X008286Y-001497*
Y-001514*
Y-001515*
Y-001518*
Y-001522*
Y-001527*
Y-001534*
X008284Y-001543*
X008283Y-001552*
X008281Y-001561*
X008276Y-001583*
X008267Y-001606*
X008262Y-001619*
X008256Y-001631*
X008249Y-001643*
X008241Y-001655*
X00824Y-001656*
X008238Y-001658*
X008235Y-001662*
X00823Y-001667*
X008224Y-001674*
X008215Y-001681*
X008206Y-001688*
X008196Y-001696*
X008184Y-001704*
X008172Y-001711*
X008158Y-001718*
X008142Y-001725*
X008126Y-00173*
X008109Y-001734*
X00809Y-001737*
X00807Y-001738*
X008061*
X008055Y-001737*
X008048Y-001736*
X008039Y-001735*
X00803Y-001734*
X008019Y-001732*
X007997Y-001727*
X007972Y-001718*
X00796Y-001713*
X007948Y-001707*
X007938Y-001699*
X007927Y-001691*
X007926Y-00169*
X007924Y-001689*
X007921Y-001687*
X007917Y-001683*
X007914Y-001677*
X007908Y-001672*
X007904Y-001666*
X007898Y-001658*
X007892Y-001649*
X007887Y-00164*
X007876Y-001618*
X007867Y-001594*
X007865Y-00158*
X007862Y-001565*
X007982Y-001553*
Y-001554*
X007983Y-001559*
X007985Y-001567*
X007988Y-001576*
X007991Y-001586*
X007997Y-001597*
X008004Y-001607*
X008012Y-001617*
X008013Y-001618*
X008017Y-001621*
X008022Y-001625*
X00803Y-001629*
X008038Y-001634*
X008048Y-001637*
X00806Y-00164*
X008071Y-001641*
X008073*
X008078Y-00164*
X008085Y-001639*
X008094Y-001637*
X008104Y-001634*
X008115Y-001628*
X008126Y-00162*
X008136Y-00161*
X008137Y-001608*
X008141Y-001605*
X008144Y-001597*
X00815Y-001586*
X008154Y-001574*
X008159Y-001558*
X008162Y-001539*
X008163Y-001517*
Y-001516*
Y-001514*
Y-001512*
Y-001507*
X008162Y-001497*
X008159Y-001484*
X008156Y-00147*
X008152Y-001455*
X008145Y-001442*
X008136Y-00143*
X008135Y-001429*
X008132Y-001425*
X008125Y-001421*
X008118Y-001414*
X008108Y-001409*
X008096Y-001404*
X008082Y-001401*
X008068Y-0014*
X008062*
X008059Y-001401*
X00805Y-001402*
X008037Y-001405*
X008022Y-001411*
X008007Y-001419*
X007999Y-001424*
X00799Y-001431*
X007982Y-001438*
X007974Y-001446*
X007876Y-001432*
X007938Y-001104*
X008258*
Y-001217*
G37*
G36*
X007759Y-001691D02*
Y-001692D01*
Y-001693*
Y-001696*
Y-001699*
Y-001709*
X007758Y-001721*
X007757Y-001734*
X007755Y-001748*
X007753Y-001761*
X00775Y-001773*
Y-001774*
X007748Y-001779*
X007745Y-001784*
X007743Y-001791*
X007737Y-0018*
X007732Y-00181*
X007724Y-001819*
X007715Y-001828*
X007714Y-001829*
X007711Y-001831*
X007705Y-001836*
X007698Y-001841*
X007689Y-001848*
X007678Y-001854*
X007665Y-001861*
X007651Y-001866*
X007628Y-001816*
X00763Y-001815*
X007634Y-001813*
X007641Y-00181*
X007648Y-001807*
X007657Y-001802*
X007665Y-001796*
X007673Y-00179*
X00768Y-001782*
X007681Y-001781*
X007682Y-001779*
X007685Y-001774*
X007688Y-001768*
X007692Y-001759*
X007694Y-001749*
X007696Y-001739*
X007697Y-001726*
X007638*
Y-001605*
X007759*
Y-001691*
G37*
G36*
X017207Y-002421D02*
X017218Y-002423D01*
X017232Y-002425*
X017246Y-002429*
X01726Y-002434*
X017274Y-002441*
X017276Y-002442*
X017279Y-002445*
X017286Y-002449*
X017294Y-002455*
X017302Y-002465*
X017311Y-002475*
X01732Y-002486*
X017327Y-002501*
X017328Y-002502*
X017329Y-002506*
X01733Y-002514*
X017333Y-002524*
X017336Y-002537*
X017338Y-002553*
X017339Y-002573*
X01734Y-002596*
Y-002887*
X017218*
Y-002627*
Y-002626*
Y-002624*
Y-00262*
Y-002616*
Y-002604*
X017217Y-00259*
X017216Y-002576*
X017213Y-002561*
X01721Y-002548*
X017208Y-002544*
X017206Y-002539*
X017205Y-002538*
X017202Y-002535*
X017198Y-002531*
X017193Y-002526*
X017186Y-002521*
X017177Y-002517*
X017166Y-002514*
X017154Y-002513*
X017149*
X017145Y-002514*
X017138Y-002515*
X017131Y-002517*
X017123Y-002519*
X017114Y-002523*
X017105Y-002528*
Y-002529*
X017102Y-002531*
X017098Y-002535*
X017094Y-00254*
X017088Y-002547*
X017083Y-002554*
X017078Y-002563*
X017074Y-002574*
Y-002576*
X017072Y-002579*
X017071Y-002587*
X017069Y-002597*
X017067Y-00261*
X017066Y-002627*
X017064Y-002646*
Y-002669*
Y-002887*
X016943*
Y-002638*
Y-002637*
Y-002635*
Y-002631*
Y-002627*
Y-002616*
X016942Y-002602*
X016941Y-002588*
Y-002574*
X016939Y-002561*
X016937Y-002556*
X016936Y-002552*
Y-002551*
X016935Y-002548*
X016933Y-002545*
X016931Y-002541*
X016925Y-002531*
X016921Y-002527*
X016916Y-002523*
X016915Y-002522*
X016913Y-002521*
X016911Y-002519*
X016907Y-002517*
X016901Y-002516*
X016895Y-002515*
X016888Y-002513*
X016875*
X01687Y-002514*
X016863Y-002515*
X016855Y-002517*
X016847Y-002519*
X016839Y-002523*
X016829Y-002528*
Y-002529*
X016826Y-002531*
X016822Y-002535*
X016818Y-002539*
X016812Y-002546*
X016807Y-002553*
X016802Y-002562*
X016798Y-002572*
Y-002573*
X016796Y-002578*
X016795Y-002585*
X016793Y-002594*
X016791Y-002608*
X01679Y-002623*
X016788Y-002643*
Y-002666*
Y-002887*
X016667*
Y-00243*
X016778*
Y-002493*
X016779Y-002492*
X016781Y-00249*
X016785Y-002486*
X016789Y-002481*
X016795Y-002476*
X016801Y-00247*
X016809Y-002463*
X016819Y-002456*
X016829Y-00245*
X016839Y-002443*
X016863Y-002431*
X016877Y-002426*
X01689Y-002423*
X016905Y-002421*
X016921Y-00242*
X016928*
X016936Y-002421*
X016946Y-002422*
X016958Y-002424*
X016971Y-002427*
X016983Y-002432*
X016996Y-002438*
X016998Y-002439*
X017002Y-002442*
X017008Y-002445*
X017015Y-002452*
X017023Y-00246*
X017033Y-002469*
X017042Y-002481*
X01705Y-002494*
X017052Y-002492*
X017055Y-002487*
X017061Y-002481*
X017069Y-002473*
X017079Y-002464*
X01709Y-002455*
X017102Y-002445*
X017115Y-002438*
X017116Y-002437*
X017121Y-002435*
X017128Y-002433*
X017137Y-002429*
X017148Y-002425*
X017161Y-002423*
X017175Y-002421*
X017189Y-00242*
X017197*
X017207Y-002421*
G37*
G36*
X016423D02*
X016435Y-002423D01*
X016449Y-002425*
X016462Y-002429*
X016477Y-002434*
X016491Y-002441*
X016492Y-002442*
X016496Y-002445*
X016502Y-002449*
X016511Y-002455*
X016519Y-002465*
X016528Y-002475*
X016536Y-002486*
X016543Y-002501*
X016544Y-002502*
X016545Y-002506*
X016547Y-002514*
X01655Y-002524*
X016553Y-002537*
X016554Y-002553*
X016555Y-002573*
X016556Y-002596*
Y-002887*
X016435*
Y-002627*
Y-002626*
Y-002624*
Y-00262*
Y-002616*
X016434Y-002604*
X016433Y-00259*
X016432Y-002576*
X01643Y-002561*
X016427Y-002548*
X016424Y-002544*
X016422Y-002539*
X016421Y-002538*
X016419Y-002535*
X016415Y-002531*
X016409Y-002526*
X016402Y-002521*
X016393Y-002517*
X016382Y-002514*
X01637Y-002513*
X016366*
X016361Y-002514*
X016355Y-002515*
X016348Y-002517*
X016339Y-002519*
X01633Y-002523*
X016322Y-002528*
X016321Y-002529*
X016318Y-002531*
X016315Y-002535*
X01631Y-00254*
X016305Y-002547*
X016299Y-002554*
X016295Y-002563*
X01629Y-002574*
Y-002576*
X016288Y-002579*
X016287Y-002587*
X016286Y-002597*
X016284Y-00261*
X016283Y-002627*
X016281Y-002646*
Y-002669*
Y-002887*
X01616*
Y-002638*
Y-002637*
Y-002635*
Y-002631*
Y-002627*
Y-002616*
X016159Y-002602*
X016158Y-002588*
X016157Y-002574*
X016155Y-002561*
X016153Y-002556*
Y-002552*
Y-002551*
X016152Y-002548*
X01615Y-002545*
X016148Y-002541*
X016142Y-002531*
X016137Y-002527*
X016133Y-002523*
X016132Y-002522*
X01613Y-002521*
X016127Y-002519*
X016123Y-002517*
X016118Y-002516*
X016112Y-002515*
X016104Y-002513*
X016092*
X016086Y-002514*
X01608Y-002515*
X016071Y-002517*
X016063Y-002519*
X016055Y-002523*
X016046Y-002528*
X016045Y-002529*
X016042Y-002531*
X016039Y-002535*
X016034Y-002539*
X016029Y-002546*
X016023Y-002553*
X016019Y-002562*
X016014Y-002572*
Y-002573*
X016012Y-002578*
X016011Y-002585*
X01601Y-002594*
X016008Y-002608*
X016007Y-002623*
X016005Y-002643*
Y-002666*
Y-002887*
X015884*
Y-00243*
X015995*
Y-002493*
X015996Y-002492*
X015998Y-00249*
X016001Y-002486*
X016006Y-002481*
X016011Y-002476*
X016018Y-00247*
X016026Y-002463*
X016035Y-002456*
X016045Y-00245*
X016056Y-002443*
X01608Y-002431*
X016093Y-002426*
X016107Y-002423*
X016122Y-002421*
X016137Y-00242*
X016144*
X016153Y-002421*
X016163Y-002422*
X016174Y-002424*
X016187Y-002427*
X0162Y-002432*
X016213Y-002438*
X016215Y-002439*
X016218Y-002442*
X016225Y-002445*
X016232Y-002452*
X01624Y-00246*
X016249Y-002469*
X016258Y-002481*
X016266Y-002494*
X016268Y-002492*
X016272Y-002487*
X016277Y-002481*
X016286Y-002473*
X016296Y-002464*
X016307Y-002455*
X016318Y-002445*
X016331Y-002438*
X016333Y-002437*
X016338Y-002435*
X016345Y-002433*
X016354Y-002429*
X016365Y-002425*
X016378Y-002423*
X016391Y-002421*
X016406Y-00242*
X016414*
X016423Y-002421*
G37*
G36*
X015578Y-002254D02*
X015585D01*
X015593Y-002255*
X015602Y-002257*
X015613Y-00226*
X015624Y-002262*
X015637Y-002267*
X01565Y-002271*
X015662Y-002278*
X015676Y-002285*
X015689Y-002293*
X015702Y-002303*
X015714Y-002315*
X015726Y-002328*
X015727Y-002329*
X015729Y-002332*
X015732Y-002336*
X015736Y-002342*
X015741Y-002351*
X015746Y-002361*
X015752Y-002373*
X015757Y-002386*
X015763Y-002403*
X015769Y-002421*
X015774Y-002441*
X015778Y-002463*
X015783Y-002487*
X015785Y-002514*
X015787Y-002542*
X015788Y-002573*
Y-002574*
Y-002575*
Y-002578*
Y-00258*
Y-002589*
X015787Y-002601*
X015786Y-002616*
X015785Y-002632*
X015783Y-00265*
X01578Y-002669*
X015776Y-00269*
X015773Y-00271*
X015767Y-002731*
X015761Y-002752*
X015754Y-002771*
X015744Y-00279*
X015735Y-002807*
X015724Y-002823*
X015723Y-002824*
X015721Y-002826*
X015717Y-00283*
X015712Y-002834*
X015705Y-00284*
X015698Y-002847*
X015689Y-002854*
X015679Y-002861*
X015668Y-002868*
X015655Y-002875*
X015642Y-002881*
X015627Y-002887*
X015611Y-002892*
X015594Y-002895*
X015577Y-002898*
X015558Y-002899*
X01555*
X015546Y-002898*
X015539*
X015532Y-002897*
X015515Y-002895*
X015496Y-002889*
X015477Y-002883*
X015457Y-002873*
X015447Y-002867*
X015438Y-00286*
X015437Y-002859*
Y-002858*
X015434Y-002855*
X015431Y-002853*
X015427Y-002848*
X015423Y-002844*
X015419Y-002837*
X015414Y-002831*
X015409Y-002823*
X015404Y-002814*
X015399Y-002804*
X015395Y-002793*
X01539Y-002783*
X015386Y-00277*
X015383Y-002757*
X01538Y-002742*
X015497Y-002729*
Y-002731*
X015498Y-002735*
Y-002742*
X015501Y-002749*
X015504Y-002758*
X015508Y-002767*
X015512Y-002775*
X015519Y-002783*
X015522Y-002785*
X015526Y-002788*
X015531Y-002791*
X015539Y-002793*
X015546Y-002796*
X015556Y-002798*
X015566Y-002799*
X015568*
X015572Y-002798*
X015579Y-002797*
X015588Y-002794*
X015598Y-002791*
X015608Y-002784*
X015619Y-002776*
X015629Y-002765*
X01563Y-002763*
X015631Y-002762*
X015633Y-002758*
X015635Y-002754*
X015638Y-002749*
X01564Y-002742*
X015643Y-002734*
X015646Y-002725*
X015649Y-002715*
X015652Y-002703*
X015654Y-002691*
X015657Y-002676*
X015659Y-00266*
X015661Y-002641*
X015662Y-002622*
Y-002623*
X015661Y-002624*
X015658Y-002627*
X015654Y-00263*
X01565Y-002634*
X015644Y-002639*
X015631Y-002649*
X015615Y-002659*
X015595Y-002667*
X015584Y-00267*
X015573Y-002672*
X015561Y-002674*
X015549Y-002675*
X015541*
X015536Y-002674*
X015529Y-002673*
X015522Y-002672*
X015505Y-002668*
X015485Y-002661*
X015475Y-002656*
X015464Y-00265*
X015453Y-002644*
X015442Y-002637*
X015431Y-002628*
X015421Y-002618*
X01542Y-002617*
X015418Y-002615*
X015416Y-002611*
X015413Y-002608*
X015408Y-002601*
X015404Y-002595*
X015399Y-002587*
X015395Y-002578*
X015389Y-002568*
X015385Y-002556*
X01538Y-002544*
X015375Y-00253*
X015372Y-002517*
X01537Y-002501*
X015368Y-002485*
X015367Y-002468*
Y-002467*
Y-002464*
Y-002459*
X015368Y-002452*
X015369Y-002444*
X01537Y-002435*
X015372Y-002424*
X015375Y-002413*
X015381Y-002388*
X015386Y-002374*
X015391Y-002362*
X015397Y-002349*
X015406Y-002336*
X015414Y-002324*
X015424Y-002312*
X015425*
X015427Y-00231*
X015429Y-002307*
X015434Y-002303*
X01544Y-002299*
X015447Y-002293*
X015455Y-002289*
X015464Y-002282*
X015473Y-002277*
X015485Y-002272*
X015497Y-002267*
X015509Y-002262*
X015523Y-002259*
X015538Y-002256*
X015552Y-002254*
X015569Y-002253*
X015573*
X015578Y-002254*
G37*
G36*
X014864D02*
X014873Y-002255D01*
X014882Y-002256*
X014892Y-002258*
X014903Y-00226*
X014926Y-002266*
X01495Y-002275*
X014963Y-002281*
X014974Y-002287*
X014986Y-002295*
X014996Y-002304*
X014997Y-002305*
X014998Y-002306*
X015Y-00231*
X015004Y-002313*
X015008Y-002318*
X015013Y-002324*
X015017Y-002331*
X015023Y-002339*
X015032Y-002357*
X015041Y-002378*
X015045Y-00239*
X015047Y-002403*
X015048Y-002416*
X015049Y-00243*
Y-002432*
Y-002437*
X015048Y-002445*
Y-002455*
X015046Y-002468*
X015043Y-002482*
X015039Y-002496*
X015034Y-002511*
X015033Y-002513*
X015031Y-002517*
X015027Y-002526*
X015022Y-002536*
X015016Y-002547*
X015007Y-002561*
X014997Y-002576*
X014986Y-002591*
X014985Y-002592*
X014981Y-002597*
X014976Y-002603*
X014967Y-002612*
X014956Y-002623*
X014943Y-002638*
X014926Y-002653*
X014906Y-002672*
X014905Y-002673*
X014904Y-002674*
X014901Y-002677*
X014897Y-00268*
X014887Y-00269*
X014875Y-002701*
X014864Y-002712*
X014852Y-002724*
X014841Y-002734*
X014837Y-002739*
X014833Y-002742*
Y-002743*
X014831Y-002745*
X014828Y-002749*
X014824Y-002753*
X014816Y-002763*
X014809Y-002775*
X015049*
Y-002887*
X014626*
Y-002886*
Y-002885*
X014627Y-002881*
X014628Y-002876*
Y-002871*
X014629Y-002865*
X014633Y-002848*
X014639Y-00283*
X014646Y-00281*
X014655Y-002788*
X014667Y-002767*
Y-002766*
X014669Y-002764*
X01467Y-002761*
X014674Y-002757*
X014678Y-002751*
X014683Y-002744*
X01469Y-002736*
X014697Y-002727*
X014705Y-002716*
X014715Y-002705*
X014726Y-002692*
X014739Y-002679*
X014752Y-002665*
X014768Y-00265*
X014784Y-002633*
X014802Y-002616*
X014803Y-002615*
X014806Y-002612*
X01481Y-002609*
X014815Y-002603*
X014823Y-002598*
X01483Y-00259*
X014846Y-002574*
X014863Y-002557*
X014879Y-002539*
X014886Y-002532*
X014894Y-002524*
X014899Y-002517*
X014903Y-002512*
X014904Y-00251*
X014906Y-002506*
X014911Y-002498*
X014915Y-002488*
X01492Y-002477*
X014925Y-002465*
X014927Y-002452*
X014928Y-002438*
Y-002437*
Y-002436*
Y-002432*
X014927Y-002424*
X014925Y-002414*
X014923Y-002404*
X014919Y-002394*
X014914Y-002384*
X014906Y-002375*
X014905Y-002374*
X014903Y-002372*
X014897Y-002368*
X014891Y-002364*
X014882Y-002361*
X014872Y-002357*
X01486Y-002354*
X014846Y-002353*
X01484*
X014833Y-002354*
X014824Y-002356*
X014814Y-002359*
X014804Y-002363*
X014794Y-002369*
X014785Y-002376*
X014784Y-002377*
X014782Y-002381*
X014778Y-002386*
X014774Y-002394*
X01477Y-002404*
X014766Y-002418*
X014762Y-002434*
X014761Y-002452*
X01464Y-00244*
Y-002439*
X014641Y-002435*
Y-002431*
X014643Y-002424*
X014644Y-002415*
X014647Y-002406*
X014649Y-002396*
X014652Y-002384*
X014661Y-002362*
X014672Y-002338*
X014679Y-002326*
X014688Y-002315*
X014697Y-002306*
X014707Y-002297*
X014708Y-002296*
X01471Y-002295*
X014712Y-002293*
X014717Y-00229*
X014722Y-002287*
X01473Y-002283*
X014737Y-002279*
X014746Y-002275*
X014756Y-002271*
X014767Y-002267*
X014791Y-00226*
X014819Y-002255*
X014833Y-002254*
X014849Y-002253*
X014858*
X014864Y-002254*
G37*
G36*
X015275Y-002853D02*
Y-002854D01*
Y-002857*
Y-002861*
Y-002871*
X015274Y-002883*
X015273Y-002895*
X015272Y-002909*
X015269Y-002923*
X015266Y-002935*
Y-002936*
X015264Y-00294*
X015262Y-002946*
X015259Y-002953*
X015253Y-002962*
X015248Y-002971*
X015241Y-00298*
X015232Y-002989*
X015231Y-00299*
X015227Y-002993*
X015222Y-002998*
X015214Y-003003*
X015205Y-003009*
X015194Y-003016*
X015181Y-003022*
X015168Y-003028*
X015144Y-002977*
X015146*
X01515Y-002975*
X015157Y-002972*
X015164Y-002968*
X015173Y-002964*
X015181Y-002957*
X01519Y-002951*
X015196Y-002944*
X015197Y-002943*
X015199Y-00294*
X015201Y-002936*
X015204Y-002929*
X015208Y-002921*
X015211Y-002911*
X015212Y-0029*
X015213Y-002887*
X015154*
Y-002766*
X015275*
Y-002853*
G37*
G36*
X002768Y01907D02*
X002721Y019017D01*
X002722Y019015*
X002726Y019011*
X00273Y019005*
X002736Y018996*
X002742Y018986*
X002748Y018973*
X002756Y018959*
X002761Y018944*
X002762Y018942*
X002764Y018936*
X002766Y018928*
X002769Y018917*
X002772Y018904*
X002774Y018889*
X002776Y018874*
X002777Y018856*
Y018855*
Y018852*
Y018846*
X002776Y018839*
X002775Y018831*
X002773Y01882*
X002771Y018809*
X002768Y018796*
X002765Y018783*
X00276Y01877*
X002755Y018755*
X002747Y018741*
X00274Y018727*
X002731Y018712*
X00272Y018699*
X002708Y018686*
X002707Y018685*
X002706Y018683*
X002701Y01868*
X002696Y018675*
X002689Y01867*
X002682Y018665*
X002673Y018659*
X002662Y018652*
X00265Y018646*
X002637Y01864*
X002624Y018634*
X002608Y018629*
X002593Y018625*
X002575Y018621*
X002558Y018619*
X002539*
X002532*
X002526*
X00252*
X002512Y01862*
X002504Y018621*
X002495Y018623*
X002474Y018628*
X002452Y018633*
X00243Y018642*
X002407Y018654*
X002358Y018598*
X00231Y018638*
X00236Y018695*
X002359Y018697*
X002356Y018701*
X002351Y018707*
X002346Y018716*
X002338Y018727*
X002332Y01874*
X002326Y018754*
X002319Y01877*
Y018771*
X002318Y018772*
X002317Y018777*
X002315Y018786*
X002312Y018797*
X002309Y018811*
X002307Y018826*
X002306Y018842*
X002305Y018859*
Y01886*
Y018864*
X002306Y018869*
Y018876*
X002307Y018885*
X002308Y018895*
X00231Y018906*
X002313Y018919*
X002317Y018932*
X002321Y018946*
X002326Y01896*
X002332Y018974*
X00234Y018988*
X002348Y019002*
X002358Y019016*
X00237Y019029*
X002371*
X002373Y019031*
X002378Y019035*
X002382Y019039*
X002389Y019044*
X002397Y019049*
X002406Y019056*
X002417Y019062*
X002428Y019069*
X002441Y019075*
X002455Y01908*
X00247Y019085*
X002486Y01909*
X002503Y019093*
X002521Y019095*
X00254Y019096*
X002547*
X002553Y019095*
X00256*
X002567Y019094*
X002576Y019092*
X002585Y019091*
X002607Y019087*
X002629Y01908*
X002653Y019069*
X002664Y019064*
X002675Y019057*
X00272Y01911*
X002768Y01907*
G37*
G36*
X005654Y019095D02*
X005665Y019093D01*
X005679Y01909*
X005693Y019087*
X005707Y019082*
X005721Y019075*
X005723Y019074*
X005726Y019071*
X005733Y019067*
X005741Y01906*
X005749Y019051*
X005758Y019041*
X005767Y019029*
X005774Y019015*
X005775Y019014*
X005776Y019009*
X005777Y019002*
X00578Y018992*
X005783Y018979*
X005785Y018963*
X005786Y018943*
X005787Y01892*
Y018629*
X005665*
Y018889*
Y01889*
Y018892*
Y018895*
Y0189*
X005664Y018912*
Y018926*
X005663Y01894*
X00566Y018955*
X005657Y018967*
X005654Y018972*
X005653Y018977*
X005652*
X005649Y018981*
X005645Y018985*
X00564Y01899*
X005633Y018995*
X005623Y018999*
X005613Y019002*
X005601Y019003*
X005596*
X005592Y019002*
X005585Y019001*
X005578Y018999*
X00557Y018997*
X005561Y018993*
X005552Y018988*
Y018987*
X005549Y018985*
X005545Y018981*
X005541Y018976*
X005535Y018969*
X00553Y018962*
X005525Y018953*
X005521Y018942*
Y01894*
X005519Y018936*
X005518Y018929*
X005516Y018919*
X005514Y018906*
X005513Y018889*
X005511Y01887*
Y018847*
Y018629*
X00539*
Y018878*
Y018879*
Y018881*
Y018885*
Y018889*
Y0189*
X005389Y018914*
X005388Y018928*
Y018942*
X005386Y018955*
X005384Y01896*
X005383Y018964*
Y018965*
X005382Y018967*
X00538Y018971*
X005378Y018975*
X005372Y018985*
X005368Y018989*
X005363Y018993*
X005362Y018994*
X00536Y018995*
X005357Y018997*
X005354Y018998*
X005348Y019*
X005342Y019001*
X005335Y019003*
X005322*
X005316Y019002*
X00531Y019001*
X005302Y018999*
X005294Y018997*
X005286Y018993*
X005276Y018988*
X005275Y018987*
X005273Y018985*
X005269Y018981*
X005265Y018977*
X005259Y01897*
X005254Y018963*
X005249Y018954*
X005245Y018944*
Y018943*
X005243Y018938*
X005242Y018931*
X00524Y018922*
X005238Y018908*
X005237Y018893*
X005235Y018873*
Y01885*
Y018629*
X005114*
Y019086*
X005225*
Y019023*
X005226Y019024*
X005228Y019026*
X005232Y019029*
X005236Y019035*
X005242Y01904*
X005248Y019046*
X005256Y019053*
X005265Y019059*
X005275Y019066*
X005286Y019073*
X00531Y019085*
X005324Y01909*
X005337Y019093*
X005352Y019095*
X005368Y019096*
X005375*
X005383Y019095*
X005393Y019094*
X005405Y019091*
X005418Y019089*
X00543Y019084*
X005443Y019078*
X005445Y019077*
X005449Y019074*
X005455Y01907*
X005462Y019064*
X00547Y019056*
X00548Y019047*
X005489Y019035*
X005497Y019022*
X005499Y019024*
X005502Y019029*
X005508Y019035*
X005516Y019043*
X005526Y019052*
X005537Y019061*
X005549Y01907*
X005562Y019078*
X005563Y019079*
X005568Y01908*
X005575Y019083*
X005584Y019087*
X005595Y01909*
X005608Y019093*
X005622Y019095*
X005636Y019096*
X005644*
X005654Y019095*
G37*
G36*
X00487D02*
X004882Y019093D01*
X004896Y01909*
X004909Y019087*
X004924Y019082*
X004938Y019075*
X004939Y019074*
X004943Y019071*
X004949Y019067*
X004958Y01906*
X004966Y019051*
X004975Y019041*
X004983Y019029*
X00499Y019015*
X004991Y019014*
X004992Y019009*
X004994Y019002*
X004997Y018992*
X004999Y018979*
X005001Y018963*
X005002Y018943*
X005003Y01892*
Y018629*
X004882*
Y018889*
Y01889*
Y018892*
Y018895*
Y0189*
X004881Y018912*
X00488Y018926*
X004879Y01894*
X004876Y018955*
X004874Y018967*
X004871Y018972*
X004869Y018977*
X004868*
X004866Y018981*
X004862Y018985*
X004856Y01899*
X004849Y018995*
X00484Y018999*
X004829Y019002*
X004817Y019003*
X004813*
X004808Y019002*
X004802Y019001*
X004794Y018999*
X004786Y018997*
X004777Y018993*
X004769Y018988*
X004768Y018987*
X004765Y018985*
X004762Y018981*
X004757Y018976*
X004752Y018969*
X004746Y018962*
X004742Y018953*
X004737Y018942*
Y01894*
X004735Y018936*
X004734Y018929*
X004733Y018919*
X004731Y018906*
X00473Y018889*
X004728Y01887*
Y018847*
Y018629*
X004607*
Y018878*
Y018879*
Y018881*
Y018885*
Y018889*
Y0189*
X004606Y018914*
X004605Y018928*
X004604Y018942*
X004602Y018955*
X0046Y01896*
Y018964*
Y018965*
X004599Y018967*
X004597Y018971*
X004595Y018975*
X004589Y018985*
X004584Y018989*
X004579Y018993*
Y018994*
X004577Y018995*
X004574Y018997*
X00457Y018998*
X004565Y019*
X004559Y019001*
X004551Y019003*
X004539*
X004533Y019002*
X004527Y019001*
X004518Y018999*
X00451Y018997*
X004502Y018993*
X004493Y018988*
X004492Y018987*
X004489Y018985*
X004486Y018981*
X004481Y018977*
X004476Y01897*
X00447Y018963*
X004466Y018954*
X004461Y018944*
Y018943*
X004459Y018938*
X004458Y018931*
X004457Y018922*
X004455Y018908*
X004454Y018893*
X004452Y018873*
Y01885*
Y018629*
X004331*
Y019086*
X004442*
Y019023*
X004443Y019024*
X004445Y019026*
X004448Y019029*
X004453Y019035*
X004458Y01904*
X004465Y019046*
X004473Y019053*
X004482Y019059*
X004492Y019066*
X004503Y019073*
X004527Y019085*
X00454Y01909*
X004554Y019093*
X004569Y019095*
X004584Y019096*
X004591*
X0046Y019095*
X00461Y019094*
X004621Y019091*
X004634Y019089*
X004647Y019084*
X00466Y019078*
X004661Y019077*
X004665Y019074*
X004672Y01907*
X004679Y019064*
X004687Y019056*
X004696Y019047*
X004705Y019035*
X004713Y019022*
X004715Y019024*
X004719Y019029*
X004724Y019035*
X004733Y019043*
X004743Y019052*
X004753Y019061*
X004765Y01907*
X004778Y019078*
X00478Y019079*
X004784Y01908*
X004792Y019083*
X004801Y019087*
X004812Y01909*
X004825Y019093*
X004838Y019095*
X004853Y019096*
X004861*
X00487Y019095*
G37*
G36*
X003301Y019262D02*
X00331Y019261D01*
X003318Y01926*
X003328Y019258*
X003338Y019255*
X003361Y019249*
X003372Y019244*
X003385Y019238*
X003397Y019232*
X003408Y019224*
X00342Y019215*
X00343Y019205*
X003431Y019204*
X003432Y019203*
X003434Y019201*
X003437Y019197*
X003444Y019188*
X003453Y019175*
X003461Y01916*
X003467Y019141*
X003473Y019121*
X003474Y019111*
Y0191*
Y019097*
Y019092*
X003473Y019087*
X003472Y01908*
X00347Y019071*
X003467Y019062*
X003464Y019052*
X003458Y019042*
X003453Y019031*
X003445Y01902*
X003436Y019009*
X003425Y018998*
X003413Y018988*
X0034Y018977*
X003383Y018967*
X003384*
X003386*
X003389*
X003392Y018965*
X003402Y018962*
X003414Y018957*
X003428Y018949*
X003443Y01894*
X003457Y018928*
X00347Y018915*
X003472Y018913*
X003475Y018907*
X00348Y018899*
X003486Y018887*
X003493Y018874*
X003497Y018856*
X003501Y018838*
X003503Y018817*
Y018816*
Y018814*
Y018809*
X003502Y018803*
X003501Y018796*
X003499Y018788*
X003497Y018778*
X003495Y018768*
X003488Y018746*
X003483Y018734*
X003477Y018721*
X00347Y01871*
X003462Y018698*
X003453Y018686*
X003442Y018675*
X003441Y018674*
X003439Y018672*
X003435Y01867*
X003431Y018666*
X003424Y018661*
X003418Y018657*
X003409Y018651*
X0034Y018646*
X00339Y01864*
X003378Y018635*
X003365Y01863*
X003352Y018626*
X003338Y018622*
X003323Y018619*
X003307Y018618*
X00329Y018617*
X003282*
X003276Y018618*
X003269Y018619*
X00326*
X003251Y018621*
X00324Y018623*
X003218Y018629*
X003195Y018638*
X003182Y018643*
X003171Y01865*
X003159Y018658*
X003148Y018666*
X003147Y018667*
X003146Y018669*
X003143Y018671*
X003139Y018675*
X003135Y01868*
X00313Y018686*
X003125Y018692*
X003119Y018701*
X003114Y01871*
X003107Y018719*
X003097Y018741*
X003089Y018766*
X003085Y01878*
X003084Y018794*
X0032Y018809*
Y018808*
Y018807*
X003201Y018802*
X003203Y018793*
X003206Y018783*
X00321Y018773*
X003215Y018761*
X003222Y01875*
X00323Y01874*
X003231Y018739*
X003235Y018736*
X00324Y018732*
X003247Y018729*
X003256Y018724*
X003266Y018721*
X003277Y018718*
X00329Y018717*
X003291*
X003296Y018718*
X003302Y018719*
X003311Y018721*
X003321Y018724*
X003331Y018729*
X003342Y018736*
X003352Y018745*
X003353Y018746*
X003357Y018751*
X003361Y018757*
X003366Y018765*
X003371Y018776*
X003375Y01879*
X003378Y018805*
X003379Y018823*
Y018824*
Y01883*
X003378Y018838*
X003376Y018849*
X003372Y018861*
X003368Y018873*
X003361Y018885*
X003353Y018895*
X003352Y018896*
X003349Y0189*
X003343Y018905*
X003337Y018909*
X003328Y018915*
X003318Y018918*
X003307Y018922*
X003294Y018923*
X003285*
X003279Y018922*
X00327Y018921*
X00326Y018919*
X00325Y018916*
X003239Y018914*
X003251Y019011*
X003259*
X003269Y019012*
X003279Y019013*
X003291Y019016*
X003304Y019019*
X003316Y019025*
X003327Y019032*
X003328Y019033*
X003331Y019037*
X003335Y019041*
X003341Y019049*
X003345Y019057*
X00335Y019067*
X003352Y019079*
X003353Y019092*
Y019094*
Y019098*
X003352Y019103*
X003351Y01911*
X003349Y019119*
X003345Y019127*
X003341Y019136*
X003334Y019143*
X003333Y019144*
X003331Y019146*
X003327Y01915*
X00332Y019153*
X003313Y019156*
X003305Y01916*
X003294Y019162*
X003283*
X003278*
X003272*
X003265Y01916*
X003257Y019157*
X003248Y019153*
X003239Y019148*
X00323Y019141*
X003229Y01914*
X003227Y019137*
X003223Y019131*
X003218Y019124*
X003214Y019116*
X00321Y019105*
X003207Y019092*
X003204Y019078*
X003093Y019096*
Y019097*
X003094Y019099*
Y019101*
X003095Y019106*
X003097Y019116*
X003101Y01913*
X003106Y019144*
X003112Y01916*
X003119Y019174*
X003127Y019188*
X003128Y01919*
X003132Y019193*
X003137Y0192*
X003145Y019208*
X003154Y019216*
X003165Y019225*
X003178Y019234*
X003193Y019243*
X003194*
X003195Y019244*
X0032Y019245*
X003209Y019249*
X00322Y019253*
X003234Y019256*
X00325Y01926*
X003268Y019262*
X003287Y019263*
X003295*
X003301Y019262*
G37*
G36*
X004047D02*
X004055Y019261D01*
X004064Y01926*
X004074Y019258*
X004085Y019256*
X004108Y01925*
X004132Y019241*
X004145Y019235*
X004156Y019229*
X004168Y019221*
X004178Y019212*
X004179Y019211*
X00418Y01921*
X004182Y019206*
X004186Y019203*
X00419Y019198*
X004195Y019192*
X0042Y019185*
X004205Y019177*
X004214Y019159*
X004223Y019138*
X004227Y019126*
X004229Y019113*
X004231Y0191*
Y019086*
Y019084*
Y019079*
Y01907*
X00423Y01906*
X004228Y019048*
X004225Y019034*
X004221Y019019*
X004216Y019005*
X004215Y019003*
X004213Y018998*
X00421Y01899*
X004204Y01898*
X004198Y018968*
X00419Y018955*
X00418Y01894*
X004168Y018925*
X004167Y018924*
X004163Y018919*
X004158Y018913*
X00415Y018904*
X004139Y018893*
X004125Y018878*
X004108Y018863*
X004088Y018844*
Y018843*
X004086Y018842*
X004083Y018839*
X004079Y018835*
X004069Y018826*
X004057Y018815*
X004046Y018803*
X004034Y018792*
X004023Y018782*
X004019Y018777*
X004016Y018773*
X004015*
X004013Y018771*
X00401Y018767*
X004006Y018762*
X003998Y018752*
X003991Y018741*
X004231*
Y018629*
X003808*
Y018631*
X003809Y018635*
X00381Y01864*
X003811Y018645*
X003812Y018651*
X003815Y018668*
X003821Y018686*
X003828Y018706*
X003837Y018728*
X003849Y018749*
Y01875*
X003851Y018752*
X003853Y018755*
X003856Y018759*
X00386Y018765*
X003865Y018772*
X003872Y01878*
X003879Y018789*
X003887Y0188*
X003897Y018811*
X003908Y018824*
X003921Y018837*
X003934Y018851*
X00395Y018866*
X003966Y018883*
X003985Y0189*
X003986Y018901*
X003988Y018904*
X003992Y018907*
X003997Y018913*
X004005Y018918*
X004012Y018926*
X004028Y018942*
X004045Y018959*
X004061Y018977*
X004068Y018984*
X004076Y018992*
X004081Y018998*
X004085Y019004*
X004086Y019006*
X004088Y01901*
X004093Y019018*
X004098Y019028*
X004102Y019039*
X004107Y019051*
X004109Y019064*
X00411Y019078*
Y019079*
Y01908*
Y019084*
X004109Y019092*
X004108Y019101*
X004105Y019111*
X004101Y019121*
X004096Y019131*
X004088Y019141*
X004085Y019144*
X004079Y019148*
X004073Y019151*
X004064Y019155*
X004054Y019159*
X004042Y019162*
X004028*
X004022*
X004015*
X004006Y01916*
X003996Y019157*
X003986Y019152*
X003976Y019147*
X003967Y01914*
X003966Y019139*
X003964Y019135*
X00396Y01913*
X003956Y019121*
X003952Y019111*
X003948Y019098*
X003945Y019082*
X003943Y019064*
X003822Y019076*
Y019077*
X003823Y01908*
Y019085*
X003825Y019092*
X003826Y0191*
X003829Y01911*
X003832Y01912*
X003834Y019131*
X003843Y019154*
X003854Y019178*
X003862Y01919*
X00387Y019201*
X003879Y01921*
X003889Y019219*
X00389Y01922*
X003892Y019221*
X003894Y019223*
X003899Y019226*
X003904Y019229*
X003912Y019233*
X003919Y019237*
X003928Y019241*
X003938Y019245*
X003949Y019249*
X003973Y019256*
X004001Y019261*
X004016Y019262*
X004031Y019263*
X00404*
X004047Y019262*
G37*
G36*
X003722Y018663D02*
Y018662D01*
Y018661*
Y018659*
Y018655*
Y018645*
X003721Y018633*
X00372Y01862*
X003719Y018607*
X003716Y018593*
X003713Y018581*
Y01858*
X003711Y018576*
X003709Y01857*
X003706Y018563*
X0037Y018554*
X003695Y018545*
X003688Y018536*
X003679Y018527*
X003678Y018526*
X003674Y018523*
X003668Y018518*
X003661Y018513*
X003652Y018506*
X003641Y0185*
X003628Y018494*
X003615Y018488*
X003591Y018538*
X003593Y018539*
X003597Y018541*
X003604Y018544*
X003611Y018547*
X00362Y018552*
X003628Y018558*
X003637Y018565*
X003643Y018572*
X003644Y018573*
X003646Y018576*
X003648Y01858*
X003651Y018587*
X003655Y018595*
X003658Y018605*
X003659Y018616*
X00366Y018629*
X003601*
Y01875*
X003722*
Y018663*
G37*
G36*
X01133Y019031D02*
X011283Y018977D01*
X011284Y018975*
X011288Y018972*
X011292Y018965*
X011298Y018956*
X011304Y018946*
X011311Y018934*
X011318Y01892*
X011323Y018904*
X011324Y018903*
X011326Y018897*
X011328Y018889*
X011332Y018878*
X011334Y018864*
X011336Y01885*
X011338Y018834*
X011339Y018817*
Y018816*
Y018812*
Y018807*
X011338Y0188*
X011337Y018791*
X011335Y018781*
X011333Y01877*
X011331Y018757*
X011327Y018744*
X011322Y01873*
X011317Y018716*
X01131Y018701*
X011302Y018688*
X011293Y018673*
X011282Y018659*
X011271Y018647*
X01127Y018646*
X011268Y018644*
X011263Y01864*
X011259Y018636*
X011251Y018631*
X011244Y018626*
X011235Y018619*
X011224Y018613*
X011212Y018607*
X011199Y0186*
X011186Y018595*
X01117Y01859*
X011155Y018586*
X011138Y018582*
X01112Y01858*
X011101Y018579*
X011094*
X011088Y01858*
X011082*
X011075Y018581*
X011066Y018582*
X011057Y018584*
X011036Y018588*
X011015Y018594*
X010992Y018603*
X010969Y018615*
X01092Y018558*
X010872Y018598*
X010923Y018656*
X010922Y018658*
X010918Y018661*
X010913Y018668*
X010908Y018677*
X010901Y018688*
X010894Y0187*
X010888Y018715*
X010882Y01873*
Y018731*
X010881Y018732*
X01088Y018738*
X010877Y018747*
X010874Y018758*
X010872Y018771*
X01087Y018787*
X010868Y018802*
X010867Y01882*
Y018821*
Y018824*
X010868Y01883*
Y018837*
X010869Y018845*
X010871Y018856*
X010872Y018867*
X010875Y01888*
X010879Y018893*
X010883Y018906*
X010888Y018921*
X010894Y018934*
X010903Y018949*
X010911Y018963*
X010921Y018976*
X010933Y018989*
Y01899*
X010935Y018992*
X01094Y018996*
X010944Y019*
X010951Y019005*
X010959Y01901*
X010968Y019016*
X010979Y019023*
X01099Y019029*
X011004Y019036*
X011017Y019041*
X011032Y019046*
X011048Y01905*
X011066Y019054*
X011083Y019056*
X011102Y019057*
X011109*
X011115Y019056*
X011122*
X011129Y019055*
X011138Y019053*
X011148Y019052*
X011169Y019047*
X011191Y01904*
X011215Y01903*
X011226Y019025*
X011237Y019017*
X011282Y01907*
X01133Y019031*
G37*
G36*
X014216Y019056D02*
X014228Y019054D01*
X014241Y019051*
X014255Y019047*
X01427Y019043*
X014283Y019036*
X014285Y019035*
X014289Y019032*
X014295Y019027*
X014303Y019021*
X014311Y019012*
X014321Y019002*
X014329Y01899*
X014336Y018975*
X014337*
X014338Y01897*
X01434Y018963*
X014342Y018953*
X014345Y01894*
X014347Y018924*
X014348Y018903*
X014349Y018881*
Y018589*
X014228*
Y01885*
Y018851*
Y018852*
Y018856*
Y018861*
X014227Y018873*
X014226Y018886*
X014225Y018901*
X014222Y018915*
X014219Y018928*
X014217Y018933*
X014215Y018937*
X014214Y018938*
X014211Y018942*
X014208Y018945*
X014202Y018951*
X014195Y018955*
X014186Y01896*
X014175Y018963*
X014163Y018964*
X014158*
X014154Y018963*
X014147Y018962*
X01414Y01896*
X014132Y018957*
X014123Y018954*
X014115Y018948*
X014114Y018947*
X014111Y018945*
X014107Y018942*
X014103Y018936*
X014097Y01893*
X014092Y018923*
X014087Y018914*
X014083Y018903*
Y018901*
X014081Y018897*
X01408Y01889*
X014078Y01888*
X014076Y018866*
Y01885*
X014074Y018831*
Y018808*
Y018589*
X013953*
Y018839*
Y01884*
Y018842*
Y018845*
Y01885*
Y018861*
X013952Y018874*
X013951Y018889*
X01395Y018903*
X013948Y018915*
X013946Y018921*
X013945Y018924*
Y018925*
X013944Y018928*
X013943Y018932*
X013941Y018935*
X013934Y018945*
X01393Y01895*
X013925Y018954*
X013924Y018955*
X013922*
X01392Y018957*
X013916Y018959*
X013911Y018961*
X013904Y018962*
X013897Y018964*
X013884*
X013879Y018963*
X013872Y018962*
X013864Y01896*
X013856Y018957*
X013848Y018954*
X013839Y018948*
X013838Y018947*
X013835Y018945*
X013831Y018942*
X013827Y018937*
X013821Y018931*
X013816Y018924*
X013811Y018914*
X013807Y018904*
Y018903*
X013805Y018899*
X013804Y018892*
X013802Y018883*
X0138Y018869*
X013799Y018853*
X013798Y018833*
Y018811*
Y018589*
X013677*
Y019047*
X013788*
Y018984*
X013789Y018985*
X01379Y018986*
X013794Y01899*
X013799Y018996*
X013804Y019001*
X01381Y019006*
X013819Y019014*
X013828Y01902*
X013838Y019026*
X013849Y019034*
X013872Y019046*
X013886Y01905*
X0139Y019054*
X013914Y019056*
X01393Y019057*
X013937*
X013945Y019056*
X013955Y019055*
X013967Y019052*
X01398Y019049*
X013993Y019045*
X014005Y019038*
X014007Y019037*
X014011Y019035*
X014017Y019031*
X014024Y019025*
X014033Y019016*
X014042Y019007*
X014051Y018996*
X014059Y018983*
X014061Y018985*
X014065Y018989*
X01407Y018996*
X014078Y019004*
X014088Y019013*
X014099Y019022*
X014111Y019031*
X014124Y019038*
X014126Y019039*
X01413Y019041*
X014137Y019044*
X014147Y019047*
X014158Y019051*
X01417Y019054*
X014184Y019056*
X014198Y019057*
X014207*
X014216Y019056*
G37*
G36*
X013432D02*
X013444Y019054D01*
X013458Y019051*
X013472Y019047*
X013486Y019043*
X0135Y019036*
X013502Y019035*
X013505Y019032*
X013512Y019027*
X01352Y019021*
X013528Y019012*
X013537Y019002*
X013545Y01899*
X013553Y018975*
X013554*
Y01897*
X013556Y018963*
X013559Y018953*
X013562Y01894*
X013564Y018924*
Y018903*
X013565Y018881*
Y018589*
X013444*
Y01885*
Y018851*
Y018852*
Y018856*
Y018861*
X013443Y018873*
X013442Y018886*
X013441Y018901*
X013439Y018915*
X013436Y018928*
X013433Y018933*
X013431Y018937*
Y018938*
X013428Y018942*
X013424Y018945*
X013419Y018951*
X013411Y018955*
X013402Y01896*
X013391Y018963*
X01338Y018964*
X013375*
X01337Y018963*
X013364Y018962*
X013357Y01896*
X013349Y018957*
X013339Y018954*
X013331Y018948*
X01333Y018947*
X013328Y018945*
X013324Y018942*
X013319Y018936*
X013314Y01893*
X013308Y018923*
X013304Y018914*
X013299Y018903*
Y018901*
X013298Y018897*
X013297Y01889*
X013295Y01888*
X013293Y018866*
X013292Y01885*
X01329Y018831*
Y018808*
Y018589*
X013169*
Y018839*
Y01884*
Y018842*
Y018845*
Y01885*
Y018861*
X013168Y018874*
X013167Y018889*
X013166Y018903*
X013165Y018915*
X013163Y018921*
X013162Y018924*
Y018925*
X013161Y018928*
X013159Y018932*
X013157Y018935*
X013151Y018945*
X013146Y01895*
X013142Y018954*
X013141Y018955*
X013139*
X013136Y018957*
X013133Y018959*
X013127Y018961*
X013121Y018962*
X013113Y018964*
X013101*
X013095Y018963*
X013089Y018962*
X013081Y01896*
X013073Y018957*
X013064Y018954*
X013055Y018948*
X013054Y018947*
X013052Y018945*
X013048Y018942*
X013043Y018937*
X013038Y018931*
X013032Y018924*
X013028Y018914*
X013023Y018904*
Y018903*
X013021Y018899*
Y018892*
X013019Y018883*
X013017Y018869*
X013016Y018853*
X013014Y018833*
Y018811*
Y018589*
X012893*
Y019047*
X013004*
Y018984*
X013005Y018985*
X013007Y018986*
X013011Y01899*
X013015Y018996*
X013021Y019001*
X013027Y019006*
X013035Y019014*
X013044Y01902*
X013054Y019026*
X013065Y019034*
X013089Y019046*
X013103Y01905*
X013116Y019054*
X013131Y019056*
X013146Y019057*
X013154*
X013162Y019056*
X013172Y019055*
X013184Y019052*
X013196Y019049*
X013209Y019045*
X013222Y019038*
X013224Y019037*
X013227Y019035*
X013234Y019031*
X013241Y019025*
X013249Y019016*
X013258Y019007*
X013267Y018996*
X013276Y018983*
X013277Y018985*
X013281Y018989*
X013287Y018996*
X013295Y019004*
X013305Y019013*
X013316Y019022*
X013328Y019031*
X01334Y019038*
X013342Y019039*
X013347Y019041*
X013354Y019044*
X013363Y019047*
X013374Y019051*
X013387Y019054*
X0134Y019056*
X013415Y019057*
X013423*
X013432Y019056*
G37*
G36*
X011864Y019222D02*
X011872Y019221D01*
X01188*
X01189Y019219*
X0119Y019216*
X011923Y01921*
X011935Y019205*
X011947Y019199*
X011959Y019192*
X01197Y019185*
X011982Y019176*
X011992Y019166*
X011993Y019165*
X011994Y019164*
X011997Y019161*
X011999Y019158*
X012007Y019149*
X012015Y019136*
X012023Y01912*
X012029Y019102*
X012035Y019082*
X012036Y019072*
X012037Y019061*
Y01906*
Y019057*
X012036Y019053*
X012035Y019047*
X012034Y01904*
X012032Y019032*
X012029Y019023*
X012026Y019013*
X01202Y019003*
X012015Y018992*
X012008Y018981*
X011998Y01897*
X011988Y018959*
X011976Y018948*
X011962Y018938*
X011946Y018928*
X011947*
X011948Y018927*
X011951*
X011955Y018925*
X011965Y018923*
X011977Y018917*
X01199Y01891*
X012005Y018901*
X012019Y018889*
X012032Y018875*
X012034Y018873*
X012038Y018868*
X012042Y01886*
X012049Y018848*
X012055Y018834*
X012059Y018817*
X012063Y018799*
X012065Y018778*
Y018777*
Y018774*
Y01877*
X012064Y018764*
X012063Y018757*
X012061Y018749*
X012059Y018739*
X012058Y018729*
X01205Y018707*
X012045Y018695*
X012039Y018682*
X012032Y01867*
X012024Y018658*
X012015Y018647*
X012004Y018636*
X012003Y018635*
X012001Y018633*
X011998Y01863*
X011993Y018627*
X011987Y018622*
X01198Y018617*
X011971Y018612*
X011962Y018607*
X011952Y018601*
X01194Y018596*
X011927Y018591*
X011915Y018586*
X0119Y018583*
X011885Y01858*
X011869Y018578*
X011853Y018577*
X011844*
X011838Y018578*
X011831Y018579*
X011823Y01858*
X011814Y018582*
X011803Y018584*
X011781Y018589*
X011757Y018598*
X011744Y018604*
X011733Y01861*
X011721Y018618*
X011711Y018627*
X01171*
X011708Y018629*
X011705Y018632*
X011701Y018636*
X011697Y01864*
X011692Y018647*
X011687Y018653*
X011681Y018661*
X011676Y01867*
X01167Y018679*
X01166Y018701*
X011651Y018727*
X011648Y01874*
X011646Y018755*
X011762Y01877*
Y018769*
Y018768*
X011763Y018762*
X011765Y018754*
X011768Y018744*
X011773Y018733*
X011777Y018721*
X011784Y01871*
X011793Y0187*
Y018699*
X011797Y018697*
X011803Y018693*
X011809Y018689*
X011818Y018685*
X011828Y018681*
X011839Y018678*
X011852*
X011854*
X011858*
X011865Y018679*
X011874Y018681*
X011884Y018685*
X011894Y018689*
X011905Y018697*
X011915Y018706*
X011916Y018707*
X011919Y018711*
X011923Y018718*
X011928Y018726*
X011933Y018737*
X011937Y01875*
X01194Y018766*
X011941Y018783*
Y018784*
Y018785*
Y018791*
X01194Y018799*
X011938Y01881*
X011935Y018822*
X01193Y018833*
X011924Y018845*
X011916Y018856*
X011915Y018857*
X011911Y018861*
X011906Y018865*
X011899Y01887*
X01189Y018875*
X01188Y018879*
X011869Y018883*
X011856*
X011847*
X011841*
X011833Y018882*
X011823Y01888*
X011813Y018877*
X011801Y018874*
X011814Y018972*
X011822*
X011831Y018973*
X011842Y018974*
X011854Y018976*
X011866Y01898*
X011878Y018985*
X011889Y018993*
X01189Y018994*
X011894Y018997*
X011897Y019002*
X011903Y019009*
X011907Y019017*
X011912Y019027*
X011915Y019039*
X011916Y019053*
Y019055*
Y019058*
X011915Y019064*
X011913Y019071*
X011911Y019079*
X011907Y019088*
X011903Y019097*
X011896Y019104*
Y019105*
X011893Y019107*
X011889Y01911*
X011883Y019114*
X011875Y019117*
X011867Y01912*
X011856Y019122*
X011845Y019123*
X01184*
X011834Y019122*
X011827Y01912*
X011819Y019118*
X01181Y019114*
X011801Y019108*
X011793Y019101*
X011792Y0191*
X011789Y019098*
X011785Y019092*
X011781Y019085*
X011776Y019077*
X011773Y019066*
X011769Y019053*
X011766Y019038*
X011655Y019057*
X011656Y019059*
Y019062*
X011657Y019067*
X01166Y019077*
X011663Y01909*
X011669Y019105*
X011674Y01912*
X011681Y019135*
X01169Y019149*
X011691Y01915*
X011694Y019154*
X0117Y01916*
X011707Y019169*
X011716Y019177*
X011727Y019186*
X011741Y019195*
X011755Y019203*
X011756*
X011757Y019204*
X011762Y019206*
X011772Y01921*
X011783Y019213*
X011796Y019217*
X011813Y019221*
X01183Y019222*
X011849Y019223*
X011857*
X011864Y019222*
G37*
G36*
X012609D02*
X012617Y019221D01*
X012626*
X012636Y019219*
X012647Y019217*
X012671Y019211*
X012694Y019201*
X012707Y019196*
X012718Y01919*
X01273Y019181*
X01274Y019172*
X012741Y019171*
X012743Y01917*
X012745Y019167*
X012748Y019163*
X012753Y019159*
X012757Y019152*
X012762Y019146*
X012767Y019138*
X012776Y019119*
X012786Y019098*
X012789Y019087*
X012791Y019074*
X012793Y01906*
X012794Y019047*
Y019045*
Y019039*
X012793Y019031*
X012792Y019021*
X01279Y019008*
X012787Y018995*
X012784Y01898*
X012778Y018965*
X012777Y018964*
X012776Y018959*
X012772Y018951*
X012766Y018941*
X01276Y018929*
X012752Y018915*
X012742Y018901*
X01273Y018885*
X012729Y018884*
X012725Y01888*
X01272Y018873*
X012712Y018864*
X012701Y018853*
X012687Y018839*
X012671Y018823*
X012651Y018804*
X01265Y018803*
X012648Y018802*
X012645Y0188*
X012642Y018796*
X012632Y018787*
X01262Y018776*
X012608Y018764*
X012596Y018752*
X012585Y018742*
X012581Y018738*
X012578Y018734*
X012577Y018733*
X012575Y018731*
X012572Y018728*
X012569Y018723*
X012561Y018713*
X012553Y018701*
X012794*
Y018589*
X01237*
Y01859*
Y018592*
X012371Y018596*
X012372Y0186*
X012373Y018606*
X012374Y018612*
X012377Y018628*
X012383Y018647*
X01239Y018667*
X012399Y018688*
X012411Y018709*
Y01871*
X012413Y018712*
X012415Y018716*
X012418Y018719*
X012422Y018726*
X012428Y018732*
X012434Y01874*
X012441Y01875*
X012449Y01876*
X012459Y018771*
X01247Y018784*
X012483Y018798*
X012497Y018811*
X012512Y018827*
X012529Y018843*
X012547Y018861*
X012548Y018862*
X012551Y018864*
X012554Y018868*
X01256Y018873*
X012567Y018879*
X012574Y018886*
X012591Y018903*
X012607Y01892*
X012623Y018937*
X012631Y018944*
X012638Y018953*
X012643Y018959*
X012647Y018965*
X012648Y018966*
X012651Y018971*
X012655Y018978*
X01266Y018988*
X012664Y018999*
X012669Y019012*
X012672Y019025*
X012673Y019038*
Y019039*
Y01904*
Y019045*
X012672Y019053*
X01267Y019062*
X012667Y019072*
X012663Y019082*
X012658Y019092*
X012651Y019101*
X01265Y019102*
X012647Y019105*
X012642Y019108*
X012635Y019112*
X012626Y019116*
X012616Y019119*
X012604Y019122*
X012591Y019123*
X012584*
X012577Y019122*
X012569Y01912*
X012559Y019118*
X012549Y019113*
X012539Y019108*
X01253Y0191*
X012529Y019099*
X012526Y019096*
X012522Y01909*
X012519Y019082*
X012514Y019072*
X01251Y019058*
X012507Y019043*
X012505Y019025*
X012385Y019037*
X012386Y019041*
Y019046*
X012387Y019053*
X012388Y019061*
X012391Y01907*
X012394Y01908*
X012397Y019092*
X012406Y019115*
X012417Y019139*
X012424Y01915*
X012432Y019161*
X012441Y01917*
X012451Y01918*
X012452*
X012454Y019181*
X012457Y019183*
X012461Y019187*
X012467Y01919*
X012474Y019193*
X012481Y019198*
X01249Y019201*
X0125Y019206*
X012511Y01921*
X012535Y019217*
X012563Y019221*
X012578Y019222*
X012593Y019223*
X012602*
X012609Y019222*
G37*
G36*
X012284Y018624D02*
Y018623D01*
Y018622*
Y018619*
Y018616*
Y018606*
Y018594*
X012283Y018581*
X012281Y018567*
X012278Y018554*
X012275Y018542*
Y018541*
X012274Y018536*
X012271Y018531*
X012268Y018524*
X012263Y018514*
X012257Y018505*
X01225Y018496*
X012241Y018487*
X01224Y018486*
X012236Y018484*
X012231Y018479*
X012223Y018474*
X012214Y018467*
X012203Y018461*
X012191Y018454*
X012177Y018449*
X012153Y018499*
X012155Y0185*
X01216Y018502*
X012166Y018504*
X012173Y018508*
X012182Y018513*
X012191Y018519*
X012199Y018525*
X012205Y018533*
X012206Y018534*
X012208Y018536*
X012211Y018541*
X012213Y018547*
X012217Y018556*
X01222Y018566*
X012222Y018576*
X012223Y018589*
X012163*
Y01871*
X012284*
Y018624*
G37*
G36*
X01129Y002299D02*
X011244Y002245D01*
X011245Y002243*
X011248Y00224*
X011253Y002233*
X011259Y002224*
X011265Y002214*
X011271Y002201*
X011279Y002188*
X011284Y002172*
X011285Y00217*
X011287Y002165*
X011289Y002157*
X011292Y002146*
X011295Y002132*
X011297Y002117*
X011299Y002102*
X0113Y002085*
Y002084*
Y00208*
Y002075*
X011299Y002067*
X011298Y002059*
X011296Y002048*
X011294Y002037*
X011291Y002025*
X011288Y002012*
X011283Y001998*
X011278Y001984*
X01127Y001969*
X011263Y001955*
X011254Y001941*
X011243Y001927*
X011231Y001914*
X01123Y001913*
X011228Y001912*
X011224Y001908*
X011219Y001903*
X011212Y001899*
X011205Y001893*
X011196Y001887*
X011185Y001881*
X011173Y001874*
X01116Y001868*
X011146Y001862*
X011131Y001858*
X011115Y001853*
X011098Y00185*
X011081Y001848*
X011062Y001847*
X011054*
X011049Y001848*
X011043*
X011035Y001849*
X011027Y00185*
X011018Y001851*
X010997Y001856*
X010975Y001861*
X010952Y001871*
X01093Y001882*
X01088Y001826*
X010833Y001866*
X010883Y001923*
X010882Y001925*
X010879Y001929*
X010874Y001935*
X010869Y001944*
X010861Y001955*
X010855Y001968*
X010849Y001983*
X010842Y001998*
Y001999*
X010841Y002*
X01084Y002005*
X010838Y002015*
X010835Y002025*
X010832Y002039*
X01083Y002055*
X010829Y00207*
X010828Y002087*
Y002088*
Y002092*
X010829Y002097*
Y002105*
Y002113*
X010831Y002124*
X010833Y002135*
X010836Y002148*
X010839Y00216*
X010844Y002174*
X010849Y002189*
X010855Y002202*
X010863Y002217*
X010871Y00223*
X010881Y002244*
X010893Y002257*
X010894Y002258*
X010896Y00226*
X0109Y002263*
X010905Y002268*
X010911Y002272*
X01092Y002278*
X010929Y002284*
X01094Y002291*
X010951Y002297*
X010964Y002303*
X010978Y002309*
X010992Y002313*
X011009Y002318*
X011026Y002322*
X011044Y002323*
X011063Y002324*
X01107*
X011075Y002323*
X011083*
X01109Y002322*
X011099Y002321*
X011108Y00232*
X01113Y002315*
X011152Y002308*
X011176Y002298*
X011187Y002292*
X011197Y002285*
X011243Y002338*
X01129Y002299*
G37*
G36*
X014176Y002323D02*
X014188Y002322D01*
X014202Y002319*
X014216Y002315*
X01423Y002311*
X014244Y002303*
X014246Y002302*
X014249Y0023*
X014256Y002295*
X014264Y002289*
X014272Y00228*
X014281Y00227*
X014289Y002258*
X014297Y002243*
X014298Y002242*
X014299Y002238*
X0143Y00223*
X014303Y00222*
X014306Y002208*
X014308Y002191*
X014309Y002171*
Y002148*
Y001857*
X014188*
Y002117*
Y002118*
Y00212*
Y002124*
Y002128*
X014187Y00214*
X014186Y002154*
Y002168*
X014183Y002183*
X01418Y002196*
X014177Y0022*
X014176Y002205*
X014175Y002206*
X014172Y002209*
X014168Y002213*
X014163Y002219*
X014155Y002223*
X014146Y002228*
X014135Y00223*
X014124Y002231*
X014119*
X014114Y00223*
X014108*
X014101Y002228*
X014093Y002225*
X014084Y002221*
X014075Y002216*
X014074Y002215*
X014072Y002213*
X014068Y002209*
X014063Y002204*
X014058Y002198*
X014053Y00219*
X014048Y002181*
X014043Y00217*
Y002168*
X014042Y002165*
X014041Y002158*
X014039Y002148*
X014037Y002134*
X014036Y002117*
X014034Y002098*
Y002076*
Y001857*
X013913*
Y002107*
Y002109*
Y002113*
Y002117*
Y002128*
X013912Y002142*
X013911Y002157*
X01391Y00217*
X013909Y002183*
X013907Y002189*
X013906Y002192*
Y002193*
X013905Y002196*
X013903Y002199*
X013901Y002203*
X013895Y002213*
X01389Y002218*
X013886Y002221*
X013885Y002222*
X013883Y002223*
X01388Y002225*
X013877Y002227*
X013871Y002229*
X013865Y00223*
X013858Y002231*
X013845*
X013839Y00223*
X013833*
X013825Y002228*
X013817Y002225*
X013808Y002221*
X013799Y002216*
X013798Y002215*
X013796Y002213*
X013792Y002209*
X013787Y002205*
X013782Y002199*
X013777Y002191*
X013772Y002182*
X013767Y002172*
Y002171*
X013766Y002167*
X013765Y002159*
X013763Y00215*
X013761Y002137*
X01376Y002121*
X013758Y002101*
Y002078*
Y001857*
X013637*
Y002314*
X013748*
Y002251*
X013749Y002252*
X013751Y002254*
X013755Y002258*
X013759Y002263*
X013765Y002269*
X013771Y002274*
X013779Y002281*
X013788Y002288*
X013798Y002294*
X013809Y002301*
X013833Y002313*
X013847Y002318*
X01386Y002322*
X013875Y002323*
X01389Y002324*
X013898*
X013906Y002323*
X013916Y002322*
X013928Y00232*
X01394Y002317*
X013953Y002312*
X013966Y002306*
X013968Y002305*
X013971Y002302*
X013978Y002299*
X013985Y002292*
X013993Y002284*
X014002Y002275*
X014012Y002263*
X01402Y00225*
X014022Y002252*
X014025Y002257*
X014031Y002263*
X014039Y002271*
X014049Y002281*
X01406Y00229*
X014072Y002299*
X014084Y002306*
X014086Y002307*
X014091Y002309*
X014098Y002312*
X014107Y002315*
X014118Y002319*
X014131Y002322*
X014145Y002323*
X014159Y002324*
X014167*
X014176Y002323*
G37*
G36*
X013393D02*
X013405Y002322D01*
X013418Y002319*
X013432Y002315*
X013447Y002311*
X01346Y002303*
X013462Y002302*
X013466Y0023*
X013472Y002295*
X01348Y002289*
X013489Y00228*
X013498Y00227*
X013506Y002258*
X013513Y002243*
X013514Y002242*
X013515Y002238*
X013517Y00223*
X01352Y00222*
X013522Y002208*
X013524Y002191*
X013525Y002171*
X013526Y002148*
Y001857*
X013405*
Y002117*
Y002118*
Y00212*
Y002124*
Y002128*
X013404Y00214*
X013403Y002154*
X013402Y002168*
X013399Y002183*
X013397Y002196*
X013394Y0022*
X013392Y002205*
X013391Y002206*
X013388Y002209*
X013385Y002213*
X013379Y002219*
X013372Y002223*
X013363Y002228*
X013352Y00223*
X01334Y002231*
X013336*
X013331Y00223*
X013325*
X013317Y002228*
X013309Y002225*
X0133Y002221*
X013292Y002216*
X013291Y002215*
X013288Y002213*
X013285Y002209*
X01328Y002204*
X013275Y002198*
X013269Y00219*
X013265Y002181*
X01326Y00217*
Y002168*
X013258Y002165*
X013257Y002158*
X013255Y002148*
X013254Y002134*
X013253Y002117*
X013251Y002098*
Y002076*
Y001857*
X01313*
Y002107*
Y002109*
Y002113*
Y002117*
Y002128*
X013129Y002142*
X013128Y002157*
X013127Y00217*
X013125Y002183*
X013123Y002189*
X013122Y002192*
Y002193*
Y002196*
X01312Y002199*
X013118Y002203*
X013111Y002213*
X013107Y002218*
X013102Y002221*
X013101Y002222*
X0131Y002223*
X013097Y002225*
X013093Y002227*
X013088Y002229*
X013081Y00223*
X013074Y002231*
X013061*
X013056Y00223*
X01305*
X013041Y002228*
X013033Y002225*
X013025Y002221*
X013016Y002216*
X013015Y002215*
X013012Y002213*
X013009Y002209*
X013004Y002205*
X012999Y002199*
X012993Y002191*
X012989Y002182*
X012984Y002172*
Y002171*
X012982Y002167*
X012981Y002159*
X012979Y00215*
X012978Y002137*
X012977Y002121*
X012975Y002101*
Y002078*
Y001857*
X012854*
Y002314*
X012965*
Y002251*
X012966Y002252*
X012968Y002254*
X012971Y002258*
X012976Y002263*
X012981Y002269*
X012988Y002274*
X012996Y002281*
X013005Y002288*
X013015Y002294*
X013026Y002301*
X01305Y002313*
X013063Y002318*
X013077Y002322*
X013091Y002323*
X013107Y002324*
X013114*
X013122Y002323*
X013132Y002322*
X013144Y00232*
X013157Y002317*
X01317Y002312*
X013183Y002306*
X013184Y002305*
X013188Y002302*
X013194Y002299*
X013202Y002292*
X01321Y002284*
X013219Y002275*
X013228Y002263*
X013236Y00225*
X013238Y002252*
X013242Y002257*
X013247Y002263*
X013255Y002271*
X013265Y002281*
X013276Y00229*
X013288Y002299*
X013301Y002306*
X013303Y002307*
X013307Y002309*
X013315Y002312*
X013324Y002315*
X013335Y002319*
X013347Y002322*
X013361Y002323*
X013376Y002324*
X013384*
X013393Y002323*
G37*
G36*
X011824Y00249D02*
X011832Y002489D01*
X011841Y002488*
X011851Y002486*
X011861Y002484*
X011883Y002477*
X011895Y002473*
X011908Y002466*
X01192Y00246*
X011931Y002453*
X011943Y002444*
X011953Y002434*
X011954Y002433*
X011955Y002432*
X011957Y002429*
X01196Y002425*
X011967Y002416*
X011975Y002404*
X011984Y002388*
X01199Y00237*
X011996Y00235*
Y00234*
X011997Y002329*
Y002328*
Y002325*
X011996Y002321*
Y002315*
X011995Y002308*
X011993Y0023*
X01199Y002291*
X011986Y002281*
X011981Y002271*
X011975Y00226*
X011968Y002249*
X011959Y002238*
X011948Y002227*
X011936Y002216*
X011923Y002206*
X011906Y002196*
X011907*
X011909Y002195*
X011912*
X011915Y002193*
X011925Y00219*
X011937Y002185*
X011951Y002178*
X011965Y002168*
X01198Y002157*
X011993Y002143*
X011995Y002141*
X011998Y002136*
X012003Y002127*
X012009Y002116*
X012016Y002102*
X01202Y002085*
X012024Y002066*
X012026Y002045*
Y002042*
Y002037*
X012025Y002032*
X012024Y002025*
X012022Y002016*
X01202Y002006*
X012018Y001996*
X012011Y001974*
X012006Y001963*
X012Y00195*
X011993Y001938*
X011985Y001926*
X011975Y001914*
X011965Y001903*
X011964Y001902*
X011962Y001901*
X011958Y001898*
X011954Y001894*
X011947Y00189*
X011941Y001885*
X011932Y00188*
X011923Y001874*
X011913Y001869*
X011901Y001863*
X011888Y001859*
X011875Y001854*
X011861Y001851*
X011846Y001848*
X01183Y001846*
X011813Y001845*
X011805*
X011799Y001846*
X011791Y001847*
X011783Y001848*
X011774Y00185*
X011763Y001851*
X011741Y001857*
X011718Y001866*
X011705Y001871*
X011694Y001878*
X011682Y001886*
X011671Y001894*
X01167Y001895*
X011668Y001897*
X011666Y0019*
X011662Y001903*
X011658Y001908*
X011653Y001914*
X011648Y001921*
X011642Y001929*
X011637Y001938*
X01163Y001947*
X01162Y001969*
X011612Y001994*
X011608Y002008*
X011607Y002023*
X011723Y002037*
Y002036*
Y002035*
X011724Y00203*
X011726Y002022*
X011729Y002012*
X011733Y002001*
X011738Y001989*
X011745Y001978*
X011753Y001968*
X011754Y001967*
X011758Y001964*
X011763Y001961*
X01177Y001957*
X011779Y001953*
X011789Y001949*
X0118Y001946*
X011812Y001945*
X011814*
X011819Y001946*
X011825Y001947*
X011834Y001949*
X011844Y001953*
X011854Y001957*
X011865Y001964*
X011875Y001974*
X011876*
X01188Y001979*
X011883Y001985*
X011889Y001994*
X011893Y002005*
X011898Y002018*
X011901Y002034*
X011902Y002051*
Y002052*
Y002053*
Y002058*
X011901Y002066*
X011899Y002077*
X011895Y002089*
X011891Y002101*
X011884Y002113*
X011876Y002124*
X011875Y002125*
X011872Y002128*
X011866Y002133*
X01186Y002138*
X011851Y002143*
X011841Y002147*
X01183Y00215*
X011817Y002151*
X011808*
X011801Y00215*
X011793Y002149*
X011783Y002148*
X011773Y002145*
X011761Y002142*
X011774Y00224*
X011782*
X011791*
X011802Y002241*
X011814Y002244*
X011827Y002248*
X011839Y002253*
X01185Y00226*
X011851Y002261*
X011854Y002265*
X011858Y00227*
X011863Y002277*
X011868Y002285*
X011873Y002295*
X011875Y002307*
X011876Y002321*
Y002322*
Y002326*
X011875Y002332*
X011873Y002339*
X011872Y002347*
X011868Y002355*
X011863Y002364*
X011857Y002372*
X011856Y002373*
X011853Y002374*
X01185Y002378*
X011843Y002382*
X011836Y002384*
X011828Y002388*
X011817Y00239*
X011806Y002391*
X011801*
X011795Y00239*
X011788Y002388*
X01178Y002385*
X01177Y002382*
X011761Y002376*
X011753Y002369*
X011752Y002368*
X01175Y002365*
X011746Y00236*
X011741Y002352*
X011737Y002344*
X011733Y002333*
X01173Y002321*
X011727Y002306*
X011616Y002324*
Y002325*
X011617Y002327*
Y00233*
Y002334*
X01162Y002344*
X011624Y002358*
X011629Y002373*
X011635Y002388*
X011642Y002403*
X01165Y002416*
X011651Y002418*
X011655Y002422*
X01166Y002428*
X011668Y002436*
X011677Y002445*
X011688Y002454*
X011701Y002463*
X011716Y002471*
X011717*
X011718Y002472*
X011723Y002474*
X011732Y002477*
X011743Y002481*
X011757Y002485*
X011773Y002488*
X011791Y00249*
X01181Y002491*
X011818*
X011824Y00249*
G37*
G36*
X012569D02*
X012578Y002489D01*
X012587Y002488*
X012597Y002486*
X012608Y002485*
X012631Y002478*
X012655Y002469*
X012668Y002464*
X012679Y002457*
X012691Y002449*
X012701Y00244*
X012702Y002439*
X012703Y002438*
X012705Y002434*
X012709Y002431*
X012713Y002426*
X012718Y00242*
X012722Y002414*
X012728Y002405*
X012737Y002387*
X012746Y002366*
X01275Y002354*
X012752Y002342*
X012753Y002328*
X012754Y002314*
Y002312*
Y002307*
X012753Y002299*
Y002289*
X012751Y002276*
X012748Y002262*
X012744Y002248*
X012739Y002233*
X012738Y002231*
X012736Y002227*
X012733Y002219*
X012727Y002209*
X012721Y002197*
X012712Y002183*
X012702Y002168*
X012691Y002153*
X01269Y002152*
X012686Y002148*
X012681Y002141*
X012672Y002132*
X012661Y002121*
X012648Y002107*
X012631Y002091*
X012611Y002072*
X01261Y002071*
X012609Y00207*
X012606Y002067*
X012602Y002064*
X012592Y002055*
X01258Y002044*
X012569Y002032*
X012557Y00202*
X012546Y00201*
X012542Y002005*
X012538Y002002*
Y002001*
X012536Y001999*
X012533Y001995*
X012529Y001991*
X012521Y001981*
X012514Y001969*
X012754*
Y001857*
X012331*
Y001858*
Y00186*
X012332Y001863*
X012333Y001868*
Y001873*
X012334Y00188*
X012338Y001896*
X012344Y001914*
X012351Y001934*
X01236Y001956*
X012372Y001977*
Y001978*
X012374Y00198*
X012375Y001984*
X012379Y001987*
X012383Y001994*
X012388Y002*
X012395Y002008*
X012402Y002017*
X01241Y002028*
X01242Y002039*
X012431Y002052*
X012444Y002066*
X012457Y002079*
X012473Y002095*
X012489Y002111*
X012507Y002128*
X012508Y002129*
X012511Y002132*
X012515Y002136*
X01252Y002141*
X012528Y002147*
X012535Y002154*
X012551Y00217*
X012568Y002188*
X012584Y002205*
X012591Y002212*
X012599Y00222*
X012604Y002227*
X012608Y002232*
X012609Y002234*
X012611Y002239*
X012616Y002246*
X01262Y002256*
X012625Y002267*
X01263Y00228*
X012632Y002292*
X012633Y002306*
Y002307*
Y002308*
Y002312*
X012632Y002321*
X01263Y00233*
X012628Y00234*
X012624Y00235*
X012619Y00236*
X012611Y002369*
X01261Y00237*
X012608Y002373*
X012602Y002376*
X012596Y00238*
X012587Y002383*
X012577Y002387*
X012565Y00239*
X012551Y002391*
X012545*
X012538Y00239*
X012529Y002388*
X012519Y002385*
X012509Y002381*
X012499Y002375*
X01249Y002368*
X012489Y002367*
X012487Y002363*
X012483Y002358*
X012479Y00235*
X012475Y00234*
X012471Y002326*
X012467Y002311*
X012466Y002292*
X012345Y002304*
Y002305*
X012346Y002309*
Y002313*
X012348Y002321*
X012349Y002329*
X012352Y002338*
X012354Y002348*
X012357Y00236*
X012366Y002383*
X012377Y002406*
X012385Y002418*
X012393Y002429*
X012402Y002438*
X012412Y002447*
X012413Y002448*
X012415Y002449*
X012417Y002451*
X012422Y002455*
X012427Y002457*
X012435Y002461*
X012442Y002465*
X012451Y002469*
X012461Y002474*
X012472Y002477*
X012496Y002485*
X012524Y002489*
X012538Y00249*
X012554Y002491*
X012563*
X012569Y00249*
G37*
G36*
X012245Y001892D02*
Y001891D01*
Y00189*
Y001887*
Y001883*
Y001873*
X012244Y001861*
X012243Y001849*
X012241Y001835*
X012239Y001821*
X012236Y00181*
Y001809*
X012234Y001804*
X012231Y001799*
X012229Y001791*
X012223Y001782*
X012218Y001773*
X012211Y001764*
X012201Y001755*
X0122Y001754*
X012197Y001751*
X012191Y001747*
X012184Y001741*
X012175Y001735*
X012164Y001728*
X012151Y001722*
X012138Y001717*
X012114Y001767*
X012116Y001768*
X01212Y001769*
X012127Y001772*
X012134Y001776*
X012143Y00178*
X012151Y001787*
X012159Y001793*
X012166Y0018*
X012167Y001801*
X012169Y001804*
X012171Y001809*
X012174Y001815*
X012178Y001823*
X01218Y001833*
X012182Y001844*
X012183Y001857*
X012124*
Y001978*
X012245*
Y001892*
G37*
G36*
X0029Y002392D02*
X002854Y002339D01*
X002855Y002337*
X002859Y002333*
X002863Y002327*
X002869Y002318*
X002875Y002308*
X002881Y002295*
X002889Y002281*
X002894Y002266*
X002895Y002264*
X002897Y002258*
X002899Y00225*
X002902Y002239*
X002905Y002226*
X002907Y002211*
X002909Y002196*
X00291Y002178*
Y002177*
Y002174*
Y002168*
X002909Y002161*
X002908Y002153*
X002906Y002142*
X002904Y002131*
X002901Y002118*
X002898Y002105*
X002893Y002092*
X002888Y002077*
X00288Y002063*
X002873Y002049*
X002864Y002034*
X002853Y002021*
X002841Y002008*
X00284Y002007*
X002839Y002005*
X002834Y002002*
X002829Y001997*
X002822Y001992*
X002815Y001987*
X002806Y001981*
X002795Y001974*
X002783Y001968*
X00277Y001961*
X002757Y001956*
X002741Y001951*
X002726Y001947*
X002708Y001943*
X002691Y001941*
X002672*
X002665*
X002659*
X002653*
X002645Y001942*
X002637Y001943*
X002628Y001945*
X002607Y00195*
X002585Y001955*
X002563Y001964*
X00254Y001976*
X002491Y00192*
X002443Y00196*
X002493Y002017*
X002492Y002019*
X002489Y002023*
X002484Y002029*
X002479Y002038*
X002471Y002049*
X002465Y002062*
X002459Y002076*
X002452Y002092*
Y002093*
X002451Y002094*
X00245Y002099*
X002448Y002108*
X002445Y002119*
X002442Y002133*
X00244Y002148*
X002439Y002164*
X002438Y002181*
Y002182*
Y002186*
X002439Y002191*
Y002198*
X00244Y002207*
X002441Y002217*
X002443Y002228*
X002446Y002241*
X00245Y002254*
X002454Y002268*
X002459Y002282*
X002465Y002296*
X002473Y00231*
X002481Y002324*
X002491Y002338*
X002503Y00235*
X002504Y002351*
X002506Y002353*
X002511Y002357*
X002515Y002361*
X002522Y002366*
X00253Y002371*
X002539Y002378*
X00255Y002384*
X002561Y002391*
X002574Y002397*
X002588Y002402*
X002603Y002407*
X002619Y002412*
X002636Y002415*
X002654Y002417*
X002673Y002418*
X00268*
X002686Y002417*
X002693*
X0027Y002416*
X002709Y002414*
X002718Y002413*
X00274Y002409*
X002762Y002401*
X002786Y002391*
X002797Y002386*
X002808Y002379*
X002853Y002432*
X0029Y002392*
G37*
G36*
X005787Y002417D02*
X005798Y002415D01*
X005812Y002412*
X005826Y002409*
X00584Y002404*
X005854Y002397*
X005856Y002396*
X005859Y002393*
X005866Y002389*
X005874Y002382*
X005882Y002373*
X005891Y002363*
X0059Y002351*
X005907Y002337*
X005908Y002336*
X005909Y002331*
X00591Y002324*
X005913Y002314*
X005916Y002301*
X005918Y002285*
X005919Y002265*
X00592Y002242*
Y001951*
X005798*
Y002211*
Y002212*
Y002214*
Y002217*
Y002222*
X005797Y002234*
Y002248*
X005796Y002262*
X005793Y002277*
X00579Y002289*
X005787Y002294*
X005786Y002299*
X005785*
X005782Y002303*
X005778Y002307*
X005773Y002312*
X005766Y002317*
X005756Y002321*
X005746Y002324*
X005734Y002325*
X005729*
X005725Y002324*
X005718Y002323*
X005711Y002321*
X005703Y002319*
X005694Y002315*
X005685Y002309*
X005682Y002307*
X005678Y002303*
X005674Y002298*
X005668Y002291*
X005663Y002284*
X005658Y002275*
X005654Y002264*
Y002262*
X005652Y002258*
X005651Y002251*
X005649Y002241*
X005647Y002227*
X005646Y002211*
X005644Y002192*
Y002169*
Y001951*
X005523*
Y0022*
Y002201*
Y002203*
Y002207*
Y002211*
Y002222*
X005522Y002236*
X005521Y00225*
Y002264*
X005519Y002277*
X005517Y002282*
X005516Y002286*
Y002287*
X005515Y002289*
X005513Y002293*
X005511Y002297*
X005505Y002307*
X005501Y002311*
X005496Y002315*
X005495Y002316*
X005493Y002317*
X00549Y002319*
X005487Y00232*
X005481Y002322*
X005475Y002323*
X005468Y002325*
X005455*
X005449Y002324*
X005443Y002323*
X005435Y002321*
X005427Y002319*
X005419Y002315*
X005409Y002309*
X005408*
X005406Y002307*
X005402Y002303*
X005398Y002299*
X005392Y002292*
X005387Y002285*
X005382Y002276*
X005378Y002266*
Y002265*
X005376Y00226*
X005375Y002253*
X005373Y002244*
X005371Y00223*
X00537Y002215*
X005368Y002195*
Y002172*
Y001951*
X005247*
Y002408*
X005358*
Y002345*
X005359Y002346*
X005361Y002348*
X005365Y002351*
X005369Y002357*
X005375Y002362*
X005381Y002368*
X005389Y002375*
X005398Y002381*
X005408Y002388*
X005419Y002395*
X005443Y002407*
X005457Y002412*
X00547Y002415*
X005485Y002417*
X005501Y002418*
X005508*
X005516Y002417*
X005526Y002416*
X005538Y002413*
X005551Y002411*
X005563Y002406*
X005576Y0024*
X005578Y002399*
X005582Y002396*
X005588Y002392*
X005595Y002386*
X005603Y002378*
X005613Y002369*
X005622Y002357*
X00563Y002344*
X005632Y002346*
X005635Y00235*
X005641Y002357*
X005649Y002365*
X005659Y002374*
X00567Y002383*
X005682Y002392*
X005695Y0024*
X005696Y002401*
X005701Y002402*
X005708Y002405*
X005717Y002409*
X005728Y002412*
X005741Y002415*
X005755Y002417*
X005769Y002418*
X005777*
X005787Y002417*
G37*
G36*
X005003D02*
X005015Y002415D01*
X005029Y002412*
X005042Y002409*
X005057Y002404*
X005071Y002397*
X005072Y002396*
X005076Y002393*
X005082Y002389*
X005091Y002382*
X005099Y002373*
X005108Y002363*
X005116Y002351*
X005123Y002337*
X005124Y002336*
X005125Y002331*
X005127Y002324*
X00513Y002314*
X005132Y002301*
X005134Y002285*
X005135Y002265*
X005136Y002242*
Y001951*
X005015*
Y002211*
Y002212*
Y002214*
Y002217*
Y002222*
X005014Y002234*
X005013Y002248*
X005012Y002262*
X005009Y002277*
X005007Y002289*
X005004Y002294*
X005002Y002299*
X005001*
X004999Y002303*
X004995Y002307*
X004989Y002312*
X004982Y002317*
X004973Y002321*
X004962Y002324*
X00495Y002325*
X004946*
X004941Y002324*
X004935Y002323*
X004927Y002321*
X004919Y002319*
X00491Y002315*
X004902Y002309*
X004901*
X004898Y002307*
X004895Y002303*
X00489Y002298*
X004885Y002291*
X004879Y002284*
X004875Y002275*
X00487Y002264*
Y002262*
X004868Y002258*
X004867Y002251*
X004866Y002241*
X004864Y002227*
X004863Y002211*
X004861Y002192*
Y002169*
Y001951*
X00474*
Y0022*
Y002201*
Y002203*
Y002207*
Y002211*
Y002222*
X004739Y002236*
X004738Y00225*
X004737Y002264*
X004735Y002277*
X004733Y002282*
Y002286*
Y002287*
X004732Y002289*
X00473Y002293*
X004728Y002297*
X004722Y002307*
X004717Y002311*
X004712Y002315*
Y002316*
X00471Y002317*
X004707Y002319*
X004703Y00232*
X004698Y002322*
X004692Y002323*
X004684Y002325*
X004671*
X004666Y002324*
X00466Y002323*
X004651Y002321*
X004643Y002319*
X004635Y002315*
X004626Y002309*
X004625*
X004622Y002307*
X004619Y002303*
X004614Y002299*
X004609Y002292*
X004603Y002285*
X004599Y002276*
X004594Y002266*
Y002265*
X004592Y00226*
X004591Y002253*
X00459Y002244*
X004588Y00223*
X004587Y002215*
X004585Y002195*
Y002172*
Y001951*
X004464*
Y002408*
X004575*
Y002345*
X004576Y002346*
X004578Y002348*
X004581Y002351*
X004586Y002357*
X004591Y002362*
X004598Y002368*
X004606Y002375*
X004615Y002381*
X004625Y002388*
X004636Y002395*
X00466Y002407*
X004673Y002412*
X004687Y002415*
X004702Y002417*
X004717Y002418*
X004724*
X004733Y002417*
X004743Y002416*
X004754Y002413*
X004767Y002411*
X00478Y002406*
X004793Y0024*
X004794Y002399*
X004798Y002396*
X004805Y002392*
X004812Y002386*
X00482Y002378*
X004829Y002369*
X004838Y002357*
X004846Y002344*
X004848Y002346*
X004852Y00235*
X004857Y002357*
X004866Y002365*
X004876Y002374*
X004886Y002383*
X004898Y002392*
X004911Y0024*
X004913Y002401*
X004917Y002402*
X004925Y002405*
X004934Y002409*
X004945Y002412*
X004958Y002415*
X004971Y002417*
X004986Y002418*
X004994*
X005003Y002417*
G37*
G36*
X003434Y002584D02*
X003443Y002583D01*
X003451Y002582*
X003461Y00258*
X003471Y002577*
X003494Y002571*
X003505Y002566*
X003518Y00256*
X00353Y002554*
X003541Y002546*
X003553Y002537*
X003563Y002527*
X003564Y002526*
X003565Y002525*
X003567Y002523*
X00357Y002519*
X003577Y00251*
X003586Y002497*
X003594Y002482*
X0036Y002463*
X003606Y002443*
X003607Y002433*
Y002422*
Y002419*
Y002414*
X003606Y002409*
X003605Y002401*
X003603Y002393*
X0036Y002384*
X003597Y002374*
X003591Y002364*
X003586Y002353*
X003578Y002342*
X003569Y002331*
X003558Y00232*
X003546Y002309*
X003533Y002299*
X003516Y002289*
X003517*
X003519*
X003522*
X003525Y002287*
X003535Y002284*
X003547Y002279*
X003561Y002271*
X003576Y002262*
X00359Y00225*
X003603Y002237*
X003605Y002235*
X003608Y002229*
X003613Y002221*
X003619Y002209*
X003626Y002196*
X00363Y002178*
X003634Y00216*
X003636Y002139*
Y002138*
Y002135*
Y002131*
X003635Y002125*
X003634Y002118*
X003632Y00211*
X00363Y0021*
X003628Y00209*
X003621Y002068*
X003616Y002056*
X00361Y002043*
X003603Y002032*
X003595Y00202*
X003586Y002008*
X003575Y001997*
X003574Y001996*
X003572Y001994*
X003568Y001992*
X003564Y001988*
X003557Y001983*
X003551Y001979*
X003542Y001973*
X003533Y001968*
X003523Y001962*
X003511Y001957*
X003498Y001952*
X003485Y001948*
X003471Y001944*
X003456Y001941*
X00344Y00194*
X003423Y001939*
X003415*
X003409Y00194*
X003402Y001941*
X003393*
X003384Y001943*
X003373Y001945*
X003351Y001951*
X003328Y00196*
X003315Y001965*
X003304Y001971*
X003292Y00198*
X003281Y001988*
X00328Y001989*
X003279Y001991*
X003276Y001993*
X003272Y001997*
X003268Y002002*
X003263Y002008*
X003258Y002014*
X003252Y002023*
X003247Y002032*
X00324Y002041*
X00323Y002063*
X003222Y002088*
X003218Y002102*
X003217Y002116*
X003333Y002131*
Y00213*
Y002129*
X003334Y002124*
X003336Y002115*
X003339Y002105*
X003343Y002094*
X003348Y002083*
X003355Y002072*
X003363Y002062*
X003364Y002061*
X003368Y002058*
X003373Y002054*
X00338Y002051*
X003389Y002046*
X003399Y002043*
X00341Y00204*
X003423Y002039*
X003424*
X003429Y00204*
X003435Y002041*
X003444Y002043*
X003454Y002046*
X003464Y002051*
X003475Y002058*
X003485Y002067*
X003486Y002068*
X00349Y002073*
X003494Y002079*
X003499Y002087*
X003504Y002098*
X003508Y002112*
X003511Y002127*
X003512Y002145*
Y002146*
Y002152*
X003511Y00216*
X003509Y002171*
X003505Y002183*
X003501Y002195*
X003494Y002207*
X003486Y002217*
X003485Y002218*
X003482Y002222*
X003476Y002227*
X00347Y002231*
X003461Y002237*
X003451Y00224*
X00344Y002244*
X003427Y002245*
X003418*
X003412Y002244*
X003403Y002243*
X003393Y002241*
X003383Y002238*
X003371Y002236*
X003384Y002333*
X003392*
X003402Y002334*
X003412Y002335*
X003424Y002338*
X003437Y002341*
X003449Y002347*
X00346Y002354*
X003461Y002355*
X003464Y002359*
X003468Y002363*
X003474Y002371*
X003478Y002379*
X003483Y002389*
X003485Y002401*
X003486Y002414*
Y002416*
Y00242*
X003485Y002425*
X003484Y002432*
X003482Y002441*
X003478Y002449*
X003474Y002458*
X003467Y002465*
X003466Y002466*
X003464Y002468*
X00346Y002472*
X003453Y002475*
X003446Y002478*
X003438Y002482*
X003427Y002483*
X003416Y002484*
X003411*
X003405Y002483*
X003398Y002482*
X00339Y002479*
X003381Y002475*
X003371Y00247*
X003363Y002463*
X003362Y002462*
X00336Y002459*
X003356Y002453*
X003351Y002446*
X003347Y002438*
X003343Y002427*
X00334Y002414*
X003337Y0024*
X003226Y002418*
Y002419*
X003227Y002421*
Y002423*
X003228Y002428*
X00323Y002438*
X003234Y002452*
X003239Y002466*
X003245Y002482*
X003252Y002496*
X00326Y00251*
X003261Y002512*
X003265Y002515*
X00327Y002522*
X003278Y00253*
X003287Y002538*
X003298Y002547*
X003311Y002556*
X003326Y002565*
X003327*
X003328*
X003333Y002567*
X003342Y002571*
X003353Y002575*
X003367Y002578*
X003383Y002582*
X003401Y002584*
X00342Y002585*
X003428*
X003434Y002584*
G37*
G36*
X00418D02*
X004188Y002583D01*
X004197Y002582*
X004207Y00258*
X004218Y002578*
X004241Y002572*
X004265Y002563*
X004278Y002557*
X004289Y002551*
X004301Y002543*
X004311Y002534*
X004312Y002533*
X004313Y002532*
X004315Y002528*
X004319Y002524*
X004323Y00252*
X004328Y002514*
X004333Y002507*
X004338Y002499*
X004347Y002481*
X004356Y00246*
X00436Y002448*
X004362Y002435*
X004364Y002422*
Y002408*
Y002406*
Y002401*
Y002392*
X004363Y002382*
X004361Y00237*
X004358Y002356*
X004354Y002341*
X004349Y002327*
X004348Y002325*
X004346Y00232*
X004343Y002312*
X004337Y002302*
X004331Y00229*
X004323Y002277*
X004313Y002262*
X004301Y002247*
X0043Y002246*
X004296Y002241*
X004291Y002235*
X004282Y002226*
X004272Y002215*
X004258Y0022*
X004241Y002185*
X004221Y002166*
Y002165*
X004219Y002164*
X004216Y002161*
X004212Y002157*
X004202Y002148*
X00419Y002137*
X004179Y002125*
X004167Y002114*
X004156Y002104*
X004152Y002099*
X004149Y002095*
X004148Y002094*
X004146Y002093*
X004143Y002089*
X004139Y002084*
X004131Y002074*
X004124Y002063*
X004364*
Y001951*
X003941*
Y001953*
X003942Y001957*
X003943Y001961*
X003944Y001967*
X003945Y001973*
X003948Y00199*
X003954Y002008*
X003961Y002028*
X00397Y00205*
X003982Y002071*
Y002072*
X003984Y002074*
X003986Y002077*
X003989Y002081*
X003993Y002087*
X003998Y002094*
X004005Y002102*
X004012Y002111*
X00402Y002122*
X00403Y002133*
X004041Y002146*
X004054Y002159*
X004067Y002173*
X004083Y002188*
X004099Y002205*
X004118Y002222*
X004119Y002223*
X004121Y002226*
X004125Y002229*
X00413Y002235*
X004138Y00224*
X004145Y002248*
X004161Y002264*
X004178Y002281*
X004194Y002299*
X004201Y002306*
X004209Y002314*
X004214Y00232*
X004218Y002326*
X004219Y002328*
X004221Y002332*
X004226Y00234*
X004231Y00235*
X004235Y00236*
X00424Y002373*
X004242Y002386*
X004243Y0024*
Y002401*
Y002406*
X004242Y002414*
X004241Y002423*
X004238Y002433*
X004234Y002443*
X004229Y002453*
X004221Y002463*
X004218Y002466*
X004212Y00247*
X004206Y002473*
X004197Y002477*
X004187Y002481*
X004175Y002483*
X004161Y002484*
X004155*
X004148Y002483*
X004139Y002482*
X004129Y002479*
X004119Y002474*
X004109Y002469*
X0041Y002462*
X004099Y002461*
X004097Y002457*
X004093Y002452*
X004089Y002443*
X004085Y002433*
X004081Y00242*
X004078Y002404*
X004076Y002386*
X003955Y002398*
Y002399*
X003956Y002402*
Y002407*
X003958Y002414*
X003959Y002422*
X003962Y002432*
X003965Y002442*
X003967Y002453*
X003976Y002476*
X003987Y0025*
X003995Y002512*
X004003Y002523*
X004012Y002532*
X004022Y002541*
X004023Y002542*
X004025Y002543*
X004027Y002545*
X004032Y002548*
X004037Y002551*
X004045Y002555*
X004052Y002559*
X004061Y002563*
X004071Y002567*
X004082Y002571*
X004106Y002578*
X004134Y002583*
X004149Y002584*
X004164Y002585*
X004173*
X00418Y002584*
G37*
G36*
X003855Y001985D02*
Y001984D01*
Y001983*
Y001981*
Y001977*
Y001967*
X003854Y001955*
X003853Y001942*
X003852Y001929*
X003849Y001915*
X003846Y001903*
Y001902*
X003844Y001898*
X003842Y001892*
X003839Y001885*
X003833Y001876*
X003828Y001867*
X003821Y001858*
X003812Y001849*
X003811Y001848*
X003807Y001845*
X003801Y00184*
X003794Y001835*
X003785Y001828*
X003774Y001822*
X003761Y001816*
X003748Y00181*
X003724Y00186*
X003726Y001861*
X00373Y001863*
X003737Y001866*
X003744Y001869*
X003753Y001874*
X003761Y00188*
X00377Y001887*
X003776Y001894*
X003777Y001895*
X003779Y001898*
X003781Y001902*
X003784Y001909*
X003788Y001917*
X003791Y001927*
X003792Y001938*
X003793Y001951*
X003734*
Y002072*
X003855*
Y001985*
G37*
G36*
X018261Y011963D02*
X018001D01*
X018*
X017998*
X017994*
X01799*
X017978Y011962*
X017964Y011961*
X01795Y01196*
X017935Y011957*
X017922Y011955*
X017918Y011952*
X017913Y01195*
X017912Y011949*
X017909Y011946*
X017905Y011943*
X0179Y011937*
X017895Y01193*
X01789Y011921*
X017888Y01191*
X017887Y011898*
Y011893*
X017888Y011889*
X017889Y011883*
X01789Y011875*
X017893Y011867*
X017897Y011858*
X017902Y01185*
X017903Y011849*
X017905Y011846*
X017909Y011842*
X017914Y011838*
X01792Y011832*
X017928Y011827*
X017937Y011822*
X017948Y011818*
X01795*
X017953Y011816*
X017961Y011815*
X017971Y011813*
X017984Y011811*
X018001*
X01802Y011809*
X018043*
X018261*
Y011688*
X018012*
X018011*
X018009*
X018005*
X018001*
X01799*
X017976Y011687*
X017961Y011686*
X017948Y011685*
X017935Y011683*
X01793Y011681*
X017926Y01168*
X017925*
X017922Y011679*
X017919Y011678*
X017915Y011676*
X017905Y011669*
X0179Y011665*
X017897Y01166*
X017896Y011659*
X017895Y011658*
X017893Y011655*
X017891Y011651*
X017889Y011646*
Y011639*
X017887Y011632*
Y011619*
X017888Y011614*
X017889Y011607*
X01789Y011599*
X017893Y011591*
X017897Y011583*
X017902Y011574*
X017903Y011573*
X017905Y01157*
X017909Y011566*
X017913Y011562*
X01792Y011556*
X017927Y011551*
X017936Y011546*
X017946Y011542*
X017947*
X017951Y01154*
X017959Y011539*
X017968Y011537*
X017982Y011535*
X017997*
X018017Y011533*
X01804*
X018261*
Y011412*
X017804*
Y011523*
X017867*
X017866Y011524*
X017864Y011525*
X01786Y011529*
X017855Y011534*
X017849Y011539*
X017844Y011545*
X017837Y011554*
X01783Y011563*
X017824Y011573*
X017817Y011584*
X017805Y011607*
X0178Y011621*
X017797Y011635*
X017795Y011649*
X017794Y011665*
Y011672*
X017795Y01168*
X017796Y01169*
X017798Y011702*
X017801Y011715*
X017806Y011728*
X017812Y01174*
X017813Y011742*
X017816Y011746*
X017819Y011752*
X017826Y01176*
X017834Y011768*
X017843Y011777*
X017855Y011786*
X017868Y011794*
X017866Y011796*
X017861Y0118*
X017855Y011805*
X017847Y011813*
X017838Y011823*
X017828Y011834*
X017819Y011846*
X017812Y011859*
X017811Y011861*
X017809Y011865*
X017807Y011873*
X017803Y011882*
X017799Y011893*
X017797Y011905*
X017795Y011919*
X017794Y011934*
Y011942*
X017795Y011951*
X017797Y011963*
X017799Y011976*
X017803Y01199*
X017808Y012005*
X017815Y012018*
X017816Y01202*
X017818Y012024*
X017823Y01203*
X017829Y012038*
X017838Y012047*
X017849Y012056*
X01786Y012064*
X017875Y012071*
X017876Y012072*
X01788Y012073*
X017888Y012075*
X017898Y012078*
X01791Y01208*
X017927Y012082*
X017947Y012083*
X01797Y012084*
X018261*
Y011963*
G37*
G36*
Y011179D02*
X018001D01*
X018*
X017998*
X017994*
X01799*
X017978Y011178*
X017964Y011177*
X01795*
X017935Y011174*
X017922Y011171*
X017918Y011168*
X017913Y011167*
X017912Y011166*
X017909Y011163*
X017905Y011159*
X0179Y011154*
X017895Y011146*
X01789Y011137*
X017888Y011126*
X017887Y011115*
Y01111*
X017888Y011105*
X017889Y011099*
X01789Y011092*
X017893Y011084*
X017897Y011075*
X017902Y011066*
X017903Y011065*
X017905Y011063*
X017909Y011059*
X017914Y011054*
X01792Y011049*
X017928Y011044*
X017937Y011039*
X017948Y011034*
X01795*
X017953Y011033*
X017961Y011032*
X017971Y01103*
X017984Y011028*
X018001Y011027*
X01802Y011025*
X018043*
X018261*
Y010904*
X018012*
X018011*
X018009*
X018005*
X018001*
X01799*
X017976Y010903*
X017961Y010902*
X017948Y010901*
X017935Y0109*
X01793Y010898*
X017926Y010897*
X017925*
X017922Y010896*
X017919Y010894*
X017915Y010892*
X017905Y010886*
X0179Y010881*
X017897Y010877*
X017896Y010876*
X017895Y010874*
X017893Y010871*
X017891Y010868*
X017889Y010862*
Y010856*
X017887Y010849*
Y010836*
X017888Y01083*
X017889Y010824*
X01789Y010816*
X017893Y010808*
X017897Y010799*
X017902Y01079*
X017903Y010789*
X017905Y010787*
X017909Y010783*
X017913Y010778*
X01792Y010773*
X017927Y010767*
X017936Y010763*
X017946Y010758*
X017947*
X017951Y010757*
X017959Y010756*
X017968Y010754*
X017982Y010752*
X017997Y010751*
X018017Y010749*
X01804*
X018261*
Y010628*
X017804*
Y010739*
X017867*
X017866Y01074*
X017864Y010742*
X01786Y010746*
X017855Y01075*
X017849Y010756*
X017844Y010762*
X017837Y01077*
X01783Y010779*
X017824Y010789*
X017817Y0108*
X017805Y010824*
X0178Y010838*
X017797Y010851*
X017795Y010866*
X017794Y010881*
Y010889*
X017795Y010897*
X017796Y010907*
X017798Y010919*
X017801Y010931*
X017806Y010944*
X017812Y010957*
X017813Y010959*
X017816Y010962*
X017819Y010969*
X017826Y010976*
X017834Y010984*
X017843Y010993*
X017855Y011003*
X017868Y011011*
X017866Y011013*
X017861Y011016*
X017855Y011022*
X017847Y01103*
X017838Y01104*
X017828Y011051*
X017819Y011063*
X017812Y011075*
X017811Y011077*
X017809Y011082*
X017807Y011089*
X017803Y011098*
X017799Y011109*
X017797Y011122*
X017795Y011136*
X017794Y01115*
Y011158*
X017795Y011167*
X017797Y011179*
X017799Y011193*
X017803Y011207*
X017808Y011221*
X017815Y011235*
X017816Y011237*
X017818Y01124*
X017823Y011247*
X017829Y011255*
X017838Y011263*
X017849Y011272*
X01786Y01128*
X017875Y011288*
X017876Y011289*
X01788*
X017888Y011291*
X017898Y011294*
X01791Y011297*
X017927Y011299*
X017947Y0113*
X01797*
X018261*
Y011179*
G37*
G36*
X018091Y010533D02*
X018098Y010532D01*
X018107*
X018116Y01053*
X018126Y010527*
X018149Y010521*
X018161Y010516*
X018173Y010511*
X018185Y010504*
X018197Y010496*
X018207Y010488*
X018218Y010478*
X018219Y010477*
X018221Y010475*
X018224Y010472*
X018227Y010468*
X018231Y010462*
X018236Y010455*
X01824Y010448*
X018246Y010439*
X018251Y010429*
X018256Y010417*
X01826Y010405*
X018265Y010392*
X018268Y010378*
X01827Y010362*
X018272Y010347*
X018273Y010329*
Y010321*
X018272Y010315*
X018271Y010307*
X01827Y010299*
X018269Y01029*
X018268Y010279*
X018262Y010256*
X018254Y010233*
X018249Y010221*
X018243Y010209*
X018237Y010197*
X018228Y010186*
X018227Y010185*
X018226Y010184*
X018223Y01018*
X018218Y010175*
X018213Y010171*
X018207Y010165*
X018198Y010159*
X01819Y010153*
X01818Y010146*
X018169Y01014*
X018157Y010134*
X018144Y01013*
X01813Y010125*
X018115Y010122*
X018099Y01012*
X018082Y010119*
X018081*
X018079*
X018076*
X018073*
X018063Y01012*
X018051Y010122*
X018036Y010125*
X01802Y010129*
X018003Y010135*
X017987Y010143*
X017986*
X017985Y010144*
X01798Y010148*
X017972Y010154*
X017962Y010164*
X017951Y010174*
X017941Y010188*
X017931Y010204*
X01792Y010224*
Y010223*
Y010222*
X017917Y010216*
X017912Y010208*
X017907Y010198*
X017899Y010186*
X017889Y010175*
X017879Y010164*
X017867Y010155*
X017865Y010154*
X01786Y010152*
X017854Y010149*
X017844Y010145*
X017833Y010141*
X017819Y010138*
X017806Y010135*
X01779Y010134*
X017789*
X017787*
X017784*
X017778Y010135*
X017773Y010136*
X017766Y010137*
X017749Y010141*
X017731Y010146*
X017711Y010155*
X017702Y010161*
X017692Y010167*
X017683Y010175*
X017674Y010184*
X017673*
X017672Y010186*
X017669Y010189*
X017666Y010193*
X017663Y010198*
X017659Y010204*
X017654Y010211*
X01765Y01022*
X017646Y010229*
X017642Y010239*
X017638Y010251*
X017634Y010264*
X017632Y010277*
X017629Y010292*
X017628Y010307*
X017627Y010324*
Y010333*
X017628Y010338*
X017629Y010347*
X01763Y010355*
X017631Y010365*
X017633Y010375*
X017638Y010398*
X017646Y010421*
X017652Y010432*
X017658Y010444*
X017665Y010454*
X017674Y010464*
X017675Y010465*
Y010466*
X017678Y010469*
X017682Y010472*
X017686Y010476*
X017692Y01048*
X017705Y01049*
X017723Y010499*
X017742Y010506*
X017765Y010512*
X017777Y010513*
X01779Y010514*
X017791*
X017792*
X017797*
X017806Y010513*
X017817Y010511*
X017828Y010509*
X017841Y010504*
X017855Y010499*
X017869Y010491*
X01787Y01049*
X017874Y010486*
X01788Y010481*
X017888Y010474*
X017897Y010465*
X017905Y010454*
X017913Y010441*
X01792Y010427*
Y010428*
X017921Y01043*
X017922Y010432*
X017924Y010436*
X01793Y010445*
X017937Y010457*
X017945Y01047*
X017956Y010483*
X017969Y010496*
X017983Y010507*
X017985Y010508*
X017991Y010511*
X017999Y010516*
X01801Y010521*
X018023Y010526*
X01804Y01053*
X018057Y010533*
X018076Y010534*
X018077*
X01808*
X018084*
X018091Y010533*
G37*
G36*
X018257Y010019D02*
X018269Y010018D01*
X018283Y010016*
X018297Y010013*
X018309Y01001*
X018314Y010009*
X018319Y010006*
X018327Y010003*
X018336Y009998*
X018345Y009992*
X018354Y009985*
X018363Y009976*
X018364Y009975*
X018367Y009971*
X018371Y009966*
X018377Y009959*
X018383Y009949*
X01839Y009938*
X018396Y009926*
X018401Y009912*
X018351Y009888*
X01835Y00989*
X018349Y009895*
X018346Y009901*
X018342Y009908*
X018338Y009918*
X018331Y009926*
X018325Y009934*
X018318Y00994*
X018317Y009941*
X018314Y009943*
X018309Y009946*
X018303Y009949*
X018295Y009952*
X018285Y009955*
X018274Y009957*
X018261Y009958*
Y009898*
X01814*
Y01002*
X018227*
X018228*
X018231*
X018235*
X018245*
X018257Y010019*
G37*
G36*
X018086Y009799D02*
X018094Y009798D01*
X018102Y009796*
X018112Y009795*
X018122Y009793*
X018144Y009785*
X018156Y00978*
X018168Y009775*
X01818Y009767*
X018192Y009759*
X018204Y00975*
X018215Y009739*
X018216Y009738*
X018217Y009736*
X01822Y009733*
X018224Y009728*
X018228Y009722*
X018233Y009715*
X018238Y009706*
X018244Y009697*
X018249Y009687*
X018255Y009675*
X018259Y009662*
X018264Y00965*
X018268Y009635*
X01827Y009621*
X018272Y009604*
X018273Y009588*
Y00958*
X018272Y009573*
X018271Y009566*
X01827Y009558*
X018268Y009549*
X018267Y009538*
X018261Y009516*
X018252Y009492*
X018247Y009479*
X01824Y009468*
X018232Y009457*
X018224Y009446*
X018223Y009445*
X018221Y009443*
X018218Y00944*
X018215Y009437*
X01821Y009432*
X018204Y009427*
X018197Y009422*
X018189Y009416*
X01818Y009411*
X018171Y009405*
X018149Y009395*
X018124Y009386*
X01811Y009383*
X018095Y009381*
X018081Y009498*
X018082*
X018083*
X018088*
X018096Y0095*
X018106Y009503*
X018117Y009508*
X018129Y009512*
X01814Y009519*
X01815Y009528*
X018151Y009529*
X018154Y009532*
X018157Y009538*
X018161Y009544*
X018166Y009553*
X018169Y009563*
X018172Y009574*
X018173Y009587*
Y009589*
X018172Y009593*
X018171Y0096*
X018169Y009609*
X018166Y009619*
X018161Y009629*
X018154Y00964*
X018145Y00965*
X018144Y009651*
X018139Y009654*
X018133Y009658*
X018125Y009663*
X018114Y009668*
X0181Y009672*
X018084Y009675*
X018067Y009676*
X018066*
X018065*
X01806*
X018052Y009675*
X018041Y009673*
X018029Y00967*
X018017Y009665*
X018005Y009659*
X017994Y009651*
X017993Y00965*
X01799Y009646*
X017985Y009641*
X017981Y009634*
X017975Y009625*
X017971Y009615*
X017968Y009604*
X017967Y009591*
Y009582*
X017968Y009576*
X017969Y009568*
X017971Y009558*
X017973Y009548*
X017976Y009536*
X017879Y009549*
Y009557*
X017878Y009566*
X017877Y009577*
X017874Y009589*
X01787Y009601*
X017865Y009613*
X017858Y009624*
X017857Y009625*
X017853Y009629*
X017849Y009632*
X017841Y009638*
X017833Y009642*
X017823Y009647*
X017811Y00965*
X017797Y009651*
X017796*
X017792*
X017787Y00965*
X017779Y009648*
X017771Y009646*
X017763Y009642*
X017754Y009638*
X017746Y009631*
X017744Y009628*
X01774Y009624*
X017736Y009618*
X017734Y009611*
X01773Y009602*
X017728Y009591*
X017727Y00958*
Y009575*
X017728Y00957*
X01773Y009562*
X017733Y009554*
X017736Y009545*
X017742Y009536*
X017749Y009528*
X01775Y009527*
X017753Y009524*
X017758Y00952*
X017766Y009516*
X017774Y009511*
X017785Y009508*
X017797Y009504*
X017812Y009501*
X017794Y00939*
X017793*
X017791Y009391*
X017788*
X017784Y009392*
X017774Y009395*
X01776Y009398*
X017746Y009404*
X01773Y009409*
X017716Y009416*
X017702Y009425*
X0177Y009426*
X017696Y009429*
X01769Y009435*
X017682Y009442*
X017674Y009451*
X017664Y009462*
X017655Y009476*
X017647Y00949*
Y009491*
X017646Y009492*
X017644Y009498*
X017641Y009507*
X017637Y009518*
X017634Y009531*
X01763Y009548*
X017628Y009565*
X017627Y009584*
Y009592*
X017628Y009599*
X017629Y009607*
X01763Y009615*
X017632Y009625*
X017634Y009635*
X017641Y009658*
X017645Y00967*
X017652Y009682*
X017658Y009694*
X017665Y009705*
X017675Y009717*
X017685Y009727*
Y009728*
X017686Y009729*
X017689Y009732*
X017693Y009734*
X017702Y009742*
X017715Y00975*
X01773Y009758*
X017748Y009764*
X017768Y00977*
X017778Y009771*
X017789Y009772*
X01779*
X017793*
X017797Y009771*
X017803Y00977*
X01781Y009769*
X017818Y009767*
X017828Y009764*
X017838Y009761*
X017848Y009755*
X017859Y00975*
X017869Y009743*
X01788Y009734*
X017891Y009723*
X017902Y009711*
X017912Y009697*
X017922Y009681*
Y009682*
X017923Y009683*
Y009686*
X017925Y00969*
X017928Y0097*
X017933Y009712*
X017941Y009725*
X01795Y00974*
X017961Y009754*
X017975Y009767*
X017977Y009769*
X017982Y009773*
X017991Y009777*
X018002Y009784*
X018016Y00979*
X018033Y009795*
X018052Y009798*
X018073Y0098*
X018074*
X018076*
X018081*
X018086Y009799*
G37*
G36*
X018063Y009321D02*
X01807D01*
X018078Y009319*
X018087Y009318*
X018096Y009316*
X018118Y009311*
X018142Y009303*
X018155Y009297*
X018166Y009292*
X018178Y009284*
X01819Y009276*
X018191Y009275*
X018194Y009273*
X018197Y00927*
X018203Y009265*
X018209Y009259*
X018217Y009251*
X018224Y009242*
X018231Y009232*
X018239Y00922*
X018247Y009207*
X018254Y009193*
X01826Y009178*
X018266Y009161*
X018269Y009144*
X018272Y009125*
X018273Y009105*
Y009097*
X018272Y00909*
X018271Y009083*
X01827Y009074*
X018269Y009065*
X018268Y009054*
X018262Y009032*
X018253Y009007*
X018248Y008996*
X018242Y008984*
X018235Y008973*
X018227Y008962*
X018226Y008961*
X018225Y008959*
X018222Y008956*
X018218Y008953*
X018213Y008949*
X018207Y008944*
X018201Y008939*
X018194Y008934*
X018185Y008927*
X018176Y008922*
X018154Y008912*
X018129Y008903*
X018115Y0089*
X018101Y008897*
X018088Y009017*
X01809*
X018094Y009018*
X018103Y00902*
X018112Y009023*
X018122Y009027*
X018133Y009032*
X018143Y009039*
X018153Y009048*
X018154*
X018156Y009052*
X01816Y009058*
X018165Y009065*
X018169Y009073*
X018173Y009083*
X018176Y009095*
Y009107*
Y009109*
Y009113*
X018175Y00912*
X018173Y00913*
X018169Y00914*
X018164Y00915*
X018156Y009161*
X018145Y009171*
X018144Y009172*
X01814Y009176*
X018133Y00918*
X018122Y009185*
X018109Y00919*
X018094Y009194*
X018074Y009197*
X018053Y009198*
X018052*
X01805*
X018047*
X018043*
X018033Y009197*
X01802Y009194*
X018005Y009191*
X017991Y009187*
X017977Y009181*
X017965Y009171*
X017964*
X017961Y009167*
X017956Y00916*
X01795Y009153*
X017944Y009143*
X01794Y009131*
X017936Y009118*
X017935Y009103*
Y009098*
X017936Y009094*
X017938Y009085*
X017941Y009072*
X017946Y009058*
X017954Y009042*
X01796Y009034*
X017966Y009026*
X017973Y009017*
X017982Y009009*
X017968Y008912*
X017639Y008974*
Y009294*
X017752*
Y009065*
X017859Y009046*
Y009047*
Y009048*
X017856Y009053*
X017853Y009061*
X017849Y009071*
X017845Y009084*
X017842Y009098*
X017839Y009113*
X017838Y009129*
Y009137*
X017839Y009142*
X01784Y009149*
X017841Y009157*
X017843Y009166*
X017846Y009176*
X017853Y009197*
X017858Y009209*
X017863Y00922*
X01787Y009232*
X017879Y009243*
X017888Y009254*
X017898Y009265*
X017899Y009266*
X0179Y009268*
X017904Y009271*
X017909Y009274*
X017914Y009278*
X017921Y009283*
X01793Y009288*
X017939Y009294*
X017949Y009299*
X017961Y009304*
X017973Y009309*
X017986Y009313*
X018001Y009316*
X018016Y009319*
X018033Y009321*
X01805Y009322*
X018051*
X018053*
X018057*
X018063Y009321*
G37*
G36*
X009698Y022481D02*
X00971Y022479D01*
X009724Y022476*
X009738Y022473*
X009752Y022468*
X009766Y022461*
X009768Y02246*
X009771Y022457*
X009778Y022453*
X009786Y022446*
X009794Y022437*
X009803Y022427*
X009811Y022415*
X009819Y022401*
X00982Y0224*
X009821Y022395*
X009822Y022388*
X009825Y022378*
X009828Y022365*
X00983Y022349*
X009831Y022329*
X009832Y022306*
Y022014*
X00971*
Y022275*
Y022276*
Y022278*
Y022281*
Y022286*
X009709Y022298*
Y022311*
X009708Y022326*
X009705Y022341*
X009702Y022353*
X009699Y022358*
X009698Y022362*
X009697Y022363*
X009694Y022367*
X00969Y022371*
X009685Y022376*
X009678Y022381*
X009668Y022385*
X009657Y022388*
X009646Y022389*
X009641*
X009637Y022388*
X00963Y022387*
X009623Y022385*
X009615Y022382*
X009606Y022379*
X009597Y022373*
X009596Y022372*
X009594Y022371*
X00959Y022367*
X009586Y022361*
X00958Y022355*
X009575Y022348*
X00957Y022339*
X009565Y022328*
Y022326*
X009564Y022322*
X009563Y022315*
X009561Y022305*
X009559Y022291*
X009558Y022275*
X009556Y022256*
Y022233*
Y022014*
X009435*
Y022264*
Y022265*
Y022267*
Y02227*
Y022275*
Y022286*
X009434Y0223*
X009433Y022314*
X009432Y022328*
X009431Y022341*
X009429Y022346*
X009428Y02235*
Y022351*
X009427Y022353*
X009425Y022357*
X009423Y022361*
X009417Y022371*
X009412Y022375*
X009408Y022379*
X009407Y02238*
X009405Y022381*
X009402Y022382*
X009399Y022384*
X009393Y022386*
X009387Y022387*
X00938Y022389*
X009367*
X009361Y022388*
X009355Y022387*
X009347Y022385*
X009339Y022382*
X00933Y022379*
X009321Y022373*
X00932Y022372*
X009318Y022371*
X009314Y022367*
X009309Y022362*
X009304Y022356*
X009299Y022349*
X009294Y02234*
X009289Y02233*
Y022329*
X009288Y022324*
X009287Y022317*
X009285Y022308*
X009283Y022294*
X009282Y022279*
X00928Y022259*
Y022236*
Y022014*
X009159*
Y022472*
X00927*
Y022409*
X009271Y02241*
X009273Y022412*
X009277Y022415*
X009281Y022421*
X009287Y022426*
X009293Y022432*
X009301Y022439*
X00931Y022445*
X00932Y022452*
X009331Y022459*
X009355Y022471*
X009369Y022475*
X009382Y022479*
X009397Y022481*
X009412Y022482*
X00942*
X009428Y022481*
X009438Y02248*
X00945Y022477*
X009463Y022474*
X009475Y02247*
X009488Y022464*
X00949Y022463*
X009494Y02246*
X0095Y022456*
X009507Y02245*
X009515Y022442*
X009524Y022433*
X009534Y022421*
X009542Y022408*
X009544Y02241*
X009547Y022414*
X009553Y022421*
X009561Y022429*
X009571Y022438*
X009582Y022447*
X009594Y022456*
X009606Y022464*
X009608*
X009613Y022466*
X00962Y022469*
X009629Y022473*
X00964Y022476*
X009653Y022479*
X009667Y022481*
X009681Y022482*
X009689*
X009698Y022481*
G37*
G36*
X008915D02*
X008927Y022479D01*
X008941Y022476*
X008954Y022473*
X008969Y022468*
X008982Y022461*
X008984Y02246*
X008988Y022457*
X008994Y022453*
X009002Y022446*
X009011Y022437*
X00902Y022427*
X009028Y022415*
X009035Y022401*
X009036Y0224*
X009037Y022395*
X009039Y022388*
X009042Y022378*
X009044Y022365*
X009046Y022349*
X009047Y022329*
X009048Y022306*
Y022014*
X008927*
Y022275*
Y022276*
Y022278*
Y022281*
Y022286*
X008926Y022298*
X008925Y022311*
X008924Y022326*
X008921Y022341*
X008919Y022353*
X008916Y022358*
X008914Y022362*
X008913Y022363*
X00891Y022367*
X008907Y022371*
X008901Y022376*
X008894Y022381*
X008885Y022385*
X008874Y022388*
X008862Y022389*
X008858*
X008853Y022388*
X008847Y022387*
X008839Y022385*
X008831Y022382*
X008822Y022379*
X008814Y022373*
X008813Y022372*
X00881Y022371*
X008807Y022367*
X008802Y022361*
X008797Y022355*
X008791Y022348*
X008787Y022339*
X008782Y022328*
Y022326*
X00878Y022322*
X008779Y022315*
X008777Y022305*
X008776Y022291*
X008775Y022275*
X008773Y022256*
Y022233*
Y022014*
X008652*
Y022264*
Y022265*
Y022267*
Y02227*
Y022275*
Y022286*
X008651Y0223*
X00865Y022314*
X008649Y022328*
X008647Y022341*
X008645Y022346*
X008644Y02235*
Y022351*
Y022353*
X008642Y022357*
X00864Y022361*
X008634Y022371*
X008629Y022375*
X008624Y022379*
Y02238*
X008622Y022381*
X008619Y022382*
X008615Y022384*
X00861Y022386*
X008603Y022387*
X008596Y022389*
X008583*
X008578Y022388*
X008572Y022387*
X008563Y022385*
X008555Y022382*
X008547Y022379*
X008538Y022373*
X008537Y022372*
X008534Y022371*
X008531Y022367*
X008526Y022362*
X008521Y022356*
X008515Y022349*
X008511Y02234*
X008506Y02233*
Y022329*
X008504Y022324*
X008503Y022317*
X008501Y022308*
X0085Y022294*
X008499Y022279*
X008497Y022259*
Y022236*
Y022014*
X008376*
Y022472*
X008487*
Y022409*
X008488Y02241*
X00849Y022412*
X008493Y022415*
X008498Y022421*
X008503Y022426*
X00851Y022432*
X008518Y022439*
X008527Y022445*
X008537Y022452*
X008548Y022459*
X008572Y022471*
X008585Y022475*
X008599Y022479*
X008613Y022481*
X008629Y022482*
X008636*
X008644Y022481*
X008654Y02248*
X008666Y022477*
X008679Y022474*
X008692Y02247*
X008705Y022464*
X008706Y022463*
X00871Y02246*
X008716Y022456*
X008724Y02245*
X008732Y022442*
X008741Y022433*
X00875Y022421*
X008758Y022408*
X00876Y02241*
X008764Y022414*
X008769Y022421*
X008777Y022429*
X008787Y022438*
X008798Y022447*
X00881Y022456*
X008823Y022464*
X008825*
X008829Y022466*
X008837Y022469*
X008846Y022473*
X008857Y022476*
X008869Y022479*
X008883Y022481*
X008898Y022482*
X008906*
X008915Y022481*
G37*
G36*
X008081Y022648D02*
X00809Y022647D01*
X008098Y022646*
X008108Y022644*
X008118Y022641*
X008141Y022635*
X008153Y02263*
X008165Y022624*
X008177Y022617*
X008188Y02261*
X0082Y022601*
X00821Y022591*
X008211Y02259*
X008212Y022589*
X008214Y022587*
X008217Y022583*
X008224Y022574*
X008233Y022561*
X008241Y022546*
X008247Y022527*
X008253Y022507*
X008254Y022497*
X008255Y022486*
Y022485*
Y022483*
X008254Y022478*
X008253Y022473*
X008252Y022465*
X00825Y022457*
X008247Y022448*
X008244Y022438*
X008238Y022428*
X008233Y022417*
X008225Y022406*
X008216Y022395*
X008205Y022384*
X008194Y022373*
X00818Y022363*
X008163Y022353*
X008164*
X008166Y022352*
X008169*
X008173Y022351*
X008183Y022348*
X008194Y022342*
X008208Y022335*
X008223Y022326*
X008237Y022314*
X00825Y0223*
X008252Y022299*
X008255Y022293*
X00826Y022285*
X008266Y022273*
X008273Y022259*
X008277Y022242*
X008281Y022224*
X008283Y022203*
Y022202*
Y022199*
Y022195*
X008282Y022189*
X008281Y022182*
X008279Y022174*
X008277Y022164*
X008276Y022154*
X008268Y022132*
X008263Y02212*
X008257Y022107*
X00825Y022095*
X008242Y022084*
X008233Y022072*
X008222Y022061*
X008221Y02206*
X008219Y022058*
X008215Y022055*
X008211Y022052*
X008204Y022047*
X008198Y022043*
X008189Y022037*
X00818Y022032*
X00817Y022026*
X008158Y022021*
X008145Y022016*
X008132Y022012*
X008118Y022008*
X008103Y022005*
X008087Y022003*
X008071*
X008062*
X008056*
X008049Y022004*
X00804Y022005*
X008031Y022007*
X00802Y022009*
X007999Y022014*
X007975Y022024*
X007962Y022029*
X007951Y022035*
X007939Y022044*
X007928Y022052*
Y022053*
X007926Y022054*
X007923Y022057*
X007919Y022061*
X007915Y022065*
X00791Y022072*
X007905Y022078*
X007899Y022086*
X007894Y022095*
X007887Y022105*
X007877Y022126*
X007869Y022152*
X007866Y022166*
X007864Y02218*
X00798Y022195*
Y022194*
Y022193*
X007981Y022187*
X007983Y022179*
X007986Y022169*
X00799Y022158*
X007995Y022146*
X008002Y022136*
X00801Y022126*
X008011Y022125*
X008015Y022122*
X00802Y022118*
X008027Y022115*
X008036Y02211*
X008046Y022106*
X008057Y022104*
X00807Y022103*
X008071*
X008076Y022104*
X008082Y022105*
X008091Y022106*
X008102Y02211*
X008112Y022115*
X008122Y022122*
X008132Y022131*
X008133Y022132*
X008137Y022136*
X008141Y022143*
X008146Y022151*
X008151Y022162*
X008155Y022176*
X008158Y022191*
X008159Y022208*
Y022209*
Y02221*
Y022216*
X008158Y022224*
X008156Y022235*
X008153Y022247*
X008148Y022259*
X008142Y02227*
X008133Y022281*
X008132Y022282*
X008129Y022286*
X008123Y02229*
X008117Y022295*
X008108Y0223*
X008098Y022304*
X008087Y022308*
X008074Y022309*
X008065*
X008059Y022308*
X00805Y022307*
X00804Y022305*
X00803Y022302*
X008019Y0223*
X008031Y022397*
X00804*
X008049Y022398*
X00806Y022399*
X008071Y022402*
X008084Y022405*
X008096Y022411*
X008107Y022418*
X008108Y022419*
X008112Y022423*
X008115Y022427*
X008121Y022434*
X008125Y022443*
X00813Y022453*
X008132Y022464*
X008133Y022478*
Y02248*
Y022484*
X008132Y022489*
X008131Y022496*
X008129Y022505*
X008125Y022513*
X008121Y022522*
X008114Y022529*
X008113Y02253*
X008111Y022532*
X008107Y022535*
X008101Y022539*
X008093Y022542*
X008085Y022546*
X008074Y022547*
X008063Y022548*
X008058*
X008052Y022547*
X008045Y022546*
X008037Y022543*
X008028Y022539*
X008019Y022534*
X00801Y022526*
X008009Y022525*
X008007Y022523*
X008003Y022517*
X007999Y02251*
X007994Y022502*
X00799Y022491*
X007987Y022478*
X007984Y022464*
X007873Y022482*
Y022483*
X007874Y022484*
Y022487*
X007875Y022492*
X007877Y022502*
X007881Y022515*
X007887Y02253*
X007892Y022546*
X007899Y02256*
X007907Y022574*
X007908Y022576*
X007912Y022579*
X007917Y022586*
X007925Y022594*
X007934Y022602*
X007945Y022611*
X007958Y02262*
X007973Y022628*
X007974*
X007975Y022629*
X00798Y022631*
X007989Y022635*
X008Y022638*
X008014Y022642*
X00803Y022646*
X008048Y022648*
X008067*
X008075*
X008081*
G37*
G36*
X007356D02*
X007365Y022647D01*
X007374Y022646*
X007384Y022644*
X007395Y022642*
X007418Y022636*
X007442Y022627*
X007455Y022621*
X007466Y022615*
X007477Y022607*
X007487Y022597*
X007488*
X00749Y022596*
X007492Y022592*
X007496Y022588*
X0075Y022584*
X007505Y022577*
X007509Y022571*
X007515Y022563*
X007524Y022545*
X007533Y022524*
X007537Y022512*
X007539Y022499*
X00754Y022485*
X007541Y022472*
Y02247*
Y022464*
X00754Y022456*
X007539Y022446*
X007538Y022433*
X007535Y02242*
X007531Y022405*
X007526Y022391*
X007525Y022389*
X007523Y022384*
X007519Y022376*
X007514Y022366*
X007508Y022354*
X007499Y022341*
X007489Y022326*
X007477Y02231*
X007473Y022305*
X007467Y022299*
X007459Y02229*
X007448Y022279*
X007435Y022264*
X007418Y022249*
X007398Y022229*
X007397Y022228*
X007395*
X007393Y022225*
X007389Y022221*
X007379Y022212*
X007367Y022201*
X007355Y022189*
X007344Y022177*
X007333Y022167*
X007329Y022163*
X007325Y022159*
X007324Y022158*
X007323Y022157*
X00732Y022153*
X007316Y022148*
X007308Y022138*
X007301Y022126*
X007541*
Y022014*
X007118*
Y022015*
Y022017*
X007119Y022021*
Y022025*
X00712Y022031*
X007121Y022037*
X007125Y022054*
X00713Y022072*
X007138Y022092*
X007147Y022114*
X007159Y022135*
Y022136*
X00716Y022137*
X007162Y022141*
X007166Y022145*
X00717Y022151*
X007175Y022157*
X007181Y022166*
X007189Y022175*
X007197Y022186*
X007207Y022197*
X007218Y022209*
X007231Y022223*
X007244Y022237*
X00726Y022252*
X007276Y022269*
X007294Y022286*
X007295Y022287*
X007298Y02229*
X007302Y022293*
X007307Y022299*
X007314Y022304*
X007322Y022311*
X007338Y022328*
X007354Y022345*
X007371Y022362*
X007378Y02237*
X007385Y022378*
X007391Y022384*
X007395Y02239*
Y022392*
X007398Y022396*
X007403Y022403*
X007407Y022413*
X007412Y022424*
X007416Y022437*
X007419Y02245*
X00742Y022464*
Y022465*
Y02247*
X007419Y022478*
X007417Y022487*
X007415Y022497*
X007411Y022507*
X007406Y022517*
X007398Y022526*
X007397Y022527*
X007395Y02253*
X007389Y022534*
X007383Y022537*
X007374Y022541*
X007364Y022545*
X007352Y022547*
X007338Y022548*
X007332*
X007324Y022547*
X007316Y022546*
X007306Y022543*
X007296Y022538*
X007286Y022533*
X007277Y022525*
X007276*
X007273Y022521*
X00727Y022515*
X007266Y022507*
X007262Y022497*
X007258Y022484*
X007254Y022468*
X007252Y02245*
X007132Y022462*
Y022463*
X007133Y022466*
Y022471*
X007135Y022478*
X007136Y022486*
X007139Y022495*
X007141Y022505*
X007144Y022517*
X007153Y02254*
X007164Y022564*
X007171Y022576*
X00718Y022587*
X007189Y022596*
X007199Y022605*
X0072Y022606*
X007201Y022607*
X007204Y022608*
X007209Y022612*
X007214Y022615*
X007221Y022618*
X007229Y022623*
X007238Y022627*
X007248Y022631*
X007259Y022635*
X007283Y022642*
X007311Y022647*
X007325Y022648*
X007341*
X00735*
X007356*
G37*
G36*
X006997Y022247D02*
X007076D01*
Y022141*
X006997*
Y022014*
X006881*
Y022141*
X006622*
Y022246*
X006895Y022648*
X006997*
Y022247*
G37*
G36*
X007767Y022049D02*
Y022048D01*
Y022047*
Y022044*
Y022041*
Y022031*
X007766Y022019*
X007765Y022006*
X007764Y021993*
X007761Y021979*
X007758Y021967*
Y021966*
X007756Y021962*
X007754Y021956*
X007751Y021949*
X007745Y02194*
X00774Y021931*
X007733Y021921*
X007723Y021912*
Y021911*
X007719Y021909*
X007713Y021904*
X007706Y021899*
X007697Y021892*
X007686Y021886*
X007673Y02188*
X00766Y021874*
X007636Y021924*
X007638Y021925*
X007642Y021927*
X007649Y02193*
X007656Y021933*
X007665Y021938*
X007673Y021944*
X007682Y021951*
X007688Y021958*
X007689Y021959*
X007691Y021962*
X007693Y021966*
X007696Y021972*
X0077Y021981*
X007702Y021991*
X007704Y022002*
X007705Y022014*
X007646*
Y022136*
X007767*
Y022049*
G37*
%LNpcb1-2*%
%LPC*%
G36*
X-000923Y010414D02*
X-000943D01*
X-000944*
X-000948*
X-000954*
X-000962*
X-000971*
X-000981Y010413*
X-000993*
X-001004Y010412*
X-00103Y010411*
X-001055Y010409*
X-001066Y010407*
X-001078Y010405*
X-001088Y010404*
X-001096Y010402*
X-001097*
X-001098Y010401*
X-001103Y0104*
X-00111Y010397*
X-001119Y010394*
X-001128Y01039*
X-001137Y010385*
X-001146Y01038*
X-001152Y010374*
X-001153Y010373*
X-001155Y010372*
X-001157Y010368*
X-001159Y010363*
X-001162Y010358*
X-001165Y010352*
X-001166Y010344*
X-001167Y010336*
Y010332*
X-001166Y010328*
X-001165Y010323*
X-001163Y010317*
X-00116Y010311*
X-001157Y010303*
X-001152Y010297*
X-001151Y010296*
X-001149Y010294*
X-001146Y010292*
X-001141Y010288*
X-001134Y010283*
X-001126Y01028*
X-001115Y010275*
X-001102Y010271*
X-001101*
X-0011*
X-001096*
X-001093Y01027*
X-001087Y010269*
X-001081Y010268*
X-001074Y010267*
X-001065Y010266*
X-001054Y010264*
X-001043Y010263*
X-001029Y010262*
X-001015Y010261*
X-000999*
X-000983*
X-000963Y01026*
X-000943*
X-000939*
X-000932*
X-000925*
X-000916*
X-000906Y010261*
X-000894*
X-000882*
X-000857Y010262*
X-000831Y010264*
X-00082Y010265*
X-000809Y010267*
X-000799Y010269*
X-000789Y010271*
X-000788*
X-000783Y010272*
X-000776Y010275*
X-000768Y010278*
X-000758Y010282*
X-000749Y010287*
X-000741Y010292*
X-000735Y010298*
X-000734Y010299*
X-000733Y010301*
X-00073Y010304*
X-000728Y010309*
X-000726Y010314*
X-000723Y010321*
X-000722Y010328*
X-000721Y010336*
Y01034*
X-000722Y010344*
X-000723Y010349*
X-000725Y010355*
X-000727Y010362*
X-00073Y010368*
X-000735Y010374*
X-000736Y010375*
X-000738Y010377*
X-000741Y010381*
X-000747Y010384*
X-000753Y010388*
X-000762Y010393*
X-000772Y010397*
X-000785Y010401*
X-000786*
X-000787Y010402*
X-00079*
X-000794Y010403*
X-000799Y010404*
X-000806*
X-000813Y010406*
X-000822Y010407*
X-000832Y010408*
X-000844Y01041*
X-000857Y010411*
X-000871Y010412*
X-000887Y010413*
X-000904*
X-000923Y010414*
G37*
G36*
X-001096Y009677D02*
X-001097D01*
X-001101*
X-001107Y009676*
X-001115Y009674*
X-001124Y009671*
X-001133Y009667*
X-001142Y009663*
X-00115Y009656*
X-001151Y009655*
X-001154Y009652*
X-001157Y009647*
X-001161Y009641*
X-001165Y009633*
X-001168Y009624*
X-00117Y009613*
X-001171Y009601*
Y009595*
X-00117Y009589*
X-001168Y009581*
X-001166Y009572*
X-001162Y009563*
X-001157Y009554*
X-00115Y009545*
X-001149Y009544*
X-001147Y009543*
X-001142Y009539*
X-001136Y009535*
X-001127Y009532*
X-001118Y009528*
X-001107Y009526*
X-001095Y009525*
X-001093*
X-001088*
X-001082Y009526*
X-001074Y009528*
X-001065Y00953*
X-001055Y009534*
X-001046Y009539*
X-001038Y009545*
X-001037Y009546*
X-001035Y009549*
X-001032Y009554*
X-001028Y00956*
X-001024Y009568*
X-001021Y009577*
X-001019Y009588*
X-001018Y0096*
Y009606*
X-001019Y009612*
X-001021Y00962*
X-001023Y009629*
X-001026Y009638*
X-001032Y009647*
X-001038Y009656*
X-001039Y009657*
X-001042Y009659*
X-001046Y009662*
X-001054Y009667*
X-001062Y00967*
X-001071Y009673*
X-001083Y009676*
X-001096Y009677*
G37*
G36*
X-000823Y009691D02*
X-000824D01*
X-000825*
X-00083*
X-000839Y00969*
X-000849Y009688*
X-000861Y009685*
X-000872Y00968*
X-000884Y009674*
X-000895Y009666*
X-000896Y009665*
X-0009Y009661*
X-000904Y009656*
X-000909Y009648*
X-000914Y009639*
X-000918Y009628*
X-000922Y009616*
Y009602*
Y009595*
X-000921Y009586*
X-000919Y009577*
X-000915Y009566*
X-00091Y009555*
X-000902Y009544*
X-000891Y009535*
X-00089Y009534*
X-000886Y009532*
X-00088Y009529*
X-000871Y009525*
X-000861Y009521*
X-00085Y009518*
X-000838Y009515*
X-000825Y009514*
X-000824*
X-000823*
X-00082*
X-000817*
X-000808Y009516*
X-000796Y009518*
X-000783Y009521*
X-00077Y009525*
X-000758Y009532*
X-000746Y00954*
X-000745Y009541*
X-000741Y009544*
X-000738Y00955*
X-000732Y009557*
X-000728Y009566*
X-000723Y009577*
X-000719Y00959*
X-000718Y009604*
Y00961*
X-00072Y009616*
X-000722Y009626*
X-000725Y009636*
X-000729Y009646*
X-000736Y009656*
X-000745Y009666*
X-000746Y009667*
X-00075Y009669*
X-000756Y009674*
X-000765Y009678*
X-000776Y009683*
X-000789Y009688*
X-000805Y00969*
X-000823Y009691*
G37*
G36*
X-000865Y009145D02*
X-001082D01*
X-000865Y008998*
Y009145*
G37*
G36*
X-002168Y02018D02*
X-002169D01*
X-00217*
X-002173*
X-002178*
X-002188Y020178*
X-002201Y020176*
X-002216Y020174*
X-002231Y020168*
X-002246Y020162*
X-00226Y020153*
X-002261Y020152*
X-002265Y020148*
X-00227Y020143*
X-002276Y020135*
X-002282Y020126*
X-002287Y020115*
X-002291Y020103*
X-002292Y020091*
Y020085*
X-002291Y020079*
X-002289Y020072*
X-002286Y020062*
X-002281Y020053*
X-002274Y020044*
X-002265Y020035*
X-002264Y020034*
X-00226Y020031*
X-002253Y020028*
X-002244Y020024*
X-002232Y020021*
X-002217Y020017*
X-002199Y020014*
X-002178Y020013*
X-002177*
X-002175*
X-002172*
X-002168*
X-002157Y020014*
X-002144Y020016*
X-002128Y020019*
X-002114Y020023*
X-002099Y020029*
X-002087Y020037*
Y020038*
X-002083Y020042*
X-002078Y020046*
X-002074Y020053*
X-002068Y020062*
X-002064Y020073*
X-00206Y020084*
X-002059Y020097*
Y020099*
X-00206Y020103*
X-002061Y020109*
X-002063Y020117*
X-002066Y020126*
X-002071Y020136*
X-002077Y020146*
X-002087Y020155*
Y020156*
X-002092Y020159*
X-002098Y020164*
X-002107Y020168*
X-002118Y020172*
X-002132Y020176*
X-002149Y020179*
X-002168Y02018*
G37*
G36*
X007344Y-001405D02*
X007338D01*
X007331Y-001407*
X007323Y-001409*
X007313Y-001412*
X007303Y-001417*
X007293Y-001424*
X007284Y-001433*
X007283Y-001434*
X007281Y-001439*
X007277Y-001445*
X007272Y-001453*
X007268Y-001465*
X007264Y-001479*
X007262Y-001495*
X007261Y-001514*
Y-001515*
Y-001517*
Y-00152*
Y-001524*
X007262Y-001534*
X007264Y-001548*
X007267Y-001563*
X007272Y-001578*
X007278Y-001593*
X007287Y-001606*
X007288*
X007292Y-00161*
X007298Y-001616*
X007305Y-001621*
X007314Y-001627*
X007324Y-001632*
X007336Y-001636*
X007349Y-001637*
X007354*
X007361Y-001636*
X007369Y-001634*
X007377Y-001631*
X007387Y-001626*
X007396Y-00162*
X007406Y-001612*
Y-001611*
X007409Y-001606*
X007413Y-0016*
X007417Y-001591*
X007421Y-001579*
X007425Y-001565*
X007427Y-001546*
X007428Y-001525*
Y-001524*
Y-001523*
Y-001519*
Y-001515*
X007427Y-001504*
X007426Y-001491*
X007422Y-001476*
X007418Y-001461*
X007412Y-001446*
X007404Y-001434*
X007403Y-001433*
X007399Y-00143*
X007395Y-001425*
X007387Y-00142*
X007378Y-001414*
X007368Y-00141*
X007356Y-001406*
X007344Y-001405*
G37*
G36*
X015563Y-002353D02*
X015558D01*
X015551Y-002355*
X015544Y-002357*
X015535Y-00236*
X015526Y-002365*
X015517Y-002372*
X015508Y-002381*
X015507Y-002382*
X015504Y-002386*
X0155Y-002393*
X015497Y-002402*
X015493Y-002414*
X015489Y-002429*
X015487Y-002447*
X015486Y-002468*
Y-002469*
Y-002471*
Y-002474*
Y-002478*
X015487Y-002489*
X015488Y-002502*
X015491Y-002517*
X015496Y-002532*
X015501Y-002547*
X015509Y-002558*
X01551Y-002559*
X015514Y-002563*
X015519Y-002568*
X015526Y-002572*
X015535Y-002578*
X015545Y-002582*
X015557Y-002586*
X01557Y-002587*
X015571*
X015575Y-002586*
X015581Y-002585*
X01559Y-002583*
X015599Y-00258*
X015609Y-002575*
X015619Y-002568*
X015628Y-002559*
X015629Y-002558*
X015631Y-002554*
X015636Y-002547*
X015641Y-002539*
X015644Y-002527*
X015649Y-002514*
X015652Y-002497*
Y-002478*
Y-002477*
Y-002476*
Y-002473*
Y-002468*
X015651Y-002458*
X015649Y-002445*
X015646Y-00243*
X015641Y-002414*
X015634Y-0024*
X015625Y-002386*
X015624Y-002384*
X015621Y-002381*
X015615Y-002376*
X015608Y-00237*
X015599Y-002363*
X015588Y-002359*
X015576Y-002355*
X015563Y-002353*
G37*
G36*
X002541Y019003D02*
X002536D01*
X002532Y019002*
X002523Y019001*
X002512Y018998*
X0025Y018994*
X002486Y018987*
X002472Y018977*
X002459Y018965*
X002457Y018963*
X002453Y018957*
X002448Y018949*
X002442Y018937*
X002436Y018923*
X00243Y018905*
X002427Y018884*
X002425Y01886*
Y018858*
Y018853*
X002426Y018844*
X002427Y018834*
X002428Y018823*
X00243Y01881*
X002433Y018797*
X002437Y018783*
X002606Y018979*
X002605Y01898*
X002602Y018983*
X002595Y018987*
X002587Y018991*
X002578Y018996*
X002567Y018999*
X002554Y019002*
X002541Y019003*
G37*
G36*
X002644Y018926D02*
X002475Y018732D01*
X002476*
X002481Y01873*
X002486Y018726*
X002494Y018722*
X002503Y018719*
X002514Y018715*
X002526Y018713*
X00254Y018712*
X002544*
X002548Y018713*
X002557Y018714*
X002569Y018717*
X002582Y018721*
X002595Y018728*
X002609Y018737*
X002623Y018749*
X002624Y018751*
X002628Y018756*
X002634Y018764*
X00264Y018776*
X002645Y018791*
X002651Y018808*
X002655Y018829*
X002656Y018853*
Y018854*
Y018855*
Y01886*
X002655Y018867*
Y018877*
X002654Y018889*
X002651Y018901*
X002648Y018914*
X002644Y018926*
G37*
G36*
X011103Y018964D02*
X011098D01*
X011095Y018963*
X011086Y018962*
X011075Y018959*
X011062Y018955*
X011048Y018947*
X011035Y018938*
X011021Y018925*
X011019Y018924*
X011015Y018918*
X01101Y01891*
X011005Y018898*
X010998Y018883*
X010993Y018865*
X010989Y018844*
X010987Y018821*
Y018819*
Y018813*
X010988Y018805*
X010989Y018795*
X01099Y018783*
X010993Y01877*
X010995Y018758*
X010999Y018744*
X011169Y01894*
X011168Y018941*
X011164Y018944*
X011158Y018947*
X011149Y018952*
X01114Y018956*
X011129Y01896*
X011117Y018963*
X011103Y018964*
G37*
G36*
X011206Y018887D02*
X011037Y018693D01*
X011038Y018692*
X011043Y01869*
X011048Y018687*
X011056Y018683*
X011066Y018679*
X011077Y018676*
X011088Y018674*
X011102Y018673*
X011107*
X01111Y018674*
X011119Y018675*
X011131Y018678*
X011144Y018682*
X011158Y018688*
X011171Y018698*
X011185Y018709*
X011187Y018711*
X01119Y018717*
X011196Y018725*
X011202Y018737*
X011208Y018751*
X011213Y018769*
X011217Y01879*
X011219Y018813*
Y018814*
Y018815*
Y018821*
X011218Y018828*
X011217Y018838*
X011216Y01885*
X011213Y018862*
X01121Y018874*
X011206Y018887*
G37*
G36*
X011064Y002231D02*
X011059D01*
X011055Y00223*
X011046*
X011035Y002227*
X011023Y002222*
X011009Y002215*
X010995Y002206*
X010982Y002193*
X01098Y002191*
X010976Y002186*
X010971Y002178*
X010965Y002166*
X010959Y002151*
X010953Y002133*
X01095Y002112*
X010948Y002088*
Y002086*
Y002081*
X010949Y002073*
X01095Y002063*
X010951Y002051*
X010953Y002038*
X010956Y002025*
X01096Y002012*
X011129Y002208*
X011128Y002209*
X011125Y002211*
X011118Y002215*
X01111Y002219*
X011101Y002224*
X01109Y002228*
X011077Y00223*
X011064Y002231*
G37*
G36*
X011166Y002155D02*
X010998Y001961D01*
X010999Y00196*
X011003Y001958*
X011009Y001954*
X011017Y001951*
X011026Y001947*
X011037Y001943*
X011049Y001942*
X011063Y001941*
X011067*
X011071Y001942*
X01108Y001943*
X011092Y001945*
X011105Y00195*
X011118Y001956*
X011132Y001965*
X011146Y001977*
X011147Y001979*
X011151Y001984*
X011156Y001993*
X011163Y002005*
X011168Y002019*
X011174Y002036*
X011177Y002057*
X011179Y002081*
Y002082*
Y002083*
Y002088*
X011178Y002096*
X011177Y002106*
Y002117*
X011174Y002129*
X011171Y002142*
X011166Y002155*
G37*
G36*
X002674Y002325D02*
X002669D01*
X002665Y002324*
X002656Y002323*
X002645Y00232*
X002633Y002316*
X002619Y002309*
X002605Y002299*
X002592Y002287*
X00259Y002285*
X002586Y002279*
X002581Y002271*
X002575Y002259*
X002569Y002245*
X002563Y002227*
X00256Y002206*
X002558Y002182*
Y00218*
Y002175*
X002559Y002166*
X00256Y002156*
X002561Y002145*
X002563Y002132*
X002566Y002119*
X00257Y002105*
X002739Y002301*
X002738Y002302*
X002735Y002305*
X002728Y002309*
X00272Y002313*
X002711Y002318*
X0027Y002321*
X002687Y002324*
X002674Y002325*
G37*
G36*
X002777Y002248D02*
X002608Y002054D01*
X002609Y002053*
X002614Y002052*
X002619Y002048*
X002627Y002044*
X002636Y002041*
X002647Y002037*
X002659Y002035*
X002673Y002034*
X002677*
X002681Y002035*
X00269Y002036*
X002702Y002039*
X002715Y002043*
X002728Y00205*
X002742Y002059*
X002756Y002071*
X002757Y002073*
X002761Y002078*
X002767Y002086*
X002773Y002098*
X002778Y002113*
X002784Y00213*
X002788Y002151*
X002789Y002175*
Y002176*
Y002182*
X002788Y002189*
Y002199*
X002787Y002211*
X002784Y002223*
X002781Y002236*
X002777Y002248*
G37*
G36*
X017798Y0104D02*
X017797D01*
X017793*
X017787Y010399*
X017779Y010398*
X01777Y010395*
X017761Y010391*
X017752Y010387*
X017744Y010379*
X017743*
X01774Y010376*
X017737Y010371*
X017733Y010365*
X017729Y010357*
X017726Y010348*
X017724Y010337*
X017723Y010325*
Y010319*
X017724Y010313*
X017726Y010305*
X017728Y010296*
X017732Y010286*
X017736Y010277*
X017744Y010269*
X017745Y010268*
X017747Y010266*
X017752Y010263*
X017758Y010259*
X017767Y010256*
X017776Y010252*
X017787Y01025*
X017799Y010249*
X017801*
X017806*
X017812Y01025*
X01782Y010252*
X017829Y010254*
X017838Y010257*
X017848Y010263*
X017856Y010269*
X017857Y01027*
X017859Y010273*
X017862Y010277*
X017866Y010284*
X017869Y010292*
X017873Y010301*
X017875Y010312*
X017876Y010324*
Y010329*
X017875Y010336*
X017873Y010344*
X017871Y010353*
X017868Y010362*
X017862Y010371*
X017856Y010379*
X017855Y01038*
X017852Y010383*
X017848Y010386*
X01784Y01039*
X017832Y010394*
X017823Y010397*
X017811Y010399*
X017798Y0104*
G37*
G36*
X018071Y010415D02*
X01807D01*
X018069*
X018063*
X018055Y010414*
X018045Y010412*
X018033Y010409*
X018022Y010404*
X01801Y010398*
X017999Y010389*
X017998*
X017994Y010385*
X01799Y010379*
X017985Y010372*
X01798Y010363*
X017976Y010352*
X017972Y010339*
X017971Y010326*
Y010318*
X017973Y01031*
X017975Y010301*
X017979Y01029*
X017984Y010279*
X017992Y010268*
X018002Y010259*
X018004Y010258*
X018008Y010256*
X018014Y010253*
X018023Y010249*
X018033Y010245*
X018043Y010242*
X018056Y010239*
X018069Y010238*
X01807*
X018071*
X018074*
X018077*
X018086Y01024*
X018098Y010242*
X018111Y010245*
X018124Y010249*
X018136Y010256*
X018148Y010264*
X018149Y010265*
X018153Y010268*
X018156Y010274*
X018162Y010281*
X018166Y01029*
X018171Y010301*
X018175Y010314*
X018176Y010327*
Y010334*
X018174Y01034*
X018172Y010349*
X018169Y010359*
X018165Y010369*
X018158Y010379*
X018149Y010389*
X018148Y01039*
X018144Y010393*
X018138Y010398*
X018129Y010402*
X018118Y010407*
X018104Y010411*
X018089Y010414*
X018071Y010415*
G37*
G36*
X006881Y022464D02*
X006734Y022247D01*
X006881*
Y022464*
G37*
%LNpcb1-3*%
%LPD*%
G54D11*
X001772Y020039D02*
D01*
X00177Y020082*
X001765Y020126*
X001758Y020169*
X001747Y020212*
X001734Y020254*
X001717Y020295*
X001698Y020334*
X001676Y020372*
X001651Y020409*
X001624Y020443*
X001595Y020476*
X001563Y020507*
X001529Y020535*
X001494Y020561*
X001457Y020584*
X001418Y020605*
X001378Y020623*
X001336Y020638*
X001294Y02065*
X001251Y020659*
X001207Y020665*
X001163Y020668*
X00112*
X001076Y020665*
X001032Y020659*
X000989Y02065*
X000947Y020638*
X000905Y020623*
X000865Y020605*
X000826Y020584*
X000789Y020561*
X000754Y020535*
X00072Y020507*
X000688Y020476*
X000659Y020443*
X000632Y020409*
X000607Y020372*
X000585Y020334*
X000566Y020295*
X000549Y020254*
X000536Y020212*
X000525Y020169*
X000518Y020126*
X000513Y020082*
X000512Y020039*
X000513Y019995*
X000518Y019951*
X000525Y019908*
X000536Y019865*
X000549Y019823*
X000566Y019782*
X000585Y019743*
X000607Y019705*
X000632Y019668*
X000659Y019634*
X000688Y019601*
X00072Y01957*
X000754Y019542*
X000789Y019516*
X000827Y019493*
X000865Y019472*
X000905Y019454*
X000947Y019439*
X000989Y019427*
X001032Y019418*
X001076Y019412*
X00112Y019409*
X001163*
X001207Y019412*
X001251Y019418*
X001294Y019427*
X001336Y019439*
X001378Y019454*
X001418Y019472*
X001457Y019493*
X001494Y019516*
X001529Y019542*
X001563Y01957*
X001595Y019601*
X001624Y019634*
X001651Y019668*
X001676Y019705*
X001698Y019743*
X001717Y019782*
X001734Y019823*
X001747Y019865*
X001758Y019908*
X001765Y019951*
X00177Y019995*
X001772Y020039*
X016142D02*
D01*
X01614Y020082*
X016135Y020126*
X016128Y020169*
X016117Y020212*
X016104Y020254*
X016087Y020295*
X016068Y020334*
X016046Y020372*
X016021Y020409*
X015994Y020443*
X015965Y020476*
X015933Y020507*
X015899Y020535*
X015864Y020561*
X015827Y020584*
X015788Y020605*
X015748Y020623*
X015706Y020638*
X015664Y02065*
X015621Y020659*
X015577Y020665*
X015533Y020668*
X01549*
X015446Y020665*
X015402Y020659*
X015359Y02065*
X015317Y020638*
X015275Y020623*
X015235Y020605*
X015197Y020584*
X015159Y020561*
X015124Y020535*
X01509Y020507*
X015058Y020476*
X015029Y020443*
X015002Y020409*
X014977Y020372*
X014955Y020334*
X014936Y020295*
X014919Y020254*
X014906Y020212*
X014895Y020169*
X014888Y020126*
X014883Y020082*
X014882Y020039*
X014883Y019995*
X014888Y019951*
X014895Y019908*
X014906Y019865*
X014919Y019823*
X014936Y019782*
X014955Y019743*
X014977Y019705*
X015002Y019668*
X015029Y019634*
X015058Y019601*
X01509Y01957*
X015124Y019542*
X015159Y019516*
X015197Y019493*
X015235Y019472*
X015275Y019454*
X015317Y019439*
X015359Y019427*
X015402Y019418*
X015446Y019412*
X01549Y019409*
X015533*
X015577Y019412*
X015621Y019418*
X015664Y019427*
X015706Y019439*
X015748Y019454*
X015788Y019472*
X015827Y019493*
X015864Y019516*
X015899Y019542*
X015933Y01957*
X015965Y019601*
X015994Y019634*
X016021Y019668*
X016046Y019705*
X016068Y019743*
X016087Y019782*
X016104Y019823*
X016117Y019865*
X016128Y019908*
X016135Y019951*
X01614Y019995*
X016142Y020039*
X001772Y001142D02*
D01*
X00177Y001185*
X001765Y001229*
X001758Y001272*
X001747Y001315*
X001734Y001357*
X001717Y001398*
X001698Y001437*
X001676Y001475*
X001651Y001512*
X001624Y001546*
X001595Y001579*
X001563Y00161*
X001529Y001638*
X001494Y001664*
X001457Y001687*
X001418Y001708*
X001378Y001726*
X001336Y001741*
X001294Y001753*
X001251Y001762*
X001207Y001768*
X001163Y001771*
X00112*
X001076Y001768*
X001032Y001762*
X000989Y001753*
X000947Y001741*
X000905Y001726*
X000865Y001708*
X000826Y001687*
X000789Y001664*
X000754Y001638*
X00072Y00161*
X000688Y001579*
X000659Y001546*
X000632Y001512*
X000607Y001475*
X000585Y001437*
X000566Y001398*
X000549Y001357*
X000536Y001315*
X000525Y001272*
X000518Y001229*
X000513Y001185*
X000512Y001142*
X000513Y001098*
X000518Y001054*
X000525Y001011*
X000536Y000968*
X000549Y000926*
X000566Y000885*
X000585Y000846*
X000607Y000808*
X000632Y000771*
X000659Y000737*
X000688Y000704*
X00072Y000673*
X000754Y000645*
X000789Y000619*
X000827Y000596*
X000865Y000575*
X000905Y000557*
X000947Y000542*
X000989Y00053*
X001032Y000521*
X001076Y000515*
X00112Y000512*
X001163*
X001207Y000515*
X001251Y000521*
X001294Y00053*
X001336Y000542*
X001378Y000557*
X001418Y000575*
X001457Y000596*
X001494Y000619*
X001529Y000645*
X001563Y000673*
X001595Y000704*
X001624Y000737*
X001651Y000771*
X001676Y000808*
X001698Y000846*
X001717Y000885*
X001734Y000926*
X001747Y000968*
X001758Y001011*
X001765Y001054*
X00177Y001098*
X001772Y001142*
X016142D02*
D01*
X01614Y001185*
X016135Y001229*
X016128Y001272*
X016117Y001315*
X016104Y001357*
X016087Y001398*
X016068Y001437*
X016046Y001475*
X016021Y001512*
X015994Y001546*
X015965Y001579*
X015933Y00161*
X015899Y001638*
X015864Y001664*
X015827Y001687*
X015788Y001708*
X015748Y001726*
X015706Y001741*
X015664Y001753*
X015621Y001762*
X015577Y001768*
X015533Y001771*
X01549*
X015446Y001768*
X015402Y001762*
X015359Y001753*
X015317Y001741*
X015275Y001726*
X015235Y001708*
X015197Y001687*
X015159Y001664*
X015124Y001638*
X01509Y00161*
X015058Y001579*
X015029Y001546*
X015002Y001512*
X014977Y001475*
X014955Y001437*
X014936Y001398*
X014919Y001357*
X014906Y001315*
X014895Y001272*
X014888Y001229*
X014883Y001185*
X014882Y001142*
X014883Y001098*
X014888Y001054*
X014895Y001011*
X014906Y000968*
X014919Y000926*
X014936Y000885*
X014955Y000846*
X014977Y000808*
X015002Y000771*
X015029Y000737*
X015058Y000704*
X01509Y000673*
X015124Y000645*
X015159Y000619*
X015197Y000596*
X015235Y000575*
X015275Y000557*
X015317Y000542*
X015359Y00053*
X015402Y000521*
X015446Y000515*
X01549Y000512*
X015533*
X015577Y000515*
X015621Y000521*
X015664Y00053*
X015706Y000542*
X015748Y000557*
X015788Y000575*
X015827Y000596*
X015864Y000619*
X015899Y000645*
X015933Y000673*
X015965Y000704*
X015994Y000737*
X016021Y000771*
X016046Y000808*
X016068Y000846*
X016087Y000885*
X016104Y000926*
X016117Y000968*
X016128Y001011*
X016135Y001054*
X01614Y001098*
X016142Y001142*
X-00102Y020039D02*
X-00082Y019439D01*
X-00122D02*
X-00102Y020039D01*
X-00122Y001742D02*
X-00102Y001142D01*
X-00082Y001742*
X-00102Y012195D02*
Y020039D01*
Y001142D02*
Y008786D01*
X-00112Y020039D02*
X000412D01*
X-00112Y001142D02*
X000412D01*
X-000984Y020039D02*
X-000784Y019439D01*
X-001184D02*
X-000984Y020039D01*
X-001184Y021781D02*
X-000984Y021181D01*
X-000784Y021781*
X-000984Y019039D02*
Y020039D01*
Y021181D02*
Y022181D01*
X-001084Y021181D02*
X-000159D01*
X-001084Y020039D02*
X000412D01*
X014912Y-001539D02*
X015512Y-001339D01*
X014912Y-001139D02*
X015512Y-001339D01*
X001142D02*
X001742Y-001139D01*
X001142Y-001339D02*
X001742Y-001539D01*
X009923Y-001339D02*
X015512D01*
X001142D02*
X00653D01*
X015512Y-001439D02*
Y000412D01*
X001142Y-001439D02*
Y000412D01*
X014912Y-001539D02*
X015512Y-001339D01*
X014912Y-001139D02*
X015512Y-001339D01*
X016654D02*
X017254Y-001139D01*
X016654Y-001339D02*
X017254Y-001539D01*
X014512Y-001339D02*
X015512D01*
X016654D02*
X017654D01*
X016654Y-001439D02*
Y-000159D01*
X015512Y-001439D02*
Y000412D01*
X001587Y019594D02*
X002153Y019311D01*
X001587Y019594D02*
X00187Y019028D01*
X001587Y019594D02*
X002165Y019016D01*
X002205*
X000131Y020768D02*
X000696Y020485D01*
X000413Y02105D02*
X000696Y020485D01*
X-000011Y021192D02*
X000696Y020485D01*
X014784Y019028D02*
X015066Y019594D01*
X014501Y019311D02*
X015066Y019594D01*
X014468Y018996D02*
X015066Y019594D01*
X014449Y018976D02*
X014468Y018996D01*
X015957Y020485D02*
X01624Y02105D01*
X015957Y020485D02*
X016523Y020768D01*
X015957Y020485D02*
X016664Y021192D01*
X014501Y00187D02*
X015066Y001587D01*
X014784Y002153D02*
X015066Y001587D01*
X014429Y002225D02*
X015066Y001587D01*
X014409Y002244D02*
X014429Y002225D01*
X015957Y000696D02*
X016523Y000413D01*
X015957Y000696D02*
X01624Y000131D01*
X015957Y000696D02*
X016664Y-000011D01*
X001587Y001587D02*
X00187Y002153D01*
X001587Y001587D02*
X002153Y00187D01*
X001587Y001587D02*
X001837Y001837D01*
X002338Y002338*
X000413Y000131D02*
X000696Y000696D01*
X000131Y000413D02*
X000696Y000696D01*
X-000011Y-000011D02*
X000696Y000696D01*
X017674Y0006D02*
X017874Y0D01*
X018074Y0006*
X017874Y021181D02*
X018074Y020581D01*
X017674D02*
X017874Y021181D01*
Y0D02*
Y008797D01*
Y012184D02*
Y021181D01*
X016813Y0D02*
X017974D01*
X016813Y021181D02*
X017974D01*
X016054Y022202D02*
X016654Y022402D01*
X016054Y022602D02*
X016654Y022402D01*
X0D02*
X0006Y022602D01*
X0Y022402D02*
X0006Y022202D01*
X009931Y022402D02*
X016654D01*
X0D02*
X006522D01*
X016654Y02134D02*
Y022502D01*
X0Y02134D02*
Y022502D01*
G54D16*
X0Y0D02*
X016654D01*
Y021181*
X0D02*
X016654D01*
X0Y0D02*
Y021181D01*
M02*