%FSTAX24Y24*%
%MOIN*%
%SFA1B1*%

%IPPOS*%
%AMD28*
4,1,8,-0.019200,-0.011100,0.019200,-0.011100,0.030300,0.000000,0.030300,0.000000,0.019200,0.011100,-0.019200,0.011100,-0.030300,0.000000,-0.030300,0.000000,-0.019200,-0.011100,0.0*
1,1,0.022200,-0.019200,0.000000*
1,1,0.022200,0.019200,0.000000*
1,1,0.022200,0.019200,0.000000*
1,1,0.022200,-0.019200,0.000000*
%
%AMD34*
4,1,8,0.020000,0.012100,-0.020000,0.012100,-0.032200,0.000000,-0.032200,0.000000,-0.020000,-0.012100,0.020000,-0.012100,0.032200,0.000000,0.032200,0.000000,0.020000,0.012100,0.0*
1,1,0.024400,0.020000,0.000000*
1,1,0.024400,-0.020000,0.000000*
1,1,0.024400,-0.020000,0.000000*
1,1,0.024400,0.020000,0.000000*
%
%AMD47*
4,1,8,-0.019200,-0.015100,0.019200,-0.015100,0.034300,0.000000,0.034300,0.000000,0.019200,0.015100,-0.019200,0.015100,-0.034300,0.000000,-0.034300,0.000000,-0.019200,-0.015100,0.0*
1,1,0.030200,-0.019200,0.000000*
1,1,0.030200,0.019200,0.000000*
1,1,0.030200,0.019200,0.000000*
1,1,0.030200,-0.019200,0.000000*
%
G04~CAMADD=28~8~0.0~0.0~606.0~223.0~111.0~0.0~15~0.0~0.0~0.0~0.0~0~0.0~0.0~0.0~0.0~0~0.0~0.0~0.0~180.0~605.0~223.0*
%ADD28D28*%
G04~CAMADD=34~8~0.0~0.0~645.0~243.0~122.0~0.0~15~0.0~0.0~0.0~0.0~0~0.0~0.0~0.0~0.0~0~0.0~0.0~0.0~0.0~645.0~243.0*
%ADD34D34*%
%ADD37R,0.060600X0.022300*%
%ADD38R,0.064500X0.024300*%
%ADD42R,0.063100X0.055200*%
%ADD43R,0.055200X0.063100*%
%ADD44R,0.071000X0.086700*%
%ADD45R,0.063100X0.055200*%
%ADD46R,0.055200X0.063100*%
G04~CAMADD=47~8~0.0~0.0~686.0~303.0~151.0~0.0~15~0.0~0.0~0.0~0.0~0~0.0~0.0~0.0~0.0~0~0.0~0.0~0.0~180.0~685.0~302.0*
%ADD47D47*%
%ADD48R,0.031600X0.051300*%
%ADD49R,0.145700X0.098400*%
%ADD50R,0.126000X0.098400*%
%ADD51R,0.047400X0.067100*%
%ADD52R,0.067100X0.047400*%
%ADD53R,0.055200X0.067100*%
%ADD54R,0.067100X0.055200*%
%ADD55R,0.051300X0.031600*%
%ADD56R,0.068600X0.030300*%
%ADD57R,0.056000X0.055200*%
%ADD58R,0.145800X0.232400*%
%ADD59R,0.094600X0.094600*%
%ADD60C,0.094600*%
%ADD61C,0.008000*%
%ADD62R,0.082800X0.082800*%
%ADD63C,0.082800*%
%LNpcb1-1*%
%LPD*%
G54D28*
X011423Y01061D03*
Y011358D03*
Y010984D03*
X010466Y01061D03*
Y010984D03*
G54D34*
X002704Y016713D03*
Y016339D03*
X003622D03*
Y017087D03*
G54D37*
X010466Y011358D03*
G54D38*
X002704Y017087D03*
G54D42*
X00563Y012087D03*
X005709Y017913D03*
X004803D03*
Y017126D03*
X005709D03*
X00563Y012874D03*
G54D43*
X000866Y015433D03*
Y014528D03*
X014331Y008228D03*
Y008976D03*
X011732Y012205D03*
X01252D03*
X015118Y008976D03*
Y008228D03*
X001654Y014528D03*
Y015433D03*
G54D44*
X011654Y009449D03*
X010472D03*
G54D45*
X012165Y002756D03*
X004606Y015276D03*
X003622Y019055D03*
X009252Y010197D03*
Y010984D03*
Y009213D03*
Y008425D03*
X003622Y018268D03*
X010079Y018228D03*
Y019016D03*
X006535Y012087D03*
Y012874D03*
X004606D03*
Y013661D03*
Y014488D03*
X012165Y003543D03*
G54D46*
X011102Y002756D03*
X009134D03*
X00874Y015394D03*
X010669D03*
X009094Y006535D03*
X008307D03*
X015118Y007441D03*
X014331D03*
X009528Y01374D03*
X00874D03*
Y014567D03*
X009528D03*
X011457Y015394D03*
X009528D03*
X008346Y002756D03*
X010315D03*
G54D47*
X006685Y014134D03*
Y014508D03*
X00563D03*
Y01376D03*
G54D48*
X007472Y010121D03*
X007102Y010981D03*
X006732Y010121D03*
G54D49*
X005276Y005354D03*
Y010039D03*
Y008071D03*
Y003386D03*
G54D50*
X007126Y019016D03*
Y017047D03*
G54D51*
X012559Y007441D03*
X013346D03*
X009528Y004055D03*
X010315D03*
G54D52*
X010197Y007638D03*
X012165Y005236D03*
X010197Y008425D03*
X011102Y019016D03*
Y018228D03*
X012165Y004449D03*
X012677Y015394D03*
Y014606D03*
G54D53*
X010801Y005236D03*
X013844Y006024D03*
X012073Y017244D03*
X01336D03*
X012073Y01811D03*
X01336D03*
X015132Y006024D03*
X009514Y005236D03*
G54D54*
X015236Y004856D03*
Y003569D03*
G54D55*
X006617Y008071D03*
X007477Y008441D03*
Y007701D03*
X011532Y013228D03*
X010672Y012858D03*
Y013598D03*
X006617Y003386D03*
X007477Y003756D03*
Y003016D03*
X00583Y015433D03*
X00669Y015803D03*
Y015063D03*
G54D56*
X006685Y01376D03*
G54D57*
X008307Y007715D03*
Y009215D03*
X008346Y003756D03*
Y005256D03*
G54D58*
X013858Y011378D03*
X015709D03*
G54D59*
X013819Y004882D03*
X002835Y008071D03*
X002913Y012913D03*
X002835Y003465D03*
G54D60*
X013819Y003382D03*
X002835Y004965D03*
X002913Y014413D03*
X002835Y009571D03*
G54D61*
X015512Y020039D03*
X001142D03*
Y001142D03*
X015512D03*
G54D62*
X006732Y005354D03*
G54D63*
X006732Y006354D03*
M02*