%FSTAX24Y24*%
%MOIN*%
%SFA1B1*%

%IPPOS*%
%ADD64C,0.023600*%
%ADD65C,0.047200*%
%ADD68R,0.086600X0.086600*%
%ADD69C,0.086600*%
%ADD70R,0.074800X0.074800*%
%ADD71C,0.074800*%
%ADD72C,0.055100*%
%LNpcb1-1*%
%LPD*%
G36*
X016654Y0D02*
X0D01*
Y021181*
X016654*
Y0*
G37*
%LNpcb1-2*%
%LPC*%
G36*
X015585Y020787D02*
X015438D01*
X015294Y020759*
X015157Y020702*
X015035Y02062*
X014931Y020516*
X014849Y020394*
X014793Y020258*
X014764Y020113*
Y019966*
X014793Y019821*
X014849Y019685*
X014931Y019563*
X015035Y019458*
X015157Y019376*
X015294Y01932*
X015438Y019291*
X015585*
X01573Y01932*
X015866Y019376*
X015989Y019458*
X016093Y019563*
X016175Y019685*
X016231Y019821*
X01626Y019966*
Y020113*
X016231Y020258*
X016175Y020394*
X016093Y020516*
X015989Y02062*
X015866Y020702*
X01573Y020759*
X015585Y020787*
G37*
G36*
X001215D02*
X001068D01*
X000924Y020759*
X000787Y020702*
X000665Y02062*
X000561Y020516*
X000479Y020394*
X000422Y020258*
X000394Y020113*
Y019966*
X000422Y019821*
X000479Y019685*
X000561Y019563*
X000665Y019458*
X000787Y019376*
X000924Y01932*
X001068Y019291*
X001215*
X00136Y01932*
X001496Y019376*
X001619Y019458*
X001723Y019563*
X001805Y019685*
X001861Y019821*
X00189Y019966*
Y020113*
X001861Y020258*
X001805Y020394*
X001723Y020516*
X001619Y02062*
X001496Y020702*
X00136Y020759*
X001215Y020787*
G37*
G36*
X009146Y019409D02*
X009043D01*
X008943Y019383*
X008853Y019331*
X008779Y019257*
X008728Y019168*
X008701Y019068*
Y018964*
Y018963*
X007499Y017761*
X001774*
X001668Y017866*
X001631Y017891*
X001627Y017908*
X001575Y017998*
X001502Y018071*
X001412Y018123*
X001312Y01815*
X001208*
X001108Y018123*
X001018Y018071*
X000945Y017998*
X000893Y017908*
X000866Y017808*
Y017704*
X000893Y017604*
X000945Y017514*
X001018Y017441*
X001108Y017389*
X001208Y017362*
X001312*
X001412Y017389*
X001445Y017408*
X001504Y017349*
X001582Y017297*
X001674Y017279*
X007423*
X007468Y017175*
X007399Y01709*
X006378*
X006285Y017077*
X006199Y017042*
X006125Y016985*
X005338Y016198*
X005281Y016124*
X005245Y016037*
X005233Y015945*
Y005631*
X005245Y005539*
X005281Y005452*
X005338Y005378*
X005615Y005102*
X005689Y005045*
X005775Y005009*
X005867Y004997*
X00624*
Y004862*
X007224*
Y005846*
X007073*
X007039Y005946*
X007038Y005965*
X007126Y006052*
X007191Y006164*
X007224Y00629*
Y006419*
X007191Y006544*
X007126Y006657*
X007034Y006748*
X006973Y006784*
Y008858*
X006974*
X007047Y008931*
X007099Y009021*
X007126Y009121*
Y009225*
X007099Y009325*
X007047Y009415*
X006974Y009488*
X006884Y00954*
X006784Y009567*
X00668*
X00658Y00954*
X006491Y009488*
X006417Y009415*
X006365Y009325*
X006339Y009225*
Y009121*
X006365Y009021*
X006417Y008931*
X006491Y008858*
Y006784*
X00643Y006748*
X006338Y006657*
X006274Y006544*
X00624Y006419*
Y00629*
X006274Y006164*
X006338Y006052*
X006426Y005965*
X006425Y005946*
X006391Y005846*
X00624*
Y005712*
X006015*
X005948Y005779*
Y015797*
X006526Y016375*
X007559*
X007652Y016387*
X007738Y016423*
X007812Y01648*
X009085Y017753*
X014438*
X014454Y017743*
X014554Y017717*
X014658*
X014758Y017743*
X014848Y017795*
X014921Y017868*
X014973Y017958*
X015Y018058*
Y018162*
X014973Y018262*
X014921Y018352*
X014848Y018425*
X014758Y018477*
X014658Y018504*
X014554*
X014454Y018477*
X014438Y018468*
X009155*
X009093Y018586*
X009118Y018622*
X009146*
X009246Y018649*
X009336Y018701*
X00941Y018774*
X009461Y018864*
X009488Y018964*
Y019068*
X009461Y019168*
X00941Y019257*
X009336Y019331*
X009246Y019383*
X009146Y019409*
G37*
G36*
X004855Y016732D02*
X004751D01*
X004651Y016705*
X004561Y016654*
X004488Y01658*
X004436Y016491*
X004409Y01639*
Y016287*
X004436Y016187*
X004488Y016097*
X004561Y016024*
X004651Y015972*
X004751Y015945*
X004855*
X004955Y015972*
X005045Y016024*
X005118Y016097*
X00517Y016187*
X005197Y016287*
Y01639*
X00517Y016491*
X005118Y01658*
X005045Y016654*
X004955Y016705*
X004855Y016732*
G37*
G36*
X00769Y015457D02*
X007586D01*
X007486Y01543*
X007396Y015378*
X007323Y015305*
X007322Y015304*
X006953*
X006861Y015286*
X006783Y015233*
X006601Y015052*
X006549Y014974*
X006531Y014882*
Y013701*
X006549Y013609*
X006601Y01353*
X007161Y012971*
Y012402*
X00716*
X007087Y012328*
X007035Y012239*
X007008Y012138*
Y012035*
X007035Y011935*
X007087Y011845*
X00716Y011772*
X00725Y01172*
X00735Y011693*
X007453*
X007554Y01172*
X007643Y011772*
X007717Y011845*
X007768Y011935*
X007795Y012035*
Y012138*
X007768Y012239*
X007717Y012328*
X007643Y012402*
X007642*
Y013071*
X007624Y013163*
X007572Y013241*
X007013Y013801*
Y014782*
X007053Y014822*
X007322*
X007323Y014821*
X007396Y014748*
X007486Y014696*
X007586Y014669*
X00769*
X00779Y014696*
X00788Y014748*
X007953Y014821*
X008005Y014911*
X008031Y015011*
Y015115*
X008005Y015215*
X007953Y015305*
X00788Y015378*
X00779Y01543*
X00769Y015457*
G37*
G36*
X003031Y014952D02*
Y014532D01*
X003452*
X003427Y014626*
X003354Y014752*
X003252Y014854*
X003126Y014927*
X003031Y014952*
G37*
G36*
X002795D02*
X002701Y014927D01*
X002575Y014854*
X002472Y014752*
X0024Y014626*
X002374Y014532*
X002795*
Y014952*
G37*
G36*
X013976Y015357D02*
X011299D01*
X011207Y015345*
X011121Y01531*
X011047Y015253*
X009354Y01356*
X009297Y013486*
X009261Y0134*
X009249Y013307*
Y01194*
X009239Y011924*
X009213Y011823*
Y01172*
X009239Y01162*
X009291Y01153*
X009365Y011457*
X009454Y011405*
X009554Y011378*
X009658*
X009758Y011405*
X009848Y011457*
X009921Y01153*
X009973Y01162*
X01Y01172*
Y011823*
X009973Y011924*
X009964Y01194*
Y013159*
X011447Y014643*
X013828*
X014157Y014314*
X01421Y014274*
Y014159*
X014091Y01411*
X013943Y014258*
X013904Y014284*
X013858Y014294*
X011417*
X011371Y014284*
X011332Y014258*
X010505Y013432*
X010479Y013393*
X01047Y013346*
Y002244*
X010479Y002198*
X010505Y002159*
X011332Y001332*
X011371Y001306*
X011417Y001297*
X013976*
X014022Y001306*
X014062Y001332*
X014219Y00149*
X014245Y001529*
X014254Y001575*
Y001969*
X014245Y002015*
X014219Y002054*
X014022Y002251*
X013983Y002277*
X013937Y002286*
X011703*
X011459Y00253*
Y009358*
Y009461*
Y012745*
X0119Y013187*
X013898*
X013944Y013196*
X013983Y013222*
X01414Y013379*
X014153Y013398*
X014166Y013406*
X014236Y013421*
X014288Y013423*
X014325Y013386*
X014415Y013334*
X014515Y013307*
X014619*
X014719Y013334*
X014809Y013386*
X014882Y013459*
X014934Y013549*
X014961Y013649*
Y013753*
X014934Y013853*
X014924Y013869*
Y014429*
X014912Y014521*
X014876Y014607*
X01482Y014681*
X014681Y01482*
X014607Y014876*
X014604Y014878*
X014229Y015253*
X014155Y01531*
X014069Y015345*
X013976Y015357*
G37*
G36*
X003452Y014295D02*
X003031D01*
Y013874*
X003126Y0139*
X003252Y013972*
X003354Y014075*
X003427Y014201*
X003452Y014295*
G37*
G36*
X002795D02*
X002374D01*
X0024Y014201*
X002472Y014075*
X002575Y013972*
X002701Y0139*
X002795Y013874*
Y014295*
G37*
G36*
X003465Y013465D02*
X002362D01*
Y012362*
X003465*
Y013465*
G37*
G36*
X002953Y01011D02*
Y009689D01*
X003374*
X003348Y009784*
X003276Y009909*
X003173Y010012*
X003047Y010084*
X002953Y01011*
G37*
G36*
X002717D02*
X002622Y010084D01*
X002496Y010012*
X002394Y009909*
X002321Y009784*
X002296Y009689*
X002717*
Y01011*
G37*
G36*
X003374Y009453D02*
X002953D01*
Y009032*
X003047Y009057*
X003173Y00913*
X003276Y009232*
X003348Y009358*
X003374Y009453*
G37*
G36*
X002717D02*
X002296D01*
X002321Y009358*
X002394Y009232*
X002496Y00913*
X002622Y009057*
X002717Y009032*
Y009453*
G37*
G36*
X003386Y008622D02*
X002283D01*
Y00752*
X003386*
Y008622*
G37*
G36*
X002953Y005504D02*
Y005083D01*
X003374*
X003348Y005177*
X003276Y005303*
X003173Y005406*
X003047Y005478*
X002953Y005504*
G37*
G36*
X002717D02*
X002622Y005478D01*
X002496Y005406*
X002394Y005303*
X002321Y005177*
X002296Y005083*
X002717*
Y005504*
G37*
G36*
X003374Y004846D02*
X002953D01*
Y004426*
X003047Y004451*
X003173Y004524*
X003276Y004626*
X003348Y004752*
X003374Y004846*
G37*
G36*
X002717D02*
X002296D01*
X002321Y004752*
X002394Y004626*
X002496Y004524*
X002622Y004451*
X002717Y004426*
Y004846*
G37*
G36*
X01437Y005433D02*
X013268D01*
Y004331*
X01437*
Y005433*
G37*
G36*
X013937Y003921D02*
Y0035D01*
X014358*
X014333Y003595*
X01426Y00372*
X014157Y003823*
X014032Y003896*
X013937Y003921*
G37*
G36*
X013701D02*
X013606Y003896D01*
X01348Y003823*
X013378Y00372*
X013305Y003595*
X01328Y0035*
X013701*
Y003921*
G37*
G36*
X003386Y004016D02*
X002283D01*
Y002913*
X003386*
Y004016*
G37*
G36*
X013701Y003264D02*
X01328D01*
X013305Y003169*
X013378Y003043*
X01348Y002941*
X013606Y002868*
X013701Y002843*
Y003264*
G37*
G36*
X014358D02*
X013937D01*
Y002843*
X014032Y002868*
X014157Y002941*
X01426Y003043*
X014333Y003169*
X014358Y003264*
G37*
G36*
X015585Y00189D02*
X015438D01*
X015294Y001861*
X015157Y001805*
X015035Y001723*
X014931Y001619*
X014849Y001496*
X014793Y00136*
X014764Y001215*
Y001068*
X014793Y000924*
X014849Y000787*
X014931Y000665*
X015035Y000561*
X015157Y000479*
X015294Y000422*
X015438Y000394*
X015585*
X01573Y000422*
X015866Y000479*
X015989Y000561*
X016093Y000665*
X016175Y000787*
X016231Y000924*
X01626Y001068*
Y001215*
X016231Y00136*
X016175Y001496*
X016093Y001619*
X015989Y001723*
X015866Y001805*
X01573Y001861*
X015585Y00189*
G37*
G36*
X001215D02*
X001068D01*
X000924Y001861*
X000787Y001805*
X000665Y001723*
X000561Y001619*
X000479Y001496*
X000422Y00136*
X000394Y001215*
Y001068*
X000422Y000924*
X000479Y000787*
X000561Y000665*
X000665Y000561*
X000787Y000479*
X000924Y000422*
X001068Y000394*
X001215*
X00136Y000422*
X001496Y000479*
X001619Y000561*
X001723Y000665*
X001805Y000787*
X001861Y000924*
X00189Y001068*
Y001215*
X001861Y00136*
X001805Y001496*
X001723Y001619*
X001619Y001723*
X001496Y001805*
X00136Y001861*
X001215Y00189*
G37*
%LNpcb1-3*%
%LPD*%
G36*
X014055Y013976D02*
Y013465D01*
X013898Y013307*
X01185*
X011339Y012795*
Y009461*
Y009358*
Y00248*
X011654Y002165*
X013937*
X014134Y001969*
Y001575*
X013976Y001417*
X011417*
X010591Y002244*
Y013346*
X011417Y014173*
X013858*
X014055Y013976*
G37*
G54D64*
X007598Y01752D02*
X009095Y019017D01*
X001674Y01752D02*
X007598D01*
X00132Y017696D02*
X001498D01*
X001674Y01752*
X00126Y017756D02*
X00132Y017696D01*
X006953Y015063D02*
X007638D01*
X006772Y013701D02*
Y014882D01*
X006953Y015063*
X007402Y012087D02*
Y013071D01*
X006772Y013701D02*
X007402Y013071D01*
X006732Y006354D02*
Y009173D01*
G54D65*
X011299Y015D02*
X013976D01*
X014567Y013701D02*
Y014429D01*
X014409Y014567D02*
X014429D01*
X013976Y015D02*
X014409Y014567D01*
X009606Y013307D02*
X011299Y015D01*
X014429Y014567D02*
X014567Y014429D01*
X008937Y01811D02*
X014606D01*
X005591Y005631D02*
X005867Y005354D01*
X005591Y015945D02*
X006378Y016732D01*
X005591Y005631D02*
Y015945D01*
X005867Y005354D02*
X006732D01*
X007559Y016732D02*
X008937Y01811D01*
X006378Y016732D02*
X007559D01*
X009606Y011772D02*
Y013307D01*
G54D68*
X013819Y004882D03*
X002835Y008071D03*
X002913Y012913D03*
X002835Y003465D03*
G54D69*
X013819Y003382D03*
X002835Y004965D03*
X002913Y014413D03*
X002835Y009571D03*
G54D70*
X006732Y005354D03*
G54D71*
X006732Y006354D03*
G54D72*
X016063Y014252D03*
Y016339D03*
X00748Y001535D03*
X006024D03*
X004528D03*
X011732Y009409D03*
X01063Y016575D03*
X00874Y01626D03*
X012559Y010039D03*
Y009252D03*
X007638Y014134D03*
X008268Y010118D03*
X013346Y009213D03*
X01252Y008465D03*
X013307D03*
X006378Y020157D03*
X00389Y020167D03*
X005157Y020157D03*
X001272Y016862D03*
X003858Y015276D03*
X013543Y01374D03*
X014606Y01811D03*
X012992Y001811D03*
X01378D03*
X004803Y016339D03*
X014567Y013701D03*
X012677Y01374D03*
X009606Y011772D03*
X009094Y019016D03*
X00126Y017756D03*
X007402Y012087D03*
X006732Y009173D03*
X007638Y015063D03*
M02*