G04*
G04 #@! TF.GenerationSoftware,Altium Limited,Altium Designer,25.8.1 (18)*
G04*
G04 Layer_Physical_Order=1*
G04 Layer_Color=255*
%FSLAX24Y24*%
%MOIN*%
G70*
G04*
G04 #@! TF.SameCoordinates,5D68D8FE-4F7F-4267-B10C-0524520F2B72*
G04*
G04*
G04 #@! TF.FilePolarity,Positive*
G04*
G01*
G75*
%ADD23R,0.0551X0.0472*%
%ADD24R,0.0472X0.0551*%
%ADD25R,0.0630X0.0787*%
%ADD26R,0.0551X0.0472*%
%ADD27R,0.0472X0.0551*%
G04:AMPARAMS|DCode=28|XSize=60.6mil|YSize=22.3mil|CornerRadius=11.1mil|HoleSize=0mil|Usage=FLASHONLY|Rotation=180.000|XOffset=0mil|YOffset=0mil|HoleType=Round|Shape=RoundedRectangle|*
%AMROUNDEDRECTD28*
21,1,0.0606,0.0000,0,0,180.0*
21,1,0.0383,0.0223,0,0,180.0*
1,1,0.0223,-0.0192,0.0000*
1,1,0.0223,0.0192,0.0000*
1,1,0.0223,0.0192,0.0000*
1,1,0.0223,-0.0192,0.0000*
%
%ADD28ROUNDEDRECTD28*%
%ADD29R,0.0236X0.0433*%
%ADD30R,0.1378X0.0906*%
%ADD31R,0.1181X0.0906*%
%ADD32R,0.0394X0.0591*%
%ADD33R,0.0591X0.0394*%
G04:AMPARAMS|DCode=34|XSize=64.5mil|YSize=24.3mil|CornerRadius=12.2mil|HoleSize=0mil|Usage=FLASHONLY|Rotation=0.000|XOffset=0mil|YOffset=0mil|HoleType=Round|Shape=RoundedRectangle|*
%AMROUNDEDRECTD34*
21,1,0.0645,0.0000,0,0,0.0*
21,1,0.0402,0.0243,0,0,0.0*
1,1,0.0243,0.0201,0.0000*
1,1,0.0243,-0.0201,0.0000*
1,1,0.0243,-0.0201,0.0000*
1,1,0.0243,0.0201,0.0000*
%
%ADD34ROUNDEDRECTD34*%
%ADD35R,0.0472X0.0591*%
%ADD36R,0.0591X0.0472*%
%ADD37R,0.0606X0.0223*%
%ADD38R,0.0645X0.0243*%
%ADD39R,0.0433X0.0236*%
%ADD40R,0.0480X0.0472*%
%ADD41R,0.1378X0.2244*%
%ADD64C,0.0236*%
%ADD65C,0.0472*%
%ADD66C,0.0394*%
%ADD67C,0.0315*%
%ADD68R,0.0866X0.0866*%
%ADD69C,0.0866*%
%ADD70R,0.0748X0.0748*%
%ADD71C,0.0748*%
%ADD72C,0.0551*%
G36*
X13937Y13937D02*
Y13504D01*
X13819Y13386D01*
X12520D01*
X12323Y13583D01*
Y13898D01*
X12598Y14173D01*
X13701D01*
X13937Y13937D01*
D02*
G37*
G36*
X16654Y12690D02*
X16571Y12656D01*
X16535Y12648D01*
X16503Y12670D01*
X16457Y12679D01*
X15495D01*
Y13701D01*
Y16889D01*
X15495Y16889D01*
X15483Y16982D01*
X15447Y17068D01*
X15391Y17142D01*
X15390Y17142D01*
X15036Y17497D01*
X14962Y17554D01*
X14875Y17589D01*
X14783Y17601D01*
X14666D01*
X14658Y17717D01*
X14758Y17743D01*
X14848Y17795D01*
X14921Y17868D01*
X14973Y17958D01*
X15000Y18058D01*
Y18162D01*
X14973Y18262D01*
X14921Y18352D01*
X14848Y18425D01*
X14758Y18477D01*
X14658Y18504D01*
X14554D01*
X14454Y18477D01*
X14438Y18468D01*
X13715D01*
Y18524D01*
X13006D01*
Y18133D01*
X13003Y18110D01*
X13006Y18087D01*
Y17776D01*
X13006Y17697D01*
X13006Y17579D01*
Y17267D01*
X13003Y17244D01*
X13006Y17221D01*
Y16831D01*
X13715D01*
Y16887D01*
X14635D01*
X14780Y16741D01*
Y14169D01*
X14770Y14151D01*
X14662Y14083D01*
X14619Y14094D01*
X14515D01*
X14415Y14068D01*
X14325Y14016D01*
X14252Y13943D01*
X14200Y13853D01*
X14176Y13764D01*
X14173Y13753D01*
X14057Y13758D01*
Y13937D01*
X14057Y13937D01*
X14048Y13983D01*
X14022Y14022D01*
X14022Y14022D01*
X13786Y14258D01*
X13747Y14284D01*
X13701Y14294D01*
X13701Y14294D01*
X13091D01*
Y14921D01*
X12264D01*
Y14291D01*
X12417D01*
X12428Y14173D01*
X12238Y13983D01*
X12236Y13981D01*
X12143D01*
X12050Y13963D01*
X11972Y13910D01*
X11531Y13469D01*
X11509Y13465D01*
X11198D01*
Y12992D01*
X11509D01*
X11532Y12988D01*
X11631D01*
X11654Y12992D01*
X11867D01*
Y13124D01*
X12239Y13496D01*
X12435Y13301D01*
X12474Y13275D01*
X12520Y13265D01*
X12520Y13265D01*
X13819D01*
X13865Y13275D01*
X13904Y13301D01*
X14022Y13419D01*
X14048Y13458D01*
X14057Y13504D01*
X14057Y13504D01*
Y13643D01*
X14173Y13649D01*
X14176Y13638D01*
X14200Y13549D01*
X14252Y13459D01*
X14325Y13386D01*
X14415Y13334D01*
X14515Y13307D01*
X14619D01*
X14662Y13319D01*
X14770Y13250D01*
X14780Y13233D01*
Y12716D01*
X14761Y12700D01*
X14662Y12664D01*
X14652Y12670D01*
X14606Y12679D01*
X12244D01*
X12198Y12670D01*
X12180Y12658D01*
X12087Y12598D01*
X11378D01*
Y12152D01*
X11253Y12027D01*
X11201Y11949D01*
X11183Y11856D01*
Y11582D01*
X11142Y11574D01*
X11066Y11524D01*
X11016Y11448D01*
X11006Y11398D01*
X10888Y11410D01*
Y11588D01*
X10523D01*
X10466Y11599D01*
X10090D01*
X9999Y11716D01*
X10000Y11720D01*
Y11823D01*
X9973Y11924D01*
X9921Y12013D01*
X9848Y12087D01*
X9758Y12139D01*
X9658Y12165D01*
X9554D01*
X9454Y12139D01*
X9365Y12087D01*
X9291Y12013D01*
X9239Y11924D01*
X9213Y11823D01*
Y11720D01*
X9239Y11620D01*
X9291Y11530D01*
X9364Y11457D01*
X9364Y11456D01*
X9333Y11339D01*
X8858D01*
Y11222D01*
X7339D01*
Y11316D01*
X6866D01*
Y11004D01*
X6861Y10981D01*
X6866Y10958D01*
Y10647D01*
X7339D01*
Y10740D01*
X8840D01*
X8858Y10630D01*
Y10551D01*
X8858D01*
Y9843D01*
X8974D01*
Y9567D01*
X8858D01*
Y9492D01*
X8665D01*
Y9569D01*
X7949D01*
Y9493D01*
X7640D01*
X7568Y9483D01*
X7501Y9455D01*
X7443Y9411D01*
X7281Y9249D01*
X7244Y9201D01*
X7205Y9201D01*
X7143Y9220D01*
X7125Y9230D01*
X7099Y9325D01*
X7047Y9415D01*
X6974Y9488D01*
X6973Y9489D01*
Y10121D01*
X6969Y10144D01*
Y10456D01*
X6496D01*
Y10144D01*
X6491Y10121D01*
Y9489D01*
X6491Y9488D01*
X6417Y9415D01*
X6365Y9325D01*
X6339Y9225D01*
Y9121D01*
X6365Y9021D01*
X6417Y8931D01*
X6491Y8858D01*
X6580Y8806D01*
X6680Y8780D01*
X6784D01*
X6884Y8806D01*
X6974Y8858D01*
X7047Y8931D01*
X7081Y8990D01*
X7199Y8958D01*
Y8677D01*
X7143D01*
Y8312D01*
X7124Y8300D01*
X7034Y8264D01*
X6962Y8301D01*
X6952Y8307D01*
Y8307D01*
X6853Y8312D01*
X6083D01*
Y8642D01*
X4469D01*
Y8428D01*
X3386D01*
Y8622D01*
X2283D01*
Y7520D01*
X3386D01*
Y7713D01*
X4469D01*
Y7500D01*
X6083D01*
Y7830D01*
X6853D01*
X6952Y7835D01*
Y7835D01*
X6962Y7840D01*
X7034Y7878D01*
X7124Y7842D01*
X7143Y7830D01*
Y7465D01*
X7454D01*
X7477Y7460D01*
X7949D01*
Y7360D01*
X8066D01*
Y6929D01*
X7953D01*
Y6142D01*
X8622D01*
X8740Y6142D01*
X8780Y6142D01*
X8976D01*
Y6535D01*
Y6929D01*
X8780D01*
X8661Y6929D01*
X8548Y7017D01*
Y7360D01*
X8665D01*
Y8069D01*
X7949D01*
Y7942D01*
X7477D01*
X7454Y7937D01*
X7231Y7937D01*
X7228D01*
X7228D01*
X7179Y7937D01*
X7122Y7995D01*
X7122D01*
X7122Y7995D01*
Y7995D01*
X7098Y8071D01*
X7122Y8146D01*
Y8146D01*
X7122Y8146D01*
X7122D01*
X7179Y8205D01*
X7228Y8205D01*
X7228Y8205D01*
X7231Y8205D01*
X7332D01*
X7338Y8200D01*
X7405Y8172D01*
X7477Y8163D01*
X7549Y8172D01*
X7616Y8200D01*
X7622Y8205D01*
X7812D01*
Y8677D01*
X7755D01*
Y8937D01*
X7949D01*
Y8860D01*
X8665D01*
Y8915D01*
X8783Y8927D01*
X8858Y8852D01*
Y8780D01*
X8858Y8740D01*
Y8071D01*
X9646D01*
Y8184D01*
X9783D01*
Y8110D01*
X10610D01*
Y8740D01*
X9783D01*
Y8740D01*
X9665Y8730D01*
X9646Y8750D01*
X9646Y8851D01*
X9729Y8935D01*
X9803D01*
X9875Y8944D01*
X9921Y8963D01*
X10039Y8937D01*
Y8937D01*
X10906D01*
Y9961D01*
X10750D01*
Y10396D01*
X10824Y10445D01*
X10874Y10521D01*
X10885Y10573D01*
X11005D01*
X11016Y10521D01*
X11066Y10445D01*
X11142Y10394D01*
X11232Y10376D01*
X11305D01*
Y10610D01*
X11423D01*
Y10728D01*
X11919D01*
X11932Y10746D01*
X12903D01*
X12990Y10659D01*
X12990Y10197D01*
X12999Y10151D01*
X13025Y10112D01*
X13064Y10086D01*
X13110Y10076D01*
X14606D01*
X14652Y10086D01*
X14691Y10112D01*
X14718Y10151D01*
X14722Y10174D01*
X14840Y10162D01*
Y9803D01*
X14840Y9803D01*
X14849Y9757D01*
X14875Y9718D01*
X15037Y9556D01*
Y9370D01*
X14685Y9370D01*
X14646Y9370D01*
X14449D01*
Y8976D01*
X14331D01*
Y8858D01*
X13976D01*
Y8583D01*
Y8346D01*
X14331D01*
Y8110D01*
X13976D01*
Y7953D01*
X13976Y7835D01*
Y7765D01*
X13893Y7682D01*
X13661D01*
Y7854D01*
X13032D01*
Y7028D01*
X13661D01*
Y7200D01*
X13976D01*
Y7047D01*
X14646D01*
X14764Y7047D01*
X14803Y7047D01*
X15037D01*
Y6782D01*
X14797Y6542D01*
X14771Y6503D01*
X14761Y6457D01*
X14761Y6457D01*
Y5669D01*
X14771Y5623D01*
X14778Y5613D01*
Y5610D01*
X14779D01*
X14797Y5584D01*
X14836Y5558D01*
X14882Y5549D01*
X16457D01*
X16503Y5558D01*
X16535Y5580D01*
X16571Y5572D01*
X16654Y5539D01*
Y0D01*
X0D01*
Y21181D01*
X16654D01*
Y12690D01*
D02*
G37*
G36*
X16457Y5669D02*
X14882D01*
Y6457D01*
X15157Y6732D01*
Y7047D01*
X15472D01*
Y7323D01*
X15118D01*
Y7559D01*
X15472D01*
Y7717D01*
X15472Y7835D01*
X15472D01*
Y7835D01*
X15472D01*
Y8110D01*
X15118D01*
Y8346D01*
X15472D01*
Y8583D01*
Y8858D01*
X15118D01*
Y9094D01*
X15472D01*
Y9370D01*
X15157D01*
Y9606D01*
X14961Y9803D01*
Y11466D01*
X15070Y11511D01*
X15456Y11125D01*
X15530Y11068D01*
X15616Y11033D01*
X15709Y11021D01*
X15801Y11033D01*
X15887Y11068D01*
X15961Y11125D01*
X16018Y11199D01*
X16054Y11285D01*
X16066Y11378D01*
X16054Y11470D01*
X16018Y11557D01*
X15961Y11631D01*
X15495Y12097D01*
Y12559D01*
X16457D01*
Y5669D01*
D02*
G37*
G36*
X14606Y10197D02*
X13110D01*
X13110Y10709D01*
X12953Y10866D01*
X11339D01*
Y11102D01*
X11929D01*
X12244Y11417D01*
Y12559D01*
X14606D01*
Y10197D01*
D02*
G37*
%LPC*%
G36*
X15585Y20787D02*
X15438D01*
X15294Y20759D01*
X15157Y20702D01*
X15035Y20620D01*
X14931Y20516D01*
X14849Y20394D01*
X14793Y20258D01*
X14764Y20113D01*
Y19966D01*
X14793Y19821D01*
X14849Y19685D01*
X14931Y19563D01*
X15035Y19458D01*
X15157Y19376D01*
X15294Y19320D01*
X15438Y19291D01*
X15585D01*
X15730Y19320D01*
X15866Y19376D01*
X15989Y19458D01*
X16093Y19563D01*
X16175Y19685D01*
X16231Y19821D01*
X16260Y19966D01*
Y20113D01*
X16231Y20258D01*
X16175Y20394D01*
X16093Y20516D01*
X15989Y20620D01*
X15866Y20702D01*
X15730Y20759D01*
X15585Y20787D01*
D02*
G37*
G36*
X1215D02*
X1068D01*
X924Y20759D01*
X787Y20702D01*
X665Y20620D01*
X561Y20516D01*
X479Y20394D01*
X422Y20258D01*
X394Y20113D01*
Y19966D01*
X422Y19821D01*
X479Y19685D01*
X561Y19563D01*
X665Y19458D01*
X787Y19376D01*
X924Y19320D01*
X1068Y19291D01*
X1215D01*
X1360Y19320D01*
X1496Y19376D01*
X1619Y19458D01*
X1723Y19563D01*
X1805Y19685D01*
X1861Y19821D01*
X1890Y19966D01*
Y20113D01*
X1861Y20258D01*
X1805Y20394D01*
X1723Y20516D01*
X1619Y20620D01*
X1496Y20702D01*
X1360Y20759D01*
X1215Y20787D01*
D02*
G37*
G36*
X4016Y19409D02*
X3740D01*
Y19173D01*
X4016D01*
Y19409D01*
D02*
G37*
G36*
X3504D02*
X3228D01*
Y19173D01*
X3504D01*
Y19409D01*
D02*
G37*
G36*
X7835Y19587D02*
X7244D01*
Y19134D01*
X7835D01*
Y19587D01*
D02*
G37*
G36*
X7008D02*
X6417D01*
Y19134D01*
X7008D01*
Y19587D01*
D02*
G37*
G36*
X7835Y18898D02*
X7244D01*
Y18445D01*
X7835D01*
Y18898D01*
D02*
G37*
G36*
X7008D02*
X6417D01*
Y18445D01*
X7008D01*
Y18898D01*
D02*
G37*
G36*
X6102Y18268D02*
X5827D01*
Y18031D01*
X6102D01*
Y18268D01*
D02*
G37*
G36*
X5197D02*
X4921D01*
Y18031D01*
X5197D01*
Y18268D01*
D02*
G37*
G36*
X5591D02*
X5315D01*
Y18031D01*
X5591D01*
Y18268D01*
D02*
G37*
G36*
X4685D02*
X4409D01*
Y18031D01*
X4685D01*
Y18268D01*
D02*
G37*
G36*
X9146Y19409D02*
X9043D01*
X8943Y19383D01*
X8853Y19331D01*
X8779Y19257D01*
X8728Y19168D01*
X8701Y19068D01*
Y18964D01*
X8728Y18864D01*
X8779Y18774D01*
X8853Y18701D01*
X8943Y18649D01*
X9043Y18622D01*
X9146D01*
X9246Y18649D01*
X9336Y18701D01*
X9410Y18774D01*
X9410Y18775D01*
X9602D01*
X9685Y18691D01*
X9685Y18583D01*
X9685Y18543D01*
Y17874D01*
X10472D01*
Y17988D01*
X10689D01*
Y17913D01*
X11516D01*
Y18543D01*
X10689D01*
Y18469D01*
X10556D01*
X10472Y18553D01*
X10472Y18661D01*
X10472Y18701D01*
Y19370D01*
X9685D01*
Y19257D01*
X9410D01*
X9410Y19257D01*
X9336Y19331D01*
X9246Y19383D01*
X9146Y19409D01*
D02*
G37*
G36*
X11929Y19493D02*
X11418D01*
X11326Y19474D01*
X11248Y19422D01*
X11156Y19331D01*
X10689D01*
Y18701D01*
X11516D01*
Y19009D01*
X11518Y19011D01*
X11829D01*
X11832Y19009D01*
Y18524D01*
X11718D01*
Y17697D01*
X11718D01*
Y17657D01*
X11718D01*
Y17406D01*
X7835D01*
Y17618D01*
X6417D01*
Y17288D01*
X6102D01*
X6102Y17559D01*
X6102Y17598D01*
Y17795D01*
X5709D01*
X5315D01*
Y17598D01*
X5315Y17480D01*
X5315Y17441D01*
Y17288D01*
X5197D01*
X5197Y17559D01*
X5197Y17598D01*
Y17795D01*
X4803D01*
X4409D01*
Y17598D01*
X4409Y17480D01*
X4409Y17441D01*
Y16772D01*
X4529D01*
X4548Y16654D01*
X4474Y16579D01*
X3841D01*
X3823Y16583D01*
X3421D01*
X3403Y16579D01*
X3350D01*
X3258Y16561D01*
X3214Y16532D01*
X3151Y16594D01*
X2184D01*
X2172Y16579D01*
X1890D01*
X1798Y16561D01*
X1719Y16509D01*
X1483Y16273D01*
X1431Y16195D01*
X1413Y16102D01*
Y15910D01*
X1329Y15827D01*
X1220Y15827D01*
X1181Y15827D01*
X984D01*
Y15433D01*
Y15039D01*
X1181D01*
X1280Y15039D01*
X1293Y15022D01*
X1259Y14921D01*
X1220D01*
X1181Y14921D01*
X984D01*
Y14528D01*
Y14134D01*
X1181D01*
X1299Y14134D01*
X1413Y14046D01*
Y13228D01*
X1431Y13136D01*
X1483Y13058D01*
X1759Y12782D01*
X1837Y12730D01*
X1929Y12712D01*
X2362D01*
Y12362D01*
X3465D01*
Y12661D01*
X4213D01*
Y12520D01*
X5000D01*
Y12622D01*
X5153D01*
X5236Y12538D01*
X5236Y12441D01*
X5236Y12402D01*
Y12205D01*
X5630D01*
X6024D01*
Y12402D01*
X6024Y12501D01*
X6041Y12514D01*
X6142Y12479D01*
Y12441D01*
X6142Y12402D01*
Y11732D01*
X6929D01*
Y11846D01*
X7086D01*
X7087Y11845D01*
X7160Y11772D01*
X7250Y11720D01*
X7350Y11693D01*
X7453D01*
X7554Y11720D01*
X7643Y11772D01*
X7717Y11845D01*
X7768Y11935D01*
X7795Y12035D01*
Y12138D01*
X7768Y12239D01*
X7717Y12328D01*
X7643Y12402D01*
X7554Y12453D01*
X7453Y12480D01*
X7350D01*
X7250Y12453D01*
X7160Y12402D01*
X7118Y12359D01*
X6983Y12359D01*
X6980Y12360D01*
X6929Y12411D01*
X6929Y12520D01*
X7017Y12633D01*
X10338D01*
Y12622D01*
X10551D01*
X10574Y12617D01*
X10672D01*
X10696Y12622D01*
X11007D01*
Y13095D01*
X10696D01*
X10672Y13099D01*
X10637D01*
X10558Y13115D01*
X6929D01*
Y13228D01*
X6142D01*
Y13115D01*
X6024D01*
Y13228D01*
X5871D01*
Y13536D01*
X5911Y13544D01*
X5987Y13594D01*
X6038Y13670D01*
X6056Y13760D01*
X6038Y13849D01*
X5987Y13925D01*
X5911Y13976D01*
X5822Y13994D01*
X5664D01*
X5630Y14001D01*
X5595Y13994D01*
X5438D01*
X5349Y13976D01*
X5273Y13925D01*
X5222Y13849D01*
X5204Y13760D01*
X5222Y13670D01*
X5273Y13594D01*
X5349Y13544D01*
X5389Y13536D01*
Y13228D01*
X5236D01*
Y13103D01*
X5084D01*
X5000Y13187D01*
X5000Y13307D01*
X5000Y13346D01*
Y14016D01*
X4847D01*
Y14134D01*
X5000D01*
Y14267D01*
X5630D01*
X5664Y14274D01*
X5822D01*
X5911Y14292D01*
X5987Y14342D01*
X6038Y14418D01*
X6056Y14508D01*
X6038Y14597D01*
X5987Y14673D01*
X5911Y14724D01*
X5822Y14742D01*
X5664D01*
X5630Y14749D01*
X5084D01*
X5000Y14832D01*
X5000Y14921D01*
X5000Y14961D01*
Y15157D01*
X4213D01*
Y14961D01*
X4213Y14843D01*
X4213Y14803D01*
Y14134D01*
X4365D01*
Y14016D01*
X4213D01*
Y13346D01*
X4213Y13228D01*
X4114Y13143D01*
X3465D01*
Y13465D01*
X2362D01*
Y13194D01*
X2029D01*
X1894Y13328D01*
Y14134D01*
X2008D01*
Y14921D01*
X1894D01*
Y15039D01*
X2008D01*
Y15827D01*
X1894D01*
Y16003D01*
X1990Y16098D01*
X2485D01*
X2503Y16094D01*
X2905D01*
X2998Y16113D01*
X3077Y16166D01*
X3208Y16149D01*
X3258Y16116D01*
X3350Y16098D01*
X3403D01*
X3421Y16094D01*
X3823D01*
X3841Y16098D01*
X4488D01*
X4488Y16097D01*
X4561Y16024D01*
X4651Y15972D01*
X4751Y15945D01*
X4855D01*
X4955Y15972D01*
X5045Y16024D01*
X5118Y16097D01*
X5170Y16187D01*
X5197Y16287D01*
Y16390D01*
X5170Y16491D01*
X5118Y16580D01*
X5045Y16654D01*
X5045Y16772D01*
X5197D01*
Y16806D01*
X5315D01*
Y16772D01*
X6102D01*
Y16806D01*
X6417D01*
Y16476D01*
X7751D01*
Y16163D01*
X7632Y16044D01*
X6690D01*
X6667Y16039D01*
X6355D01*
Y15567D01*
X6667D01*
X6690Y15562D01*
X7523D01*
X7539Y15444D01*
X7486Y15430D01*
X7396Y15378D01*
X7323Y15305D01*
X7322Y15304D01*
X6688D01*
X6664Y15299D01*
X6355D01*
Y14827D01*
X6362D01*
X6362Y14827D01*
X6381Y14709D01*
X6328Y14673D01*
X6278Y14597D01*
X6260Y14508D01*
X6278Y14418D01*
X6328Y14342D01*
Y14299D01*
X6297Y14252D01*
X6685D01*
X7074D01*
X7043Y14299D01*
Y14342D01*
X7093Y14418D01*
X7111Y14508D01*
X7093Y14597D01*
X7043Y14673D01*
X6997Y14704D01*
X7032Y14822D01*
X7322D01*
X7323Y14821D01*
X7396Y14748D01*
X7486Y14696D01*
X7586Y14669D01*
X7690D01*
X7790Y14696D01*
X7880Y14748D01*
X7953Y14821D01*
X8005Y14911D01*
X8031Y15011D01*
Y15115D01*
X8005Y15215D01*
X7953Y15305D01*
X7880Y15378D01*
X7790Y15430D01*
X7734Y15445D01*
X7732Y15562D01*
X7824Y15581D01*
X7903Y15633D01*
X8162Y15893D01*
X8215Y15971D01*
X8233Y16063D01*
Y16436D01*
X8328Y16531D01*
X9326D01*
Y15787D01*
X9094Y15787D01*
X9055Y15787D01*
X8858D01*
Y15394D01*
X8740D01*
Y15276D01*
X8386D01*
Y15079D01*
X8386Y15000D01*
X8386Y14882D01*
Y14173D01*
X8386D01*
Y14134D01*
X8386D01*
Y13981D01*
X8150D01*
X8057Y13963D01*
X7979Y13910D01*
X7814Y13745D01*
X7644D01*
X7458Y13930D01*
X7380Y13982D01*
X7288Y14001D01*
X7195D01*
X7184Y14016D01*
X6685D01*
X6264D01*
X6264Y13989D01*
X6264D01*
Y13530D01*
X6628D01*
X6685Y13519D01*
X7188D01*
X7374Y13334D01*
X7452Y13281D01*
X7544Y13263D01*
X7913D01*
X8006Y13281D01*
X8084Y13334D01*
X8249Y13499D01*
X8386D01*
Y13346D01*
X9055D01*
X9173Y13346D01*
X9213Y13346D01*
X9882D01*
Y13429D01*
X10000Y13478D01*
X10050Y13428D01*
X10128Y13376D01*
X10221Y13357D01*
X10672D01*
X10696Y13362D01*
X11007D01*
Y13835D01*
X10696D01*
X10672Y13839D01*
X10320D01*
X10233Y13926D01*
X10155Y13978D01*
X10063Y13997D01*
X9965D01*
X9882Y14080D01*
Y14134D01*
X9882Y14252D01*
Y14961D01*
X9882D01*
Y15000D01*
X9882D01*
Y15787D01*
X9808D01*
Y16633D01*
X9789Y16725D01*
X9737Y16804D01*
X9725Y16815D01*
X9771Y16925D01*
X11718D01*
Y16831D01*
X12427D01*
Y17657D01*
X12427D01*
Y17697D01*
X12427D01*
Y18524D01*
X12314D01*
Y19108D01*
X12295Y19200D01*
X12243Y19279D01*
X12099Y19422D01*
X12021Y19474D01*
X11929Y19493D01*
D02*
G37*
G36*
X4016Y18937D02*
X3228D01*
Y18740D01*
X3228Y18622D01*
X3228Y18583D01*
Y17913D01*
X3381D01*
Y17323D01*
X3328Y17312D01*
X3262Y17269D01*
X3202Y17285D01*
X3144Y17316D01*
Y17326D01*
X2919D01*
X2913Y17327D01*
X1871D01*
X1624Y17575D01*
X1621Y17593D01*
X1627Y17604D01*
X1654Y17704D01*
Y17808D01*
X1627Y17908D01*
X1575Y17998D01*
X1502Y18071D01*
X1412Y18123D01*
X1312Y18150D01*
X1208D01*
X1108Y18123D01*
X1018Y18071D01*
X945Y17998D01*
X893Y17908D01*
X866Y17808D01*
Y17704D01*
X893Y17604D01*
X945Y17514D01*
X1018Y17441D01*
X1108Y17389D01*
X1170Y17372D01*
X1220Y17298D01*
X1601Y16916D01*
X1679Y16864D01*
X1772Y16846D01*
X2172D01*
X2184Y16831D01*
X3145D01*
X3144Y16847D01*
X3241Y16899D01*
X3262Y16904D01*
X3328Y16861D01*
X3421Y16842D01*
X3823D01*
X3916Y16861D01*
X3996Y16914D01*
X4049Y16993D01*
X4067Y17087D01*
X4049Y17180D01*
X3996Y17259D01*
X3916Y17312D01*
X3863Y17323D01*
Y17913D01*
X4016D01*
Y18583D01*
X4016Y18701D01*
X4016Y18740D01*
Y18937D01*
D02*
G37*
G36*
X748Y15827D02*
X512D01*
Y15551D01*
X748D01*
Y15827D01*
D02*
G37*
G36*
X10551Y15787D02*
X10315D01*
Y15512D01*
X10551D01*
Y15787D01*
D02*
G37*
G36*
X8622D02*
X8386D01*
Y15512D01*
X8622D01*
Y15787D01*
D02*
G37*
G36*
X5000Y15630D02*
X4724D01*
Y15394D01*
X5000D01*
Y15630D01*
D02*
G37*
G36*
X4488D02*
X4213D01*
Y15394D01*
X4488D01*
Y15630D01*
D02*
G37*
G36*
X6164Y15669D02*
X5495D01*
Y15197D01*
X6164D01*
Y15669D01*
D02*
G37*
G36*
X11024Y15787D02*
X10984Y15787D01*
X10787D01*
Y15394D01*
Y15000D01*
X10984D01*
X11102Y15000D01*
X11142Y15000D01*
X11811D01*
Y15153D01*
X12264D01*
Y15079D01*
X13091D01*
Y15709D01*
X12264D01*
Y15635D01*
X11811D01*
Y15787D01*
X11142D01*
X11024Y15787D01*
D02*
G37*
G36*
X748Y15315D02*
X512D01*
Y15039D01*
X748D01*
Y15315D01*
D02*
G37*
G36*
X10551Y15276D02*
X10315D01*
Y15000D01*
X10551D01*
Y15276D01*
D02*
G37*
G36*
X748Y14921D02*
X512D01*
Y14646D01*
X748D01*
Y14921D01*
D02*
G37*
G36*
X3031Y14952D02*
Y14532D01*
X3452D01*
X3427Y14626D01*
X3354Y14752D01*
X3252Y14854D01*
X3126Y14927D01*
X3031Y14952D01*
D02*
G37*
G36*
X2795D02*
X2701Y14927D01*
X2575Y14854D01*
X2472Y14752D01*
X2400Y14626D01*
X2374Y14532D01*
X2795D01*
Y14952D01*
D02*
G37*
G36*
X748Y14409D02*
X512D01*
Y14134D01*
X748D01*
Y14409D01*
D02*
G37*
G36*
X3452Y14295D02*
X3031D01*
Y13874D01*
X3126Y13900D01*
X3252Y13972D01*
X3354Y14075D01*
X3427Y14201D01*
X3452Y14295D01*
D02*
G37*
G36*
X2795D02*
X2374D01*
X2400Y14201D01*
X2472Y14075D01*
X2575Y13972D01*
X2701Y13900D01*
X2795Y13874D01*
Y14295D01*
D02*
G37*
G36*
X6024Y11968D02*
X5748D01*
Y11732D01*
X6024D01*
Y11968D01*
D02*
G37*
G36*
X5512D02*
X5236D01*
Y11732D01*
X5512D01*
Y11968D01*
D02*
G37*
G36*
X11812Y10492D02*
X11542D01*
Y10376D01*
X11615D01*
X11705Y10394D01*
X11781Y10445D01*
X11812Y10492D01*
D02*
G37*
G36*
X7709Y10456D02*
X7590D01*
Y10239D01*
X7709D01*
Y10456D01*
D02*
G37*
G36*
X7354D02*
X7236D01*
Y10239D01*
X7354D01*
Y10456D01*
D02*
G37*
G36*
X6083Y10610D02*
X5394D01*
Y10157D01*
X6083D01*
Y10610D01*
D02*
G37*
G36*
X5157D02*
X4469D01*
Y10157D01*
X5157D01*
Y10610D01*
D02*
G37*
G36*
X7709Y10003D02*
X7590D01*
Y9787D01*
X7709D01*
Y10003D01*
D02*
G37*
G36*
X7354D02*
X7236D01*
Y9787D01*
X7354D01*
Y10003D01*
D02*
G37*
G36*
X2953Y10110D02*
Y9689D01*
X3374D01*
X3348Y9784D01*
X3276Y9909D01*
X3173Y10012D01*
X3047Y10084D01*
X2953Y10110D01*
D02*
G37*
G36*
X2717Y10110D02*
X2622Y10084D01*
X2496Y10012D01*
X2394Y9909D01*
X2321Y9784D01*
X2296Y9689D01*
X2717D01*
Y10110D01*
D02*
G37*
G36*
X12087Y9961D02*
X11772D01*
Y9567D01*
X12087D01*
Y9961D01*
D02*
G37*
G36*
X11535D02*
X11220D01*
Y9567D01*
X11535D01*
Y9961D01*
D02*
G37*
G36*
X6083Y9921D02*
X5394D01*
Y9468D01*
X6083D01*
Y9921D01*
D02*
G37*
G36*
X5157D02*
X4469D01*
Y9468D01*
X5157D01*
Y9921D01*
D02*
G37*
G36*
X14213Y9370D02*
X13976D01*
Y9094D01*
X14213D01*
Y9370D01*
D02*
G37*
G36*
X3374Y9453D02*
X2953D01*
Y9032D01*
X3047Y9057D01*
X3173Y9130D01*
X3276Y9232D01*
X3348Y9358D01*
X3374Y9453D01*
D02*
G37*
G36*
X2717D02*
X2296D01*
X2321Y9358D01*
X2394Y9232D01*
X2496Y9130D01*
X2622Y9057D01*
X2717Y9032D01*
Y9453D01*
D02*
G37*
G36*
X12087Y9331D02*
X11772D01*
Y8937D01*
X12087D01*
Y9331D01*
D02*
G37*
G36*
X11535D02*
X11220D01*
Y8937D01*
X11535D01*
Y9331D01*
D02*
G37*
G36*
X10610Y7953D02*
X10315D01*
Y7756D01*
X10610D01*
Y7953D01*
D02*
G37*
G36*
X10079D02*
X9783D01*
Y7756D01*
X10079D01*
Y7953D01*
D02*
G37*
G36*
X12874Y7854D02*
X12677D01*
Y7559D01*
X12874D01*
Y7854D01*
D02*
G37*
G36*
X12441D02*
X12244D01*
Y7559D01*
X12441D01*
Y7854D01*
D02*
G37*
G36*
X10610Y7520D02*
X10315D01*
Y7323D01*
X10610D01*
Y7520D01*
D02*
G37*
G36*
X10079D02*
X9783D01*
Y7323D01*
X10079D01*
Y7520D01*
D02*
G37*
G36*
X12874Y7323D02*
X12677D01*
Y7028D01*
X12874D01*
Y7323D01*
D02*
G37*
G36*
X12441D02*
X12244D01*
Y7028D01*
X12441D01*
Y7323D01*
D02*
G37*
G36*
X9213Y6929D02*
Y6654D01*
X9449D01*
Y6929D01*
X9213D01*
D02*
G37*
G36*
X9449Y6417D02*
X9213D01*
Y6142D01*
X9449D01*
Y6417D01*
D02*
G37*
G36*
X6083Y5925D02*
X5394D01*
Y5472D01*
X6083D01*
Y5925D01*
D02*
G37*
G36*
X5157D02*
X4469D01*
Y5472D01*
X5157D01*
Y5925D01*
D02*
G37*
G36*
X14199Y6437D02*
X13490D01*
Y6047D01*
X13487Y6024D01*
Y5433D01*
X13268D01*
Y5312D01*
X13150Y5269D01*
X12930Y5489D01*
X12856Y5546D01*
X12770Y5581D01*
X12677Y5594D01*
X12165D01*
X12165Y5594D01*
X11156D01*
Y5650D01*
X10447D01*
Y5259D01*
X10444Y5236D01*
X10447Y5213D01*
Y4823D01*
X11156D01*
Y4879D01*
X11745D01*
X11752Y4764D01*
X11752Y4761D01*
Y4134D01*
X11925D01*
Y3898D01*
X11772D01*
Y3228D01*
X11772Y3110D01*
X11772Y3071D01*
Y2874D01*
X12165D01*
X12559D01*
Y3071D01*
X12559Y3189D01*
X12559Y3228D01*
Y3898D01*
X12406D01*
Y4134D01*
X12579D01*
Y4662D01*
X12697Y4711D01*
X12779Y4629D01*
X12853Y4572D01*
X12939Y4537D01*
X13032Y4525D01*
X13268D01*
Y4331D01*
X14370D01*
Y4525D01*
X14823D01*
Y4502D01*
X15650D01*
Y5211D01*
X15368D01*
X15329Y5227D01*
X15236Y5239D01*
X14370D01*
Y5433D01*
X14202D01*
Y6024D01*
X14199Y6047D01*
Y6437D01*
D02*
G37*
G36*
X2953Y5504D02*
Y5083D01*
X3374D01*
X3348Y5177D01*
X3276Y5303D01*
X3173Y5406D01*
X3047Y5478D01*
X2953Y5504D01*
D02*
G37*
G36*
X2717Y5504D02*
X2622Y5478D01*
X2496Y5406D01*
X2394Y5303D01*
X2321Y5177D01*
X2296Y5083D01*
X2717D01*
Y5504D01*
D02*
G37*
G36*
X6083Y5236D02*
X5394D01*
Y4783D01*
X6083D01*
Y5236D01*
D02*
G37*
G36*
X5157D02*
X4469D01*
Y4783D01*
X5157D01*
Y5236D01*
D02*
G37*
G36*
X3374Y4846D02*
X2953D01*
Y4426D01*
X3047Y4451D01*
X3173Y4524D01*
X3276Y4626D01*
X3348Y4752D01*
X3374Y4846D01*
D02*
G37*
G36*
X2717D02*
X2296D01*
X2321Y4752D01*
X2394Y4626D01*
X2496Y4524D01*
X2622Y4451D01*
X2717Y4426D01*
Y4846D01*
D02*
G37*
G36*
X13937Y3921D02*
Y3500D01*
X14358D01*
X14333Y3595D01*
X14260Y3720D01*
X14157Y3823D01*
X14032Y3896D01*
X13937Y3921D01*
D02*
G37*
G36*
X13701Y3921D02*
X13606Y3896D01*
X13480Y3823D01*
X13378Y3720D01*
X13305Y3595D01*
X13280Y3500D01*
X13701D01*
Y3921D01*
D02*
G37*
G36*
X8705Y4110D02*
X7988D01*
Y3401D01*
X8106D01*
Y3154D01*
X7974D01*
X7942Y3186D01*
X7864Y3238D01*
X7812Y3249D01*
Y3252D01*
X7795D01*
X7772Y3257D01*
X7477D01*
X7454Y3252D01*
X7143D01*
Y2780D01*
X7454D01*
X7477Y2775D01*
X7672D01*
X7704Y2743D01*
X7782Y2691D01*
X7874Y2673D01*
X7992D01*
Y2362D01*
X8661D01*
X8780Y2362D01*
X8819Y2362D01*
X9016D01*
Y2756D01*
Y3150D01*
X8819D01*
X8701Y3150D01*
X8587Y3237D01*
Y3401D01*
X8705D01*
Y4110D01*
D02*
G37*
G36*
X11220Y3150D02*
Y2874D01*
X11457D01*
Y3150D01*
X11220D01*
D02*
G37*
G36*
X9252D02*
Y2874D01*
X9488D01*
Y3150D01*
X9252D01*
D02*
G37*
G36*
X13701Y3264D02*
X13280D01*
X13305Y3169D01*
X13378Y3043D01*
X13480Y2941D01*
X13606Y2868D01*
X13701Y2843D01*
Y3264D01*
D02*
G37*
G36*
X14358D02*
X13937D01*
Y2843D01*
X14032Y2868D01*
X14157Y2941D01*
X14260Y3043D01*
X14333Y3169D01*
X14358Y3264D01*
D02*
G37*
G36*
X3386Y4016D02*
X2283D01*
Y2913D01*
X3386D01*
Y3145D01*
X4469D01*
Y2815D01*
X6083D01*
Y3068D01*
X6617D01*
X6699Y3079D01*
X6776Y3111D01*
X6827Y3150D01*
X6952D01*
Y3622D01*
X6827D01*
X6776Y3661D01*
X6699Y3693D01*
X6617Y3704D01*
X6083D01*
Y3957D01*
X4469D01*
Y3627D01*
X3386D01*
Y4016D01*
D02*
G37*
G36*
X12559Y2638D02*
X12283D01*
Y2402D01*
X12559D01*
Y2638D01*
D02*
G37*
G36*
X12047D02*
X11772D01*
Y2402D01*
X12047D01*
Y2638D01*
D02*
G37*
G36*
X11457Y2638D02*
X11220D01*
Y2362D01*
X11457D01*
Y2638D01*
D02*
G37*
G36*
X9488D02*
X9252D01*
Y2362D01*
X9488D01*
Y2638D01*
D02*
G37*
G36*
X6797Y6846D02*
X6667D01*
X6542Y6813D01*
X6430Y6748D01*
X6338Y6657D01*
X6274Y6544D01*
X6240Y6419D01*
Y6290D01*
X6274Y6164D01*
X6338Y6052D01*
X6426Y5965D01*
X6425Y5946D01*
X6391Y5846D01*
X6240D01*
Y4862D01*
X7120D01*
Y3756D01*
X7132Y3663D01*
X7143Y3638D01*
Y3520D01*
X7212D01*
X7225Y3503D01*
X7299Y3446D01*
X7385Y3411D01*
X7477Y3398D01*
X7570Y3411D01*
X7656Y3446D01*
X7730Y3503D01*
X7743Y3520D01*
X7812D01*
Y3638D01*
X7822Y3663D01*
X7835Y3756D01*
Y4888D01*
X7845Y4898D01*
X8282D01*
X8356Y4889D01*
X8356Y4889D01*
X9159D01*
Y4823D01*
X9163D01*
Y4062D01*
X9175Y3970D01*
X9211Y3883D01*
X9213Y3881D01*
Y3642D01*
X9843D01*
Y3890D01*
X9873Y3963D01*
X9882Y4032D01*
X9994Y4025D01*
X10000Y3973D01*
X10000Y4024D01*
X10000D01*
Y3642D01*
X10074D01*
Y3150D01*
X9961D01*
Y2362D01*
X10630D01*
X10748Y2362D01*
X10787Y2362D01*
X10984D01*
Y2756D01*
Y3150D01*
X10787D01*
X10669Y3150D01*
X10556Y3237D01*
Y3642D01*
X10630D01*
Y4469D01*
X10000D01*
Y4241D01*
X9882Y4193D01*
X9878Y4196D01*
Y5229D01*
X9868Y5305D01*
Y5650D01*
X9159D01*
Y5603D01*
X8705D01*
Y5610D01*
X8370D01*
X8346Y5613D01*
X7834D01*
X7811Y5623D01*
X7718Y5635D01*
X7626Y5623D01*
X7603Y5613D01*
X7224D01*
Y5846D01*
X7073D01*
X7039Y5946D01*
X7038Y5965D01*
X7126Y6052D01*
X7191Y6164D01*
X7224Y6290D01*
Y6419D01*
X7191Y6544D01*
X7126Y6657D01*
X7034Y6748D01*
X6922Y6813D01*
X6797Y6846D01*
D02*
G37*
G36*
X15512Y3939D02*
X15512Y3939D01*
X14961D01*
X14915Y3930D01*
X14904Y3923D01*
X14823D01*
Y3851D01*
X14797Y3825D01*
X14771Y3786D01*
X14761Y3740D01*
X14761Y3740D01*
Y3199D01*
X13848Y2286D01*
X12717D01*
X12670Y2277D01*
X12631Y2251D01*
X12631Y2251D01*
X12474Y2093D01*
X12448Y2054D01*
X12439Y2008D01*
X12439Y2008D01*
Y1654D01*
X12439Y1654D01*
X12448Y1607D01*
X12474Y1568D01*
X12710Y1332D01*
X12749Y1306D01*
X12795Y1297D01*
X12795Y1297D01*
X14016D01*
X14062Y1306D01*
X14101Y1332D01*
X15676Y2907D01*
X15702Y2946D01*
X15711Y2992D01*
X15711Y2992D01*
Y3740D01*
X15702Y3786D01*
X15676Y3825D01*
X15650Y3851D01*
Y3923D01*
X15568D01*
X15558Y3930D01*
X15512Y3939D01*
D02*
G37*
G36*
X15585Y1890D02*
X15438D01*
X15294Y1861D01*
X15157Y1805D01*
X15035Y1723D01*
X14931Y1619D01*
X14849Y1496D01*
X14793Y1360D01*
X14764Y1215D01*
Y1068D01*
X14793Y924D01*
X14849Y787D01*
X14931Y665D01*
X15035Y561D01*
X15157Y479D01*
X15294Y422D01*
X15438Y394D01*
X15585D01*
X15730Y422D01*
X15866Y479D01*
X15989Y561D01*
X16093Y665D01*
X16175Y787D01*
X16231Y924D01*
X16260Y1068D01*
Y1215D01*
X16231Y1360D01*
X16175Y1496D01*
X16093Y1619D01*
X15989Y1723D01*
X15866Y1805D01*
X15730Y1861D01*
X15585Y1890D01*
D02*
G37*
G36*
X1215D02*
X1068D01*
X924Y1861D01*
X787Y1805D01*
X665Y1723D01*
X561Y1619D01*
X479Y1496D01*
X422Y1360D01*
X394Y1215D01*
Y1068D01*
X422Y924D01*
X479Y787D01*
X561Y665D01*
X665Y561D01*
X787Y479D01*
X924Y422D01*
X1068Y394D01*
X1215D01*
X1360Y422D01*
X1496Y479D01*
X1619Y561D01*
X1723Y665D01*
X1805Y787D01*
X1861Y924D01*
X1890Y1068D01*
Y1215D01*
X1861Y1360D01*
X1805Y1496D01*
X1723Y1619D01*
X1619Y1723D01*
X1496Y1805D01*
X1360Y1861D01*
X1215Y1890D01*
D02*
G37*
%LPD*%
G36*
X15591Y3740D02*
Y2992D01*
X14016Y1417D01*
X12795D01*
X12559Y1654D01*
Y2008D01*
X12717Y2165D01*
X13898D01*
X14882Y3150D01*
Y3740D01*
X14961Y3819D01*
X15512D01*
X15591Y3740D01*
D02*
G37*
D23*
X5630Y12087D02*
D03*
X5709Y17913D02*
D03*
X4803D02*
D03*
Y17126D02*
D03*
X5709D02*
D03*
X5630Y12874D02*
D03*
D24*
X866Y15433D02*
D03*
Y14528D02*
D03*
X14331Y8228D02*
D03*
Y8976D02*
D03*
X11732Y12205D02*
D03*
X12520D02*
D03*
X15118Y8976D02*
D03*
Y8228D02*
D03*
X1654Y14528D02*
D03*
Y15433D02*
D03*
D25*
X11654Y9449D02*
D03*
X10472D02*
D03*
D26*
X12165Y2756D02*
D03*
X4606Y15276D02*
D03*
X3622Y19055D02*
D03*
X9252Y10197D02*
D03*
Y10984D02*
D03*
Y9213D02*
D03*
Y8425D02*
D03*
X3622Y18268D02*
D03*
X10079Y18228D02*
D03*
Y19016D02*
D03*
X6535Y12087D02*
D03*
Y12874D02*
D03*
X4606Y12874D02*
D03*
Y13661D02*
D03*
Y14488D02*
D03*
X12165Y3543D02*
D03*
D27*
X11102Y2756D02*
D03*
X9134D02*
D03*
X8740Y15394D02*
D03*
X10669D02*
D03*
X9094Y6535D02*
D03*
X8307D02*
D03*
X15118Y7441D02*
D03*
X14331D02*
D03*
X9528Y13740D02*
D03*
X8740D02*
D03*
Y14567D02*
D03*
X9528D02*
D03*
X11457Y15394D02*
D03*
X9528D02*
D03*
X8346Y2756D02*
D03*
X10315D02*
D03*
D28*
X6685Y14134D02*
D03*
X11423Y10610D02*
D03*
Y11358D02*
D03*
Y10984D02*
D03*
X10466Y10610D02*
D03*
Y10984D02*
D03*
X6685Y14508D02*
D03*
X5630D02*
D03*
Y13760D02*
D03*
D29*
X7472Y10121D02*
D03*
X7102Y10981D02*
D03*
X6732Y10121D02*
D03*
D30*
X5276Y5354D02*
D03*
Y10039D02*
D03*
Y8071D02*
D03*
Y3386D02*
D03*
D31*
X7126Y19016D02*
D03*
Y17047D02*
D03*
D32*
X12559Y7441D02*
D03*
X13346D02*
D03*
X9528Y4055D02*
D03*
X10315D02*
D03*
D33*
X10197Y7638D02*
D03*
X12165Y5236D02*
D03*
X10197Y8425D02*
D03*
X11102Y19016D02*
D03*
Y18228D02*
D03*
X12165Y4449D02*
D03*
X12677Y15394D02*
D03*
Y14606D02*
D03*
D34*
X2704Y16713D02*
D03*
Y16339D02*
D03*
X3622D02*
D03*
Y17087D02*
D03*
D35*
X10801Y5236D02*
D03*
X13844Y6024D02*
D03*
X12073Y17244D02*
D03*
X13360D02*
D03*
X12073Y18110D02*
D03*
X13360D02*
D03*
X15132Y6024D02*
D03*
X9514Y5236D02*
D03*
D36*
X15236Y4856D02*
D03*
Y3569D02*
D03*
D37*
X10466Y11358D02*
D03*
X6685Y13760D02*
D03*
D38*
X2704Y17087D02*
D03*
D39*
X6617Y8071D02*
D03*
X7477Y8441D02*
D03*
Y7701D02*
D03*
X11532Y13228D02*
D03*
X10672Y12858D02*
D03*
Y13598D02*
D03*
X6617Y3386D02*
D03*
X7477Y3756D02*
D03*
Y3016D02*
D03*
X5830Y15433D02*
D03*
X6690Y15803D02*
D03*
Y15063D02*
D03*
D40*
X8307Y7715D02*
D03*
Y9215D02*
D03*
X8346Y3756D02*
D03*
Y5256D02*
D03*
D41*
X13858Y11378D02*
D03*
X15709D02*
D03*
D64*
X8740Y15394D02*
Y16260D01*
X7472Y10118D02*
Y10121D01*
Y10118D02*
X8268D01*
X9213Y2653D02*
Y2693D01*
X1272Y16862D02*
X1332Y16802D01*
X1555D01*
X1645Y16713D02*
X2704D01*
X1555Y16802D02*
X1645Y16713D01*
X6685Y14134D02*
X7638D01*
X3858Y15276D02*
X4606D01*
X2795Y3386D02*
X5276D01*
X5276Y3386D01*
X4618Y12863D02*
X5618D01*
X4578Y12902D02*
X4606Y12874D01*
X2925Y12902D02*
X4578D01*
X4626Y14508D02*
X5630D01*
X4606Y14488D02*
X4626Y14508D01*
X4606Y13661D02*
Y14488D01*
X2874Y12953D02*
X2913Y12913D01*
X5630Y12874D02*
Y13760D01*
X6535Y12874D02*
X10558D01*
X5630D02*
X6535D01*
X10574Y12858D02*
X10672D01*
X10558Y12874D02*
X10574Y12858D01*
X1654Y16102D02*
X1890Y16339D01*
X2704D01*
X1654Y14528D02*
Y15433D01*
Y16102D01*
X1929Y12953D02*
X2874D01*
X1654Y13228D02*
Y14528D01*
Y13228D02*
X1929Y12953D01*
X9259Y10978D02*
X10281D01*
X11631Y13228D02*
X12143Y13740D01*
X12677D02*
Y14606D01*
X12677Y14606D01*
X12143Y13740D02*
X12677D01*
X9667Y11594D02*
Y11711D01*
Y11594D02*
X9902Y11358D01*
X9606Y11772D02*
X9667Y11711D01*
X9902Y11358D02*
X10466D01*
X11532Y13228D02*
X11631D01*
X11102Y18228D02*
X11102Y18228D01*
X10079Y18228D02*
X11102D01*
X10079Y18228D02*
X10079Y18228D01*
X11102Y19016D02*
X11201D01*
X11280Y19114D02*
X11418Y19252D01*
X11929D02*
X12073Y19108D01*
X11201Y19016D02*
X11280Y19094D01*
Y19114D01*
X11418Y19252D02*
X11929D01*
X4803Y17047D02*
X7126D01*
X3350Y16339D02*
X3622D01*
X10079Y19016D02*
X10079Y19016D01*
X9094Y19016D02*
X10079D01*
X3622Y16339D02*
X4803D01*
Y17047D01*
X3622Y17087D02*
Y18268D01*
X11994Y17165D02*
X12073Y17244D01*
X7244Y17165D02*
X11994D01*
X7126Y17047D02*
X7244Y17165D01*
X9567Y15433D02*
Y16633D01*
X8228Y16772D02*
X9429D01*
X7992Y16535D02*
X8228Y16772D01*
X9429D02*
X9567Y16633D01*
X1390Y17468D02*
X1772Y17087D01*
X1260Y17671D02*
X1390Y17540D01*
Y17468D02*
Y17540D01*
X2704Y17087D02*
X2913D01*
X1772D02*
X2704D01*
X1260Y17671D02*
Y17756D01*
X12073Y18110D02*
Y19108D01*
Y17244D02*
Y18110D01*
X8740Y13740D02*
Y14567D01*
X6688Y14510D02*
Y15063D01*
X6535Y12087D02*
X7402D01*
X14331Y7441D02*
X14331Y7441D01*
X13346Y7441D02*
X14331D01*
X11732Y12165D02*
Y12205D01*
X11423Y11856D02*
X11732Y12165D01*
X11423Y11358D02*
Y11856D01*
X11457Y15394D02*
X12677D01*
X11457Y15394D02*
X11457Y15394D01*
X10221Y13598D02*
X10672D01*
X10063Y13756D02*
X10221Y13598D01*
X7102Y10981D02*
X9249D01*
X6732Y9173D02*
Y10121D01*
X5276Y8071D02*
X6853D01*
X5276Y8071D02*
X5276Y8071D01*
X9528Y14567D02*
Y15394D01*
X9583Y13756D02*
X10063D01*
X9567Y13740D02*
X9583Y13756D01*
X8150Y13740D02*
X8780D01*
X7913Y13504D02*
X8150Y13740D01*
X7544Y13504D02*
X7913D01*
X7288Y13760D02*
X7544Y13504D01*
X6685Y13760D02*
X7288D01*
X9528Y15394D02*
X9567Y15433D01*
X7992Y16063D02*
Y16535D01*
X7732Y15803D02*
X7992Y16063D01*
X6690Y15803D02*
X7732D01*
X6690Y15063D02*
X7638D01*
X6685Y14508D02*
X6688Y14510D01*
Y15063D02*
X6690D01*
X8293Y7701D02*
X8307Y7715D01*
X7477Y7701D02*
X8293D01*
X8307Y6535D02*
Y7715D01*
X9252Y8425D02*
X9252Y8425D01*
X10197D01*
X10197Y8425D01*
X12165Y3543D02*
Y4449D01*
X12165Y4449D02*
X12165Y4449D01*
X10315Y2756D02*
Y4055D01*
X8346Y2756D02*
Y3756D01*
X7477Y3016D02*
X7772D01*
X7874Y2913D01*
X8228D01*
X8346Y2795D01*
Y2756D02*
Y2795D01*
D65*
X13032Y4882D02*
X13819D01*
X12677Y5236D02*
X13032Y4882D01*
X12165Y5236D02*
X12165Y5236D01*
X12677D01*
X10801Y5236D02*
X12165D01*
X13819Y4882D02*
X13844Y4907D01*
Y6024D01*
X13819Y4882D02*
X15236D01*
X15138Y13701D02*
Y16889D01*
X14783Y17244D02*
X15138Y16889D01*
X13360Y17244D02*
X14783D01*
X13360Y18110D02*
X14606D01*
X6831Y5256D02*
X7697D01*
X7477Y5036D02*
X7697Y5256D01*
X7477Y3756D02*
Y5036D01*
X7697Y5256D02*
X7718Y5278D01*
X9521Y4062D02*
X9528Y4055D01*
X9521Y4062D02*
Y5229D01*
X7697Y5256D02*
X8346D01*
X14567Y13701D02*
X15138D01*
Y11949D02*
Y13701D01*
Y11949D02*
X15709Y11378D01*
X8346Y5256D02*
X8356Y5246D01*
X6732Y5354D02*
X6831Y5256D01*
X9504Y5246D02*
X9514Y5236D01*
X8356Y5246D02*
X9504D01*
X9514Y5236D02*
X9521Y5229D01*
X2835Y8071D02*
X5276D01*
D66*
X5276Y3386D02*
X6617D01*
D67*
X7477Y9052D02*
X7640Y9215D01*
X8307D01*
X7477Y8441D02*
Y9052D01*
X10472Y9449D02*
Y10591D01*
X10039Y9449D02*
X10472D01*
X9252Y9213D02*
Y10039D01*
X9251Y9214D02*
X9252Y9213D01*
X9803Y9213D02*
X10039Y9449D01*
X9252Y9213D02*
X9252Y9213D01*
X9803D01*
X8308Y9214D02*
X9251D01*
X8307Y9215D02*
X8308Y9214D01*
D68*
X13819Y4882D02*
D03*
X2835Y8071D02*
D03*
X2913Y12913D02*
D03*
X2835Y3465D02*
D03*
D69*
X13819Y3382D02*
D03*
X2835Y4965D02*
D03*
X2913Y14413D02*
D03*
X2835Y9571D02*
D03*
D70*
X6732Y5354D02*
D03*
D71*
Y6354D02*
D03*
D72*
X16063Y14252D02*
D03*
Y16339D02*
D03*
X7480Y1535D02*
D03*
X6024D02*
D03*
X4528D02*
D03*
X11732Y9409D02*
D03*
X10630Y16575D02*
D03*
X8740Y16260D02*
D03*
X12559Y10039D02*
D03*
Y9252D02*
D03*
X7638Y14134D02*
D03*
X8268Y10118D02*
D03*
X13346Y9213D02*
D03*
X12520Y8465D02*
D03*
X13307D02*
D03*
X6378Y20157D02*
D03*
X3890Y20167D02*
D03*
X5157Y20157D02*
D03*
X1272Y16862D02*
D03*
X3858Y15276D02*
D03*
X13543Y13740D02*
D03*
X14606Y18110D02*
D03*
X12992Y1811D02*
D03*
X13780D02*
D03*
X4803Y16339D02*
D03*
X14567Y13701D02*
D03*
X12677Y13740D02*
D03*
X9606Y11772D02*
D03*
X9094Y19016D02*
D03*
X1260Y17756D02*
D03*
X7402Y12087D02*
D03*
X6732Y9173D02*
D03*
X7638Y15063D02*
D03*
M02*
