G04*
G04 #@! TF.GenerationSoftware,Altium Limited,Altium Designer,25.8.1 (18)*
G04*
G04 Layer_Color=32896*
%FSLAX24Y24*%
%MOIN*%
G70*
G04*
G04 #@! TF.SameCoordinates,5D68D8FE-4F7F-4267-B10C-0524520F2B72*
G04*
G04*
G04 #@! TF.FilePolarity,Positive*
G04*
G01*
G75*
%ADD11C,0.0100*%
%ADD12C,0.0079*%
G36*
X6256Y19943D02*
X5979Y19942D01*
X5976Y19939D01*
X5975Y19936D01*
X5977Y19932D01*
X5979Y19930D01*
X5980Y19928D01*
X5983Y19923D01*
X5984Y19919D01*
X5988Y19912D01*
X6006Y19877D01*
X6009Y19872D01*
X6011Y19871D01*
X6015Y19869D01*
X6333Y19868D01*
X6337Y19867D01*
X6348Y19862D01*
X6352Y19861D01*
X6358Y19857D01*
X6372Y19847D01*
X6374Y19845D01*
X6376Y19844D01*
X6381Y19839D01*
X6381Y19838D01*
X6384Y19835D01*
X6385Y19833D01*
X6387Y19831D01*
X6388Y19829D01*
X6390Y19827D01*
X6391Y19826D01*
X6396Y19818D01*
X6400Y19811D01*
X6407Y19796D01*
X6410Y19788D01*
X6412Y19784D01*
X6414Y19775D01*
X6416Y19769D01*
X6418Y19763D01*
X6421Y19752D01*
X6423Y19745D01*
X6425Y19727D01*
X6426Y19716D01*
X6427Y19712D01*
X6428Y19705D01*
X6429Y19637D01*
X6428Y19634D01*
X6425Y19615D01*
X6424Y19604D01*
X6423Y19598D01*
X6420Y19585D01*
X6416Y19573D01*
X6414Y19563D01*
X6410Y19554D01*
X6406Y19545D01*
X6405Y19540D01*
X6397Y19527D01*
X6397Y19526D01*
X6392Y19520D01*
X6392Y19518D01*
X6386Y19510D01*
X6384Y19507D01*
X6378Y19501D01*
X6377Y19500D01*
X6374Y19497D01*
X6368Y19491D01*
X6366Y19490D01*
X6364Y19488D01*
X6357Y19484D01*
X6352Y19481D01*
X6348Y19480D01*
X6344Y19478D01*
X6336Y19476D01*
X6329Y19474D01*
X6322Y19473D01*
X6313Y19472D01*
X6006Y19471D01*
X6004Y19472D01*
X5996Y19471D01*
X5993Y19468D01*
X5991Y19462D01*
X5992Y19405D01*
X5996Y19400D01*
X5999Y19399D01*
X6010Y19399D01*
X6323Y19399D01*
X6326Y19400D01*
X6338Y19401D01*
X6341Y19402D01*
X6346Y19403D01*
X6353Y19405D01*
X6357Y19405D01*
X6360Y19406D01*
X6365Y19407D01*
X6371Y19410D01*
X6379Y19413D01*
X6384Y19415D01*
X6388Y19416D01*
X6393Y19420D01*
X6405Y19427D01*
X6408Y19429D01*
X6410Y19430D01*
X6417Y19436D01*
X6419Y19438D01*
X6421Y19439D01*
X6437Y19455D01*
X6438Y19457D01*
X6440Y19459D01*
X6441Y19461D01*
X6445Y19465D01*
X6452Y19476D01*
X6455Y19482D01*
X6456Y19484D01*
X6461Y19489D01*
X6464Y19497D01*
X6466Y19502D01*
X6471Y19512D01*
X6473Y19521D01*
X6475Y19525D01*
X6478Y19532D01*
X6479Y19538D01*
X6480Y19542D01*
X6482Y19547D01*
X6485Y19558D01*
X6487Y19563D01*
X6487Y19567D01*
X6488Y19578D01*
X6489Y19581D01*
X6490Y19587D01*
X6491Y19591D01*
X6492Y19596D01*
X6494Y19613D01*
X6495Y19619D01*
X6496Y19650D01*
X6495Y19729D01*
X6494Y19732D01*
X6493Y19741D01*
X6491Y19751D01*
X6490Y19758D01*
X6488Y19769D01*
X6487Y19773D01*
X6487Y19780D01*
X6486Y19783D01*
X6481Y19799D01*
X6479Y19804D01*
X6478Y19811D01*
X6476Y19816D01*
X6473Y19822D01*
X6469Y19832D01*
X6465Y19842D01*
X6463Y19846D01*
X6458Y19855D01*
X6455Y19861D01*
X6449Y19869D01*
X6445Y19876D01*
X6443Y19879D01*
X6441Y19880D01*
X6440Y19882D01*
X6438Y19885D01*
X6437Y19886D01*
X6434Y19889D01*
X6434Y19890D01*
X6428Y19896D01*
X6427Y19898D01*
X6424Y19900D01*
X6419Y19905D01*
X6417Y19906D01*
X6415Y19909D01*
X6413Y19909D01*
X6411Y19911D01*
X6410Y19912D01*
X6405Y19916D01*
X6390Y19925D01*
X6386Y19926D01*
X6375Y19931D01*
X6371Y19933D01*
X6364Y19935D01*
X6359Y19936D01*
X6347Y19940D01*
X6337Y19941D01*
X6317Y19942D01*
X6315Y19943D01*
X6257D01*
X6256D01*
D02*
G37*
G36*
X6553Y19939D02*
X6554Y19933D01*
X6557Y19929D01*
X6558Y19927D01*
X6560Y19923D01*
X6569Y19904D01*
X6572Y19898D01*
X6577Y19889D01*
X6580Y19883D01*
X6584Y19875D01*
X6588Y19871D01*
X6594Y19869D01*
X6912Y19868D01*
X6914Y19867D01*
X6920Y19865D01*
X6927Y19862D01*
X6931Y19861D01*
X6937Y19857D01*
X6938Y19856D01*
X6940Y19855D01*
X6948Y19849D01*
X6953Y19845D01*
X6954Y19844D01*
X6956Y19843D01*
X6957Y19841D01*
X6962Y19836D01*
X6962Y19834D01*
X6964Y19832D01*
X6965Y19831D01*
X6969Y19827D01*
X6973Y19819D01*
X6978Y19813D01*
X6980Y19808D01*
X6985Y19797D01*
X6987Y19791D01*
X6990Y19783D01*
X6994Y19774D01*
X6996Y19761D01*
X6999Y19754D01*
X7001Y19747D01*
X7002Y19741D01*
X7003Y19732D01*
X7004Y19719D01*
X7004Y19716D01*
X7005Y19707D01*
X7006Y19705D01*
X7007Y19697D01*
X7006Y19695D01*
X7007Y19640D01*
X7005Y19629D01*
X7004Y19618D01*
X7003Y19610D01*
X7002Y19598D01*
X7001Y19593D01*
X6997Y19584D01*
X6996Y19579D01*
X6995Y19576D01*
X6994Y19570D01*
X6994Y19567D01*
X6991Y19561D01*
X6987Y19551D01*
X6986Y19545D01*
X6981Y19539D01*
X6979Y19534D01*
X6974Y19525D01*
X6971Y19520D01*
X6967Y19514D01*
X6965Y19511D01*
X6964Y19510D01*
X6962Y19508D01*
X6962Y19506D01*
X6949Y19494D01*
X6948Y19493D01*
X6943Y19488D01*
X6933Y19483D01*
X6928Y19480D01*
X6914Y19476D01*
X6907Y19474D01*
X6899Y19473D01*
X6894Y19472D01*
X6885Y19471D01*
X6882Y19472D01*
X6880Y19471D01*
X6582Y19472D01*
X6573Y19471D01*
X6570Y19468D01*
X6568Y19462D01*
X6569Y19405D01*
X6572Y19401D01*
X6579Y19399D01*
X6910Y19400D01*
X6912Y19401D01*
X6921Y19402D01*
X6923Y19402D01*
X6933Y19405D01*
X6943Y19407D01*
X6947Y19409D01*
X6959Y19413D01*
X6962Y19414D01*
X6970Y19418D01*
X6975Y19422D01*
X6982Y19426D01*
X6984Y19428D01*
X6986Y19428D01*
X6987Y19430D01*
X6989Y19431D01*
X6996Y19437D01*
X6999Y19439D01*
X7001Y19440D01*
X7004Y19443D01*
X7004Y19445D01*
X7007Y19448D01*
X7009Y19449D01*
X7011Y19451D01*
X7012Y19452D01*
X7019Y19459D01*
X7021Y19463D01*
X7025Y19467D01*
X7026Y19468D01*
X7029Y19474D01*
X7035Y19483D01*
X7039Y19490D01*
X7041Y19492D01*
X7042Y19496D01*
X7043Y19500D01*
X7045Y19505D01*
X7047Y19506D01*
X7051Y19516D01*
X7052Y19522D01*
X7055Y19529D01*
X7056Y19530D01*
X7057Y19534D01*
X7059Y19539D01*
X7060Y19545D01*
X7061Y19551D01*
X7064Y19558D01*
X7066Y19565D01*
X7067Y19571D01*
X7068Y19583D01*
X7069Y19588D01*
X7070Y19592D01*
X7071Y19603D01*
X7073Y19611D01*
X7074Y19625D01*
X7075Y19633D01*
X7075Y19708D01*
X7074Y19711D01*
X7073Y19727D01*
X7073Y19736D01*
X7072Y19738D01*
X7071Y19744D01*
X7070Y19748D01*
X7068Y19758D01*
X7068Y19761D01*
X7066Y19774D01*
X7065Y19782D01*
X7062Y19790D01*
X7060Y19795D01*
X7059Y19801D01*
X7058Y19805D01*
X7057Y19809D01*
X7052Y19819D01*
X7051Y19826D01*
X7049Y19831D01*
X7045Y19836D01*
X7044Y19840D01*
X7042Y19845D01*
X7041Y19848D01*
X7036Y19854D01*
X7034Y19860D01*
X7031Y19865D01*
X7029Y19867D01*
X7024Y19876D01*
X7020Y19880D01*
X7019Y19882D01*
X7014Y19887D01*
X7013Y19889D01*
X7011Y19890D01*
X7010Y19892D01*
X7000Y19903D01*
X6998Y19904D01*
X6993Y19909D01*
X6991Y19909D01*
X6980Y19918D01*
X6978Y19919D01*
X6973Y19922D01*
X6971Y19923D01*
X6959Y19929D01*
X6949Y19933D01*
X6944Y19934D01*
X6940Y19935D01*
X6925Y19940D01*
X6915Y19941D01*
X6896Y19942D01*
X6894Y19943D01*
X6557Y19942D01*
X6553Y19940D01*
X6553Y19939D01*
D02*
G37*
G36*
X7636Y19394D02*
X7646Y19396D01*
X7650Y19397D01*
X7660Y19398D01*
X7668Y19399D01*
X7678Y19400D01*
X7686Y19402D01*
X7696Y19405D01*
X7712Y19407D01*
X7722Y19410D01*
X7734Y19413D01*
X7747Y19416D01*
X7750Y19417D01*
X7754Y19419D01*
X7764Y19422D01*
X7767Y19423D01*
X7778Y19426D01*
X7783Y19430D01*
X7786Y19432D01*
X7786Y19436D01*
X7782Y19444D01*
X7762Y19484D01*
X7759Y19487D01*
X7756Y19487D01*
X7746Y19487D01*
X7743Y19486D01*
X7735Y19483D01*
X7728Y19481D01*
X7721Y19479D01*
X7715Y19478D01*
X7712Y19477D01*
X7704Y19475D01*
X7698Y19473D01*
X7694Y19472D01*
X7688Y19471D01*
X7685Y19471D01*
X7675Y19469D01*
X7659Y19466D01*
X7654Y19465D01*
X7640Y19463D01*
X7633Y19463D01*
X7622Y19462D01*
X7616Y19461D01*
X7606Y19460D01*
X7595Y19458D01*
X7504Y19458D01*
X7502Y19459D01*
X7490Y19460D01*
X7477Y19462D01*
X7464Y19463D01*
X7456Y19464D01*
X7448Y19466D01*
X7435Y19470D01*
X7425Y19472D01*
X7420Y19474D01*
X7416Y19476D01*
X7410Y19478D01*
X7391Y19488D01*
X7383Y19494D01*
X7373Y19505D01*
X7372Y19506D01*
X7369Y19509D01*
X7369Y19510D01*
X7366Y19515D01*
X7364Y19521D01*
X7363Y19524D01*
X7362Y19529D01*
X7361Y19533D01*
X7361Y19538D01*
X7360Y19541D01*
X7361Y19543D01*
X7362Y19548D01*
X7365Y19558D01*
X7366Y19562D01*
X7369Y19567D01*
X7372Y19569D01*
X7373Y19571D01*
X7374Y19573D01*
X7375Y19574D01*
X7385Y19584D01*
X7387Y19585D01*
X7388Y19587D01*
X7390Y19587D01*
X7396Y19592D01*
X7398Y19592D01*
X7403Y19596D01*
X7410Y19599D01*
X7426Y19607D01*
X7432Y19609D01*
X7436Y19611D01*
X7453Y19616D01*
X7461Y19619D01*
X7468Y19621D01*
X7480Y19624D01*
X7483Y19625D01*
X7492Y19628D01*
X7498Y19629D01*
X7508Y19632D01*
X7512Y19633D01*
X7519Y19635D01*
X7524Y19636D01*
X7530Y19638D01*
X7536Y19639D01*
X7540Y19640D01*
X7543Y19641D01*
X7548Y19642D01*
X7558Y19645D01*
X7568Y19647D01*
X7572Y19648D01*
X7582Y19650D01*
X7587Y19651D01*
X7593Y19653D01*
X7596Y19654D01*
X7602Y19655D01*
X7609Y19657D01*
X7621Y19661D01*
X7627Y19662D01*
X7633Y19663D01*
X7637Y19665D01*
X7648Y19669D01*
X7652Y19670D01*
X7661Y19672D01*
X7669Y19676D01*
X7678Y19678D01*
X7685Y19681D01*
X7696Y19686D01*
X7700Y19687D01*
X7723Y19699D01*
X7729Y19703D01*
X7739Y19710D01*
X7742Y19712D01*
X7747Y19716D01*
X7750Y19718D01*
X7751Y19719D01*
X7753Y19720D01*
X7757Y19724D01*
X7758Y19724D01*
X7762Y19728D01*
X7763Y19730D01*
X7767Y19734D01*
X7768Y19736D01*
X7770Y19737D01*
X7770Y19739D01*
X7772Y19741D01*
X7773Y19743D01*
X7777Y19748D01*
X7785Y19764D01*
X7786Y19769D01*
X7788Y19774D01*
X7789Y19780D01*
X7790Y19785D01*
X7791Y19793D01*
X7791Y19817D01*
X7791Y19820D01*
X7789Y19828D01*
X7788Y19836D01*
X7787Y19840D01*
X7784Y19846D01*
X7783Y19851D01*
X7776Y19863D01*
X7768Y19875D01*
X7764Y19880D01*
X7762Y19883D01*
X7754Y19891D01*
X7752Y19892D01*
X7750Y19894D01*
X7748Y19895D01*
X7745Y19898D01*
X7743Y19899D01*
X7731Y19908D01*
X7719Y19914D01*
X7709Y19919D01*
X7704Y19921D01*
X7693Y19925D01*
X7690Y19926D01*
X7677Y19931D01*
X7674Y19932D01*
X7669Y19933D01*
X7664Y19934D01*
X7654Y19936D01*
X7650Y19937D01*
X7646Y19938D01*
X7639Y19940D01*
X7625Y19941D01*
X7621Y19942D01*
X7605Y19943D01*
X7593Y19945D01*
X7571Y19946D01*
X7568Y19946D01*
X7560Y19947D01*
X7518Y19946D01*
X7515Y19946D01*
X7504Y19945D01*
X7487Y19944D01*
X7484Y19943D01*
X7466Y19942D01*
X7463Y19941D01*
X7452Y19941D01*
X7450Y19940D01*
X7444Y19938D01*
X7439Y19938D01*
X7431Y19936D01*
X7408Y19933D01*
X7405Y19932D01*
X7400Y19930D01*
X7394Y19929D01*
X7391Y19928D01*
X7385Y19927D01*
X7382Y19926D01*
X7373Y19924D01*
X7369Y19923D01*
X7362Y19921D01*
X7356Y19919D01*
X7353Y19919D01*
X7346Y19917D01*
X7342Y19917D01*
X7338Y19916D01*
X7335Y19914D01*
X7334Y19912D01*
X7332Y19908D01*
X7333Y19901D01*
X7339Y19893D01*
X7342Y19885D01*
X7348Y19873D01*
X7355Y19860D01*
X7358Y19854D01*
X7360Y19853D01*
X7363Y19852D01*
X7369Y19853D01*
X7371Y19854D01*
X7375Y19855D01*
X7380Y19856D01*
X7385Y19857D01*
X7402Y19861D01*
X7408Y19862D01*
X7411Y19863D01*
X7419Y19864D01*
X7423Y19865D01*
X7428Y19866D01*
X7438Y19869D01*
X7450Y19870D01*
X7473Y19874D01*
X7484Y19875D01*
X7503Y19877D01*
X7524Y19878D01*
X7563Y19879D01*
X7566Y19878D01*
X7578Y19879D01*
X7594Y19878D01*
X7603Y19877D01*
X7611Y19876D01*
X7616Y19875D01*
X7619Y19875D01*
X7627Y19873D01*
X7633Y19872D01*
X7649Y19869D01*
X7654Y19867D01*
X7658Y19866D01*
X7664Y19864D01*
X7675Y19859D01*
X7683Y19856D01*
X7688Y19852D01*
X7696Y19846D01*
X7698Y19845D01*
X7699Y19844D01*
X7705Y19838D01*
X7706Y19837D01*
X7709Y19833D01*
X7710Y19832D01*
X7714Y19825D01*
X7715Y19820D01*
X7716Y19817D01*
X7717Y19806D01*
X7716Y19794D01*
X7715Y19791D01*
X7710Y19782D01*
X7708Y19779D01*
X7706Y19777D01*
X7705Y19775D01*
X7700Y19771D01*
X7699Y19770D01*
X7693Y19765D01*
X7692Y19764D01*
X7687Y19761D01*
X7685Y19760D01*
X7678Y19756D01*
X7667Y19750D01*
X7662Y19748D01*
X7654Y19745D01*
X7646Y19741D01*
X7641Y19740D01*
X7635Y19738D01*
X7619Y19733D01*
X7611Y19730D01*
X7607Y19729D01*
X7601Y19727D01*
X7597Y19726D01*
X7591Y19725D01*
X7587Y19724D01*
X7576Y19720D01*
X7572Y19719D01*
X7567Y19718D01*
X7559Y19716D01*
X7546Y19713D01*
X7540Y19711D01*
X7535Y19710D01*
X7531Y19709D01*
X7527Y19708D01*
X7523Y19707D01*
X7519Y19706D01*
X7514Y19704D01*
X7507Y19703D01*
X7501Y19701D01*
X7497Y19700D01*
X7493Y19699D01*
X7489Y19698D01*
X7483Y19697D01*
X7480Y19696D01*
X7474Y19694D01*
X7469Y19693D01*
X7466Y19692D01*
X7459Y19690D01*
X7451Y19687D01*
X7447Y19687D01*
X7437Y19683D01*
X7433Y19682D01*
X7428Y19680D01*
X7423Y19679D01*
X7411Y19674D01*
X7398Y19669D01*
X7394Y19668D01*
X7389Y19666D01*
X7383Y19663D01*
X7372Y19658D01*
X7358Y19650D01*
X7352Y19647D01*
X7335Y19636D01*
X7332Y19633D01*
X7330Y19632D01*
X7324Y19626D01*
X7323Y19625D01*
X7318Y19621D01*
X7317Y19619D01*
X7310Y19611D01*
X7309Y19610D01*
X7307Y19608D01*
X7306Y19606D01*
X7305Y19605D01*
X7304Y19603D01*
X7302Y19601D01*
X7297Y19592D01*
X7293Y19583D01*
X7292Y19579D01*
X7287Y19562D01*
X7286Y19558D01*
X7285Y19547D01*
X7286Y19521D01*
X7287Y19519D01*
X7288Y19516D01*
X7291Y19505D01*
X7292Y19501D01*
X7293Y19496D01*
X7295Y19492D01*
X7300Y19481D01*
X7301Y19479D01*
X7307Y19471D01*
X7310Y19466D01*
X7312Y19463D01*
X7315Y19461D01*
X7316Y19459D01*
X7329Y19445D01*
X7331Y19444D01*
X7334Y19441D01*
X7336Y19440D01*
X7344Y19435D01*
X7349Y19431D01*
X7356Y19428D01*
X7361Y19424D01*
X7367Y19422D01*
X7371Y19421D01*
X7381Y19416D01*
X7387Y19414D01*
X7395Y19411D01*
X7399Y19410D01*
X7404Y19407D01*
X7418Y19405D01*
X7421Y19404D01*
X7426Y19402D01*
X7433Y19401D01*
X7443Y19399D01*
X7446Y19398D01*
X7455Y19397D01*
X7467Y19395D01*
X7471Y19394D01*
X7478Y19394D01*
X7487Y19393D01*
X7494Y19392D01*
X7521Y19391D01*
X7527Y19390D01*
X7579Y19390D01*
X7582Y19391D01*
X7619Y19392D01*
X7622Y19393D01*
X7635Y19394D01*
X7636D01*
D02*
G37*
G36*
X8348Y19930D02*
X8347Y19561D01*
X8344Y19551D01*
X8343Y19547D01*
X8342Y19540D01*
X8338Y19535D01*
X8332Y19523D01*
X8329Y19520D01*
X8328Y19518D01*
X8325Y19516D01*
X8324Y19514D01*
X8322Y19512D01*
X8321Y19511D01*
X8316Y19506D01*
X8315Y19504D01*
X8313Y19503D01*
X8308Y19500D01*
X8307Y19498D01*
X8306Y19497D01*
X8300Y19493D01*
X8298Y19492D01*
X8292Y19488D01*
X8286Y19486D01*
X8272Y19479D01*
X8259Y19474D01*
X8255Y19473D01*
X8248Y19471D01*
X8241Y19469D01*
X8235Y19467D01*
X8228Y19465D01*
X8214Y19463D01*
X8211Y19462D01*
X8198Y19461D01*
X8195Y19460D01*
X8182Y19460D01*
X8179Y19459D01*
X8176Y19458D01*
X8116Y19459D01*
X8113Y19460D01*
X8105Y19460D01*
X8093Y19462D01*
X8087Y19463D01*
X8079Y19463D01*
X8071Y19465D01*
X8067Y19466D01*
X8063Y19467D01*
X8055Y19470D01*
X8048Y19471D01*
X8043Y19473D01*
X8036Y19476D01*
X8031Y19477D01*
X8023Y19480D01*
X8002Y19492D01*
X7997Y19495D01*
X7995Y19496D01*
X7988Y19502D01*
X7986Y19503D01*
X7984Y19504D01*
X7980Y19508D01*
X7975Y19513D01*
X7974Y19513D01*
X7973Y19515D01*
X7971Y19516D01*
X7970Y19518D01*
X7969Y19520D01*
X7968Y19521D01*
X7965Y19524D01*
X7965Y19526D01*
X7960Y19532D01*
X7960Y19534D01*
X7957Y19540D01*
X7956Y19543D01*
X7955Y19547D01*
X7953Y19553D01*
X7952Y19558D01*
X7951Y19567D01*
X7949Y19579D01*
X7949Y19932D01*
X7945Y19936D01*
X7941Y19937D01*
X7883Y19936D01*
X7879Y19933D01*
X7877Y19928D01*
X7878Y19556D01*
X7879Y19553D01*
X7880Y19544D01*
X7881Y19539D01*
X7885Y19523D01*
X7889Y19513D01*
X7891Y19509D01*
X7893Y19503D01*
X7902Y19487D01*
X7906Y19481D01*
X7907Y19479D01*
X7910Y19475D01*
X7912Y19472D01*
X7915Y19469D01*
X7916Y19468D01*
X7920Y19463D01*
X7921Y19462D01*
X7927Y19455D01*
X7929Y19455D01*
X7935Y19449D01*
X7936Y19448D01*
X7941Y19444D01*
X7942Y19443D01*
X7944Y19442D01*
X7950Y19438D01*
X7952Y19437D01*
X7960Y19431D01*
X7969Y19426D01*
X7977Y19423D01*
X7981Y19421D01*
X7994Y19415D01*
X7997Y19414D01*
X8005Y19411D01*
X8010Y19409D01*
X8014Y19407D01*
X8024Y19405D01*
X8028Y19405D01*
X8037Y19402D01*
X8047Y19399D01*
X8058Y19398D01*
X8062Y19397D01*
X8067Y19396D01*
X8071Y19395D01*
X8076Y19394D01*
X8082Y19394D01*
X8090Y19393D01*
X8095Y19392D01*
X8118Y19391D01*
X8126Y19390D01*
X8172Y19390D01*
X8174Y19391D01*
X8185Y19391D01*
X8206Y19392D01*
X8209Y19393D01*
X8221Y19394D01*
X8226Y19396D01*
X8236Y19397D01*
X8247Y19399D01*
X8252Y19399D01*
X8261Y19401D01*
X8273Y19405D01*
X8276Y19406D01*
X8282Y19407D01*
X8285Y19408D01*
X8292Y19410D01*
X8299Y19413D01*
X8302Y19414D01*
X8310Y19417D01*
X8319Y19422D01*
X8323Y19423D01*
X8331Y19428D01*
X8343Y19434D01*
X8346Y19437D01*
X8352Y19440D01*
X8365Y19450D01*
X8382Y19468D01*
X8383Y19469D01*
X8388Y19474D01*
X8389Y19476D01*
X8399Y19490D01*
X8401Y19494D01*
X8405Y19500D01*
X8408Y19509D01*
X8414Y19521D01*
X8415Y19531D01*
X8416Y19537D01*
X8417Y19541D01*
X8419Y19555D01*
X8420Y19928D01*
X8419Y19931D01*
X8418Y19933D01*
X8417Y19934D01*
X8413Y19936D01*
X8410Y19937D01*
X8353Y19936D01*
X8349Y19933D01*
X8348Y19930D01*
X8348Y19930D01*
D02*
G37*
G36*
X8531Y19890D02*
X8535Y19885D01*
X8538Y19877D01*
X8540Y19875D01*
X8541Y19872D01*
X8543Y19872D01*
X8549Y19869D01*
X8736Y19868D01*
X8740Y19864D01*
X8741Y19859D01*
X8741Y19405D01*
X8745Y19401D01*
X8751Y19399D01*
X8807Y19400D01*
X8812Y19404D01*
X8813Y19410D01*
X8814Y19863D01*
X8818Y19867D01*
X8822Y19869D01*
X9009Y19870D01*
X9015Y19874D01*
X9016Y19875D01*
X9036Y19915D01*
X9040Y19922D01*
X9042Y19924D01*
X9042Y19927D01*
X9043Y19930D01*
X9041Y19934D01*
X9039Y19935D01*
X9033Y19937D01*
X8526Y19937D01*
X8516Y19937D01*
X8513Y19934D01*
X8512Y19928D01*
X8516Y19921D01*
X8518Y19919D01*
X8519Y19915D01*
X8522Y19909D01*
X8525Y19905D01*
X8528Y19897D01*
X8531Y19891D01*
X8531Y19890D01*
D02*
G37*
G36*
X11030Y20127D02*
X11033Y20126D01*
X11035Y20124D01*
X11036Y20122D01*
X11035Y20118D01*
X11033Y20117D01*
X11008Y20067D01*
X11006Y20061D01*
X10992Y20035D01*
X10982Y20014D01*
X10976Y20003D01*
X10941Y19932D01*
X10940Y19930D01*
X10934Y19926D01*
X10863Y19925D01*
X10860Y19925D01*
X10858Y19920D01*
X10854Y19914D01*
X10652Y19510D01*
X10647Y19500D01*
X10644Y19494D01*
X10643Y19493D01*
X10639Y19484D01*
X10636Y19478D01*
X10635Y19476D01*
X10631Y19467D01*
X10626Y19459D01*
X10621Y19448D01*
X10621Y19448D01*
X10618Y19442D01*
X10615Y19435D01*
X10609Y19424D01*
X10608Y19421D01*
X10604Y19414D01*
X10603Y19412D01*
X10598Y19401D01*
X10597Y19399D01*
X10594Y19394D01*
X10589Y19391D01*
X10523Y19390D01*
X10517Y19391D01*
X10515Y19393D01*
X10514Y19397D01*
X10515Y19400D01*
X10517Y19403D01*
X10520Y19409D01*
X10609Y19586D01*
X10611Y19592D01*
X10656Y19680D01*
X10659Y19688D01*
X10680Y19729D01*
X10774Y19917D01*
X10777Y19922D01*
X10782Y19926D01*
X10857Y19927D01*
X10858Y19928D01*
X10859Y19930D01*
X10861Y19934D01*
X10951Y20115D01*
X10954Y20123D01*
X10959Y20126D01*
X10965Y20127D01*
X10967Y20128D01*
X11014Y20128D01*
X11021Y20128D01*
X11030Y20127D01*
D02*
G37*
G36*
X10648Y19995D02*
X10651Y19994D01*
X10652Y19993D01*
X10655Y19989D01*
X10654Y19986D01*
X10652Y19982D01*
X10634Y19946D01*
X10628Y19933D01*
X10626Y19932D01*
X10626Y19930D01*
X10620Y19926D01*
X10555Y19925D01*
X10552Y19926D01*
X10545Y19925D01*
X10541Y19924D01*
X10539Y19922D01*
X10536Y19917D01*
X10533Y19910D01*
X10529Y19902D01*
X10525Y19895D01*
X10521Y19887D01*
X10517Y19878D01*
X10514Y19872D01*
X10509Y19861D01*
X10505Y19855D01*
X10501Y19846D01*
X10497Y19838D01*
X10493Y19829D01*
X10489Y19822D01*
X10485Y19814D01*
X10481Y19806D01*
X10477Y19797D01*
X10473Y19791D01*
X10469Y19782D01*
X10465Y19774D01*
X10461Y19765D01*
X10457Y19758D01*
X10452Y19748D01*
X10449Y19743D01*
X10445Y19733D01*
X10441Y19726D01*
X10436Y19716D01*
X10433Y19711D01*
X10428Y19700D01*
X10425Y19694D01*
X10420Y19684D01*
X10416Y19677D01*
X10412Y19668D01*
X10409Y19662D01*
X10404Y19653D01*
X10400Y19645D01*
X10396Y19636D01*
X10393Y19630D01*
X10388Y19621D01*
X10384Y19613D01*
X10380Y19604D01*
X10377Y19598D01*
X10372Y19589D01*
X10368Y19581D01*
X10364Y19572D01*
X10360Y19564D01*
X10356Y19555D01*
X10352Y19549D01*
X10348Y19540D01*
X10344Y19532D01*
X10340Y19523D01*
X10336Y19517D01*
X10332Y19508D01*
X10328Y19500D01*
X10324Y19491D01*
X10320Y19485D01*
X10317Y19477D01*
X10313Y19470D01*
X10312Y19467D01*
X10308Y19457D01*
X10304Y19452D01*
X10299Y19441D01*
X10296Y19435D01*
X10292Y19426D01*
X10291Y19424D01*
X10290Y19423D01*
X10288Y19418D01*
X10286Y19413D01*
X10281Y19405D01*
X10280Y19404D01*
X10279Y19402D01*
X10273Y19399D01*
X10215Y19399D01*
X10204Y19399D01*
X10200Y19401D01*
X10198Y19402D01*
X10198Y19404D01*
X10195Y19406D01*
X10191Y19414D01*
X10187Y19423D01*
X10182Y19431D01*
X10179Y19438D01*
X10174Y19447D01*
X10171Y19455D01*
X10166Y19463D01*
X10163Y19470D01*
X10158Y19479D01*
X10155Y19487D01*
X10150Y19496D01*
X10148Y19502D01*
X10143Y19508D01*
X10141Y19514D01*
X10139Y19518D01*
X10135Y19525D01*
X10132Y19533D01*
X10128Y19539D01*
X10124Y19550D01*
X10122Y19552D01*
X10121Y19553D01*
X10120Y19555D01*
X10116Y19565D01*
X10112Y19571D01*
X10110Y19575D01*
X10107Y19583D01*
X10106Y19584D01*
X10104Y19587D01*
X10101Y19595D01*
X10099Y19599D01*
X10098Y19600D01*
X10097Y19602D01*
X10095Y19603D01*
X10093Y19609D01*
X10091Y19615D01*
X10090Y19616D01*
X10088Y19619D01*
X10086Y19624D01*
X10084Y19628D01*
X10082Y19632D01*
X10081Y19634D01*
X10079Y19635D01*
X10078Y19640D01*
X10077Y19644D01*
X10073Y19649D01*
X10070Y19654D01*
X10069Y19657D01*
X10067Y19663D01*
X10066Y19664D01*
X10065Y19666D01*
X10064Y19667D01*
X10061Y19673D01*
X10058Y19680D01*
X10056Y19682D01*
X10054Y19687D01*
X10052Y19692D01*
X10050Y19696D01*
X10049Y19698D01*
X10048Y19699D01*
X10045Y19705D01*
X10044Y19709D01*
X10041Y19713D01*
X10039Y19716D01*
X10037Y19721D01*
X10035Y19726D01*
X10035Y19727D01*
X10030Y19733D01*
X10029Y19737D01*
X10028Y19741D01*
X10025Y19745D01*
X10022Y19751D01*
X10018Y19760D01*
X10013Y19768D01*
X10009Y19777D01*
X10006Y19783D01*
X10001Y19794D01*
X9998Y19800D01*
X9993Y19809D01*
X9990Y19815D01*
X9985Y19826D01*
X9982Y19832D01*
X9977Y19841D01*
X9973Y19848D01*
X9969Y19858D01*
X9966Y19864D01*
X9961Y19873D01*
X9957Y19880D01*
X9953Y19890D01*
X9950Y19894D01*
X9948Y19900D01*
X9946Y19904D01*
X9942Y19909D01*
X9940Y19917D01*
X9937Y19921D01*
X9934Y19926D01*
X9933Y19931D01*
X9934Y19935D01*
X9936Y19936D01*
X10003Y19937D01*
X10009Y19936D01*
X10012Y19933D01*
X10017Y19924D01*
X10021Y19917D01*
X10025Y19907D01*
X10029Y19901D01*
X10033Y19892D01*
X10037Y19885D01*
X10041Y19875D01*
X10045Y19869D01*
X10049Y19860D01*
X10053Y19853D01*
X10057Y19843D01*
X10061Y19836D01*
X10065Y19828D01*
X10069Y19821D01*
X10073Y19811D01*
X10077Y19804D01*
X10081Y19796D01*
X10085Y19789D01*
X10089Y19779D01*
X10092Y19775D01*
X10094Y19769D01*
X10096Y19765D01*
X10101Y19758D01*
X10103Y19750D01*
X10108Y19744D01*
X10109Y19740D01*
X10113Y19732D01*
X10118Y19723D01*
X10121Y19716D01*
X10126Y19706D01*
X10128Y19701D01*
X10132Y19694D01*
X10135Y19689D01*
X10137Y19684D01*
X10141Y19677D01*
X10144Y19669D01*
X10148Y19663D01*
X10150Y19659D01*
X10153Y19652D01*
X10157Y19645D01*
X10160Y19637D01*
X10164Y19632D01*
X10165Y19630D01*
X10166Y19626D01*
X10169Y19620D01*
X10175Y19609D01*
X10176Y19605D01*
X10180Y19600D01*
X10181Y19597D01*
X10184Y19589D01*
X10188Y19583D01*
X10190Y19579D01*
X10193Y19571D01*
X10199Y19560D01*
X10200Y19557D01*
X10204Y19551D01*
X10206Y19547D01*
X10209Y19541D01*
X10212Y19536D01*
X10213Y19534D01*
X10215Y19528D01*
X10216Y19525D01*
X10220Y19519D01*
X10221Y19517D01*
X10223Y19513D01*
X10224Y19510D01*
X10227Y19505D01*
X10230Y19500D01*
X10231Y19496D01*
X10232Y19493D01*
X10234Y19491D01*
X10238Y19490D01*
X10241Y19491D01*
X10242Y19492D01*
X10246Y19500D01*
X10250Y19507D01*
X10255Y19516D01*
X10257Y19522D01*
X10263Y19533D01*
X10266Y19539D01*
X10271Y19548D01*
X10273Y19554D01*
X10278Y19563D01*
X10282Y19571D01*
X10287Y19580D01*
X10288Y19584D01*
X10303Y19612D01*
X10305Y19618D01*
X10311Y19629D01*
X10313Y19633D01*
X10327Y19661D01*
X10329Y19665D01*
X10351Y19710D01*
X10353Y19714D01*
X10367Y19742D01*
X10369Y19746D01*
X10375Y19757D01*
X10378Y19763D01*
X10381Y19768D01*
X10408Y19822D01*
X10409Y19827D01*
X10415Y19838D01*
X10417Y19842D01*
X10447Y19901D01*
Y19902D01*
X10450Y19907D01*
X10456Y19918D01*
X10457Y19922D01*
X10458Y19924D01*
X10462Y19929D01*
X10462Y19931D01*
X10464Y19933D01*
X10469Y19936D01*
X10515Y19937D01*
X10544Y19936D01*
X10548Y19938D01*
X10550Y19941D01*
X10568Y19977D01*
X10573Y19986D01*
X10575Y19989D01*
X10576Y19991D01*
X10578Y19993D01*
X10584Y19996D01*
X10592Y19996D01*
X10642Y19996D01*
X10648Y19995D01*
D02*
G37*
G36*
X11021Y19794D02*
X11025Y19790D01*
X11024Y19784D01*
X11022Y19778D01*
X10964Y19664D01*
X10962Y19662D01*
X10956Y19659D01*
X10913Y19658D01*
X10887Y19659D01*
X10883Y19658D01*
X10779Y19450D01*
X10779Y19450D01*
X10752Y19394D01*
X10746Y19391D01*
X10681Y19390D01*
X10676Y19391D01*
X10673Y19394D01*
X10672Y19397D01*
X10674Y19403D01*
X10679Y19410D01*
X10781Y19616D01*
X10800Y19654D01*
X10802Y19656D01*
X10807Y19660D01*
X10881Y19661D01*
X10882Y19662D01*
X10884Y19666D01*
X10945Y19788D01*
X10949Y19792D01*
X10953Y19794D01*
X11018Y19795D01*
X11021Y19794D01*
D02*
G37*
G36*
X9812Y19936D02*
X9816Y19935D01*
X9818Y19933D01*
X9818Y19931D01*
X9819Y19928D01*
X9819Y19919D01*
X9819Y19600D01*
Y19599D01*
Y19412D01*
X9818Y19406D01*
X9818Y19403D01*
X9814Y19400D01*
X9757Y19399D01*
X9750Y19401D01*
X9747Y19405D01*
X9746Y19927D01*
X9748Y19933D01*
X9752Y19936D01*
X9806Y19937D01*
X9812Y19936D01*
D02*
G37*
G36*
X9625Y19935D02*
X9628Y19931D01*
X9628Y19927D01*
X9624Y19920D01*
X9601Y19874D01*
X9596Y19870D01*
X9340Y19869D01*
X9338Y19868D01*
X9298Y19867D01*
X9294Y19867D01*
X9283Y19865D01*
X9272Y19864D01*
X9265Y19864D01*
X9258Y19863D01*
X9249Y19862D01*
X9241Y19861D01*
X9235Y19859D01*
X9224Y19856D01*
X9218Y19854D01*
X9214Y19853D01*
X9202Y19847D01*
X9195Y19843D01*
X9193Y19842D01*
X9188Y19837D01*
X9187Y19836D01*
X9184Y19833D01*
X9183Y19832D01*
X9181Y19830D01*
X9180Y19828D01*
X9178Y19826D01*
X9174Y19820D01*
X9173Y19819D01*
X9169Y19806D01*
X9167Y19800D01*
X9166Y19796D01*
X9165Y19794D01*
X9164Y19753D01*
X9165Y19745D01*
X9166Y19742D01*
X9168Y19736D01*
X9171Y19725D01*
X9174Y19719D01*
X9179Y19711D01*
X9180Y19709D01*
X9192Y19698D01*
X9193Y19697D01*
X9195Y19695D01*
X9206Y19689D01*
X9211Y19687D01*
X9217Y19684D01*
X9222Y19683D01*
X9228Y19680D01*
X9232Y19679D01*
X9237Y19679D01*
X9250Y19676D01*
X9255Y19675D01*
X9267Y19674D01*
X9270Y19673D01*
X9291Y19672D01*
X9293Y19671D01*
X9605Y19671D01*
X9610Y19669D01*
X9612Y19665D01*
X9613Y19410D01*
X9612Y19406D01*
X9612Y19404D01*
X9611Y19402D01*
X9605Y19399D01*
X9596Y19399D01*
X9555Y19399D01*
X9552Y19400D01*
X9546Y19401D01*
X9542Y19405D01*
X9541Y19590D01*
X9538Y19596D01*
X9538Y19598D01*
X9534Y19600D01*
X9310Y19600D01*
X9303Y19601D01*
X9288Y19603D01*
X9277Y19602D01*
X9273Y19600D01*
X9272Y19599D01*
X9269Y19596D01*
X9176Y19410D01*
X9173Y19405D01*
X9172Y19404D01*
X9169Y19402D01*
X9165Y19400D01*
X9162Y19399D01*
X9109Y19399D01*
X9098Y19399D01*
X9094Y19401D01*
X9093Y19403D01*
X9092Y19406D01*
X9179Y19580D01*
X9183Y19590D01*
X9183Y19590D01*
X9193Y19608D01*
X9193Y19612D01*
X9193Y19616D01*
X9190Y19619D01*
X9186Y19622D01*
X9182Y19624D01*
X9164Y19632D01*
X9158Y19635D01*
X9156Y19636D01*
X9150Y19640D01*
X9145Y19644D01*
X9140Y19649D01*
X9138Y19650D01*
X9125Y19663D01*
X9124Y19664D01*
X9120Y19668D01*
X9115Y19676D01*
X9114Y19678D01*
X9112Y19679D01*
X9105Y19694D01*
X9104Y19696D01*
X9103Y19698D01*
X9099Y19708D01*
X9098Y19711D01*
X9096Y19717D01*
X9095Y19722D01*
X9094Y19725D01*
X9093Y19729D01*
X9092Y19737D01*
X9091Y19740D01*
X9090Y19777D01*
X9091Y19795D01*
X9092Y19801D01*
X9094Y19811D01*
X9097Y19822D01*
X9098Y19826D01*
X9100Y19832D01*
X9100Y19835D01*
X9111Y19857D01*
X9116Y19865D01*
X9117Y19867D01*
X9121Y19870D01*
X9121Y19872D01*
X9123Y19874D01*
X9124Y19875D01*
X9127Y19878D01*
X9129Y19881D01*
X9130Y19882D01*
X9135Y19886D01*
X9137Y19888D01*
X9154Y19900D01*
X9160Y19904D01*
X9171Y19909D01*
X9183Y19915D01*
X9186Y19917D01*
X9192Y19919D01*
X9195Y19919D01*
X9203Y19922D01*
X9208Y19924D01*
X9211Y19925D01*
X9218Y19926D01*
X9221Y19927D01*
X9227Y19928D01*
X9232Y19929D01*
X9235Y19930D01*
X9239Y19931D01*
X9249Y19933D01*
X9256Y19933D01*
X9272Y19935D01*
X9288Y19935D01*
X9290Y19936D01*
X9621Y19937D01*
X9625Y19935D01*
D02*
G37*
G36*
X10660Y19861D02*
X10664Y19859D01*
X10667Y19855D01*
X10666Y19852D01*
X10513Y19545D01*
X10510Y19539D01*
X10497Y19513D01*
X10494Y19505D01*
X10481Y19481D01*
X10478Y19473D01*
X10473Y19464D01*
X10470Y19458D01*
X10464Y19447D01*
X10462Y19442D01*
X10457Y19432D01*
X10453Y19425D01*
X10448Y19415D01*
X10446Y19410D01*
X10441Y19400D01*
X10438Y19395D01*
X10433Y19391D01*
X10379Y19390D01*
X10364D01*
X10359Y19391D01*
X10357Y19396D01*
X10362Y19405D01*
X10367Y19416D01*
X10371Y19424D01*
X10375Y19431D01*
X10379Y19441D01*
X10383Y19448D01*
X10387Y19456D01*
X10391Y19463D01*
X10395Y19473D01*
X10399Y19480D01*
X10403Y19488D01*
X10408Y19497D01*
X10411Y19505D01*
X10415Y19512D01*
X10420Y19521D01*
X10424Y19529D01*
X10427Y19537D01*
X10431Y19544D01*
X10436Y19553D01*
X10440Y19561D01*
X10443Y19568D01*
X10444Y19570D01*
X10445Y19571D01*
X10448Y19579D01*
X10580Y19844D01*
X10586Y19856D01*
X10592Y19861D01*
X10656Y19861D01*
X10660Y19861D01*
D02*
G37*
D11*
X16614Y20039D02*
G03*
X16614Y20039I-1102J0D01*
G01*
X2244D02*
G03*
X2244Y20039I-1102J0D01*
G01*
Y1142D02*
G03*
X2244Y1142I-1102J0D01*
G01*
X16614D02*
G03*
X16614Y1142I-1102J0D01*
G01*
X12108Y3171D02*
X11793D01*
X11635Y3328D01*
X11793Y3486D01*
X12108D01*
X12029Y3958D02*
X12108Y3879D01*
Y3722D01*
X12029Y3643D01*
X11950D01*
X11872Y3722D01*
Y3879D01*
X11793Y3958D01*
X11714D01*
X11635Y3879D01*
Y3722D01*
X11714Y3643D01*
X12108Y4115D02*
X12029D01*
X11872Y4273D01*
X12029Y4430D01*
X12108D01*
X11872Y4273D02*
X11635D01*
X12029Y4903D02*
X12108Y4824D01*
Y4666D01*
X12029Y4588D01*
X11950D01*
X11872Y4666D01*
Y4824D01*
X11793Y4903D01*
X11714D01*
X11635Y4824D01*
Y4666D01*
X11714Y4588D01*
X5294Y4310D02*
Y4624D01*
X5530D01*
X5451Y4467D01*
Y4388D01*
X5530Y4310D01*
X5687D01*
X5766Y4388D01*
Y4546D01*
X5687Y4624D01*
X5294Y4152D02*
X5609D01*
X5766Y3995D01*
X5609Y3837D01*
X5294D01*
X4467Y5097D02*
X4782D01*
X4939Y4939D01*
X4782Y4782D01*
X4467D01*
Y4625D02*
X4939D01*
Y4388D01*
X4861Y4310D01*
X4782D01*
X4703Y4388D01*
Y4625D01*
Y4388D01*
X4625Y4310D01*
X4546D01*
X4467Y4388D01*
Y4625D01*
Y4152D02*
X4861D01*
X4939Y4074D01*
Y3916D01*
X4861Y3837D01*
X4467D01*
X4546Y3365D02*
X4467Y3444D01*
Y3601D01*
X4546Y3680D01*
X4625D01*
X4703Y3601D01*
Y3444D01*
X4782Y3365D01*
X4861D01*
X4939Y3444D01*
Y3601D01*
X4861Y3680D01*
X4467Y9546D02*
X4782D01*
X4939Y9388D01*
X4782Y9231D01*
X4467D01*
X4546Y8759D02*
X4467Y8837D01*
Y8995D01*
X4546Y9073D01*
X4861D01*
X4939Y8995D01*
Y8837D01*
X4861Y8759D01*
X4546Y8286D02*
X4467Y8365D01*
Y8522D01*
X4546Y8601D01*
X4861D01*
X4939Y8522D01*
Y8365D01*
X4861Y8286D01*
X4349Y15057D02*
X4821D01*
Y14821D01*
X4743Y14743D01*
X4664D01*
X4585Y14821D01*
Y15057D01*
Y14821D01*
X4506Y14743D01*
X4428D01*
X4349Y14821D01*
Y15057D01*
X4506Y14506D02*
Y14349D01*
X4585Y14270D01*
X4821D01*
Y14506D01*
X4743Y14585D01*
X4664Y14506D01*
Y14270D01*
X4428Y14034D02*
X4506D01*
Y14113D01*
Y13955D01*
Y14034D01*
X4743D01*
X4821Y13955D01*
Y13483D02*
Y13641D01*
X4743Y13719D01*
X4585D01*
X4506Y13641D01*
Y13483D01*
X4585Y13404D01*
X4664D01*
Y13719D01*
X4506Y13247D02*
X4821D01*
X4664D01*
X4585Y13168D01*
X4506Y13090D01*
Y13011D01*
X4821Y12775D02*
Y12617D01*
Y12696D01*
X4506D01*
Y12775D01*
Y12302D02*
Y12145D01*
X4585Y12066D01*
X4821D01*
Y12302D01*
X4743Y12381D01*
X4664Y12302D01*
Y12066D01*
X10373Y18919D02*
X10451Y18997D01*
X10609D01*
X10687Y18919D01*
Y18840D01*
X10609Y18761D01*
X10451D01*
X10373Y18683D01*
Y18604D01*
X10451Y18525D01*
X10609D01*
X10687Y18604D01*
X10136Y18525D02*
X9979D01*
X9900Y18604D01*
Y18761D01*
X9979Y18840D01*
X10136D01*
X10215Y18761D01*
Y18604D01*
X10136Y18525D01*
X9743Y18840D02*
Y18604D01*
X9664Y18525D01*
X9428D01*
Y18840D01*
X9271D02*
Y18525D01*
Y18683D01*
X9192Y18761D01*
X9113Y18840D01*
X9034D01*
X8483D02*
X8720D01*
X8798Y18761D01*
Y18604D01*
X8720Y18525D01*
X8483D01*
X8090D02*
X8247D01*
X8326Y18604D01*
Y18761D01*
X8247Y18840D01*
X8090D01*
X8011Y18761D01*
Y18683D01*
X8326D01*
X7854Y18446D02*
X7539D01*
X7381Y18997D02*
X7224D01*
X7303D01*
Y18525D01*
X7381D01*
X7224D01*
X6909D02*
X6752D01*
X6673Y18604D01*
Y18761D01*
X6752Y18840D01*
X6909D01*
X6988Y18761D01*
Y18604D01*
X6909Y18525D01*
X6516Y18997D02*
X6201D01*
X6358D01*
Y18525D01*
X15139Y4552D02*
X15339D01*
X15239D01*
Y4052D01*
X15339Y3952D01*
X15439D01*
X15539Y4052D01*
X14939Y4552D02*
X14540D01*
Y4452D01*
X14939Y4052D01*
Y3952D01*
X1714Y4434D02*
X1914D01*
X1814D01*
Y3934D01*
X1914Y3834D01*
X2014D01*
X2114Y3934D01*
X1114Y4434D02*
X1314Y4334D01*
X1514Y4134D01*
Y3934D01*
X1414Y3834D01*
X1214D01*
X1114Y3934D01*
Y4034D01*
X1214Y4134D01*
X1514D01*
X1754Y14001D02*
X1953D01*
X1853D01*
Y13501D01*
X1953Y13401D01*
X2053D01*
X2153Y13501D01*
X1554Y13901D02*
X1454Y14001D01*
X1254D01*
X1154Y13901D01*
Y13801D01*
X1254Y13701D01*
X1354D01*
X1254D01*
X1154Y13601D01*
Y13501D01*
X1254Y13401D01*
X1454D01*
X1554Y13501D01*
X1675Y9276D02*
X1875D01*
X1775D01*
Y8776D01*
X1875Y8676D01*
X1975D01*
X2075Y8776D01*
X1075Y8676D02*
X1475D01*
X1075Y9076D01*
Y9176D01*
X1175Y9276D01*
X1375D01*
X1475Y9176D01*
X7769Y5315D02*
X7835Y5250D01*
Y5118D01*
X7769Y5053D01*
X7507D01*
X7441Y5118D01*
Y5250D01*
X7507Y5315D01*
X7835Y5643D02*
Y5512D01*
X7769Y5446D01*
X7507D01*
X7441Y5512D01*
Y5643D01*
X7507Y5709D01*
X7769D01*
X7835Y5643D01*
X7441Y5840D02*
X7835D01*
X7441Y6102D01*
X7835D01*
X7441Y6233D02*
X7835D01*
X7441Y6496D01*
X7835D01*
X7441Y6627D02*
Y6758D01*
Y6693D01*
X7835D01*
X7769Y6627D01*
D12*
X13268Y2358D02*
X16968D01*
Y5906D01*
X13268Y2358D02*
Y5906D01*
X16968D01*
X3661Y12953D02*
X4134D01*
X3898Y12717D02*
Y13189D01*
Y14291D02*
Y14764D01*
X3661Y8071D02*
X4134D01*
X3898Y7835D02*
Y8307D01*
Y9409D02*
Y9882D01*
X3622Y3386D02*
X4094D01*
X3858Y3150D02*
Y3622D01*
Y4724D02*
Y5197D01*
X12717Y3071D02*
Y3543D01*
Y4646D02*
Y5118D01*
X12480Y4882D02*
X12953D01*
X-315Y7047D02*
X3386D01*
Y10594D01*
X-315Y7047D02*
Y10594D01*
X3386D01*
X-236Y11890D02*
X3465D01*
Y15437D01*
X-236Y11890D02*
Y15437D01*
X3465D01*
X-315Y2441D02*
X3386D01*
Y5988D01*
X-315Y2441D02*
Y5988D01*
X3386D01*
X7232Y4854D02*
Y6854D01*
X6232D02*
X7232D01*
X6232Y4854D02*
Y6854D01*
Y4854D02*
X7232D01*
M02*
