G04*
G04 #@! TF.GenerationSoftware,Altium Limited,Altium Designer,25.8.1 (18)*
G04*
G04 Layer_Color=8388736*
%FSLAX24Y24*%
%MOIN*%
G70*
G04*
G04 #@! TF.SameCoordinates,5D68D8FE-4F7F-4267-B10C-0524520F2B72*
G04*
G04*
G04 #@! TF.FilePolarity,Negative*
G04*
G01*
G75*
G04:AMPARAMS|DCode=28|XSize=60.6mil|YSize=22.3mil|CornerRadius=11.1mil|HoleSize=0mil|Usage=FLASHONLY|Rotation=180.000|XOffset=0mil|YOffset=0mil|HoleType=Round|Shape=RoundedRectangle|*
%AMROUNDEDRECTD28*
21,1,0.0606,0.0000,0,0,180.0*
21,1,0.0383,0.0223,0,0,180.0*
1,1,0.0223,-0.0192,0.0000*
1,1,0.0223,0.0192,0.0000*
1,1,0.0223,0.0192,0.0000*
1,1,0.0223,-0.0192,0.0000*
%
%ADD28ROUNDEDRECTD28*%
G04:AMPARAMS|DCode=34|XSize=64.5mil|YSize=24.3mil|CornerRadius=12.2mil|HoleSize=0mil|Usage=FLASHONLY|Rotation=0.000|XOffset=0mil|YOffset=0mil|HoleType=Round|Shape=RoundedRectangle|*
%AMROUNDEDRECTD34*
21,1,0.0645,0.0000,0,0,0.0*
21,1,0.0402,0.0243,0,0,0.0*
1,1,0.0243,0.0201,0.0000*
1,1,0.0243,-0.0201,0.0000*
1,1,0.0243,-0.0201,0.0000*
1,1,0.0243,0.0201,0.0000*
%
%ADD34ROUNDEDRECTD34*%
%ADD37R,0.0606X0.0223*%
%ADD38R,0.0645X0.0243*%
%ADD42R,0.0631X0.0552*%
%ADD43R,0.0552X0.0631*%
%ADD44R,0.0710X0.0867*%
%ADD45R,0.0631X0.0552*%
%ADD46R,0.0552X0.0631*%
G04:AMPARAMS|DCode=47|XSize=68.6mil|YSize=30.3mil|CornerRadius=15.1mil|HoleSize=0mil|Usage=FLASHONLY|Rotation=180.000|XOffset=0mil|YOffset=0mil|HoleType=Round|Shape=RoundedRectangle|*
%AMROUNDEDRECTD47*
21,1,0.0686,0.0000,0,0,180.0*
21,1,0.0383,0.0303,0,0,180.0*
1,1,0.0303,-0.0192,0.0000*
1,1,0.0303,0.0192,0.0000*
1,1,0.0303,0.0192,0.0000*
1,1,0.0303,-0.0192,0.0000*
%
%ADD47ROUNDEDRECTD47*%
%ADD48R,0.0316X0.0513*%
%ADD49R,0.1457X0.0984*%
%ADD50R,0.1260X0.0984*%
%ADD51R,0.0474X0.0671*%
%ADD52R,0.0671X0.0474*%
%ADD53R,0.0552X0.0671*%
%ADD54R,0.0671X0.0552*%
%ADD55R,0.0513X0.0316*%
%ADD56R,0.0686X0.0303*%
%ADD57R,0.0560X0.0552*%
%ADD58R,0.1458X0.2324*%
%ADD59R,0.0946X0.0946*%
%ADD60C,0.0946*%
%ADD61C,0.0080*%
%ADD62R,0.0828X0.0828*%
%ADD63C,0.0828*%
D28*
X11423Y10610D02*
D03*
Y11358D02*
D03*
Y10984D02*
D03*
X10466Y10610D02*
D03*
Y10984D02*
D03*
D34*
X2704Y16713D02*
D03*
Y16339D02*
D03*
X3622D02*
D03*
Y17087D02*
D03*
D37*
X10466Y11358D02*
D03*
D38*
X2704Y17087D02*
D03*
D42*
X5630Y12087D02*
D03*
X5709Y17913D02*
D03*
X4803D02*
D03*
Y17126D02*
D03*
X5709D02*
D03*
X5630Y12874D02*
D03*
D43*
X866Y15433D02*
D03*
Y14528D02*
D03*
X14331Y8228D02*
D03*
Y8976D02*
D03*
X11732Y12205D02*
D03*
X12520D02*
D03*
X15118Y8976D02*
D03*
Y8228D02*
D03*
X1654Y14528D02*
D03*
Y15433D02*
D03*
D44*
X11654Y9449D02*
D03*
X10472D02*
D03*
D45*
X12165Y2756D02*
D03*
X4606Y15276D02*
D03*
X3622Y19055D02*
D03*
X9252Y10197D02*
D03*
Y10984D02*
D03*
Y9213D02*
D03*
Y8425D02*
D03*
X3622Y18268D02*
D03*
X10079Y18228D02*
D03*
Y19016D02*
D03*
X6535Y12087D02*
D03*
Y12874D02*
D03*
X4606Y12874D02*
D03*
Y13661D02*
D03*
Y14488D02*
D03*
X12165Y3543D02*
D03*
D46*
X11102Y2756D02*
D03*
X9134D02*
D03*
X8740Y15394D02*
D03*
X10669D02*
D03*
X9094Y6535D02*
D03*
X8307D02*
D03*
X15118Y7441D02*
D03*
X14331D02*
D03*
X9528Y13740D02*
D03*
X8740D02*
D03*
Y14567D02*
D03*
X9528D02*
D03*
X11457Y15394D02*
D03*
X9528D02*
D03*
X8346Y2756D02*
D03*
X10315D02*
D03*
D47*
X6685Y14134D02*
D03*
Y14508D02*
D03*
X5630D02*
D03*
Y13760D02*
D03*
D48*
X7472Y10121D02*
D03*
X7102Y10981D02*
D03*
X6732Y10121D02*
D03*
D49*
X5276Y5354D02*
D03*
Y10039D02*
D03*
Y8071D02*
D03*
Y3386D02*
D03*
D50*
X7126Y19016D02*
D03*
Y17047D02*
D03*
D51*
X12559Y7441D02*
D03*
X13346D02*
D03*
X9528Y4055D02*
D03*
X10315D02*
D03*
D52*
X10197Y7638D02*
D03*
X12165Y5236D02*
D03*
X10197Y8425D02*
D03*
X11102Y19016D02*
D03*
Y18228D02*
D03*
X12165Y4449D02*
D03*
X12677Y15394D02*
D03*
Y14606D02*
D03*
D53*
X10801Y5236D02*
D03*
X13844Y6024D02*
D03*
X12073Y17244D02*
D03*
X13360D02*
D03*
X12073Y18110D02*
D03*
X13360D02*
D03*
X15132Y6024D02*
D03*
X9514Y5236D02*
D03*
D54*
X15236Y4856D02*
D03*
Y3569D02*
D03*
D55*
X6617Y8071D02*
D03*
X7477Y8441D02*
D03*
Y7701D02*
D03*
X11532Y13228D02*
D03*
X10672Y12858D02*
D03*
Y13598D02*
D03*
X6617Y3386D02*
D03*
X7477Y3756D02*
D03*
Y3016D02*
D03*
X5830Y15433D02*
D03*
X6690Y15803D02*
D03*
Y15063D02*
D03*
D56*
X6685Y13760D02*
D03*
D57*
X8307Y7715D02*
D03*
Y9215D02*
D03*
X8346Y3756D02*
D03*
Y5256D02*
D03*
D58*
X13858Y11378D02*
D03*
X15709D02*
D03*
D59*
X13819Y4882D02*
D03*
X2835Y8071D02*
D03*
X2913Y12913D02*
D03*
X2835Y3465D02*
D03*
D60*
X13819Y3382D02*
D03*
X2835Y4965D02*
D03*
X2913Y14413D02*
D03*
X2835Y9571D02*
D03*
D61*
X15512Y20039D02*
D03*
X1142D02*
D03*
Y1142D02*
D03*
X15512D02*
D03*
D62*
X6732Y5354D02*
D03*
D63*
Y6354D02*
D03*
M02*
