G04*
G04 #@! TF.GenerationSoftware,Altium Limited,Altium Designer,25.8.1 (18)*
G04*
G04 Layer_Color=1265191*
%FSLAX24Y24*%
%MOIN*%
G70*
G04*
G04 #@! TF.SameCoordinates,5D68D8FE-4F7F-4267-B10C-0524520F2B72*
G04*
G04*
G04 #@! TF.FilePolarity,Positive*
G04*
G01*
G75*
%ADD11C,0.0100*%
%ADD16C,0.0118*%
G36*
X-633Y11974D02*
X-893D01*
X-894D01*
X-896D01*
X-900D01*
X-904D01*
X-916Y11973D01*
X-930Y11972D01*
X-944Y11971D01*
X-959Y11969D01*
X-972Y11966D01*
X-976Y11963D01*
X-981Y11961D01*
X-982Y11960D01*
X-985Y11958D01*
X-989Y11954D01*
X-994Y11949D01*
X-999Y11941D01*
X-1004Y11932D01*
X-1006Y11921D01*
X-1007Y11909D01*
Y11905D01*
X-1006Y11900D01*
X-1005Y11894D01*
X-1004Y11887D01*
X-1001Y11878D01*
X-997Y11869D01*
X-992Y11861D01*
X-991Y11860D01*
X-989Y11858D01*
X-985Y11854D01*
X-980Y11849D01*
X-973Y11844D01*
X-966Y11838D01*
X-957Y11834D01*
X-946Y11829D01*
X-944D01*
X-941Y11827D01*
X-933Y11827D01*
X-923Y11825D01*
X-910Y11823D01*
X-893Y11822D01*
X-874Y11820D01*
X-851D01*
X-633D01*
Y11699D01*
X-882D01*
X-883D01*
X-885D01*
X-889D01*
X-893D01*
X-904D01*
X-918Y11698D01*
X-932Y11697D01*
X-946Y11696D01*
X-959Y11694D01*
X-964Y11693D01*
X-968Y11692D01*
X-969D01*
X-972Y11691D01*
X-975Y11689D01*
X-979Y11687D01*
X-989Y11681D01*
X-994Y11676D01*
X-997Y11672D01*
X-998Y11671D01*
X-999Y11669D01*
X-1001Y11666D01*
X-1003Y11663D01*
X-1004Y11657D01*
X-1005Y11651D01*
X-1007Y11643D01*
Y11631D01*
X-1006Y11625D01*
X-1005Y11619D01*
X-1004Y11611D01*
X-1001Y11602D01*
X-997Y11594D01*
X-992Y11585D01*
X-991Y11584D01*
X-989Y11581D01*
X-985Y11578D01*
X-981Y11573D01*
X-974Y11568D01*
X-967Y11562D01*
X-958Y11558D01*
X-948Y11553D01*
X-947D01*
X-943Y11551D01*
X-935Y11551D01*
X-926Y11549D01*
X-912Y11547D01*
X-897Y11546D01*
X-877Y11544D01*
X-854D01*
X-633D01*
Y11423D01*
X-1090D01*
Y11534D01*
X-1027D01*
X-1028Y11535D01*
X-1030Y11537D01*
X-1034Y11540D01*
X-1039Y11545D01*
X-1045Y11551D01*
X-1050Y11557D01*
X-1057Y11565D01*
X-1064Y11574D01*
X-1070Y11584D01*
X-1077Y11595D01*
X-1089Y11619D01*
X-1094Y11632D01*
X-1097Y11646D01*
X-1099Y11661D01*
X-1100Y11676D01*
Y11684D01*
X-1099Y11692D01*
X-1098Y11702D01*
X-1096Y11714D01*
X-1093Y11726D01*
X-1088Y11739D01*
X-1082Y11752D01*
X-1081Y11754D01*
X-1078Y11757D01*
X-1075Y11764D01*
X-1068Y11771D01*
X-1060Y11779D01*
X-1051Y11788D01*
X-1039Y11797D01*
X-1026Y11806D01*
X-1028Y11807D01*
X-1033Y11811D01*
X-1039Y11817D01*
X-1047Y11825D01*
X-1056Y11835D01*
X-1065Y11846D01*
X-1075Y11858D01*
X-1082Y11870D01*
X-1083Y11872D01*
X-1085Y11877D01*
X-1087Y11884D01*
X-1091Y11893D01*
X-1095Y11904D01*
X-1097Y11917D01*
X-1099Y11930D01*
X-1100Y11945D01*
Y11953D01*
X-1099Y11962D01*
X-1097Y11974D01*
X-1095Y11988D01*
X-1091Y12001D01*
X-1086Y12016D01*
X-1079Y12030D01*
X-1078Y12032D01*
X-1076Y12035D01*
X-1071Y12042D01*
X-1065Y12050D01*
X-1055Y12058D01*
X-1045Y12067D01*
X-1034Y12075D01*
X-1019Y12083D01*
X-1018Y12083D01*
X-1014Y12084D01*
X-1006Y12086D01*
X-996Y12089D01*
X-984Y12092D01*
X-967Y12093D01*
X-947Y12094D01*
X-924Y12095D01*
X-633D01*
Y11974D01*
D02*
G37*
G36*
Y11191D02*
X-893D01*
X-894D01*
X-896D01*
X-900D01*
X-904D01*
X-916Y11190D01*
X-930Y11189D01*
X-944Y11188D01*
X-959Y11185D01*
X-972Y11182D01*
X-976Y11180D01*
X-981Y11178D01*
X-982Y11177D01*
X-985Y11174D01*
X-989Y11171D01*
X-994Y11165D01*
X-999Y11158D01*
X-1004Y11149D01*
X-1006Y11138D01*
X-1007Y11126D01*
Y11121D01*
X-1006Y11117D01*
X-1005Y11110D01*
X-1004Y11103D01*
X-1001Y11095D01*
X-997Y11086D01*
X-992Y11078D01*
X-991Y11077D01*
X-989Y11074D01*
X-985Y11070D01*
X-980Y11066D01*
X-973Y11060D01*
X-966Y11055D01*
X-957Y11050D01*
X-946Y11046D01*
X-944D01*
X-941Y11044D01*
X-933Y11043D01*
X-923Y11041D01*
X-910Y11039D01*
X-893Y11039D01*
X-874Y11037D01*
X-851D01*
X-633D01*
Y10916D01*
X-882D01*
X-883D01*
X-885D01*
X-889D01*
X-893D01*
X-904D01*
X-918Y10915D01*
X-932Y10914D01*
X-946Y10913D01*
X-959Y10911D01*
X-964Y10909D01*
X-968Y10908D01*
X-969D01*
X-972Y10907D01*
X-975Y10906D01*
X-979Y10904D01*
X-989Y10897D01*
X-994Y10893D01*
X-997Y10888D01*
X-998Y10887D01*
X-999Y10885D01*
X-1001Y10883D01*
X-1003Y10879D01*
X-1004Y10874D01*
X-1005Y10867D01*
X-1007Y10860D01*
Y10847D01*
X-1006Y10842D01*
X-1005Y10835D01*
X-1004Y10827D01*
X-1001Y10819D01*
X-997Y10811D01*
X-992Y10802D01*
X-991Y10801D01*
X-989Y10798D01*
X-985Y10794D01*
X-981Y10790D01*
X-974Y10784D01*
X-967Y10779D01*
X-958Y10774D01*
X-948Y10770D01*
X-947D01*
X-943Y10768D01*
X-935Y10767D01*
X-926Y10765D01*
X-912Y10763D01*
X-897Y10762D01*
X-877Y10761D01*
X-854D01*
X-633D01*
Y10639D01*
X-1090D01*
Y10751D01*
X-1027D01*
X-1028Y10752D01*
X-1030Y10753D01*
X-1034Y10757D01*
X-1039Y10762D01*
X-1045Y10767D01*
X-1050Y10773D01*
X-1057Y10782D01*
X-1064Y10791D01*
X-1070Y10801D01*
X-1077Y10812D01*
X-1089Y10835D01*
X-1094Y10849D01*
X-1097Y10863D01*
X-1099Y10877D01*
X-1100Y10893D01*
Y10900D01*
X-1099Y10908D01*
X-1098Y10918D01*
X-1096Y10930D01*
X-1093Y10943D01*
X-1088Y10956D01*
X-1082Y10968D01*
X-1081Y10970D01*
X-1078Y10974D01*
X-1075Y10980D01*
X-1068Y10987D01*
X-1060Y10996D01*
X-1051Y11005D01*
X-1039Y11014D01*
X-1026Y11022D01*
X-1028Y11024D01*
X-1033Y11028D01*
X-1039Y11033D01*
X-1047Y11041D01*
X-1056Y11051D01*
X-1065Y11062D01*
X-1075Y11074D01*
X-1082Y11087D01*
X-1083Y11089D01*
X-1085Y11093D01*
X-1087Y11100D01*
X-1091Y11110D01*
X-1095Y11121D01*
X-1097Y11133D01*
X-1099Y11147D01*
X-1100Y11162D01*
Y11170D01*
X-1099Y11179D01*
X-1097Y11191D01*
X-1095Y11204D01*
X-1091Y11218D01*
X-1086Y11233D01*
X-1079Y11246D01*
X-1078Y11248D01*
X-1076Y11252D01*
X-1071Y11258D01*
X-1065Y11266D01*
X-1055Y11274D01*
X-1045Y11284D01*
X-1034Y11292D01*
X-1019Y11299D01*
X-1018Y11300D01*
X-1014Y11301D01*
X-1006Y11303D01*
X-996Y11305D01*
X-984Y11308D01*
X-967Y11310D01*
X-947Y11311D01*
X-924Y11312D01*
X-633D01*
Y11191D01*
D02*
G37*
G36*
X-914Y10540D02*
X-900Y10539D01*
X-882Y10537D01*
X-864Y10536D01*
X-844Y10534D01*
X-823Y10530D01*
X-801Y10526D01*
X-780Y10521D01*
X-759Y10515D01*
X-738Y10508D01*
X-719Y10499D01*
X-701Y10490D01*
X-686Y10479D01*
X-685Y10478D01*
X-683Y10476D01*
X-679Y10474D01*
X-676Y10470D01*
X-671Y10465D01*
X-666Y10458D01*
X-659Y10450D01*
X-654Y10442D01*
X-647Y10432D01*
X-641Y10422D01*
X-635Y10410D01*
X-631Y10397D01*
X-627Y10384D01*
X-624Y10368D01*
X-622Y10353D01*
X-621Y10336D01*
Y10332D01*
X-622Y10327D01*
Y10321D01*
X-623Y10313D01*
X-625Y10304D01*
X-626Y10294D01*
X-630Y10283D01*
X-634Y10271D01*
X-638Y10260D01*
X-644Y10247D01*
X-651Y10235D01*
X-658Y10222D01*
X-668Y10210D01*
X-678Y10199D01*
X-691Y10188D01*
X-692Y10187D01*
X-695Y10185D01*
X-699Y10182D01*
X-705Y10179D01*
X-713Y10175D01*
X-723Y10170D01*
X-736Y10165D01*
X-749Y10160D01*
X-766Y10155D01*
X-784Y10149D01*
X-805Y10145D01*
X-828Y10141D01*
X-853Y10138D01*
X-881Y10135D01*
X-912Y10133D01*
X-944Y10132D01*
X-945D01*
X-946D01*
X-949D01*
X-953D01*
X-962D01*
X-973Y10133D01*
X-988Y10134D01*
X-1005Y10136D01*
X-1024Y10138D01*
X-1044Y10139D01*
X-1065Y10143D01*
X-1086Y10147D01*
X-1107Y10152D01*
X-1128Y10158D01*
X-1148Y10165D01*
X-1168Y10173D01*
X-1186Y10182D01*
X-1201Y10193D01*
X-1202Y10194D01*
X-1204Y10196D01*
X-1208Y10199D01*
X-1211Y10203D01*
X-1217Y10208D01*
X-1222Y10214D01*
X-1228Y10222D01*
X-1234Y10230D01*
X-1240Y10240D01*
X-1246Y10251D01*
X-1251Y10262D01*
X-1257Y10275D01*
X-1260Y10289D01*
X-1264Y10304D01*
X-1266Y10320D01*
X-1267Y10336D01*
Y10345D01*
X-1266Y10352D01*
X-1265Y10359D01*
X-1263Y10368D01*
X-1261Y10377D01*
X-1259Y10388D01*
X-1255Y10400D01*
X-1250Y10411D01*
X-1246Y10423D01*
X-1239Y10435D01*
X-1231Y10446D01*
X-1223Y10458D01*
X-1213Y10469D01*
X-1201Y10479D01*
X-1200Y10480D01*
X-1198Y10482D01*
X-1193Y10485D01*
X-1187Y10489D01*
X-1178Y10494D01*
X-1167Y10499D01*
X-1155Y10505D01*
X-1139Y10510D01*
X-1123Y10516D01*
X-1104Y10522D01*
X-1083Y10527D01*
X-1059Y10531D01*
X-1034Y10536D01*
X-1006Y10538D01*
X-976Y10540D01*
X-943Y10541D01*
X-943D01*
X-942D01*
X-939D01*
X-935D01*
X-926D01*
X-914Y10540D01*
D02*
G37*
G36*
X-637Y10030D02*
X-625Y10029D01*
X-611Y10027D01*
X-597Y10025D01*
X-585Y10022D01*
X-584D01*
X-580Y10020D01*
X-574Y10017D01*
X-567Y10015D01*
X-558Y10009D01*
X-549Y10004D01*
X-540Y9996D01*
X-531Y9987D01*
X-530Y9986D01*
X-527Y9983D01*
X-523Y9977D01*
X-517Y9970D01*
X-511Y9961D01*
X-504Y9950D01*
X-498Y9937D01*
X-492Y9923D01*
X-543Y9900D01*
X-543Y9902D01*
X-545Y9906D01*
X-548Y9913D01*
X-552Y9920D01*
X-556Y9929D01*
X-563Y9937D01*
X-569Y9945D01*
X-576Y9952D01*
X-577Y9953D01*
X-580Y9954D01*
X-584Y9957D01*
X-591Y9960D01*
X-599Y9964D01*
X-609Y9966D01*
X-620Y9968D01*
X-633Y9969D01*
Y9910D01*
X-754D01*
Y10031D01*
X-667D01*
X-666D01*
X-666D01*
X-663D01*
X-659D01*
X-649D01*
X-637Y10030D01*
D02*
G37*
G36*
X-803Y9810D02*
X-796Y9809D01*
X-787Y9808D01*
X-778Y9806D01*
X-768Y9803D01*
X-745Y9797D01*
X-733Y9792D01*
X-721Y9787D01*
X-709Y9780D01*
X-697Y9772D01*
X-687Y9764D01*
X-676Y9754D01*
X-675Y9753D01*
X-673Y9751D01*
X-670Y9749D01*
X-667Y9744D01*
X-663Y9739D01*
X-658Y9731D01*
X-654Y9724D01*
X-648Y9715D01*
X-643Y9705D01*
X-638Y9693D01*
X-634Y9681D01*
X-629Y9668D01*
X-626Y9654D01*
X-624Y9638D01*
X-622Y9623D01*
X-621Y9606D01*
Y9597D01*
X-622Y9591D01*
X-623Y9584D01*
X-624Y9575D01*
X-625Y9566D01*
X-626Y9555D01*
X-632Y9533D01*
X-640Y9509D01*
X-645Y9497D01*
X-651Y9485D01*
X-657Y9473D01*
X-666Y9462D01*
X-666Y9462D01*
X-668Y9460D01*
X-671Y9456D01*
X-676Y9452D01*
X-681Y9447D01*
X-687Y9442D01*
X-696Y9435D01*
X-704Y9429D01*
X-714Y9422D01*
X-725Y9416D01*
X-737Y9411D01*
X-750Y9406D01*
X-764Y9401D01*
X-779Y9398D01*
X-795Y9396D01*
X-812Y9395D01*
X-813D01*
X-815D01*
X-818D01*
X-821D01*
X-831Y9396D01*
X-843Y9398D01*
X-858Y9401D01*
X-874Y9405D01*
X-891Y9411D01*
X-907Y9420D01*
X-908D01*
X-909Y9421D01*
X-914Y9424D01*
X-922Y9431D01*
X-932Y9440D01*
X-943Y9451D01*
X-953Y9464D01*
X-963Y9481D01*
X-973Y9500D01*
Y9499D01*
X-974Y9498D01*
X-977Y9493D01*
X-982Y9484D01*
X-987Y9474D01*
X-995Y9462D01*
X-1004Y9452D01*
X-1015Y9441D01*
X-1027Y9432D01*
X-1029Y9431D01*
X-1034Y9428D01*
X-1040Y9425D01*
X-1050Y9421D01*
X-1061Y9417D01*
X-1075Y9414D01*
X-1088Y9411D01*
X-1104Y9411D01*
X-1105D01*
X-1106D01*
X-1110D01*
X-1116Y9411D01*
X-1121Y9412D01*
X-1128Y9413D01*
X-1145Y9417D01*
X-1163Y9422D01*
X-1183Y9432D01*
X-1192Y9437D01*
X-1202Y9443D01*
X-1211Y9452D01*
X-1220Y9460D01*
X-1221Y9461D01*
X-1222Y9462D01*
X-1225Y9465D01*
X-1228Y9469D01*
X-1231Y9474D01*
X-1235Y9480D01*
X-1239Y9487D01*
X-1244Y9496D01*
X-1248Y9505D01*
X-1252Y9515D01*
X-1256Y9527D01*
X-1260Y9540D01*
X-1262Y9554D01*
X-1265Y9568D01*
X-1266Y9584D01*
X-1267Y9600D01*
Y9609D01*
X-1266Y9615D01*
X-1265Y9623D01*
X-1264Y9631D01*
X-1263Y9641D01*
X-1261Y9651D01*
X-1256Y9674D01*
X-1248Y9698D01*
X-1242Y9708D01*
X-1236Y9720D01*
X-1229Y9730D01*
X-1220Y9740D01*
X-1219Y9741D01*
X-1219Y9742D01*
X-1216Y9745D01*
X-1212Y9749D01*
X-1208Y9752D01*
X-1202Y9756D01*
X-1188Y9766D01*
X-1171Y9775D01*
X-1152Y9782D01*
X-1129Y9789D01*
X-1116Y9790D01*
X-1104Y9790D01*
X-1103D01*
X-1102D01*
X-1096D01*
X-1088Y9790D01*
X-1077Y9788D01*
X-1065Y9785D01*
X-1053Y9780D01*
X-1039Y9775D01*
X-1025Y9767D01*
X-1024Y9766D01*
X-1020Y9762D01*
X-1014Y9758D01*
X-1006Y9750D01*
X-997Y9741D01*
X-989Y9730D01*
X-981Y9718D01*
X-973Y9703D01*
Y9704D01*
X-973Y9706D01*
X-972Y9708D01*
X-970Y9712D01*
X-964Y9721D01*
X-957Y9733D01*
X-949Y9746D01*
X-938Y9759D01*
X-925Y9772D01*
X-911Y9783D01*
X-909Y9784D01*
X-903Y9788D01*
X-895Y9792D01*
X-884Y9797D01*
X-871Y9802D01*
X-854Y9806D01*
X-837Y9810D01*
X-818Y9810D01*
X-817D01*
X-814D01*
X-809D01*
X-803Y9810D01*
D02*
G37*
G36*
X-759Y9261D02*
X-633D01*
Y9145D01*
X-759D01*
Y8886D01*
X-864D01*
X-1266Y9159D01*
Y9261D01*
X-865D01*
Y9340D01*
X-759D01*
Y9261D01*
D02*
G37*
G36*
X-1759Y21746D02*
X-2019D01*
X-2020D01*
X-2022D01*
X-2026D01*
X-2030D01*
X-2042Y21745D01*
X-2056Y21744D01*
X-2070Y21743D01*
X-2085Y21741D01*
X-2097Y21738D01*
X-2102Y21735D01*
X-2107Y21733D01*
X-2108Y21732D01*
X-2111Y21730D01*
X-2115Y21726D01*
X-2120Y21720D01*
X-2125Y21713D01*
X-2129Y21704D01*
X-2132Y21693D01*
X-2133Y21681D01*
Y21677D01*
X-2132Y21672D01*
X-2131Y21666D01*
X-2129Y21659D01*
X-2127Y21650D01*
X-2123Y21641D01*
X-2118Y21633D01*
X-2117Y21632D01*
X-2115Y21629D01*
X-2111Y21626D01*
X-2106Y21621D01*
X-2099Y21616D01*
X-2092Y21610D01*
X-2083Y21606D01*
X-2072Y21601D01*
X-2070D01*
X-2067Y21599D01*
X-2059Y21598D01*
X-2049Y21597D01*
X-2036Y21595D01*
X-2019Y21594D01*
X-2000Y21592D01*
X-1977D01*
X-1759D01*
Y21471D01*
X-2008D01*
X-2009D01*
X-2011D01*
X-2015D01*
X-2019D01*
X-2030D01*
X-2044Y21470D01*
X-2058Y21469D01*
X-2072Y21468D01*
X-2085Y21466D01*
X-2090Y21465D01*
X-2094Y21464D01*
X-2095D01*
X-2097Y21463D01*
X-2101Y21461D01*
X-2105Y21459D01*
X-2115Y21453D01*
X-2119Y21448D01*
X-2123Y21444D01*
X-2124Y21443D01*
X-2125Y21441D01*
X-2127Y21438D01*
X-2128Y21434D01*
X-2130Y21429D01*
X-2131Y21423D01*
X-2133Y21415D01*
Y21403D01*
X-2132Y21397D01*
X-2131Y21391D01*
X-2129Y21383D01*
X-2127Y21374D01*
X-2123Y21366D01*
X-2118Y21357D01*
X-2117Y21356D01*
X-2115Y21353D01*
X-2111Y21350D01*
X-2107Y21345D01*
X-2100Y21340D01*
X-2093Y21334D01*
X-2084Y21330D01*
X-2074Y21325D01*
X-2073D01*
X-2068Y21323D01*
X-2061Y21322D01*
X-2052Y21321D01*
X-2038Y21319D01*
X-2023Y21318D01*
X-2003Y21316D01*
X-1980D01*
X-1759D01*
Y21195D01*
X-2216D01*
Y21306D01*
X-2153D01*
X-2154Y21307D01*
X-2156Y21309D01*
X-2159Y21312D01*
X-2165Y21317D01*
X-2170Y21322D01*
X-2176Y21329D01*
X-2183Y21337D01*
X-2190Y21346D01*
X-2196Y21356D01*
X-2203Y21367D01*
X-2215Y21391D01*
X-2220Y21404D01*
X-2223Y21418D01*
X-2225Y21433D01*
X-2226Y21448D01*
Y21455D01*
X-2225Y21464D01*
X-2224Y21474D01*
X-2221Y21485D01*
X-2219Y21498D01*
X-2214Y21511D01*
X-2208Y21524D01*
X-2207Y21526D01*
X-2204Y21529D01*
X-2200Y21536D01*
X-2194Y21543D01*
X-2186Y21551D01*
X-2177Y21560D01*
X-2165Y21569D01*
X-2152Y21577D01*
X-2154Y21579D01*
X-2159Y21583D01*
X-2165Y21588D01*
X-2173Y21597D01*
X-2182Y21607D01*
X-2191Y21618D01*
X-2200Y21629D01*
X-2208Y21642D01*
X-2209Y21644D01*
X-2210Y21649D01*
X-2213Y21656D01*
X-2217Y21665D01*
X-2220Y21676D01*
X-2223Y21689D01*
X-2225Y21702D01*
X-2226Y21717D01*
Y21725D01*
X-2225Y21734D01*
X-2223Y21746D01*
X-2220Y21760D01*
X-2217Y21773D01*
X-2212Y21788D01*
X-2205Y21802D01*
X-2204Y21803D01*
X-2201Y21807D01*
X-2197Y21813D01*
X-2190Y21822D01*
X-2181Y21830D01*
X-2171Y21839D01*
X-2159Y21847D01*
X-2145Y21854D01*
X-2144Y21855D01*
X-2139Y21856D01*
X-2132Y21858D01*
X-2122Y21861D01*
X-2109Y21864D01*
X-2093Y21865D01*
X-2073Y21866D01*
X-2050Y21867D01*
X-1759D01*
Y21746D01*
D02*
G37*
G36*
Y20963D02*
X-2019D01*
X-2020D01*
X-2022D01*
X-2026D01*
X-2030D01*
X-2042Y20962D01*
X-2056Y20961D01*
X-2070Y20960D01*
X-2085Y20957D01*
X-2097Y20954D01*
X-2102Y20952D01*
X-2107Y20950D01*
X-2108Y20949D01*
X-2111Y20946D01*
X-2115Y20943D01*
X-2120Y20937D01*
X-2125Y20930D01*
X-2129Y20921D01*
X-2132Y20910D01*
X-2133Y20898D01*
Y20893D01*
X-2132Y20889D01*
X-2131Y20882D01*
X-2129Y20875D01*
X-2127Y20867D01*
X-2123Y20858D01*
X-2118Y20850D01*
X-2117Y20849D01*
X-2115Y20846D01*
X-2111Y20842D01*
X-2106Y20838D01*
X-2099Y20832D01*
X-2092Y20827D01*
X-2083Y20822D01*
X-2072Y20818D01*
X-2070D01*
X-2067Y20816D01*
X-2059Y20815D01*
X-2049Y20813D01*
X-2036Y20811D01*
X-2019Y20810D01*
X-2000Y20809D01*
X-1977D01*
X-1759D01*
Y20687D01*
X-2008D01*
X-2009D01*
X-2011D01*
X-2015D01*
X-2019D01*
X-2030D01*
X-2044Y20687D01*
X-2058Y20686D01*
X-2072Y20685D01*
X-2085Y20683D01*
X-2090Y20681D01*
X-2094Y20680D01*
X-2095D01*
X-2097Y20679D01*
X-2101Y20677D01*
X-2105Y20676D01*
X-2115Y20669D01*
X-2119Y20665D01*
X-2123Y20660D01*
X-2124Y20659D01*
X-2125Y20657D01*
X-2127Y20655D01*
X-2128Y20651D01*
X-2130Y20646D01*
X-2131Y20639D01*
X-2133Y20632D01*
Y20619D01*
X-2132Y20614D01*
X-2131Y20607D01*
X-2129Y20599D01*
X-2127Y20591D01*
X-2123Y20583D01*
X-2118Y20574D01*
X-2117Y20573D01*
X-2115Y20570D01*
X-2111Y20566D01*
X-2107Y20562D01*
X-2100Y20556D01*
X-2093Y20551D01*
X-2084Y20546D01*
X-2074Y20542D01*
X-2073D01*
X-2068Y20540D01*
X-2061Y20539D01*
X-2052Y20537D01*
X-2038Y20535D01*
X-2023Y20534D01*
X-2003Y20533D01*
X-1980D01*
X-1759D01*
Y20411D01*
X-2216D01*
Y20523D01*
X-2153D01*
X-2154Y20523D01*
X-2156Y20525D01*
X-2159Y20529D01*
X-2165Y20533D01*
X-2170Y20539D01*
X-2176Y20545D01*
X-2183Y20554D01*
X-2190Y20563D01*
X-2196Y20573D01*
X-2203Y20584D01*
X-2215Y20607D01*
X-2220Y20621D01*
X-2223Y20635D01*
X-2225Y20649D01*
X-2226Y20665D01*
Y20672D01*
X-2225Y20680D01*
X-2224Y20690D01*
X-2221Y20702D01*
X-2219Y20715D01*
X-2214Y20728D01*
X-2208Y20740D01*
X-2207Y20742D01*
X-2204Y20746D01*
X-2200Y20752D01*
X-2194Y20759D01*
X-2186Y20768D01*
X-2177Y20777D01*
X-2165Y20786D01*
X-2152Y20794D01*
X-2154Y20796D01*
X-2159Y20799D01*
X-2165Y20805D01*
X-2173Y20813D01*
X-2182Y20823D01*
X-2191Y20834D01*
X-2200Y20846D01*
X-2208Y20859D01*
X-2209Y20861D01*
X-2210Y20865D01*
X-2213Y20872D01*
X-2217Y20881D01*
X-2220Y20892D01*
X-2223Y20905D01*
X-2225Y20919D01*
X-2226Y20933D01*
Y20942D01*
X-2225Y20951D01*
X-2223Y20963D01*
X-2220Y20976D01*
X-2217Y20990D01*
X-2212Y21004D01*
X-2205Y21018D01*
X-2204Y21020D01*
X-2201Y21024D01*
X-2197Y21030D01*
X-2190Y21038D01*
X-2181Y21046D01*
X-2171Y21055D01*
X-2159Y21064D01*
X-2145Y21071D01*
X-2144Y21072D01*
X-2139Y21073D01*
X-2132Y21075D01*
X-2122Y21077D01*
X-2109Y21080D01*
X-2093Y21082D01*
X-2073Y21083D01*
X-2050Y21084D01*
X-1759D01*
Y20963D01*
D02*
G37*
G36*
X-2045Y20315D02*
X-2030Y20314D01*
X-2014Y20312D01*
X-1996Y20310D01*
X-1977Y20308D01*
X-1956Y20304D01*
X-1936Y20300D01*
X-1915Y20295D01*
X-1894Y20288D01*
X-1875Y20281D01*
X-1856Y20272D01*
X-1839Y20263D01*
X-1823Y20251D01*
X-1822Y20250D01*
X-1820Y20248D01*
X-1816Y20245D01*
X-1811Y20239D01*
X-1806Y20233D01*
X-1799Y20226D01*
X-1792Y20216D01*
X-1785Y20206D01*
X-1778Y20195D01*
X-1771Y20183D01*
X-1765Y20169D01*
X-1759Y20154D01*
X-1754Y20138D01*
X-1750Y20122D01*
X-1748Y20104D01*
X-1747Y20085D01*
Y20078D01*
X-1748Y20073D01*
Y20067D01*
X-1749Y20060D01*
X-1751Y20042D01*
X-1757Y20023D01*
X-1763Y20004D01*
X-1773Y19984D01*
X-1779Y19975D01*
X-1786Y19966D01*
X-1787Y19965D01*
X-1788Y19964D01*
X-1790Y19961D01*
X-1793Y19959D01*
X-1798Y19955D01*
X-1802Y19950D01*
X-1809Y19947D01*
X-1815Y19941D01*
X-1823Y19937D01*
X-1831Y19931D01*
X-1841Y19927D01*
X-1852Y19922D01*
X-1863Y19918D01*
X-1876Y19914D01*
X-1889Y19910D01*
X-1903Y19908D01*
X-1917Y20024D01*
X-1915D01*
X-1911Y20025D01*
X-1904Y20026D01*
X-1897Y20029D01*
X-1888Y20031D01*
X-1879Y20035D01*
X-1871Y20040D01*
X-1863Y20046D01*
X-1862Y20047D01*
X-1861Y20050D01*
X-1858Y20053D01*
X-1855Y20059D01*
X-1852Y20066D01*
X-1850Y20073D01*
X-1848Y20083D01*
X-1847Y20093D01*
Y20095D01*
X-1848Y20100D01*
X-1849Y20106D01*
X-1852Y20115D01*
X-1855Y20125D01*
X-1862Y20135D01*
X-1870Y20146D01*
X-1881Y20156D01*
X-1883Y20157D01*
X-1884Y20159D01*
X-1888Y20161D01*
X-1892Y20163D01*
X-1897Y20165D01*
X-1903Y20167D01*
X-1912Y20171D01*
X-1921Y20174D01*
X-1931Y20176D01*
X-1943Y20179D01*
X-1955Y20182D01*
X-1970Y20185D01*
X-1986Y20186D01*
X-2005Y20188D01*
X-2024Y20190D01*
X-2023Y20189D01*
X-2022Y20188D01*
X-2019Y20185D01*
X-2016Y20182D01*
X-2012Y20177D01*
X-2007Y20172D01*
X-1997Y20159D01*
X-1987Y20143D01*
X-1979Y20123D01*
X-1975Y20112D01*
X-1974Y20101D01*
X-1972Y20089D01*
X-1971Y20076D01*
Y20069D01*
X-1972Y20063D01*
X-1973Y20057D01*
X-1974Y20050D01*
X-1978Y20032D01*
X-1985Y20012D01*
X-1990Y20002D01*
X-1995Y19991D01*
X-2002Y19980D01*
X-2009Y19970D01*
X-2018Y19959D01*
X-2028Y19949D01*
X-2029Y19948D01*
X-2031Y19946D01*
X-2035Y19944D01*
X-2038Y19940D01*
X-2045Y19936D01*
X-2051Y19931D01*
X-2059Y19927D01*
X-2068Y19922D01*
X-2078Y19917D01*
X-2090Y19912D01*
X-2102Y19908D01*
X-2116Y19903D01*
X-2129Y19899D01*
X-2145Y19898D01*
X-2161Y19896D01*
X-2178Y19895D01*
X-2179D01*
X-2182D01*
X-2187D01*
X-2194Y19896D01*
X-2202Y19897D01*
X-2211Y19898D01*
X-2222Y19899D01*
X-2233Y19902D01*
X-2258Y19909D01*
X-2271Y19913D01*
X-2284Y19919D01*
X-2297Y19925D01*
X-2310Y19933D01*
X-2322Y19941D01*
X-2333Y19951D01*
X-2334Y19952D01*
X-2336Y19954D01*
X-2339Y19957D01*
X-2343Y19961D01*
X-2347Y19968D01*
X-2353Y19974D01*
X-2357Y19982D01*
X-2364Y19991D01*
X-2369Y20001D01*
X-2374Y20012D01*
X-2379Y20024D01*
X-2384Y20037D01*
X-2387Y20051D01*
X-2390Y20065D01*
X-2392Y20080D01*
X-2393Y20096D01*
Y20101D01*
X-2392Y20105D01*
Y20113D01*
X-2391Y20121D01*
X-2389Y20130D01*
X-2386Y20141D01*
X-2384Y20152D01*
X-2379Y20165D01*
X-2374Y20177D01*
X-2368Y20190D01*
X-2361Y20204D01*
X-2353Y20216D01*
X-2343Y20229D01*
X-2331Y20242D01*
X-2318Y20254D01*
X-2317Y20255D01*
X-2314Y20257D01*
X-2310Y20259D01*
X-2303Y20264D01*
X-2295Y20268D01*
X-2285Y20274D01*
X-2273Y20279D01*
X-2260Y20285D01*
X-2243Y20290D01*
X-2225Y20297D01*
X-2205Y20301D01*
X-2183Y20306D01*
X-2159Y20310D01*
X-2132Y20313D01*
X-2104Y20315D01*
X-2073Y20316D01*
X-2072D01*
X-2071D01*
X-2068D01*
X-2066D01*
X-2057D01*
X-2045Y20315D01*
D02*
G37*
G36*
X-1763Y19802D02*
X-1750Y19801D01*
X-1737Y19799D01*
X-1723Y19796D01*
X-1711Y19794D01*
X-1710D01*
X-1706Y19792D01*
X-1700Y19789D01*
X-1693Y19786D01*
X-1684Y19781D01*
X-1675Y19776D01*
X-1666Y19768D01*
X-1657Y19759D01*
X-1656Y19758D01*
X-1653Y19755D01*
X-1648Y19749D01*
X-1643Y19742D01*
X-1637Y19733D01*
X-1630Y19722D01*
X-1624Y19709D01*
X-1618Y19695D01*
X-1668Y19672D01*
X-1669Y19673D01*
X-1671Y19678D01*
X-1674Y19684D01*
X-1678Y19692D01*
X-1682Y19701D01*
X-1688Y19709D01*
X-1695Y19717D01*
X-1702Y19724D01*
X-1703Y19725D01*
X-1706Y19726D01*
X-1710Y19729D01*
X-1717Y19732D01*
X-1725Y19735D01*
X-1735Y19738D01*
X-1746Y19740D01*
X-1759Y19741D01*
Y19682D01*
X-1880D01*
Y19803D01*
X-1793D01*
X-1792D01*
X-1791D01*
X-1789D01*
X-1785D01*
X-1775D01*
X-1763Y19802D01*
D02*
G37*
G36*
X-1759Y19153D02*
X-1760D01*
X-1761D01*
X-1765Y19154D01*
X-1770Y19155D01*
X-1775Y19156D01*
X-1781Y19157D01*
X-1798Y19161D01*
X-1816Y19166D01*
X-1836Y19173D01*
X-1858Y19182D01*
X-1879Y19194D01*
X-1880D01*
X-1882Y19196D01*
X-1885Y19198D01*
X-1889Y19202D01*
X-1895Y19205D01*
X-1902Y19211D01*
X-1910Y19217D01*
X-1919Y19224D01*
X-1930Y19233D01*
X-1941Y19243D01*
X-1954Y19254D01*
X-1967Y19266D01*
X-1981Y19280D01*
X-1996Y19295D01*
X-2013Y19312D01*
X-2030Y19330D01*
X-2031Y19331D01*
X-2034Y19334D01*
X-2037Y19337D01*
X-2043Y19343D01*
X-2048Y19350D01*
X-2056Y19357D01*
X-2072Y19374D01*
X-2089Y19390D01*
X-2107Y19407D01*
X-2114Y19414D01*
X-2122Y19421D01*
X-2128Y19427D01*
X-2134Y19430D01*
X-2136Y19431D01*
X-2140Y19434D01*
X-2148Y19438D01*
X-2158Y19443D01*
X-2169Y19448D01*
X-2181Y19452D01*
X-2194Y19455D01*
X-2208Y19456D01*
X-2209D01*
X-2210D01*
X-2214D01*
X-2222Y19455D01*
X-2231Y19453D01*
X-2241Y19450D01*
X-2251Y19447D01*
X-2261Y19441D01*
X-2271Y19434D01*
X-2271Y19433D01*
X-2274Y19430D01*
X-2278Y19425D01*
X-2282Y19418D01*
X-2285Y19409D01*
X-2289Y19399D01*
X-2292Y19387D01*
X-2292Y19374D01*
Y19367D01*
X-2292Y19360D01*
X-2290Y19352D01*
X-2287Y19342D01*
X-2282Y19332D01*
X-2277Y19322D01*
X-2270Y19313D01*
X-2269Y19312D01*
X-2265Y19309D01*
X-2260Y19305D01*
X-2251Y19302D01*
X-2241Y19297D01*
X-2228Y19294D01*
X-2212Y19290D01*
X-2194Y19288D01*
X-2206Y19168D01*
X-2207D01*
X-2210Y19169D01*
X-2215D01*
X-2222Y19171D01*
X-2230Y19172D01*
X-2240Y19174D01*
X-2250Y19177D01*
X-2261Y19180D01*
X-2284Y19189D01*
X-2308Y19200D01*
X-2320Y19207D01*
X-2331Y19215D01*
X-2340Y19224D01*
X-2349Y19234D01*
X-2350Y19235D01*
X-2351Y19237D01*
X-2353Y19240D01*
X-2356Y19244D01*
X-2359Y19250D01*
X-2363Y19257D01*
X-2367Y19264D01*
X-2371Y19274D01*
X-2375Y19284D01*
X-2379Y19295D01*
X-2386Y19318D01*
X-2391Y19346D01*
X-2392Y19361D01*
X-2393Y19376D01*
Y19386D01*
X-2392Y19392D01*
X-2391Y19400D01*
X-2390Y19409D01*
X-2388Y19419D01*
X-2386Y19430D01*
X-2380Y19454D01*
X-2371Y19478D01*
X-2365Y19490D01*
X-2359Y19501D01*
X-2351Y19513D01*
X-2342Y19523D01*
X-2341Y19524D01*
X-2340Y19526D01*
X-2336Y19528D01*
X-2333Y19531D01*
X-2328Y19536D01*
X-2322Y19540D01*
X-2315Y19545D01*
X-2307Y19550D01*
X-2289Y19560D01*
X-2268Y19569D01*
X-2256Y19572D01*
X-2243Y19574D01*
X-2230Y19576D01*
X-2216Y19577D01*
X-2214D01*
X-2209D01*
X-2200Y19576D01*
X-2190Y19575D01*
X-2178Y19573D01*
X-2164Y19571D01*
X-2149Y19567D01*
X-2135Y19561D01*
X-2133Y19561D01*
X-2128Y19559D01*
X-2120Y19555D01*
X-2110Y19550D01*
X-2098Y19543D01*
X-2085Y19535D01*
X-2070Y19525D01*
X-2055Y19513D01*
X-2054Y19512D01*
X-2049Y19509D01*
X-2043Y19503D01*
X-2034Y19495D01*
X-2023Y19484D01*
X-2008Y19470D01*
X-1993Y19454D01*
X-1974Y19434D01*
X-1973Y19433D01*
X-1972Y19431D01*
X-1969Y19428D01*
X-1965Y19425D01*
X-1956Y19415D01*
X-1945Y19403D01*
X-1934Y19391D01*
X-1922Y19379D01*
X-1912Y19368D01*
X-1907Y19365D01*
X-1903Y19361D01*
X-1903Y19360D01*
X-1901Y19358D01*
X-1897Y19356D01*
X-1893Y19352D01*
X-1883Y19344D01*
X-1871Y19336D01*
Y19577D01*
X-1759D01*
Y19153D01*
D02*
G37*
G36*
X7367Y-1093D02*
X7374D01*
X7381Y-1094D01*
X7397Y-1097D01*
X7416Y-1102D01*
X7436Y-1109D01*
X7456Y-1119D01*
X7465Y-1125D01*
X7474Y-1133D01*
X7475D01*
X7476Y-1135D01*
X7478Y-1137D01*
X7481Y-1140D01*
X7486Y-1145D01*
X7489Y-1149D01*
X7499Y-1162D01*
X7509Y-1179D01*
X7519Y-1199D01*
X7528Y-1222D01*
X7535Y-1249D01*
X7418Y-1262D01*
Y-1260D01*
X7417Y-1257D01*
X7416Y-1250D01*
X7414Y-1242D01*
X7411Y-1234D01*
X7406Y-1225D01*
X7402Y-1217D01*
X7395Y-1209D01*
X7395Y-1208D01*
X7392Y-1206D01*
X7388Y-1204D01*
X7383Y-1200D01*
X7376Y-1197D01*
X7368Y-1195D01*
X7358Y-1193D01*
X7348Y-1192D01*
X7346D01*
X7342Y-1193D01*
X7334Y-1194D01*
X7325Y-1196D01*
X7315Y-1200D01*
X7304Y-1206D01*
X7293Y-1215D01*
X7283Y-1227D01*
X7283Y-1228D01*
X7281Y-1230D01*
X7279Y-1234D01*
X7277Y-1237D01*
X7274Y-1243D01*
X7272Y-1249D01*
X7270Y-1258D01*
X7266Y-1267D01*
X7263Y-1277D01*
X7261Y-1288D01*
X7258Y-1301D01*
X7255Y-1316D01*
X7253Y-1332D01*
X7252Y-1350D01*
X7250Y-1370D01*
X7251Y-1369D01*
X7252Y-1367D01*
X7254Y-1365D01*
X7258Y-1361D01*
X7262Y-1357D01*
X7268Y-1352D01*
X7281Y-1342D01*
X7297Y-1333D01*
X7316Y-1324D01*
X7327Y-1320D01*
X7338Y-1319D01*
X7350Y-1317D01*
X7363Y-1316D01*
X7370D01*
X7375Y-1317D01*
X7382Y-1318D01*
X7389Y-1319D01*
X7398Y-1320D01*
X7407Y-1323D01*
X7427Y-1330D01*
X7438Y-1335D01*
X7449Y-1340D01*
X7460Y-1347D01*
X7471Y-1355D01*
X7482Y-1364D01*
X7492Y-1374D01*
X7493Y-1375D01*
X7495Y-1377D01*
X7498Y-1380D01*
X7500Y-1384D01*
X7505Y-1391D01*
X7509Y-1397D01*
X7514Y-1405D01*
X7519Y-1414D01*
X7525Y-1424D01*
X7529Y-1436D01*
X7534Y-1448D01*
X7539Y-1462D01*
X7541Y-1475D01*
X7544Y-1491D01*
X7546Y-1506D01*
X7547Y-1524D01*
Y-1524D01*
Y-1528D01*
Y-1533D01*
X7546Y-1540D01*
X7545Y-1548D01*
X7544Y-1557D01*
X7542Y-1568D01*
X7539Y-1579D01*
X7533Y-1605D01*
X7528Y-1617D01*
X7522Y-1630D01*
X7516Y-1643D01*
X7508Y-1656D01*
X7499Y-1668D01*
X7489Y-1679D01*
X7488Y-1680D01*
X7487Y-1682D01*
X7484Y-1685D01*
X7479Y-1688D01*
X7474Y-1693D01*
X7467Y-1698D01*
X7459Y-1703D01*
X7450Y-1708D01*
X7440Y-1714D01*
X7429Y-1719D01*
X7417Y-1724D01*
X7404Y-1728D01*
X7390Y-1732D01*
X7375Y-1735D01*
X7360Y-1737D01*
X7344Y-1738D01*
X7339D01*
X7334Y-1737D01*
X7328D01*
X7320Y-1735D01*
X7310Y-1734D01*
X7300Y-1731D01*
X7288Y-1728D01*
X7276Y-1725D01*
X7263Y-1719D01*
X7250Y-1714D01*
X7237Y-1707D01*
X7223Y-1698D01*
X7211Y-1688D01*
X7198Y-1677D01*
X7186Y-1664D01*
X7185Y-1663D01*
X7183Y-1660D01*
X7180Y-1656D01*
X7177Y-1649D01*
X7171Y-1641D01*
X7167Y-1631D01*
X7161Y-1619D01*
X7156Y-1606D01*
X7150Y-1589D01*
X7144Y-1572D01*
X7139Y-1552D01*
X7135Y-1529D01*
X7130Y-1505D01*
X7128Y-1479D01*
X7126Y-1451D01*
X7125Y-1420D01*
Y-1419D01*
Y-1418D01*
Y-1415D01*
Y-1412D01*
Y-1403D01*
X7126Y-1391D01*
X7127Y-1377D01*
X7129Y-1360D01*
X7130Y-1342D01*
X7133Y-1323D01*
X7136Y-1303D01*
X7140Y-1282D01*
X7146Y-1261D01*
X7152Y-1240D01*
X7160Y-1221D01*
X7168Y-1202D01*
X7178Y-1185D01*
X7189Y-1169D01*
X7190Y-1168D01*
X7191Y-1165D01*
X7195Y-1162D01*
X7201Y-1157D01*
X7207Y-1151D01*
X7214Y-1145D01*
X7223Y-1137D01*
X7233Y-1130D01*
X7245Y-1124D01*
X7257Y-1116D01*
X7272Y-1110D01*
X7286Y-1104D01*
X7302Y-1099D01*
X7319Y-1095D01*
X7336Y-1093D01*
X7355Y-1092D01*
X7363D01*
X7367Y-1093D01*
D02*
G37*
G36*
X9690Y-1259D02*
X9702Y-1261D01*
X9716Y-1264D01*
X9729Y-1268D01*
X9744Y-1272D01*
X9758Y-1279D01*
X9760Y-1280D01*
X9763Y-1283D01*
X9770Y-1288D01*
X9778Y-1294D01*
X9786Y-1303D01*
X9795Y-1313D01*
X9803Y-1325D01*
X9811Y-1339D01*
X9811Y-1340D01*
X9812Y-1345D01*
X9814Y-1352D01*
X9817Y-1362D01*
X9820Y-1375D01*
X9821Y-1391D01*
X9822Y-1411D01*
X9823Y-1434D01*
Y-1726D01*
X9702D01*
Y-1465D01*
Y-1464D01*
Y-1462D01*
Y-1459D01*
Y-1454D01*
X9701Y-1442D01*
X9700Y-1429D01*
X9699Y-1414D01*
X9697Y-1400D01*
X9694Y-1387D01*
X9691Y-1382D01*
X9689Y-1378D01*
X9688Y-1377D01*
X9686Y-1373D01*
X9682Y-1370D01*
X9677Y-1364D01*
X9669Y-1360D01*
X9660Y-1355D01*
X9649Y-1352D01*
X9637Y-1351D01*
X9633D01*
X9628Y-1352D01*
X9622Y-1353D01*
X9615Y-1355D01*
X9606Y-1358D01*
X9597Y-1361D01*
X9589Y-1367D01*
X9588Y-1368D01*
X9586Y-1370D01*
X9582Y-1373D01*
X9577Y-1379D01*
X9572Y-1385D01*
X9566Y-1392D01*
X9562Y-1401D01*
X9557Y-1412D01*
Y-1414D01*
X9555Y-1418D01*
X9555Y-1425D01*
X9553Y-1435D01*
X9551Y-1449D01*
X9550Y-1465D01*
X9548Y-1484D01*
Y-1507D01*
Y-1726D01*
X9427D01*
Y-1476D01*
Y-1475D01*
Y-1473D01*
Y-1470D01*
Y-1465D01*
Y-1454D01*
X9426Y-1441D01*
X9425Y-1426D01*
X9424Y-1412D01*
X9422Y-1400D01*
X9421Y-1394D01*
X9420Y-1391D01*
Y-1390D01*
X9419Y-1387D01*
X9417Y-1383D01*
X9415Y-1380D01*
X9409Y-1370D01*
X9404Y-1365D01*
X9400Y-1361D01*
X9399Y-1360D01*
X9397Y-1360D01*
X9394Y-1358D01*
X9391Y-1356D01*
X9385Y-1354D01*
X9379Y-1353D01*
X9371Y-1351D01*
X9359D01*
X9353Y-1352D01*
X9347Y-1353D01*
X9339Y-1355D01*
X9330Y-1358D01*
X9322Y-1361D01*
X9313Y-1367D01*
X9312Y-1368D01*
X9309Y-1370D01*
X9306Y-1373D01*
X9301Y-1378D01*
X9296Y-1384D01*
X9290Y-1391D01*
X9286Y-1401D01*
X9281Y-1411D01*
Y-1411D01*
X9279Y-1416D01*
X9279Y-1423D01*
X9277Y-1432D01*
X9275Y-1446D01*
X9274Y-1462D01*
X9272Y-1482D01*
Y-1504D01*
Y-1726D01*
X9151D01*
Y-1268D01*
X9262D01*
Y-1331D01*
X9263Y-1330D01*
X9265Y-1329D01*
X9269Y-1325D01*
X9273Y-1319D01*
X9279Y-1314D01*
X9285Y-1309D01*
X9293Y-1301D01*
X9302Y-1295D01*
X9312Y-1288D01*
X9323Y-1281D01*
X9347Y-1269D01*
X9361Y-1265D01*
X9374Y-1261D01*
X9389Y-1259D01*
X9404Y-1258D01*
X9412D01*
X9420Y-1259D01*
X9430Y-1260D01*
X9442Y-1263D01*
X9454Y-1266D01*
X9467Y-1270D01*
X9480Y-1277D01*
X9482Y-1278D01*
X9485Y-1280D01*
X9492Y-1284D01*
X9499Y-1290D01*
X9507Y-1299D01*
X9516Y-1308D01*
X9525Y-1319D01*
X9534Y-1332D01*
X9535Y-1330D01*
X9539Y-1326D01*
X9545Y-1319D01*
X9553Y-1311D01*
X9563Y-1302D01*
X9574Y-1293D01*
X9586Y-1284D01*
X9598Y-1277D01*
X9600Y-1276D01*
X9605Y-1274D01*
X9612Y-1271D01*
X9621Y-1268D01*
X9632Y-1264D01*
X9645Y-1261D01*
X9658Y-1259D01*
X9673Y-1258D01*
X9681D01*
X9690Y-1259D01*
D02*
G37*
G36*
X8907D02*
X8919Y-1261D01*
X8932Y-1264D01*
X8946Y-1268D01*
X8961Y-1272D01*
X8974Y-1279D01*
X8976Y-1280D01*
X8980Y-1283D01*
X8986Y-1288D01*
X8994Y-1294D01*
X9002Y-1303D01*
X9012Y-1313D01*
X9020Y-1325D01*
X9027Y-1339D01*
X9028Y-1340D01*
X9029Y-1345D01*
X9031Y-1352D01*
X9033Y-1362D01*
X9036Y-1375D01*
X9038Y-1391D01*
X9039Y-1411D01*
X9040Y-1434D01*
Y-1726D01*
X8919D01*
Y-1465D01*
Y-1464D01*
Y-1462D01*
Y-1459D01*
Y-1454D01*
X8918Y-1442D01*
X8917Y-1429D01*
X8916Y-1414D01*
X8913Y-1400D01*
X8910Y-1387D01*
X8908Y-1382D01*
X8906Y-1378D01*
X8905Y-1377D01*
X8902Y-1373D01*
X8899Y-1370D01*
X8893Y-1364D01*
X8886Y-1360D01*
X8877Y-1355D01*
X8866Y-1352D01*
X8854Y-1351D01*
X8849D01*
X8845Y-1352D01*
X8839Y-1353D01*
X8831Y-1355D01*
X8823Y-1358D01*
X8814Y-1361D01*
X8806Y-1367D01*
X8805Y-1368D01*
X8802Y-1370D01*
X8798Y-1373D01*
X8794Y-1379D01*
X8788Y-1385D01*
X8783Y-1392D01*
X8778Y-1401D01*
X8774Y-1412D01*
Y-1414D01*
X8772Y-1418D01*
X8771Y-1425D01*
X8769Y-1435D01*
X8767Y-1449D01*
X8767Y-1465D01*
X8765Y-1484D01*
Y-1507D01*
Y-1726D01*
X8644D01*
Y-1476D01*
Y-1475D01*
Y-1473D01*
Y-1470D01*
Y-1465D01*
Y-1454D01*
X8643Y-1441D01*
X8642Y-1426D01*
X8641Y-1412D01*
X8639Y-1400D01*
X8637Y-1394D01*
X8636Y-1391D01*
Y-1390D01*
X8635Y-1387D01*
X8634Y-1383D01*
X8632Y-1380D01*
X8625Y-1370D01*
X8621Y-1365D01*
X8616Y-1361D01*
X8615Y-1360D01*
X8613Y-1360D01*
X8611Y-1358D01*
X8607Y-1356D01*
X8602Y-1354D01*
X8595Y-1353D01*
X8588Y-1351D01*
X8575D01*
X8570Y-1352D01*
X8563Y-1353D01*
X8555Y-1355D01*
X8547Y-1358D01*
X8539Y-1361D01*
X8530Y-1367D01*
X8529Y-1368D01*
X8526Y-1370D01*
X8522Y-1373D01*
X8518Y-1378D01*
X8512Y-1384D01*
X8507Y-1391D01*
X8502Y-1401D01*
X8498Y-1411D01*
Y-1411D01*
X8496Y-1416D01*
X8495Y-1423D01*
X8493Y-1432D01*
X8491Y-1446D01*
X8491Y-1462D01*
X8489Y-1482D01*
Y-1504D01*
Y-1726D01*
X8368D01*
Y-1268D01*
X8479D01*
Y-1331D01*
X8480Y-1330D01*
X8481Y-1329D01*
X8485Y-1325D01*
X8490Y-1319D01*
X8495Y-1314D01*
X8501Y-1309D01*
X8510Y-1301D01*
X8519Y-1295D01*
X8529Y-1288D01*
X8540Y-1281D01*
X8563Y-1269D01*
X8577Y-1265D01*
X8591Y-1261D01*
X8605Y-1259D01*
X8621Y-1258D01*
X8628D01*
X8636Y-1259D01*
X8646Y-1260D01*
X8658Y-1263D01*
X8671Y-1266D01*
X8684Y-1270D01*
X8696Y-1277D01*
X8698Y-1278D01*
X8702Y-1280D01*
X8708Y-1284D01*
X8716Y-1290D01*
X8724Y-1299D01*
X8733Y-1308D01*
X8742Y-1319D01*
X8750Y-1332D01*
X8752Y-1330D01*
X8756Y-1326D01*
X8761Y-1319D01*
X8769Y-1311D01*
X8779Y-1302D01*
X8790Y-1293D01*
X8802Y-1284D01*
X8815Y-1277D01*
X8817Y-1276D01*
X8821Y-1274D01*
X8828Y-1271D01*
X8838Y-1268D01*
X8849Y-1264D01*
X8861Y-1261D01*
X8875Y-1259D01*
X8890Y-1258D01*
X8898D01*
X8907Y-1259D01*
D02*
G37*
G36*
X6848Y-1093D02*
X6856Y-1094D01*
X6864Y-1094D01*
X6874Y-1096D01*
X6884Y-1099D01*
X6907Y-1105D01*
X6919Y-1110D01*
X6932Y-1116D01*
X6944Y-1123D01*
X6955Y-1130D01*
X6966Y-1139D01*
X6976Y-1149D01*
X6977Y-1150D01*
X6978Y-1151D01*
X6981Y-1154D01*
X6984Y-1157D01*
X6991Y-1166D01*
X6999Y-1179D01*
X7007Y-1195D01*
X7014Y-1213D01*
X7019Y-1233D01*
X7020Y-1243D01*
X7021Y-1254D01*
Y-1255D01*
Y-1258D01*
X7020Y-1262D01*
X7019Y-1268D01*
X7018Y-1275D01*
X7017Y-1283D01*
X7014Y-1292D01*
X7010Y-1302D01*
X7005Y-1312D01*
X6999Y-1323D01*
X6992Y-1334D01*
X6983Y-1345D01*
X6972Y-1356D01*
X6960Y-1367D01*
X6946Y-1377D01*
X6930Y-1387D01*
X6931D01*
X6933Y-1388D01*
X6935D01*
X6939Y-1390D01*
X6949Y-1392D01*
X6961Y-1398D01*
X6975Y-1405D01*
X6989Y-1414D01*
X7004Y-1426D01*
X7017Y-1440D01*
X7018Y-1442D01*
X7022Y-1447D01*
X7027Y-1455D01*
X7033Y-1467D01*
X7039Y-1481D01*
X7044Y-1498D01*
X7047Y-1516D01*
X7049Y-1537D01*
Y-1538D01*
Y-1541D01*
Y-1545D01*
X7048Y-1551D01*
X7047Y-1558D01*
X7046Y-1566D01*
X7044Y-1576D01*
X7042Y-1586D01*
X7035Y-1608D01*
X7029Y-1620D01*
X7024Y-1633D01*
X7017Y-1645D01*
X7008Y-1657D01*
X6999Y-1668D01*
X6988Y-1679D01*
X6987Y-1680D01*
X6986Y-1682D01*
X6982Y-1685D01*
X6977Y-1688D01*
X6971Y-1693D01*
X6965Y-1698D01*
X6955Y-1703D01*
X6946Y-1708D01*
X6936Y-1714D01*
X6924Y-1719D01*
X6912Y-1724D01*
X6899Y-1728D01*
X6884Y-1732D01*
X6870Y-1735D01*
X6853Y-1737D01*
X6837Y-1738D01*
X6829D01*
X6822Y-1737D01*
X6815Y-1736D01*
X6807Y-1735D01*
X6798Y-1733D01*
X6787Y-1731D01*
X6765Y-1726D01*
X6741Y-1717D01*
X6729Y-1711D01*
X6718Y-1705D01*
X6706Y-1697D01*
X6695Y-1688D01*
X6694Y-1688D01*
X6692Y-1686D01*
X6689Y-1683D01*
X6686Y-1679D01*
X6681Y-1675D01*
X6677Y-1668D01*
X6671Y-1662D01*
X6666Y-1654D01*
X6660Y-1645D01*
X6654Y-1636D01*
X6644Y-1614D01*
X6636Y-1588D01*
X6632Y-1575D01*
X6630Y-1560D01*
X6747Y-1545D01*
Y-1546D01*
Y-1547D01*
X6748Y-1553D01*
X6750Y-1561D01*
X6752Y-1571D01*
X6757Y-1582D01*
X6761Y-1594D01*
X6769Y-1605D01*
X6777Y-1615D01*
X6778Y-1616D01*
X6781Y-1618D01*
X6787Y-1622D01*
X6793Y-1626D01*
X6802Y-1630D01*
X6812Y-1634D01*
X6823Y-1636D01*
X6836Y-1637D01*
X6838D01*
X6843Y-1636D01*
X6849Y-1636D01*
X6858Y-1634D01*
X6868Y-1630D01*
X6878Y-1626D01*
X6889Y-1618D01*
X6899Y-1609D01*
X6900Y-1608D01*
X6904Y-1604D01*
X6907Y-1597D01*
X6913Y-1589D01*
X6917Y-1578D01*
X6922Y-1565D01*
X6924Y-1549D01*
X6925Y-1532D01*
Y-1531D01*
Y-1530D01*
Y-1524D01*
X6924Y-1516D01*
X6923Y-1505D01*
X6919Y-1493D01*
X6914Y-1482D01*
X6908Y-1470D01*
X6900Y-1459D01*
X6899Y-1458D01*
X6895Y-1454D01*
X6890Y-1450D01*
X6884Y-1445D01*
X6874Y-1440D01*
X6864Y-1436D01*
X6853Y-1432D01*
X6841Y-1432D01*
X6832D01*
X6825Y-1432D01*
X6817Y-1433D01*
X6807Y-1435D01*
X6797Y-1438D01*
X6785Y-1441D01*
X6798Y-1343D01*
X6806D01*
X6815Y-1342D01*
X6826Y-1341D01*
X6838Y-1339D01*
X6851Y-1335D01*
X6863Y-1329D01*
X6873Y-1322D01*
X6874Y-1321D01*
X6878Y-1318D01*
X6882Y-1313D01*
X6887Y-1306D01*
X6892Y-1298D01*
X6896Y-1288D01*
X6899Y-1276D01*
X6900Y-1262D01*
Y-1260D01*
Y-1257D01*
X6899Y-1251D01*
X6897Y-1244D01*
X6895Y-1236D01*
X6892Y-1227D01*
X6887Y-1218D01*
X6881Y-1211D01*
X6880Y-1210D01*
X6877Y-1208D01*
X6873Y-1205D01*
X6867Y-1201D01*
X6860Y-1198D01*
X6852Y-1195D01*
X6841Y-1193D01*
X6830Y-1192D01*
X6824D01*
X6819Y-1193D01*
X6812Y-1195D01*
X6803Y-1197D01*
X6794Y-1201D01*
X6785Y-1206D01*
X6777Y-1214D01*
X6776Y-1215D01*
X6773Y-1217D01*
X6770Y-1223D01*
X6765Y-1230D01*
X6761Y-1238D01*
X6757Y-1249D01*
X6753Y-1262D01*
X6751Y-1277D01*
X6639Y-1258D01*
Y-1258D01*
X6640Y-1256D01*
Y-1253D01*
X6641Y-1248D01*
X6644Y-1238D01*
X6648Y-1225D01*
X6653Y-1210D01*
X6658Y-1195D01*
X6666Y-1180D01*
X6674Y-1166D01*
X6675Y-1165D01*
X6679Y-1161D01*
X6684Y-1155D01*
X6691Y-1146D01*
X6700Y-1138D01*
X6711Y-1129D01*
X6725Y-1120D01*
X6740Y-1112D01*
X6740D01*
X6741Y-1111D01*
X6747Y-1109D01*
X6756Y-1105D01*
X6767Y-1102D01*
X6781Y-1098D01*
X6797Y-1094D01*
X6814Y-1093D01*
X6833Y-1092D01*
X6842D01*
X6848Y-1093D01*
D02*
G37*
G36*
X8258Y-1217D02*
X8030D01*
X8010Y-1324D01*
X8011D01*
X8012Y-1323D01*
X8018Y-1320D01*
X8026Y-1318D01*
X8036Y-1313D01*
X8049Y-1309D01*
X8062Y-1307D01*
X8078Y-1304D01*
X8093Y-1303D01*
X8102D01*
X8107Y-1304D01*
X8113Y-1305D01*
X8122Y-1306D01*
X8131Y-1308D01*
X8141Y-1310D01*
X8162Y-1318D01*
X8173Y-1322D01*
X8184Y-1328D01*
X8196Y-1335D01*
X8208Y-1343D01*
X8219Y-1352D01*
X8230Y-1362D01*
X8231Y-1363D01*
X8233Y-1365D01*
X8235Y-1369D01*
X8239Y-1373D01*
X8243Y-1379D01*
X8248Y-1386D01*
X8253Y-1394D01*
X8258Y-1403D01*
X8264Y-1413D01*
X8268Y-1425D01*
X8274Y-1438D01*
X8277Y-1451D01*
X8281Y-1465D01*
X8284Y-1481D01*
X8286Y-1497D01*
X8286Y-1514D01*
Y-1515D01*
Y-1518D01*
Y-1522D01*
X8286Y-1527D01*
Y-1534D01*
X8284Y-1543D01*
X8283Y-1552D01*
X8281Y-1561D01*
X8276Y-1583D01*
X8267Y-1606D01*
X8262Y-1619D01*
X8256Y-1631D01*
X8249Y-1643D01*
X8241Y-1655D01*
X8240Y-1656D01*
X8238Y-1658D01*
X8235Y-1662D01*
X8230Y-1667D01*
X8224Y-1674D01*
X8215Y-1681D01*
X8206Y-1688D01*
X8196Y-1696D01*
X8184Y-1704D01*
X8172Y-1711D01*
X8158Y-1718D01*
X8142Y-1725D01*
X8126Y-1730D01*
X8109Y-1734D01*
X8090Y-1737D01*
X8070Y-1738D01*
X8061D01*
X8055Y-1737D01*
X8048Y-1736D01*
X8039Y-1735D01*
X8030Y-1734D01*
X8019Y-1732D01*
X7997Y-1727D01*
X7972Y-1718D01*
X7960Y-1713D01*
X7948Y-1707D01*
X7938Y-1699D01*
X7927Y-1691D01*
X7926Y-1690D01*
X7924Y-1689D01*
X7921Y-1687D01*
X7917Y-1683D01*
X7914Y-1677D01*
X7908Y-1672D01*
X7904Y-1666D01*
X7898Y-1658D01*
X7892Y-1649D01*
X7887Y-1640D01*
X7876Y-1618D01*
X7867Y-1594D01*
X7865Y-1580D01*
X7862Y-1565D01*
X7982Y-1553D01*
Y-1554D01*
X7983Y-1559D01*
X7985Y-1567D01*
X7988Y-1576D01*
X7991Y-1586D01*
X7997Y-1597D01*
X8004Y-1607D01*
X8012Y-1617D01*
X8013Y-1618D01*
X8017Y-1621D01*
X8022Y-1625D01*
X8030Y-1629D01*
X8038Y-1634D01*
X8048Y-1637D01*
X8060Y-1640D01*
X8071Y-1641D01*
X8073D01*
X8078Y-1640D01*
X8085Y-1639D01*
X8094Y-1637D01*
X8104Y-1634D01*
X8115Y-1628D01*
X8126Y-1620D01*
X8136Y-1610D01*
X8137Y-1608D01*
X8141Y-1605D01*
X8144Y-1597D01*
X8150Y-1586D01*
X8154Y-1574D01*
X8159Y-1558D01*
X8162Y-1539D01*
X8163Y-1517D01*
Y-1516D01*
Y-1514D01*
Y-1512D01*
Y-1507D01*
X8162Y-1497D01*
X8159Y-1484D01*
X8156Y-1470D01*
X8152Y-1455D01*
X8145Y-1442D01*
X8136Y-1430D01*
X8135Y-1429D01*
X8132Y-1425D01*
X8125Y-1421D01*
X8118Y-1414D01*
X8108Y-1409D01*
X8096Y-1404D01*
X8082Y-1401D01*
X8068Y-1400D01*
X8062D01*
X8059Y-1401D01*
X8050Y-1402D01*
X8037Y-1405D01*
X8022Y-1411D01*
X8007Y-1419D01*
X7999Y-1424D01*
X7990Y-1431D01*
X7982Y-1438D01*
X7974Y-1446D01*
X7876Y-1432D01*
X7938Y-1104D01*
X8258D01*
Y-1217D01*
D02*
G37*
G36*
X7759Y-1691D02*
Y-1692D01*
Y-1693D01*
Y-1696D01*
Y-1699D01*
Y-1709D01*
X7758Y-1721D01*
X7757Y-1734D01*
X7755Y-1748D01*
X7753Y-1761D01*
X7750Y-1773D01*
Y-1774D01*
X7748Y-1779D01*
X7745Y-1784D01*
X7743Y-1791D01*
X7737Y-1800D01*
X7732Y-1810D01*
X7724Y-1819D01*
X7715Y-1828D01*
X7714Y-1829D01*
X7711Y-1831D01*
X7705Y-1836D01*
X7698Y-1841D01*
X7689Y-1848D01*
X7678Y-1854D01*
X7665Y-1861D01*
X7651Y-1866D01*
X7628Y-1816D01*
X7630Y-1815D01*
X7634Y-1813D01*
X7641Y-1810D01*
X7648Y-1807D01*
X7657Y-1802D01*
X7665Y-1796D01*
X7673Y-1790D01*
X7680Y-1782D01*
X7681Y-1781D01*
X7682Y-1779D01*
X7685Y-1774D01*
X7688Y-1768D01*
X7692Y-1759D01*
X7694Y-1749D01*
X7696Y-1739D01*
X7697Y-1726D01*
X7638D01*
Y-1605D01*
X7759D01*
Y-1691D01*
D02*
G37*
G36*
X17207Y-2421D02*
X17218Y-2423D01*
X17232Y-2425D01*
X17246Y-2429D01*
X17260Y-2434D01*
X17274Y-2441D01*
X17276Y-2442D01*
X17279Y-2445D01*
X17286Y-2449D01*
X17294Y-2455D01*
X17302Y-2465D01*
X17311Y-2475D01*
X17320Y-2486D01*
X17327Y-2501D01*
X17328Y-2502D01*
X17329Y-2506D01*
X17330Y-2514D01*
X17333Y-2524D01*
X17336Y-2537D01*
X17338Y-2553D01*
X17339Y-2573D01*
X17340Y-2596D01*
Y-2887D01*
X17218D01*
Y-2627D01*
Y-2626D01*
Y-2624D01*
Y-2620D01*
Y-2616D01*
X17218Y-2604D01*
X17217Y-2590D01*
X17216Y-2576D01*
X17213Y-2561D01*
X17210Y-2548D01*
X17208Y-2544D01*
X17206Y-2539D01*
X17205Y-2538D01*
X17202Y-2535D01*
X17198Y-2531D01*
X17193Y-2526D01*
X17186Y-2521D01*
X17177Y-2517D01*
X17166Y-2514D01*
X17154Y-2513D01*
X17149D01*
X17145Y-2514D01*
X17138Y-2515D01*
X17131Y-2517D01*
X17123Y-2519D01*
X17114Y-2523D01*
X17105Y-2528D01*
X17105Y-2529D01*
X17102Y-2531D01*
X17098Y-2535D01*
X17094Y-2540D01*
X17088Y-2547D01*
X17083Y-2554D01*
X17078Y-2563D01*
X17074Y-2574D01*
Y-2576D01*
X17072Y-2579D01*
X17071Y-2587D01*
X17069Y-2597D01*
X17067Y-2610D01*
X17066Y-2627D01*
X17064Y-2646D01*
Y-2669D01*
Y-2887D01*
X16943D01*
Y-2638D01*
Y-2637D01*
Y-2635D01*
Y-2631D01*
Y-2627D01*
Y-2616D01*
X16942Y-2602D01*
X16941Y-2588D01*
X16941Y-2574D01*
X16939Y-2561D01*
X16937Y-2556D01*
X16936Y-2552D01*
Y-2551D01*
X16935Y-2548D01*
X16933Y-2545D01*
X16931Y-2541D01*
X16925Y-2531D01*
X16921Y-2527D01*
X16916Y-2523D01*
X16915Y-2522D01*
X16913Y-2521D01*
X16911Y-2519D01*
X16907Y-2517D01*
X16901Y-2516D01*
X16895Y-2515D01*
X16888Y-2513D01*
X16875D01*
X16870Y-2514D01*
X16863Y-2515D01*
X16855Y-2517D01*
X16847Y-2519D01*
X16839Y-2523D01*
X16829Y-2528D01*
X16829Y-2529D01*
X16826Y-2531D01*
X16822Y-2535D01*
X16818Y-2539D01*
X16812Y-2546D01*
X16807Y-2553D01*
X16802Y-2562D01*
X16798Y-2572D01*
Y-2573D01*
X16796Y-2578D01*
X16795Y-2585D01*
X16793Y-2594D01*
X16791Y-2608D01*
X16790Y-2623D01*
X16788Y-2643D01*
Y-2666D01*
Y-2887D01*
X16667D01*
Y-2430D01*
X16778D01*
Y-2493D01*
X16779Y-2492D01*
X16781Y-2490D01*
X16785Y-2486D01*
X16789Y-2481D01*
X16795Y-2476D01*
X16801Y-2470D01*
X16809Y-2463D01*
X16819Y-2456D01*
X16829Y-2450D01*
X16839Y-2443D01*
X16863Y-2431D01*
X16877Y-2426D01*
X16890Y-2423D01*
X16905Y-2421D01*
X16921Y-2420D01*
X16928D01*
X16936Y-2421D01*
X16946Y-2422D01*
X16958Y-2424D01*
X16971Y-2427D01*
X16983Y-2432D01*
X16996Y-2438D01*
X16998Y-2439D01*
X17002Y-2442D01*
X17008Y-2445D01*
X17015Y-2452D01*
X17023Y-2460D01*
X17033Y-2469D01*
X17042Y-2481D01*
X17050Y-2494D01*
X17052Y-2492D01*
X17055Y-2487D01*
X17061Y-2481D01*
X17069Y-2473D01*
X17079Y-2464D01*
X17090Y-2455D01*
X17102Y-2445D01*
X17115Y-2438D01*
X17116Y-2437D01*
X17121Y-2435D01*
X17128Y-2433D01*
X17137Y-2429D01*
X17148Y-2425D01*
X17161Y-2423D01*
X17175Y-2421D01*
X17189Y-2420D01*
X17197D01*
X17207Y-2421D01*
D02*
G37*
G36*
X16423D02*
X16435Y-2423D01*
X16449Y-2425D01*
X16462Y-2429D01*
X16477Y-2434D01*
X16491Y-2441D01*
X16492Y-2442D01*
X16496Y-2445D01*
X16502Y-2449D01*
X16511Y-2455D01*
X16519Y-2465D01*
X16528Y-2475D01*
X16536Y-2486D01*
X16543Y-2501D01*
X16544Y-2502D01*
X16545Y-2506D01*
X16547Y-2514D01*
X16550Y-2524D01*
X16553Y-2537D01*
X16554Y-2553D01*
X16555Y-2573D01*
X16556Y-2596D01*
Y-2887D01*
X16435D01*
Y-2627D01*
Y-2626D01*
Y-2624D01*
Y-2620D01*
Y-2616D01*
X16434Y-2604D01*
X16433Y-2590D01*
X16432Y-2576D01*
X16430Y-2561D01*
X16427Y-2548D01*
X16424Y-2544D01*
X16422Y-2539D01*
X16421Y-2538D01*
X16419Y-2535D01*
X16415Y-2531D01*
X16409Y-2526D01*
X16402Y-2521D01*
X16393Y-2517D01*
X16382Y-2514D01*
X16370Y-2513D01*
X16366D01*
X16361Y-2514D01*
X16355Y-2515D01*
X16348Y-2517D01*
X16339Y-2519D01*
X16330Y-2523D01*
X16322Y-2528D01*
X16321Y-2529D01*
X16318Y-2531D01*
X16315Y-2535D01*
X16310Y-2540D01*
X16305Y-2547D01*
X16299Y-2554D01*
X16295Y-2563D01*
X16290Y-2574D01*
Y-2576D01*
X16288Y-2579D01*
X16287Y-2587D01*
X16286Y-2597D01*
X16284Y-2610D01*
X16283Y-2627D01*
X16281Y-2646D01*
Y-2669D01*
Y-2887D01*
X16160D01*
Y-2638D01*
Y-2637D01*
Y-2635D01*
Y-2631D01*
Y-2627D01*
Y-2616D01*
X16159Y-2602D01*
X16158Y-2588D01*
X16157Y-2574D01*
X16155Y-2561D01*
X16153Y-2556D01*
X16153Y-2552D01*
Y-2551D01*
X16152Y-2548D01*
X16150Y-2545D01*
X16148Y-2541D01*
X16142Y-2531D01*
X16137Y-2527D01*
X16133Y-2523D01*
X16132Y-2522D01*
X16130Y-2521D01*
X16127Y-2519D01*
X16123Y-2517D01*
X16118Y-2516D01*
X16112Y-2515D01*
X16104Y-2513D01*
X16092D01*
X16086Y-2514D01*
X16080Y-2515D01*
X16071Y-2517D01*
X16063Y-2519D01*
X16055Y-2523D01*
X16046Y-2528D01*
X16045Y-2529D01*
X16042Y-2531D01*
X16039Y-2535D01*
X16034Y-2539D01*
X16029Y-2546D01*
X16023Y-2553D01*
X16019Y-2562D01*
X16014Y-2572D01*
Y-2573D01*
X16012Y-2578D01*
X16011Y-2585D01*
X16010Y-2594D01*
X16008Y-2608D01*
X16007Y-2623D01*
X16005Y-2643D01*
Y-2666D01*
Y-2887D01*
X15884D01*
Y-2430D01*
X15995D01*
Y-2493D01*
X15996Y-2492D01*
X15998Y-2490D01*
X16001Y-2486D01*
X16006Y-2481D01*
X16011Y-2476D01*
X16018Y-2470D01*
X16026Y-2463D01*
X16035Y-2456D01*
X16045Y-2450D01*
X16056Y-2443D01*
X16080Y-2431D01*
X16093Y-2426D01*
X16107Y-2423D01*
X16122Y-2421D01*
X16137Y-2420D01*
X16144D01*
X16153Y-2421D01*
X16163Y-2422D01*
X16174Y-2424D01*
X16187Y-2427D01*
X16200Y-2432D01*
X16213Y-2438D01*
X16215Y-2439D01*
X16218Y-2442D01*
X16225Y-2445D01*
X16232Y-2452D01*
X16240Y-2460D01*
X16249Y-2469D01*
X16258Y-2481D01*
X16266Y-2494D01*
X16268Y-2492D01*
X16272Y-2487D01*
X16277Y-2481D01*
X16286Y-2473D01*
X16296Y-2464D01*
X16307Y-2455D01*
X16318Y-2445D01*
X16331Y-2438D01*
X16333Y-2437D01*
X16338Y-2435D01*
X16345Y-2433D01*
X16354Y-2429D01*
X16365Y-2425D01*
X16378Y-2423D01*
X16391Y-2421D01*
X16406Y-2420D01*
X16414D01*
X16423Y-2421D01*
D02*
G37*
G36*
X15578Y-2254D02*
X15585D01*
X15593Y-2255D01*
X15602Y-2257D01*
X15613Y-2260D01*
X15624Y-2262D01*
X15637Y-2267D01*
X15650Y-2271D01*
X15662Y-2278D01*
X15676Y-2285D01*
X15689Y-2293D01*
X15702Y-2303D01*
X15714Y-2315D01*
X15726Y-2328D01*
X15727Y-2329D01*
X15729Y-2332D01*
X15732Y-2336D01*
X15736Y-2342D01*
X15741Y-2351D01*
X15746Y-2361D01*
X15752Y-2373D01*
X15757Y-2386D01*
X15763Y-2403D01*
X15769Y-2421D01*
X15774Y-2441D01*
X15778Y-2463D01*
X15783Y-2487D01*
X15785Y-2514D01*
X15787Y-2542D01*
X15788Y-2573D01*
Y-2574D01*
Y-2575D01*
Y-2578D01*
Y-2580D01*
Y-2589D01*
X15787Y-2601D01*
X15786Y-2616D01*
X15785Y-2632D01*
X15783Y-2650D01*
X15780Y-2669D01*
X15776Y-2690D01*
X15773Y-2710D01*
X15767Y-2731D01*
X15761Y-2752D01*
X15754Y-2771D01*
X15744Y-2790D01*
X15735Y-2807D01*
X15724Y-2823D01*
X15723Y-2824D01*
X15721Y-2826D01*
X15717Y-2830D01*
X15712Y-2834D01*
X15705Y-2840D01*
X15698Y-2847D01*
X15689Y-2854D01*
X15679Y-2861D01*
X15668Y-2868D01*
X15655Y-2875D01*
X15642Y-2881D01*
X15627Y-2887D01*
X15611Y-2892D01*
X15594Y-2895D01*
X15577Y-2898D01*
X15558Y-2899D01*
X15550D01*
X15546Y-2898D01*
X15539D01*
X15532Y-2897D01*
X15515Y-2895D01*
X15496Y-2889D01*
X15477Y-2883D01*
X15457Y-2873D01*
X15447Y-2867D01*
X15438Y-2860D01*
X15437Y-2859D01*
X15437Y-2858D01*
X15434Y-2855D01*
X15431Y-2853D01*
X15427Y-2848D01*
X15423Y-2844D01*
X15419Y-2837D01*
X15414Y-2831D01*
X15409Y-2823D01*
X15404Y-2814D01*
X15399Y-2804D01*
X15395Y-2793D01*
X15390Y-2783D01*
X15386Y-2770D01*
X15383Y-2757D01*
X15380Y-2742D01*
X15497Y-2729D01*
Y-2731D01*
X15498Y-2735D01*
X15498Y-2742D01*
X15501Y-2749D01*
X15504Y-2758D01*
X15508Y-2767D01*
X15512Y-2775D01*
X15519Y-2783D01*
X15519Y-2783D01*
X15522Y-2785D01*
X15526Y-2788D01*
X15531Y-2791D01*
X15539Y-2793D01*
X15546Y-2796D01*
X15556Y-2798D01*
X15566Y-2799D01*
X15568D01*
X15572Y-2798D01*
X15579Y-2797D01*
X15588Y-2794D01*
X15598Y-2791D01*
X15608Y-2784D01*
X15619Y-2776D01*
X15629Y-2765D01*
X15630Y-2763D01*
X15631Y-2762D01*
X15633Y-2758D01*
X15635Y-2754D01*
X15638Y-2749D01*
X15640Y-2742D01*
X15643Y-2734D01*
X15646Y-2725D01*
X15649Y-2715D01*
X15652Y-2703D01*
X15654Y-2691D01*
X15657Y-2676D01*
X15659Y-2660D01*
X15661Y-2641D01*
X15662Y-2622D01*
X15662Y-2623D01*
X15661Y-2624D01*
X15658Y-2627D01*
X15654Y-2630D01*
X15650Y-2634D01*
X15644Y-2639D01*
X15631Y-2649D01*
X15615Y-2659D01*
X15595Y-2667D01*
X15584Y-2670D01*
X15573Y-2672D01*
X15561Y-2674D01*
X15549Y-2675D01*
X15541D01*
X15536Y-2674D01*
X15529Y-2673D01*
X15522Y-2672D01*
X15505Y-2668D01*
X15485Y-2661D01*
X15475Y-2656D01*
X15464Y-2650D01*
X15453Y-2644D01*
X15442Y-2637D01*
X15431Y-2628D01*
X15421Y-2618D01*
X15420Y-2617D01*
X15418Y-2615D01*
X15416Y-2611D01*
X15413Y-2608D01*
X15408Y-2601D01*
X15404Y-2595D01*
X15399Y-2587D01*
X15395Y-2578D01*
X15389Y-2568D01*
X15385Y-2556D01*
X15380Y-2544D01*
X15375Y-2530D01*
X15372Y-2517D01*
X15370Y-2501D01*
X15368Y-2485D01*
X15367Y-2468D01*
Y-2467D01*
Y-2464D01*
Y-2459D01*
X15368Y-2452D01*
X15369Y-2444D01*
X15370Y-2435D01*
X15372Y-2424D01*
X15375Y-2413D01*
X15381Y-2388D01*
X15386Y-2374D01*
X15391Y-2362D01*
X15397Y-2349D01*
X15406Y-2336D01*
X15414Y-2324D01*
X15424Y-2312D01*
X15425Y-2312D01*
X15427Y-2310D01*
X15429Y-2307D01*
X15434Y-2303D01*
X15440Y-2299D01*
X15447Y-2293D01*
X15455Y-2289D01*
X15464Y-2282D01*
X15473Y-2277D01*
X15485Y-2272D01*
X15497Y-2267D01*
X15509Y-2262D01*
X15523Y-2259D01*
X15538Y-2256D01*
X15552Y-2254D01*
X15569Y-2253D01*
X15573D01*
X15578Y-2254D01*
D02*
G37*
G36*
X14864D02*
X14873Y-2255D01*
X14882Y-2256D01*
X14892Y-2258D01*
X14903Y-2260D01*
X14926Y-2266D01*
X14950Y-2275D01*
X14963Y-2281D01*
X14974Y-2287D01*
X14986Y-2295D01*
X14996Y-2304D01*
X14997Y-2305D01*
X14998Y-2306D01*
X15000Y-2310D01*
X15004Y-2313D01*
X15008Y-2318D01*
X15013Y-2324D01*
X15017Y-2331D01*
X15023Y-2339D01*
X15032Y-2357D01*
X15041Y-2378D01*
X15045Y-2390D01*
X15047Y-2403D01*
X15048Y-2416D01*
X15049Y-2430D01*
Y-2432D01*
Y-2437D01*
X15048Y-2445D01*
X15048Y-2455D01*
X15046Y-2468D01*
X15043Y-2482D01*
X15039Y-2496D01*
X15034Y-2511D01*
X15033Y-2513D01*
X15031Y-2517D01*
X15027Y-2526D01*
X15022Y-2536D01*
X15016Y-2547D01*
X15007Y-2561D01*
X14997Y-2576D01*
X14986Y-2591D01*
X14985Y-2592D01*
X14981Y-2597D01*
X14976Y-2603D01*
X14967Y-2612D01*
X14956Y-2623D01*
X14943Y-2638D01*
X14926Y-2653D01*
X14906Y-2672D01*
X14905Y-2673D01*
X14904Y-2674D01*
X14901Y-2677D01*
X14897Y-2680D01*
X14887Y-2690D01*
X14875Y-2701D01*
X14864Y-2712D01*
X14852Y-2724D01*
X14841Y-2734D01*
X14837Y-2739D01*
X14833Y-2742D01*
X14833Y-2743D01*
X14831Y-2745D01*
X14828Y-2749D01*
X14824Y-2753D01*
X14816Y-2763D01*
X14809Y-2775D01*
X15049D01*
Y-2887D01*
X14626D01*
Y-2886D01*
Y-2885D01*
X14627Y-2881D01*
X14628Y-2876D01*
X14628Y-2871D01*
X14629Y-2865D01*
X14633Y-2848D01*
X14639Y-2830D01*
X14646Y-2810D01*
X14655Y-2788D01*
X14667Y-2767D01*
Y-2766D01*
X14669Y-2764D01*
X14670Y-2761D01*
X14674Y-2757D01*
X14678Y-2751D01*
X14683Y-2744D01*
X14690Y-2736D01*
X14697Y-2727D01*
X14705Y-2716D01*
X14715Y-2705D01*
X14726Y-2692D01*
X14739Y-2679D01*
X14752Y-2665D01*
X14768Y-2650D01*
X14784Y-2633D01*
X14802Y-2616D01*
X14803Y-2615D01*
X14806Y-2612D01*
X14810Y-2609D01*
X14815Y-2603D01*
X14823Y-2598D01*
X14830Y-2590D01*
X14846Y-2574D01*
X14863Y-2557D01*
X14879Y-2539D01*
X14886Y-2532D01*
X14894Y-2524D01*
X14899Y-2517D01*
X14903Y-2512D01*
X14904Y-2510D01*
X14906Y-2506D01*
X14911Y-2498D01*
X14915Y-2488D01*
X14920Y-2477D01*
X14925Y-2465D01*
X14927Y-2452D01*
X14928Y-2438D01*
Y-2437D01*
Y-2436D01*
Y-2432D01*
X14927Y-2424D01*
X14925Y-2414D01*
X14923Y-2404D01*
X14919Y-2394D01*
X14914Y-2384D01*
X14906Y-2375D01*
X14905Y-2374D01*
X14903Y-2372D01*
X14897Y-2368D01*
X14891Y-2364D01*
X14882Y-2361D01*
X14872Y-2357D01*
X14860Y-2354D01*
X14846Y-2353D01*
X14840D01*
X14833Y-2354D01*
X14824Y-2356D01*
X14814Y-2359D01*
X14804Y-2363D01*
X14794Y-2369D01*
X14785Y-2376D01*
X14784Y-2377D01*
X14782Y-2381D01*
X14778Y-2386D01*
X14774Y-2394D01*
X14770Y-2404D01*
X14766Y-2418D01*
X14762Y-2434D01*
X14761Y-2452D01*
X14640Y-2440D01*
Y-2439D01*
X14641Y-2435D01*
Y-2431D01*
X14643Y-2424D01*
X14644Y-2415D01*
X14647Y-2406D01*
X14649Y-2396D01*
X14652Y-2384D01*
X14661Y-2362D01*
X14672Y-2338D01*
X14679Y-2326D01*
X14688Y-2315D01*
X14697Y-2306D01*
X14707Y-2297D01*
X14708Y-2296D01*
X14710Y-2295D01*
X14712Y-2293D01*
X14717Y-2290D01*
X14722Y-2287D01*
X14730Y-2283D01*
X14737Y-2279D01*
X14746Y-2275D01*
X14756Y-2271D01*
X14767Y-2267D01*
X14791Y-2260D01*
X14819Y-2255D01*
X14833Y-2254D01*
X14849Y-2253D01*
X14858D01*
X14864Y-2254D01*
D02*
G37*
G36*
X15275Y-2853D02*
Y-2854D01*
Y-2854D01*
Y-2857D01*
Y-2861D01*
Y-2871D01*
X15274Y-2883D01*
X15273Y-2895D01*
X15272Y-2909D01*
X15269Y-2923D01*
X15266Y-2935D01*
Y-2936D01*
X15264Y-2940D01*
X15262Y-2946D01*
X15259Y-2953D01*
X15253Y-2962D01*
X15248Y-2971D01*
X15241Y-2980D01*
X15232Y-2989D01*
X15231Y-2990D01*
X15227Y-2993D01*
X15222Y-2998D01*
X15214Y-3003D01*
X15205Y-3009D01*
X15194Y-3016D01*
X15181Y-3022D01*
X15168Y-3028D01*
X15144Y-2977D01*
X15146Y-2977D01*
X15150Y-2975D01*
X15157Y-2972D01*
X15164Y-2968D01*
X15173Y-2964D01*
X15181Y-2957D01*
X15190Y-2951D01*
X15196Y-2944D01*
X15197Y-2943D01*
X15199Y-2940D01*
X15201Y-2936D01*
X15204Y-2929D01*
X15208Y-2921D01*
X15211Y-2911D01*
X15212Y-2900D01*
X15213Y-2887D01*
X15154D01*
Y-2766D01*
X15275D01*
Y-2853D01*
D02*
G37*
G36*
X2768Y19070D02*
X2721Y19017D01*
X2722Y19015D01*
X2726Y19011D01*
X2730Y19005D01*
X2736Y18996D01*
X2742Y18986D01*
X2748Y18973D01*
X2756Y18959D01*
X2761Y18944D01*
X2762Y18942D01*
X2764Y18936D01*
X2766Y18928D01*
X2769Y18917D01*
X2772Y18904D01*
X2774Y18889D01*
X2776Y18874D01*
X2777Y18856D01*
Y18855D01*
Y18852D01*
Y18846D01*
X2776Y18839D01*
X2775Y18831D01*
X2773Y18820D01*
X2771Y18809D01*
X2768Y18796D01*
X2765Y18783D01*
X2760Y18770D01*
X2755Y18755D01*
X2747Y18741D01*
X2740Y18727D01*
X2731Y18712D01*
X2720Y18699D01*
X2708Y18686D01*
X2707Y18685D01*
X2706Y18683D01*
X2701Y18680D01*
X2696Y18675D01*
X2689Y18670D01*
X2682Y18665D01*
X2673Y18659D01*
X2662Y18652D01*
X2650Y18646D01*
X2637Y18640D01*
X2624Y18634D01*
X2608Y18629D01*
X2593Y18625D01*
X2575Y18621D01*
X2558Y18619D01*
X2539Y18619D01*
X2532D01*
X2526Y18619D01*
X2520D01*
X2512Y18620D01*
X2504Y18621D01*
X2495Y18623D01*
X2474Y18628D01*
X2452Y18633D01*
X2430Y18642D01*
X2407Y18654D01*
X2358Y18598D01*
X2310Y18638D01*
X2360Y18695D01*
X2359Y18697D01*
X2356Y18701D01*
X2351Y18707D01*
X2346Y18716D01*
X2338Y18727D01*
X2332Y18740D01*
X2326Y18754D01*
X2319Y18770D01*
Y18771D01*
X2318Y18772D01*
X2317Y18777D01*
X2315Y18786D01*
X2312Y18797D01*
X2309Y18811D01*
X2307Y18826D01*
X2306Y18842D01*
X2305Y18859D01*
Y18860D01*
Y18864D01*
X2306Y18869D01*
Y18876D01*
X2307Y18885D01*
X2308Y18895D01*
X2310Y18906D01*
X2313Y18919D01*
X2317Y18932D01*
X2321Y18946D01*
X2326Y18960D01*
X2332Y18974D01*
X2340Y18988D01*
X2348Y19002D01*
X2358Y19016D01*
X2370Y19029D01*
X2371Y19029D01*
X2373Y19031D01*
X2378Y19035D01*
X2382Y19039D01*
X2389Y19044D01*
X2397Y19049D01*
X2406Y19056D01*
X2417Y19062D01*
X2428Y19069D01*
X2441Y19075D01*
X2455Y19080D01*
X2470Y19085D01*
X2486Y19090D01*
X2503Y19093D01*
X2521Y19095D01*
X2540Y19096D01*
X2547D01*
X2553Y19095D01*
X2560D01*
X2567Y19094D01*
X2576Y19092D01*
X2585Y19091D01*
X2607Y19087D01*
X2629Y19080D01*
X2653Y19069D01*
X2664Y19064D01*
X2675Y19057D01*
X2720Y19110D01*
X2768Y19070D01*
D02*
G37*
G36*
X5654Y19095D02*
X5665Y19093D01*
X5679Y19090D01*
X5693Y19087D01*
X5707Y19082D01*
X5721Y19075D01*
X5723Y19074D01*
X5726Y19071D01*
X5733Y19067D01*
X5741Y19060D01*
X5749Y19051D01*
X5758Y19041D01*
X5767Y19029D01*
X5774Y19015D01*
X5775Y19014D01*
X5776Y19009D01*
X5777Y19002D01*
X5780Y18992D01*
X5783Y18979D01*
X5785Y18963D01*
X5786Y18943D01*
X5787Y18920D01*
Y18629D01*
X5665D01*
Y18889D01*
Y18890D01*
Y18892D01*
Y18895D01*
Y18900D01*
X5664Y18912D01*
X5664Y18926D01*
X5663Y18940D01*
X5660Y18955D01*
X5657Y18967D01*
X5654Y18972D01*
X5653Y18977D01*
X5652Y18977D01*
X5649Y18981D01*
X5645Y18985D01*
X5640Y18990D01*
X5633Y18995D01*
X5623Y18999D01*
X5613Y19002D01*
X5601Y19003D01*
X5596D01*
X5592Y19002D01*
X5585Y19001D01*
X5578Y18999D01*
X5570Y18997D01*
X5561Y18993D01*
X5552Y18988D01*
X5552Y18987D01*
X5549Y18985D01*
X5545Y18981D01*
X5541Y18976D01*
X5535Y18969D01*
X5530Y18962D01*
X5525Y18953D01*
X5521Y18942D01*
Y18940D01*
X5519Y18936D01*
X5518Y18929D01*
X5516Y18919D01*
X5514Y18906D01*
X5513Y18889D01*
X5511Y18870D01*
Y18847D01*
Y18629D01*
X5390D01*
Y18878D01*
Y18879D01*
Y18881D01*
Y18885D01*
Y18889D01*
Y18900D01*
X5389Y18914D01*
X5388Y18928D01*
X5388Y18942D01*
X5386Y18955D01*
X5384Y18960D01*
X5383Y18964D01*
Y18965D01*
X5382Y18967D01*
X5380Y18971D01*
X5378Y18975D01*
X5372Y18985D01*
X5368Y18989D01*
X5363Y18993D01*
X5362Y18994D01*
X5360Y18995D01*
X5357Y18997D01*
X5354Y18998D01*
X5348Y19000D01*
X5342Y19001D01*
X5335Y19003D01*
X5322D01*
X5316Y19002D01*
X5310Y19001D01*
X5302Y18999D01*
X5294Y18997D01*
X5286Y18993D01*
X5276Y18988D01*
X5275Y18987D01*
X5273Y18985D01*
X5269Y18981D01*
X5265Y18977D01*
X5259Y18970D01*
X5254Y18963D01*
X5249Y18954D01*
X5245Y18944D01*
Y18943D01*
X5243Y18938D01*
X5242Y18931D01*
X5240Y18922D01*
X5238Y18908D01*
X5237Y18893D01*
X5235Y18873D01*
Y18850D01*
Y18629D01*
X5114D01*
Y19086D01*
X5225D01*
Y19023D01*
X5226Y19024D01*
X5228Y19026D01*
X5232Y19029D01*
X5236Y19035D01*
X5242Y19040D01*
X5248Y19046D01*
X5256Y19053D01*
X5265Y19059D01*
X5275Y19066D01*
X5286Y19073D01*
X5310Y19085D01*
X5324Y19090D01*
X5337Y19093D01*
X5352Y19095D01*
X5368Y19096D01*
X5375D01*
X5383Y19095D01*
X5393Y19094D01*
X5405Y19091D01*
X5418Y19089D01*
X5430Y19084D01*
X5443Y19078D01*
X5445Y19077D01*
X5449Y19074D01*
X5455Y19070D01*
X5462Y19064D01*
X5470Y19056D01*
X5480Y19047D01*
X5489Y19035D01*
X5497Y19022D01*
X5499Y19024D01*
X5502Y19029D01*
X5508Y19035D01*
X5516Y19043D01*
X5526Y19052D01*
X5537Y19061D01*
X5549Y19070D01*
X5562Y19078D01*
X5563Y19079D01*
X5568Y19080D01*
X5575Y19083D01*
X5584Y19087D01*
X5595Y19090D01*
X5608Y19093D01*
X5622Y19095D01*
X5636Y19096D01*
X5644D01*
X5654Y19095D01*
D02*
G37*
G36*
X4870D02*
X4882Y19093D01*
X4896Y19090D01*
X4909Y19087D01*
X4924Y19082D01*
X4938Y19075D01*
X4939Y19074D01*
X4943Y19071D01*
X4949Y19067D01*
X4958Y19060D01*
X4966Y19051D01*
X4975Y19041D01*
X4983Y19029D01*
X4990Y19015D01*
X4991Y19014D01*
X4992Y19009D01*
X4994Y19002D01*
X4997Y18992D01*
X4999Y18979D01*
X5001Y18963D01*
X5002Y18943D01*
X5003Y18920D01*
Y18629D01*
X4882D01*
Y18889D01*
Y18890D01*
Y18892D01*
Y18895D01*
Y18900D01*
X4881Y18912D01*
X4880Y18926D01*
X4879Y18940D01*
X4876Y18955D01*
X4874Y18967D01*
X4871Y18972D01*
X4869Y18977D01*
X4868Y18977D01*
X4866Y18981D01*
X4862Y18985D01*
X4856Y18990D01*
X4849Y18995D01*
X4840Y18999D01*
X4829Y19002D01*
X4817Y19003D01*
X4813D01*
X4808Y19002D01*
X4802Y19001D01*
X4794Y18999D01*
X4786Y18997D01*
X4777Y18993D01*
X4769Y18988D01*
X4768Y18987D01*
X4765Y18985D01*
X4762Y18981D01*
X4757Y18976D01*
X4752Y18969D01*
X4746Y18962D01*
X4742Y18953D01*
X4737Y18942D01*
Y18940D01*
X4735Y18936D01*
X4734Y18929D01*
X4733Y18919D01*
X4731Y18906D01*
X4730Y18889D01*
X4728Y18870D01*
Y18847D01*
Y18629D01*
X4607D01*
Y18878D01*
Y18879D01*
Y18881D01*
Y18885D01*
Y18889D01*
Y18900D01*
X4606Y18914D01*
X4605Y18928D01*
X4604Y18942D01*
X4602Y18955D01*
X4600Y18960D01*
X4600Y18964D01*
Y18965D01*
X4599Y18967D01*
X4597Y18971D01*
X4595Y18975D01*
X4589Y18985D01*
X4584Y18989D01*
X4579Y18993D01*
X4579Y18994D01*
X4577Y18995D01*
X4574Y18997D01*
X4570Y18998D01*
X4565Y19000D01*
X4559Y19001D01*
X4551Y19003D01*
X4539D01*
X4533Y19002D01*
X4527Y19001D01*
X4518Y18999D01*
X4510Y18997D01*
X4502Y18993D01*
X4493Y18988D01*
X4492Y18987D01*
X4489Y18985D01*
X4486Y18981D01*
X4481Y18977D01*
X4476Y18970D01*
X4470Y18963D01*
X4466Y18954D01*
X4461Y18944D01*
Y18943D01*
X4459Y18938D01*
X4458Y18931D01*
X4457Y18922D01*
X4455Y18908D01*
X4454Y18893D01*
X4452Y18873D01*
Y18850D01*
Y18629D01*
X4331D01*
Y19086D01*
X4442D01*
Y19023D01*
X4443Y19024D01*
X4445Y19026D01*
X4448Y19029D01*
X4453Y19035D01*
X4458Y19040D01*
X4465Y19046D01*
X4473Y19053D01*
X4482Y19059D01*
X4492Y19066D01*
X4503Y19073D01*
X4527Y19085D01*
X4540Y19090D01*
X4554Y19093D01*
X4569Y19095D01*
X4584Y19096D01*
X4591D01*
X4600Y19095D01*
X4610Y19094D01*
X4621Y19091D01*
X4634Y19089D01*
X4647Y19084D01*
X4660Y19078D01*
X4661Y19077D01*
X4665Y19074D01*
X4672Y19070D01*
X4679Y19064D01*
X4687Y19056D01*
X4696Y19047D01*
X4705Y19035D01*
X4713Y19022D01*
X4715Y19024D01*
X4719Y19029D01*
X4724Y19035D01*
X4733Y19043D01*
X4743Y19052D01*
X4753Y19061D01*
X4765Y19070D01*
X4778Y19078D01*
X4780Y19079D01*
X4784Y19080D01*
X4792Y19083D01*
X4801Y19087D01*
X4812Y19090D01*
X4825Y19093D01*
X4838Y19095D01*
X4853Y19096D01*
X4861D01*
X4870Y19095D01*
D02*
G37*
G36*
X3301Y19262D02*
X3310Y19261D01*
X3318Y19260D01*
X3328Y19258D01*
X3338Y19255D01*
X3361Y19249D01*
X3372Y19244D01*
X3385Y19238D01*
X3397Y19232D01*
X3408Y19224D01*
X3420Y19215D01*
X3430Y19205D01*
X3431Y19204D01*
X3432Y19203D01*
X3434Y19201D01*
X3437Y19197D01*
X3444Y19188D01*
X3453Y19175D01*
X3461Y19160D01*
X3467Y19141D01*
X3473Y19121D01*
X3474Y19111D01*
X3474Y19100D01*
Y19100D01*
Y19097D01*
X3474Y19092D01*
X3473Y19087D01*
X3472Y19080D01*
X3470Y19071D01*
X3467Y19062D01*
X3464Y19052D01*
X3458Y19042D01*
X3453Y19031D01*
X3445Y19020D01*
X3436Y19009D01*
X3425Y18998D01*
X3413Y18988D01*
X3400Y18977D01*
X3383Y18967D01*
X3384D01*
X3386Y18967D01*
X3389D01*
X3392Y18965D01*
X3402Y18962D01*
X3414Y18957D01*
X3428Y18949D01*
X3443Y18940D01*
X3457Y18928D01*
X3470Y18915D01*
X3472Y18913D01*
X3475Y18907D01*
X3480Y18899D01*
X3486Y18887D01*
X3493Y18874D01*
X3497Y18856D01*
X3501Y18838D01*
X3503Y18817D01*
Y18816D01*
Y18814D01*
Y18809D01*
X3502Y18803D01*
X3501Y18796D01*
X3499Y18788D01*
X3497Y18778D01*
X3495Y18768D01*
X3488Y18746D01*
X3483Y18734D01*
X3477Y18721D01*
X3470Y18710D01*
X3462Y18698D01*
X3453Y18686D01*
X3442Y18675D01*
X3441Y18674D01*
X3439Y18672D01*
X3435Y18670D01*
X3431Y18666D01*
X3424Y18661D01*
X3418Y18657D01*
X3409Y18651D01*
X3400Y18646D01*
X3390Y18640D01*
X3378Y18635D01*
X3365Y18630D01*
X3352Y18626D01*
X3338Y18622D01*
X3323Y18619D01*
X3307Y18618D01*
X3290Y18617D01*
X3282D01*
X3276Y18618D01*
X3269Y18619D01*
X3260Y18619D01*
X3251Y18621D01*
X3240Y18623D01*
X3218Y18629D01*
X3195Y18638D01*
X3182Y18643D01*
X3171Y18650D01*
X3159Y18658D01*
X3148Y18666D01*
X3147Y18667D01*
X3146Y18669D01*
X3143Y18671D01*
X3139Y18675D01*
X3135Y18680D01*
X3130Y18686D01*
X3125Y18692D01*
X3119Y18701D01*
X3114Y18710D01*
X3107Y18719D01*
X3097Y18741D01*
X3089Y18766D01*
X3085Y18780D01*
X3084Y18794D01*
X3200Y18809D01*
Y18808D01*
Y18807D01*
X3201Y18802D01*
X3203Y18793D01*
X3206Y18783D01*
X3210Y18773D01*
X3215Y18761D01*
X3222Y18750D01*
X3230Y18740D01*
X3231Y18739D01*
X3235Y18736D01*
X3240Y18732D01*
X3247Y18729D01*
X3256Y18724D01*
X3266Y18721D01*
X3277Y18718D01*
X3290Y18717D01*
X3291D01*
X3296Y18718D01*
X3302Y18719D01*
X3311Y18721D01*
X3321Y18724D01*
X3331Y18729D01*
X3342Y18736D01*
X3352Y18745D01*
X3353Y18746D01*
X3357Y18751D01*
X3361Y18757D01*
X3366Y18765D01*
X3371Y18776D01*
X3375Y18790D01*
X3378Y18805D01*
X3379Y18823D01*
Y18824D01*
Y18824D01*
Y18830D01*
X3378Y18838D01*
X3376Y18849D01*
X3372Y18861D01*
X3368Y18873D01*
X3361Y18885D01*
X3353Y18895D01*
X3352Y18896D01*
X3349Y18900D01*
X3343Y18905D01*
X3337Y18909D01*
X3328Y18915D01*
X3318Y18918D01*
X3307Y18922D01*
X3294Y18923D01*
X3285D01*
X3279Y18922D01*
X3270Y18921D01*
X3260Y18919D01*
X3250Y18916D01*
X3239Y18914D01*
X3251Y19011D01*
X3259D01*
X3269Y19012D01*
X3279Y19013D01*
X3291Y19016D01*
X3304Y19019D01*
X3316Y19025D01*
X3327Y19032D01*
X3328Y19033D01*
X3331Y19037D01*
X3335Y19041D01*
X3341Y19049D01*
X3345Y19057D01*
X3350Y19067D01*
X3352Y19079D01*
X3353Y19092D01*
Y19094D01*
Y19098D01*
X3352Y19103D01*
X3351Y19110D01*
X3349Y19119D01*
X3345Y19127D01*
X3341Y19136D01*
X3334Y19143D01*
X3333Y19144D01*
X3331Y19146D01*
X3327Y19150D01*
X3320Y19153D01*
X3313Y19156D01*
X3305Y19160D01*
X3294Y19162D01*
X3283Y19162D01*
X3278D01*
X3272Y19162D01*
X3265Y19160D01*
X3257Y19157D01*
X3248Y19153D01*
X3239Y19148D01*
X3230Y19141D01*
X3229Y19140D01*
X3227Y19137D01*
X3223Y19131D01*
X3218Y19124D01*
X3214Y19116D01*
X3210Y19105D01*
X3207Y19092D01*
X3204Y19078D01*
X3093Y19096D01*
Y19097D01*
X3094Y19099D01*
Y19101D01*
X3095Y19106D01*
X3097Y19116D01*
X3101Y19130D01*
X3106Y19144D01*
X3112Y19160D01*
X3119Y19174D01*
X3127Y19188D01*
X3128Y19190D01*
X3132Y19193D01*
X3137Y19200D01*
X3145Y19208D01*
X3154Y19216D01*
X3165Y19225D01*
X3178Y19234D01*
X3193Y19243D01*
X3194D01*
X3195Y19244D01*
X3200Y19245D01*
X3209Y19249D01*
X3220Y19253D01*
X3234Y19256D01*
X3250Y19260D01*
X3268Y19262D01*
X3287Y19263D01*
X3295D01*
X3301Y19262D01*
D02*
G37*
G36*
X4047D02*
X4055Y19261D01*
X4064Y19260D01*
X4074Y19258D01*
X4085Y19256D01*
X4108Y19250D01*
X4132Y19241D01*
X4145Y19235D01*
X4156Y19229D01*
X4168Y19221D01*
X4178Y19212D01*
X4179Y19211D01*
X4180Y19210D01*
X4182Y19206D01*
X4186Y19203D01*
X4190Y19198D01*
X4195Y19192D01*
X4200Y19185D01*
X4205Y19177D01*
X4214Y19159D01*
X4223Y19138D01*
X4227Y19126D01*
X4229Y19113D01*
X4231Y19100D01*
X4231Y19086D01*
Y19084D01*
Y19079D01*
X4231Y19070D01*
X4230Y19060D01*
X4228Y19048D01*
X4225Y19034D01*
X4221Y19019D01*
X4216Y19005D01*
X4215Y19003D01*
X4213Y18998D01*
X4210Y18990D01*
X4204Y18980D01*
X4198Y18968D01*
X4190Y18955D01*
X4180Y18940D01*
X4168Y18925D01*
X4167Y18924D01*
X4163Y18919D01*
X4158Y18913D01*
X4150Y18904D01*
X4139Y18893D01*
X4125Y18878D01*
X4108Y18863D01*
X4088Y18844D01*
X4088Y18843D01*
X4086Y18842D01*
X4083Y18839D01*
X4079Y18835D01*
X4069Y18826D01*
X4057Y18815D01*
X4046Y18803D01*
X4034Y18792D01*
X4023Y18782D01*
X4019Y18777D01*
X4016Y18773D01*
X4015Y18773D01*
X4013Y18771D01*
X4010Y18767D01*
X4006Y18762D01*
X3998Y18752D01*
X3991Y18741D01*
X4231D01*
Y18629D01*
X3808D01*
Y18629D01*
Y18631D01*
X3809Y18635D01*
X3810Y18640D01*
X3811Y18645D01*
X3812Y18651D01*
X3815Y18668D01*
X3821Y18686D01*
X3828Y18706D01*
X3837Y18728D01*
X3849Y18749D01*
Y18750D01*
X3851Y18752D01*
X3853Y18755D01*
X3856Y18759D01*
X3860Y18765D01*
X3865Y18772D01*
X3872Y18780D01*
X3879Y18789D01*
X3887Y18800D01*
X3897Y18811D01*
X3908Y18824D01*
X3921Y18837D01*
X3934Y18851D01*
X3950Y18866D01*
X3966Y18883D01*
X3985Y18900D01*
X3986Y18901D01*
X3988Y18904D01*
X3992Y18907D01*
X3997Y18913D01*
X4005Y18918D01*
X4012Y18926D01*
X4028Y18942D01*
X4045Y18959D01*
X4061Y18977D01*
X4068Y18984D01*
X4076Y18992D01*
X4081Y18998D01*
X4085Y19004D01*
X4086Y19006D01*
X4088Y19010D01*
X4093Y19018D01*
X4098Y19028D01*
X4102Y19039D01*
X4107Y19051D01*
X4109Y19064D01*
X4110Y19078D01*
Y19079D01*
Y19080D01*
Y19084D01*
X4109Y19092D01*
X4108Y19101D01*
X4105Y19111D01*
X4101Y19121D01*
X4096Y19131D01*
X4088Y19141D01*
X4088Y19141D01*
X4085Y19144D01*
X4079Y19148D01*
X4073Y19151D01*
X4064Y19155D01*
X4054Y19159D01*
X4042Y19162D01*
X4028Y19162D01*
X4022D01*
X4015Y19162D01*
X4006Y19160D01*
X3996Y19157D01*
X3986Y19152D01*
X3976Y19147D01*
X3967Y19140D01*
X3966Y19139D01*
X3964Y19135D01*
X3960Y19130D01*
X3956Y19121D01*
X3952Y19111D01*
X3948Y19098D01*
X3945Y19082D01*
X3943Y19064D01*
X3822Y19076D01*
Y19077D01*
X3823Y19080D01*
Y19085D01*
X3825Y19092D01*
X3826Y19100D01*
X3829Y19110D01*
X3832Y19120D01*
X3834Y19131D01*
X3843Y19154D01*
X3854Y19178D01*
X3862Y19190D01*
X3870Y19201D01*
X3879Y19210D01*
X3889Y19219D01*
X3890Y19220D01*
X3892Y19221D01*
X3894Y19223D01*
X3899Y19226D01*
X3904Y19229D01*
X3912Y19233D01*
X3919Y19237D01*
X3928Y19241D01*
X3938Y19245D01*
X3949Y19249D01*
X3973Y19256D01*
X4001Y19261D01*
X4016Y19262D01*
X4031Y19263D01*
X4040D01*
X4047Y19262D01*
D02*
G37*
G36*
X3722Y18663D02*
Y18662D01*
Y18661D01*
Y18659D01*
Y18655D01*
Y18645D01*
X3721Y18633D01*
X3720Y18620D01*
X3719Y18607D01*
X3716Y18593D01*
X3713Y18581D01*
Y18580D01*
X3711Y18576D01*
X3709Y18570D01*
X3706Y18563D01*
X3700Y18554D01*
X3695Y18545D01*
X3688Y18536D01*
X3679Y18527D01*
X3678Y18526D01*
X3674Y18523D01*
X3668Y18518D01*
X3661Y18513D01*
X3652Y18506D01*
X3641Y18500D01*
X3628Y18494D01*
X3615Y18488D01*
X3591Y18538D01*
X3593Y18539D01*
X3597Y18541D01*
X3604Y18544D01*
X3611Y18547D01*
X3620Y18552D01*
X3628Y18558D01*
X3637Y18565D01*
X3643Y18572D01*
X3644Y18573D01*
X3646Y18576D01*
X3648Y18580D01*
X3651Y18587D01*
X3655Y18595D01*
X3658Y18605D01*
X3659Y18616D01*
X3660Y18629D01*
X3601D01*
Y18750D01*
X3722D01*
Y18663D01*
D02*
G37*
G36*
X11330Y19031D02*
X11283Y18977D01*
X11284Y18975D01*
X11288Y18972D01*
X11292Y18965D01*
X11298Y18956D01*
X11304Y18946D01*
X11311Y18934D01*
X11318Y18920D01*
X11323Y18904D01*
X11324Y18903D01*
X11326Y18897D01*
X11328Y18889D01*
X11332Y18878D01*
X11334Y18864D01*
X11336Y18850D01*
X11338Y18834D01*
X11339Y18817D01*
Y18816D01*
Y18812D01*
Y18807D01*
X11338Y18800D01*
X11337Y18791D01*
X11335Y18781D01*
X11333Y18770D01*
X11331Y18757D01*
X11327Y18744D01*
X11322Y18730D01*
X11317Y18716D01*
X11310Y18701D01*
X11302Y18688D01*
X11293Y18673D01*
X11282Y18659D01*
X11271Y18647D01*
X11270Y18646D01*
X11268Y18644D01*
X11263Y18640D01*
X11259Y18636D01*
X11251Y18631D01*
X11244Y18626D01*
X11235Y18619D01*
X11224Y18613D01*
X11212Y18607D01*
X11199Y18600D01*
X11186Y18595D01*
X11170Y18590D01*
X11155Y18586D01*
X11138Y18582D01*
X11120Y18580D01*
X11101Y18579D01*
X11094D01*
X11088Y18580D01*
X11082D01*
X11075Y18581D01*
X11066Y18582D01*
X11057Y18584D01*
X11036Y18588D01*
X11015Y18594D01*
X10992Y18603D01*
X10969Y18615D01*
X10920Y18558D01*
X10872Y18598D01*
X10923Y18656D01*
X10922Y18658D01*
X10918Y18661D01*
X10913Y18668D01*
X10908Y18677D01*
X10901Y18688D01*
X10894Y18700D01*
X10888Y18715D01*
X10882Y18730D01*
Y18731D01*
X10881Y18732D01*
X10880Y18738D01*
X10877Y18747D01*
X10874Y18758D01*
X10872Y18771D01*
X10870Y18787D01*
X10868Y18802D01*
X10867Y18820D01*
Y18821D01*
Y18824D01*
X10868Y18830D01*
Y18837D01*
X10869Y18845D01*
X10871Y18856D01*
X10872Y18867D01*
X10875Y18880D01*
X10879Y18893D01*
X10883Y18906D01*
X10888Y18921D01*
X10894Y18934D01*
X10903Y18949D01*
X10911Y18963D01*
X10921Y18976D01*
X10933Y18989D01*
X10933Y18990D01*
X10935Y18992D01*
X10940Y18996D01*
X10944Y19000D01*
X10951Y19005D01*
X10959Y19010D01*
X10968Y19016D01*
X10979Y19023D01*
X10990Y19029D01*
X11004Y19036D01*
X11017Y19041D01*
X11032Y19046D01*
X11048Y19050D01*
X11066Y19054D01*
X11083Y19056D01*
X11102Y19057D01*
X11109D01*
X11115Y19056D01*
X11122D01*
X11129Y19055D01*
X11138Y19053D01*
X11148Y19052D01*
X11169Y19047D01*
X11191Y19040D01*
X11215Y19030D01*
X11226Y19025D01*
X11237Y19017D01*
X11282Y19070D01*
X11330Y19031D01*
D02*
G37*
G36*
X14216Y19056D02*
X14228Y19054D01*
X14241Y19051D01*
X14255Y19047D01*
X14270Y19043D01*
X14283Y19036D01*
X14285Y19035D01*
X14289Y19032D01*
X14295Y19027D01*
X14303Y19021D01*
X14311Y19012D01*
X14321Y19002D01*
X14329Y18990D01*
X14336Y18975D01*
X14337Y18975D01*
X14338Y18970D01*
X14340Y18963D01*
X14342Y18953D01*
X14345Y18940D01*
X14347Y18924D01*
X14348Y18903D01*
X14349Y18881D01*
Y18589D01*
X14228D01*
Y18850D01*
Y18851D01*
Y18852D01*
Y18856D01*
Y18861D01*
X14227Y18873D01*
X14226Y18886D01*
X14225Y18901D01*
X14222Y18915D01*
X14219Y18928D01*
X14217Y18933D01*
X14215Y18937D01*
X14214Y18938D01*
X14211Y18942D01*
X14208Y18945D01*
X14202Y18951D01*
X14195Y18955D01*
X14186Y18960D01*
X14175Y18963D01*
X14163Y18964D01*
X14158D01*
X14154Y18963D01*
X14147Y18962D01*
X14140Y18960D01*
X14132Y18957D01*
X14123Y18954D01*
X14115Y18948D01*
X14114Y18947D01*
X14111Y18945D01*
X14107Y18942D01*
X14103Y18936D01*
X14097Y18930D01*
X14092Y18923D01*
X14087Y18914D01*
X14083Y18903D01*
Y18901D01*
X14081Y18897D01*
X14080Y18890D01*
X14078Y18880D01*
X14076Y18866D01*
X14076Y18850D01*
X14074Y18831D01*
Y18808D01*
Y18589D01*
X13953D01*
Y18839D01*
Y18840D01*
Y18842D01*
Y18845D01*
Y18850D01*
Y18861D01*
X13952Y18874D01*
X13951Y18889D01*
X13950Y18903D01*
X13948Y18915D01*
X13946Y18921D01*
X13945Y18924D01*
Y18925D01*
X13944Y18928D01*
X13943Y18932D01*
X13941Y18935D01*
X13934Y18945D01*
X13930Y18950D01*
X13925Y18954D01*
X13924Y18955D01*
X13922Y18955D01*
X13920Y18957D01*
X13916Y18959D01*
X13911Y18961D01*
X13904Y18962D01*
X13897Y18964D01*
X13884D01*
X13879Y18963D01*
X13872Y18962D01*
X13864Y18960D01*
X13856Y18957D01*
X13848Y18954D01*
X13839Y18948D01*
X13838Y18947D01*
X13835Y18945D01*
X13831Y18942D01*
X13827Y18937D01*
X13821Y18931D01*
X13816Y18924D01*
X13811Y18914D01*
X13807Y18904D01*
Y18903D01*
X13805Y18899D01*
X13804Y18892D01*
X13802Y18883D01*
X13800Y18869D01*
X13799Y18853D01*
X13798Y18833D01*
Y18811D01*
Y18589D01*
X13677D01*
Y19047D01*
X13788D01*
Y18984D01*
X13789Y18985D01*
X13790Y18986D01*
X13794Y18990D01*
X13799Y18996D01*
X13804Y19001D01*
X13810Y19006D01*
X13819Y19014D01*
X13828Y19020D01*
X13838Y19026D01*
X13849Y19034D01*
X13872Y19046D01*
X13886Y19050D01*
X13900Y19054D01*
X13914Y19056D01*
X13930Y19057D01*
X13937D01*
X13945Y19056D01*
X13955Y19055D01*
X13967Y19052D01*
X13980Y19049D01*
X13993Y19045D01*
X14005Y19038D01*
X14007Y19037D01*
X14011Y19035D01*
X14017Y19031D01*
X14024Y19025D01*
X14033Y19016D01*
X14042Y19007D01*
X14051Y18996D01*
X14059Y18983D01*
X14061Y18985D01*
X14065Y18989D01*
X14070Y18996D01*
X14078Y19004D01*
X14088Y19013D01*
X14099Y19022D01*
X14111Y19031D01*
X14124Y19038D01*
X14126Y19039D01*
X14130Y19041D01*
X14137Y19044D01*
X14147Y19047D01*
X14158Y19051D01*
X14170Y19054D01*
X14184Y19056D01*
X14198Y19057D01*
X14207D01*
X14216Y19056D01*
D02*
G37*
G36*
X13432D02*
X13444Y19054D01*
X13458Y19051D01*
X13472Y19047D01*
X13486Y19043D01*
X13500Y19036D01*
X13502Y19035D01*
X13505Y19032D01*
X13512Y19027D01*
X13520Y19021D01*
X13528Y19012D01*
X13537Y19002D01*
X13545Y18990D01*
X13553Y18975D01*
X13554Y18975D01*
X13554Y18970D01*
X13556Y18963D01*
X13559Y18953D01*
X13562Y18940D01*
X13564Y18924D01*
X13564Y18903D01*
X13565Y18881D01*
Y18589D01*
X13444D01*
Y18850D01*
Y18851D01*
Y18852D01*
Y18856D01*
Y18861D01*
X13443Y18873D01*
X13442Y18886D01*
X13441Y18901D01*
X13439Y18915D01*
X13436Y18928D01*
X13433Y18933D01*
X13431Y18937D01*
X13431Y18938D01*
X13428Y18942D01*
X13424Y18945D01*
X13419Y18951D01*
X13411Y18955D01*
X13402Y18960D01*
X13391Y18963D01*
X13380Y18964D01*
X13375D01*
X13370Y18963D01*
X13364Y18962D01*
X13357Y18960D01*
X13349Y18957D01*
X13339Y18954D01*
X13331Y18948D01*
X13330Y18947D01*
X13328Y18945D01*
X13324Y18942D01*
X13319Y18936D01*
X13314Y18930D01*
X13308Y18923D01*
X13304Y18914D01*
X13299Y18903D01*
Y18901D01*
X13298Y18897D01*
X13297Y18890D01*
X13295Y18880D01*
X13293Y18866D01*
X13292Y18850D01*
X13290Y18831D01*
Y18808D01*
Y18589D01*
X13169D01*
Y18839D01*
Y18840D01*
Y18842D01*
Y18845D01*
Y18850D01*
Y18861D01*
X13168Y18874D01*
X13167Y18889D01*
X13166Y18903D01*
X13165Y18915D01*
X13163Y18921D01*
X13162Y18924D01*
Y18925D01*
X13161Y18928D01*
X13159Y18932D01*
X13157Y18935D01*
X13151Y18945D01*
X13146Y18950D01*
X13142Y18954D01*
X13141Y18955D01*
X13139Y18955D01*
X13136Y18957D01*
X13133Y18959D01*
X13127Y18961D01*
X13121Y18962D01*
X13113Y18964D01*
X13101D01*
X13095Y18963D01*
X13089Y18962D01*
X13081Y18960D01*
X13073Y18957D01*
X13064Y18954D01*
X13055Y18948D01*
X13054Y18947D01*
X13052Y18945D01*
X13048Y18942D01*
X13043Y18937D01*
X13038Y18931D01*
X13032Y18924D01*
X13028Y18914D01*
X13023Y18904D01*
Y18903D01*
X13021Y18899D01*
X13021Y18892D01*
X13019Y18883D01*
X13017Y18869D01*
X13016Y18853D01*
X13014Y18833D01*
Y18811D01*
Y18589D01*
X12893D01*
Y19047D01*
X13004D01*
Y18984D01*
X13005Y18985D01*
X13007Y18986D01*
X13011Y18990D01*
X13015Y18996D01*
X13021Y19001D01*
X13027Y19006D01*
X13035Y19014D01*
X13044Y19020D01*
X13054Y19026D01*
X13065Y19034D01*
X13089Y19046D01*
X13103Y19050D01*
X13116Y19054D01*
X13131Y19056D01*
X13146Y19057D01*
X13154D01*
X13162Y19056D01*
X13172Y19055D01*
X13184Y19052D01*
X13196Y19049D01*
X13209Y19045D01*
X13222Y19038D01*
X13224Y19037D01*
X13227Y19035D01*
X13234Y19031D01*
X13241Y19025D01*
X13249Y19016D01*
X13258Y19007D01*
X13267Y18996D01*
X13276Y18983D01*
X13277Y18985D01*
X13281Y18989D01*
X13287Y18996D01*
X13295Y19004D01*
X13305Y19013D01*
X13316Y19022D01*
X13328Y19031D01*
X13340Y19038D01*
X13342Y19039D01*
X13347Y19041D01*
X13354Y19044D01*
X13363Y19047D01*
X13374Y19051D01*
X13387Y19054D01*
X13400Y19056D01*
X13415Y19057D01*
X13423D01*
X13432Y19056D01*
D02*
G37*
G36*
X11864Y19222D02*
X11872Y19221D01*
X11880Y19221D01*
X11890Y19219D01*
X11900Y19216D01*
X11923Y19210D01*
X11935Y19205D01*
X11947Y19199D01*
X11959Y19192D01*
X11970Y19185D01*
X11982Y19176D01*
X11992Y19166D01*
X11993Y19165D01*
X11994Y19164D01*
X11997Y19161D01*
X11999Y19158D01*
X12007Y19149D01*
X12015Y19136D01*
X12023Y19120D01*
X12029Y19102D01*
X12035Y19082D01*
X12036Y19072D01*
X12037Y19061D01*
Y19060D01*
Y19057D01*
X12036Y19053D01*
X12035Y19047D01*
X12034Y19040D01*
X12032Y19032D01*
X12029Y19023D01*
X12026Y19013D01*
X12020Y19003D01*
X12015Y18992D01*
X12008Y18981D01*
X11998Y18970D01*
X11988Y18959D01*
X11976Y18948D01*
X11962Y18938D01*
X11946Y18928D01*
X11947D01*
X11948Y18927D01*
X11951D01*
X11955Y18925D01*
X11965Y18923D01*
X11977Y18917D01*
X11990Y18910D01*
X12005Y18901D01*
X12019Y18889D01*
X12032Y18875D01*
X12034Y18873D01*
X12038Y18868D01*
X12042Y18860D01*
X12049Y18848D01*
X12055Y18834D01*
X12059Y18817D01*
X12063Y18799D01*
X12065Y18778D01*
Y18777D01*
Y18774D01*
Y18770D01*
X12064Y18764D01*
X12063Y18757D01*
X12061Y18749D01*
X12059Y18739D01*
X12058Y18729D01*
X12050Y18707D01*
X12045Y18695D01*
X12039Y18682D01*
X12032Y18670D01*
X12024Y18658D01*
X12015Y18647D01*
X12004Y18636D01*
X12003Y18635D01*
X12001Y18633D01*
X11998Y18630D01*
X11993Y18627D01*
X11987Y18622D01*
X11980Y18617D01*
X11971Y18612D01*
X11962Y18607D01*
X11952Y18601D01*
X11940Y18596D01*
X11927Y18591D01*
X11915Y18586D01*
X11900Y18583D01*
X11885Y18580D01*
X11869Y18578D01*
X11853Y18577D01*
X11844D01*
X11838Y18578D01*
X11831Y18579D01*
X11823Y18580D01*
X11814Y18582D01*
X11803Y18584D01*
X11781Y18589D01*
X11757Y18598D01*
X11744Y18604D01*
X11733Y18610D01*
X11721Y18618D01*
X11711Y18627D01*
X11710Y18627D01*
X11708Y18629D01*
X11705Y18632D01*
X11701Y18636D01*
X11697Y18640D01*
X11692Y18647D01*
X11687Y18653D01*
X11681Y18661D01*
X11676Y18670D01*
X11670Y18679D01*
X11660Y18701D01*
X11651Y18727D01*
X11648Y18740D01*
X11646Y18755D01*
X11762Y18770D01*
Y18769D01*
Y18768D01*
X11763Y18762D01*
X11765Y18754D01*
X11768Y18744D01*
X11773Y18733D01*
X11777Y18721D01*
X11784Y18710D01*
X11793Y18700D01*
X11793Y18699D01*
X11797Y18697D01*
X11803Y18693D01*
X11809Y18689D01*
X11818Y18685D01*
X11828Y18681D01*
X11839Y18678D01*
X11852Y18678D01*
X11854D01*
X11858Y18678D01*
X11865Y18679D01*
X11874Y18681D01*
X11884Y18685D01*
X11894Y18689D01*
X11905Y18697D01*
X11915Y18706D01*
X11916Y18707D01*
X11919Y18711D01*
X11923Y18718D01*
X11928Y18726D01*
X11933Y18737D01*
X11937Y18750D01*
X11940Y18766D01*
X11941Y18783D01*
Y18784D01*
Y18785D01*
Y18791D01*
X11940Y18799D01*
X11938Y18810D01*
X11935Y18822D01*
X11930Y18833D01*
X11924Y18845D01*
X11916Y18856D01*
X11915Y18857D01*
X11911Y18861D01*
X11906Y18865D01*
X11899Y18870D01*
X11890Y18875D01*
X11880Y18879D01*
X11869Y18883D01*
X11856Y18883D01*
X11847D01*
X11841Y18883D01*
X11833Y18882D01*
X11823Y18880D01*
X11813Y18877D01*
X11801Y18874D01*
X11814Y18972D01*
X11822D01*
X11831Y18973D01*
X11842Y18974D01*
X11854Y18976D01*
X11866Y18980D01*
X11878Y18985D01*
X11889Y18993D01*
X11890Y18994D01*
X11894Y18997D01*
X11897Y19002D01*
X11903Y19009D01*
X11907Y19017D01*
X11912Y19027D01*
X11915Y19039D01*
X11916Y19053D01*
Y19055D01*
Y19058D01*
X11915Y19064D01*
X11913Y19071D01*
X11911Y19079D01*
X11907Y19088D01*
X11903Y19097D01*
X11896Y19104D01*
X11896Y19105D01*
X11893Y19107D01*
X11889Y19110D01*
X11883Y19114D01*
X11875Y19117D01*
X11867Y19120D01*
X11856Y19122D01*
X11845Y19123D01*
X11840D01*
X11834Y19122D01*
X11827Y19120D01*
X11819Y19118D01*
X11810Y19114D01*
X11801Y19108D01*
X11793Y19101D01*
X11792Y19100D01*
X11789Y19098D01*
X11785Y19092D01*
X11781Y19085D01*
X11776Y19077D01*
X11773Y19066D01*
X11769Y19053D01*
X11766Y19038D01*
X11655Y19057D01*
Y19057D01*
X11656Y19059D01*
Y19062D01*
X11657Y19067D01*
X11660Y19077D01*
X11663Y19090D01*
X11669Y19105D01*
X11674Y19120D01*
X11681Y19135D01*
X11690Y19149D01*
X11691Y19150D01*
X11694Y19154D01*
X11700Y19160D01*
X11707Y19169D01*
X11716Y19177D01*
X11727Y19186D01*
X11741Y19195D01*
X11755Y19203D01*
X11756D01*
X11757Y19204D01*
X11762Y19206D01*
X11772Y19210D01*
X11783Y19213D01*
X11796Y19217D01*
X11813Y19221D01*
X11830Y19222D01*
X11849Y19223D01*
X11857D01*
X11864Y19222D01*
D02*
G37*
G36*
X12609D02*
X12617Y19221D01*
X12626Y19221D01*
X12636Y19219D01*
X12647Y19217D01*
X12671Y19211D01*
X12694Y19201D01*
X12707Y19196D01*
X12718Y19190D01*
X12730Y19181D01*
X12740Y19172D01*
X12741Y19171D01*
X12743Y19170D01*
X12745Y19167D01*
X12748Y19163D01*
X12753Y19159D01*
X12757Y19152D01*
X12762Y19146D01*
X12767Y19138D01*
X12776Y19119D01*
X12786Y19098D01*
X12789Y19087D01*
X12791Y19074D01*
X12793Y19060D01*
X12794Y19047D01*
Y19045D01*
Y19039D01*
X12793Y19031D01*
X12792Y19021D01*
X12790Y19008D01*
X12787Y18995D01*
X12784Y18980D01*
X12778Y18965D01*
X12777Y18964D01*
X12776Y18959D01*
X12772Y18951D01*
X12766Y18941D01*
X12760Y18929D01*
X12752Y18915D01*
X12742Y18901D01*
X12730Y18885D01*
X12729Y18884D01*
X12725Y18880D01*
X12720Y18873D01*
X12712Y18864D01*
X12701Y18853D01*
X12687Y18839D01*
X12671Y18823D01*
X12651Y18804D01*
X12650Y18803D01*
X12648Y18802D01*
X12645Y18800D01*
X12642Y18796D01*
X12632Y18787D01*
X12620Y18776D01*
X12608Y18764D01*
X12596Y18752D01*
X12585Y18742D01*
X12581Y18738D01*
X12578Y18734D01*
X12577Y18733D01*
X12575Y18731D01*
X12572Y18728D01*
X12569Y18723D01*
X12561Y18713D01*
X12553Y18701D01*
X12794D01*
Y18589D01*
X12370D01*
Y18590D01*
Y18592D01*
X12371Y18596D01*
X12372Y18600D01*
X12373Y18606D01*
X12374Y18612D01*
X12377Y18628D01*
X12383Y18647D01*
X12390Y18667D01*
X12399Y18688D01*
X12411Y18709D01*
Y18710D01*
X12413Y18712D01*
X12415Y18716D01*
X12418Y18719D01*
X12422Y18726D01*
X12428Y18732D01*
X12434Y18740D01*
X12441Y18750D01*
X12449Y18760D01*
X12459Y18771D01*
X12470Y18784D01*
X12483Y18798D01*
X12497Y18811D01*
X12512Y18827D01*
X12529Y18843D01*
X12547Y18861D01*
X12548Y18862D01*
X12551Y18864D01*
X12554Y18868D01*
X12560Y18873D01*
X12567Y18879D01*
X12574Y18886D01*
X12591Y18903D01*
X12607Y18920D01*
X12623Y18937D01*
X12631Y18944D01*
X12638Y18953D01*
X12643Y18959D01*
X12647Y18965D01*
X12648Y18966D01*
X12651Y18971D01*
X12655Y18978D01*
X12660Y18988D01*
X12664Y18999D01*
X12669Y19012D01*
X12672Y19025D01*
X12673Y19038D01*
Y19039D01*
Y19040D01*
Y19045D01*
X12672Y19053D01*
X12670Y19062D01*
X12667Y19072D01*
X12663Y19082D01*
X12658Y19092D01*
X12651Y19101D01*
X12650Y19102D01*
X12647Y19105D01*
X12642Y19108D01*
X12635Y19112D01*
X12626Y19116D01*
X12616Y19119D01*
X12604Y19122D01*
X12591Y19123D01*
X12584D01*
X12577Y19122D01*
X12569Y19120D01*
X12559Y19118D01*
X12549Y19113D01*
X12539Y19108D01*
X12530Y19100D01*
X12529Y19099D01*
X12526Y19096D01*
X12522Y19090D01*
X12519Y19082D01*
X12514Y19072D01*
X12510Y19058D01*
X12507Y19043D01*
X12505Y19025D01*
X12385Y19037D01*
Y19037D01*
X12386Y19041D01*
Y19046D01*
X12387Y19053D01*
X12388Y19061D01*
X12391Y19070D01*
X12394Y19080D01*
X12397Y19092D01*
X12406Y19115D01*
X12417Y19139D01*
X12424Y19150D01*
X12432Y19161D01*
X12441Y19170D01*
X12451Y19180D01*
X12452Y19180D01*
X12454Y19181D01*
X12457Y19183D01*
X12461Y19187D01*
X12467Y19190D01*
X12474Y19193D01*
X12481Y19198D01*
X12490Y19201D01*
X12500Y19206D01*
X12511Y19210D01*
X12535Y19217D01*
X12563Y19221D01*
X12578Y19222D01*
X12593Y19223D01*
X12602D01*
X12609Y19222D01*
D02*
G37*
G36*
X12284Y18624D02*
Y18623D01*
Y18622D01*
Y18619D01*
Y18616D01*
Y18606D01*
X12284Y18594D01*
X12283Y18581D01*
X12281Y18567D01*
X12278Y18554D01*
X12275Y18542D01*
Y18541D01*
X12274Y18536D01*
X12271Y18531D01*
X12268Y18524D01*
X12263Y18514D01*
X12257Y18505D01*
X12250Y18496D01*
X12241Y18487D01*
X12240Y18486D01*
X12236Y18484D01*
X12231Y18479D01*
X12223Y18474D01*
X12214Y18467D01*
X12203Y18461D01*
X12191Y18454D01*
X12177Y18449D01*
X12153Y18499D01*
X12155Y18500D01*
X12160Y18502D01*
X12166Y18504D01*
X12173Y18508D01*
X12182Y18513D01*
X12191Y18519D01*
X12199Y18525D01*
X12205Y18533D01*
X12206Y18534D01*
X12208Y18536D01*
X12211Y18541D01*
X12213Y18547D01*
X12217Y18556D01*
X12220Y18566D01*
X12222Y18576D01*
X12223Y18589D01*
X12163D01*
Y18710D01*
X12284D01*
Y18624D01*
D02*
G37*
G36*
X11290Y2299D02*
X11244Y2245D01*
X11245Y2243D01*
X11248Y2240D01*
X11253Y2233D01*
X11259Y2224D01*
X11265Y2214D01*
X11271Y2201D01*
X11279Y2188D01*
X11284Y2172D01*
X11285Y2170D01*
X11287Y2165D01*
X11289Y2157D01*
X11292Y2146D01*
X11295Y2132D01*
X11297Y2117D01*
X11299Y2102D01*
X11300Y2085D01*
Y2084D01*
Y2080D01*
Y2075D01*
X11299Y2067D01*
X11298Y2059D01*
X11296Y2048D01*
X11294Y2037D01*
X11291Y2025D01*
X11288Y2012D01*
X11283Y1998D01*
X11278Y1984D01*
X11270Y1969D01*
X11263Y1955D01*
X11254Y1941D01*
X11243Y1927D01*
X11231Y1914D01*
X11230Y1913D01*
X11228Y1912D01*
X11224Y1908D01*
X11219Y1903D01*
X11212Y1899D01*
X11205Y1893D01*
X11196Y1887D01*
X11185Y1881D01*
X11173Y1874D01*
X11160Y1868D01*
X11146Y1862D01*
X11131Y1858D01*
X11115Y1853D01*
X11098Y1850D01*
X11081Y1848D01*
X11062Y1847D01*
X11054D01*
X11049Y1848D01*
X11043D01*
X11035Y1849D01*
X11027Y1850D01*
X11018Y1851D01*
X10997Y1856D01*
X10975Y1861D01*
X10952Y1871D01*
X10930Y1882D01*
X10880Y1826D01*
X10833Y1866D01*
X10883Y1923D01*
X10882Y1925D01*
X10879Y1929D01*
X10874Y1935D01*
X10869Y1944D01*
X10861Y1955D01*
X10855Y1968D01*
X10849Y1983D01*
X10842Y1998D01*
Y1999D01*
X10841Y2000D01*
X10840Y2005D01*
X10838Y2015D01*
X10835Y2025D01*
X10832Y2039D01*
X10830Y2055D01*
X10829Y2070D01*
X10828Y2087D01*
Y2088D01*
Y2092D01*
X10829Y2097D01*
Y2105D01*
X10829Y2113D01*
X10831Y2124D01*
X10833Y2135D01*
X10836Y2148D01*
X10839Y2160D01*
X10844Y2174D01*
X10849Y2189D01*
X10855Y2202D01*
X10863Y2217D01*
X10871Y2230D01*
X10881Y2244D01*
X10893Y2257D01*
X10894Y2258D01*
X10896Y2260D01*
X10900Y2263D01*
X10905Y2268D01*
X10911Y2272D01*
X10920Y2278D01*
X10929Y2284D01*
X10940Y2291D01*
X10951Y2297D01*
X10964Y2303D01*
X10978Y2309D01*
X10992Y2313D01*
X11009Y2318D01*
X11026Y2322D01*
X11044Y2323D01*
X11063Y2324D01*
X11070D01*
X11075Y2323D01*
X11083D01*
X11090Y2322D01*
X11099Y2321D01*
X11108Y2320D01*
X11130Y2315D01*
X11152Y2308D01*
X11176Y2298D01*
X11187Y2292D01*
X11197Y2285D01*
X11243Y2338D01*
X11290Y2299D01*
D02*
G37*
G36*
X14176Y2323D02*
X14188Y2322D01*
X14202Y2319D01*
X14216Y2315D01*
X14230Y2311D01*
X14244Y2303D01*
X14246Y2302D01*
X14249Y2300D01*
X14256Y2295D01*
X14264Y2289D01*
X14272Y2280D01*
X14281Y2270D01*
X14289Y2258D01*
X14297Y2243D01*
X14298Y2242D01*
X14299Y2238D01*
X14300Y2230D01*
X14303Y2220D01*
X14306Y2208D01*
X14308Y2191D01*
X14309Y2171D01*
X14309Y2148D01*
Y1857D01*
X14188D01*
Y2117D01*
Y2118D01*
Y2120D01*
Y2124D01*
Y2128D01*
X14187Y2140D01*
X14186Y2154D01*
X14186Y2168D01*
X14183Y2183D01*
X14180Y2196D01*
X14177Y2200D01*
X14176Y2205D01*
X14175Y2206D01*
X14172Y2209D01*
X14168Y2213D01*
X14163Y2219D01*
X14155Y2223D01*
X14146Y2228D01*
X14135Y2230D01*
X14124Y2231D01*
X14119D01*
X14114Y2230D01*
X14108Y2230D01*
X14101Y2228D01*
X14093Y2225D01*
X14084Y2221D01*
X14075Y2216D01*
X14074Y2215D01*
X14072Y2213D01*
X14068Y2209D01*
X14063Y2204D01*
X14058Y2198D01*
X14053Y2190D01*
X14048Y2181D01*
X14043Y2170D01*
Y2168D01*
X14042Y2165D01*
X14041Y2158D01*
X14039Y2148D01*
X14037Y2134D01*
X14036Y2117D01*
X14034Y2098D01*
Y2076D01*
Y1857D01*
X13913D01*
Y2107D01*
Y2107D01*
Y2109D01*
Y2113D01*
Y2117D01*
Y2128D01*
X13912Y2142D01*
X13911Y2157D01*
X13910Y2170D01*
X13909Y2183D01*
X13907Y2189D01*
X13906Y2192D01*
Y2193D01*
X13905Y2196D01*
X13903Y2199D01*
X13901Y2203D01*
X13895Y2213D01*
X13890Y2218D01*
X13886Y2221D01*
X13885Y2222D01*
X13883Y2223D01*
X13880Y2225D01*
X13877Y2227D01*
X13871Y2229D01*
X13865Y2230D01*
X13858Y2231D01*
X13845D01*
X13839Y2230D01*
X13833Y2230D01*
X13825Y2228D01*
X13817Y2225D01*
X13808Y2221D01*
X13799Y2216D01*
X13798Y2215D01*
X13796Y2213D01*
X13792Y2209D01*
X13787Y2205D01*
X13782Y2199D01*
X13777Y2191D01*
X13772Y2182D01*
X13767Y2172D01*
Y2171D01*
X13766Y2167D01*
X13765Y2159D01*
X13763Y2150D01*
X13761Y2137D01*
X13760Y2121D01*
X13758Y2101D01*
Y2078D01*
Y1857D01*
X13637D01*
Y2314D01*
X13748D01*
Y2251D01*
X13749Y2252D01*
X13751Y2254D01*
X13755Y2258D01*
X13759Y2263D01*
X13765Y2269D01*
X13771Y2274D01*
X13779Y2281D01*
X13788Y2288D01*
X13798Y2294D01*
X13809Y2301D01*
X13833Y2313D01*
X13847Y2318D01*
X13860Y2322D01*
X13875Y2323D01*
X13890Y2324D01*
X13898D01*
X13906Y2323D01*
X13916Y2322D01*
X13928Y2320D01*
X13940Y2317D01*
X13953Y2312D01*
X13966Y2306D01*
X13968Y2305D01*
X13971Y2302D01*
X13978Y2299D01*
X13985Y2292D01*
X13993Y2284D01*
X14002Y2275D01*
X14012Y2263D01*
X14020Y2250D01*
X14022Y2252D01*
X14025Y2257D01*
X14031Y2263D01*
X14039Y2271D01*
X14049Y2281D01*
X14060Y2290D01*
X14072Y2299D01*
X14084Y2306D01*
X14086Y2307D01*
X14091Y2309D01*
X14098Y2312D01*
X14107Y2315D01*
X14118Y2319D01*
X14131Y2322D01*
X14145Y2323D01*
X14159Y2324D01*
X14167D01*
X14176Y2323D01*
D02*
G37*
G36*
X13393D02*
X13405Y2322D01*
X13418Y2319D01*
X13432Y2315D01*
X13447Y2311D01*
X13460Y2303D01*
X13462Y2302D01*
X13466Y2300D01*
X13472Y2295D01*
X13480Y2289D01*
X13489Y2280D01*
X13498Y2270D01*
X13506Y2258D01*
X13513Y2243D01*
X13514Y2242D01*
X13515Y2238D01*
X13517Y2230D01*
X13520Y2220D01*
X13522Y2208D01*
X13524Y2191D01*
X13525Y2171D01*
X13526Y2148D01*
Y1857D01*
X13405D01*
Y2117D01*
Y2118D01*
Y2120D01*
Y2124D01*
Y2128D01*
X13404Y2140D01*
X13403Y2154D01*
X13402Y2168D01*
X13399Y2183D01*
X13397Y2196D01*
X13394Y2200D01*
X13392Y2205D01*
X13391Y2206D01*
X13388Y2209D01*
X13385Y2213D01*
X13379Y2219D01*
X13372Y2223D01*
X13363Y2228D01*
X13352Y2230D01*
X13340Y2231D01*
X13336D01*
X13331Y2230D01*
X13325Y2230D01*
X13317Y2228D01*
X13309Y2225D01*
X13300Y2221D01*
X13292Y2216D01*
X13291Y2215D01*
X13288Y2213D01*
X13285Y2209D01*
X13280Y2204D01*
X13275Y2198D01*
X13269Y2190D01*
X13265Y2181D01*
X13260Y2170D01*
Y2168D01*
X13258Y2165D01*
X13257Y2158D01*
X13255Y2148D01*
X13254Y2134D01*
X13253Y2117D01*
X13251Y2098D01*
Y2076D01*
Y1857D01*
X13130D01*
Y2107D01*
Y2107D01*
Y2109D01*
Y2113D01*
Y2117D01*
Y2128D01*
X13129Y2142D01*
X13128Y2157D01*
X13127Y2170D01*
X13125Y2183D01*
X13123Y2189D01*
X13122Y2192D01*
Y2193D01*
X13122Y2196D01*
X13120Y2199D01*
X13118Y2203D01*
X13111Y2213D01*
X13107Y2218D01*
X13102Y2221D01*
X13101Y2222D01*
X13100Y2223D01*
X13097Y2225D01*
X13093Y2227D01*
X13088Y2229D01*
X13081Y2230D01*
X13074Y2231D01*
X13061D01*
X13056Y2230D01*
X13050Y2230D01*
X13041Y2228D01*
X13033Y2225D01*
X13025Y2221D01*
X13016Y2216D01*
X13015Y2215D01*
X13012Y2213D01*
X13009Y2209D01*
X13004Y2205D01*
X12999Y2199D01*
X12993Y2191D01*
X12989Y2182D01*
X12984Y2172D01*
Y2171D01*
X12982Y2167D01*
X12981Y2159D01*
X12979Y2150D01*
X12978Y2137D01*
X12977Y2121D01*
X12975Y2101D01*
Y2078D01*
Y1857D01*
X12854D01*
Y2314D01*
X12965D01*
Y2251D01*
X12966Y2252D01*
X12968Y2254D01*
X12971Y2258D01*
X12976Y2263D01*
X12981Y2269D01*
X12988Y2274D01*
X12996Y2281D01*
X13005Y2288D01*
X13015Y2294D01*
X13026Y2301D01*
X13050Y2313D01*
X13063Y2318D01*
X13077Y2322D01*
X13091Y2323D01*
X13107Y2324D01*
X13114D01*
X13122Y2323D01*
X13132Y2322D01*
X13144Y2320D01*
X13157Y2317D01*
X13170Y2312D01*
X13183Y2306D01*
X13184Y2305D01*
X13188Y2302D01*
X13194Y2299D01*
X13202Y2292D01*
X13210Y2284D01*
X13219Y2275D01*
X13228Y2263D01*
X13236Y2250D01*
X13238Y2252D01*
X13242Y2257D01*
X13247Y2263D01*
X13255Y2271D01*
X13265Y2281D01*
X13276Y2290D01*
X13288Y2299D01*
X13301Y2306D01*
X13303Y2307D01*
X13307Y2309D01*
X13315Y2312D01*
X13324Y2315D01*
X13335Y2319D01*
X13347Y2322D01*
X13361Y2323D01*
X13376Y2324D01*
X13384D01*
X13393Y2323D01*
D02*
G37*
G36*
X11824Y2490D02*
X11832Y2489D01*
X11841Y2488D01*
X11851Y2486D01*
X11861Y2484D01*
X11883Y2477D01*
X11895Y2473D01*
X11908Y2466D01*
X11920Y2460D01*
X11931Y2453D01*
X11943Y2444D01*
X11953Y2434D01*
X11954Y2433D01*
X11955Y2432D01*
X11957Y2429D01*
X11960Y2425D01*
X11967Y2416D01*
X11975Y2404D01*
X11984Y2388D01*
X11990Y2370D01*
X11996Y2350D01*
X11996Y2340D01*
X11997Y2329D01*
Y2328D01*
Y2325D01*
X11996Y2321D01*
X11996Y2315D01*
X11995Y2308D01*
X11993Y2300D01*
X11990Y2291D01*
X11986Y2281D01*
X11981Y2271D01*
X11975Y2260D01*
X11968Y2249D01*
X11959Y2238D01*
X11948Y2227D01*
X11936Y2216D01*
X11923Y2206D01*
X11906Y2196D01*
X11907D01*
X11909Y2195D01*
X11912D01*
X11915Y2193D01*
X11925Y2190D01*
X11937Y2185D01*
X11951Y2178D01*
X11965Y2168D01*
X11980Y2157D01*
X11993Y2143D01*
X11995Y2141D01*
X11998Y2136D01*
X12003Y2127D01*
X12009Y2116D01*
X12016Y2102D01*
X12020Y2085D01*
X12024Y2066D01*
X12026Y2045D01*
Y2045D01*
Y2042D01*
Y2037D01*
X12025Y2032D01*
X12024Y2025D01*
X12022Y2016D01*
X12020Y2006D01*
X12018Y1996D01*
X12011Y1974D01*
X12006Y1963D01*
X12000Y1950D01*
X11993Y1938D01*
X11985Y1926D01*
X11975Y1914D01*
X11965Y1903D01*
X11964Y1902D01*
X11962Y1901D01*
X11958Y1898D01*
X11954Y1894D01*
X11947Y1890D01*
X11941Y1885D01*
X11932Y1880D01*
X11923Y1874D01*
X11913Y1869D01*
X11901Y1863D01*
X11888Y1859D01*
X11875Y1854D01*
X11861Y1851D01*
X11846Y1848D01*
X11830Y1846D01*
X11813Y1845D01*
X11805D01*
X11799Y1846D01*
X11791Y1847D01*
X11783Y1848D01*
X11774Y1850D01*
X11763Y1851D01*
X11741Y1857D01*
X11718Y1866D01*
X11705Y1871D01*
X11694Y1878D01*
X11682Y1886D01*
X11671Y1894D01*
X11670Y1895D01*
X11668Y1897D01*
X11666Y1900D01*
X11662Y1903D01*
X11658Y1908D01*
X11653Y1914D01*
X11648Y1921D01*
X11642Y1929D01*
X11637Y1938D01*
X11630Y1947D01*
X11620Y1969D01*
X11612Y1994D01*
X11608Y2008D01*
X11607Y2023D01*
X11723Y2037D01*
Y2036D01*
Y2035D01*
X11724Y2030D01*
X11726Y2022D01*
X11729Y2012D01*
X11733Y2001D01*
X11738Y1989D01*
X11745Y1978D01*
X11753Y1968D01*
X11754Y1967D01*
X11758Y1964D01*
X11763Y1961D01*
X11770Y1957D01*
X11779Y1953D01*
X11789Y1949D01*
X11800Y1946D01*
X11812Y1945D01*
X11814D01*
X11819Y1946D01*
X11825Y1947D01*
X11834Y1949D01*
X11844Y1953D01*
X11854Y1957D01*
X11865Y1964D01*
X11875Y1974D01*
X11876Y1974D01*
X11880Y1979D01*
X11883Y1985D01*
X11889Y1994D01*
X11893Y2005D01*
X11898Y2018D01*
X11901Y2034D01*
X11902Y2051D01*
Y2052D01*
Y2053D01*
Y2058D01*
X11901Y2066D01*
X11899Y2077D01*
X11895Y2089D01*
X11891Y2101D01*
X11884Y2113D01*
X11876Y2124D01*
X11875Y2125D01*
X11872Y2128D01*
X11866Y2133D01*
X11860Y2138D01*
X11851Y2143D01*
X11841Y2147D01*
X11830Y2150D01*
X11817Y2151D01*
X11808D01*
X11801Y2150D01*
X11793Y2149D01*
X11783Y2148D01*
X11773Y2145D01*
X11761Y2142D01*
X11774Y2240D01*
X11782D01*
X11791Y2240D01*
X11802Y2241D01*
X11814Y2244D01*
X11827Y2248D01*
X11839Y2253D01*
X11850Y2260D01*
X11851Y2261D01*
X11854Y2265D01*
X11858Y2270D01*
X11863Y2277D01*
X11868Y2285D01*
X11873Y2295D01*
X11875Y2307D01*
X11876Y2321D01*
Y2322D01*
Y2326D01*
X11875Y2332D01*
X11873Y2339D01*
X11872Y2347D01*
X11868Y2355D01*
X11863Y2364D01*
X11857Y2372D01*
X11856Y2373D01*
X11853Y2374D01*
X11850Y2378D01*
X11843Y2382D01*
X11836Y2384D01*
X11828Y2388D01*
X11817Y2390D01*
X11806Y2391D01*
X11801D01*
X11795Y2390D01*
X11788Y2388D01*
X11780Y2385D01*
X11770Y2382D01*
X11761Y2376D01*
X11753Y2369D01*
X11752Y2368D01*
X11750Y2365D01*
X11746Y2360D01*
X11741Y2352D01*
X11737Y2344D01*
X11733Y2333D01*
X11730Y2321D01*
X11727Y2306D01*
X11616Y2324D01*
Y2325D01*
X11617Y2327D01*
Y2330D01*
X11617Y2334D01*
X11620Y2344D01*
X11624Y2358D01*
X11629Y2373D01*
X11635Y2388D01*
X11642Y2403D01*
X11650Y2416D01*
X11651Y2418D01*
X11655Y2422D01*
X11660Y2428D01*
X11668Y2436D01*
X11677Y2445D01*
X11688Y2454D01*
X11701Y2463D01*
X11716Y2471D01*
X11717D01*
X11718Y2472D01*
X11723Y2474D01*
X11732Y2477D01*
X11743Y2481D01*
X11757Y2485D01*
X11773Y2488D01*
X11791Y2490D01*
X11810Y2491D01*
X11818D01*
X11824Y2490D01*
D02*
G37*
G36*
X12569D02*
X12578Y2489D01*
X12587Y2488D01*
X12597Y2486D01*
X12608Y2485D01*
X12631Y2478D01*
X12655Y2469D01*
X12668Y2464D01*
X12679Y2457D01*
X12691Y2449D01*
X12701Y2440D01*
X12702Y2439D01*
X12703Y2438D01*
X12705Y2434D01*
X12709Y2431D01*
X12713Y2426D01*
X12718Y2420D01*
X12722Y2414D01*
X12728Y2405D01*
X12737Y2387D01*
X12746Y2366D01*
X12750Y2354D01*
X12752Y2342D01*
X12753Y2328D01*
X12754Y2314D01*
Y2312D01*
Y2307D01*
X12753Y2299D01*
X12753Y2289D01*
X12751Y2276D01*
X12748Y2262D01*
X12744Y2248D01*
X12739Y2233D01*
X12738Y2231D01*
X12736Y2227D01*
X12733Y2219D01*
X12727Y2209D01*
X12721Y2197D01*
X12712Y2183D01*
X12702Y2168D01*
X12691Y2153D01*
X12690Y2152D01*
X12686Y2148D01*
X12681Y2141D01*
X12672Y2132D01*
X12661Y2121D01*
X12648Y2107D01*
X12631Y2091D01*
X12611Y2072D01*
X12610Y2071D01*
X12609Y2070D01*
X12606Y2067D01*
X12602Y2064D01*
X12592Y2055D01*
X12580Y2044D01*
X12569Y2032D01*
X12557Y2020D01*
X12546Y2010D01*
X12542Y2005D01*
X12538Y2002D01*
X12538Y2001D01*
X12536Y1999D01*
X12533Y1995D01*
X12529Y1991D01*
X12521Y1981D01*
X12514Y1969D01*
X12754D01*
Y1857D01*
X12331D01*
Y1858D01*
Y1860D01*
X12332Y1863D01*
X12333Y1868D01*
X12333Y1873D01*
X12334Y1880D01*
X12338Y1896D01*
X12344Y1914D01*
X12351Y1934D01*
X12360Y1956D01*
X12372Y1977D01*
Y1978D01*
X12374Y1980D01*
X12375Y1984D01*
X12379Y1987D01*
X12383Y1994D01*
X12388Y2000D01*
X12395Y2008D01*
X12402Y2017D01*
X12410Y2028D01*
X12420Y2039D01*
X12431Y2052D01*
X12444Y2066D01*
X12457Y2079D01*
X12473Y2095D01*
X12489Y2111D01*
X12507Y2128D01*
X12508Y2129D01*
X12511Y2132D01*
X12515Y2136D01*
X12520Y2141D01*
X12528Y2147D01*
X12535Y2154D01*
X12551Y2170D01*
X12568Y2188D01*
X12584Y2205D01*
X12591Y2212D01*
X12599Y2220D01*
X12604Y2227D01*
X12608Y2232D01*
X12609Y2234D01*
X12611Y2239D01*
X12616Y2246D01*
X12620Y2256D01*
X12625Y2267D01*
X12630Y2280D01*
X12632Y2292D01*
X12633Y2306D01*
Y2307D01*
Y2308D01*
Y2312D01*
X12632Y2321D01*
X12630Y2330D01*
X12628Y2340D01*
X12624Y2350D01*
X12619Y2360D01*
X12611Y2369D01*
X12610Y2370D01*
X12608Y2373D01*
X12602Y2376D01*
X12596Y2380D01*
X12587Y2383D01*
X12577Y2387D01*
X12565Y2390D01*
X12551Y2391D01*
X12545D01*
X12538Y2390D01*
X12529Y2388D01*
X12519Y2385D01*
X12509Y2381D01*
X12499Y2375D01*
X12490Y2368D01*
X12489Y2367D01*
X12487Y2363D01*
X12483Y2358D01*
X12479Y2350D01*
X12475Y2340D01*
X12471Y2326D01*
X12467Y2311D01*
X12466Y2292D01*
X12345Y2304D01*
Y2305D01*
X12346Y2309D01*
Y2313D01*
X12348Y2321D01*
X12349Y2329D01*
X12352Y2338D01*
X12354Y2348D01*
X12357Y2360D01*
X12366Y2383D01*
X12377Y2406D01*
X12385Y2418D01*
X12393Y2429D01*
X12402Y2438D01*
X12412Y2447D01*
X12413Y2448D01*
X12415Y2449D01*
X12417Y2451D01*
X12422Y2455D01*
X12427Y2457D01*
X12435Y2461D01*
X12442Y2465D01*
X12451Y2469D01*
X12461Y2474D01*
X12472Y2477D01*
X12496Y2485D01*
X12524Y2489D01*
X12538Y2490D01*
X12554Y2491D01*
X12563D01*
X12569Y2490D01*
D02*
G37*
G36*
X12245Y1892D02*
Y1891D01*
Y1890D01*
Y1887D01*
Y1883D01*
Y1873D01*
X12244Y1861D01*
X12243Y1849D01*
X12241Y1835D01*
X12239Y1821D01*
X12236Y1810D01*
Y1809D01*
X12234Y1804D01*
X12231Y1799D01*
X12229Y1791D01*
X12223Y1782D01*
X12218Y1773D01*
X12211Y1764D01*
X12201Y1755D01*
X12200Y1754D01*
X12197Y1751D01*
X12191Y1747D01*
X12184Y1741D01*
X12175Y1735D01*
X12164Y1728D01*
X12151Y1722D01*
X12138Y1717D01*
X12114Y1767D01*
X12116Y1768D01*
X12120Y1769D01*
X12127Y1772D01*
X12134Y1776D01*
X12143Y1780D01*
X12151Y1787D01*
X12159Y1793D01*
X12166Y1800D01*
X12167Y1801D01*
X12169Y1804D01*
X12171Y1809D01*
X12174Y1815D01*
X12178Y1823D01*
X12180Y1833D01*
X12182Y1844D01*
X12183Y1857D01*
X12124D01*
Y1978D01*
X12245D01*
Y1892D01*
D02*
G37*
G36*
X2900Y2392D02*
X2854Y2339D01*
X2855Y2337D01*
X2859Y2333D01*
X2863Y2327D01*
X2869Y2318D01*
X2875Y2308D01*
X2881Y2295D01*
X2889Y2281D01*
X2894Y2266D01*
X2895Y2264D01*
X2897Y2258D01*
X2899Y2250D01*
X2902Y2239D01*
X2905Y2226D01*
X2907Y2211D01*
X2909Y2196D01*
X2910Y2178D01*
Y2177D01*
Y2174D01*
Y2168D01*
X2909Y2161D01*
X2908Y2153D01*
X2906Y2142D01*
X2904Y2131D01*
X2901Y2118D01*
X2898Y2105D01*
X2893Y2092D01*
X2888Y2077D01*
X2880Y2063D01*
X2873Y2049D01*
X2864Y2034D01*
X2853Y2021D01*
X2841Y2008D01*
X2840Y2007D01*
X2839Y2005D01*
X2834Y2002D01*
X2829Y1997D01*
X2822Y1992D01*
X2815Y1987D01*
X2806Y1981D01*
X2795Y1974D01*
X2783Y1968D01*
X2770Y1961D01*
X2757Y1956D01*
X2741Y1951D01*
X2726Y1947D01*
X2708Y1943D01*
X2691Y1941D01*
X2672Y1941D01*
X2665D01*
X2659Y1941D01*
X2653D01*
X2645Y1942D01*
X2637Y1943D01*
X2628Y1945D01*
X2607Y1950D01*
X2585Y1955D01*
X2563Y1964D01*
X2540Y1976D01*
X2491Y1920D01*
X2443Y1960D01*
X2493Y2017D01*
X2492Y2019D01*
X2489Y2023D01*
X2484Y2029D01*
X2479Y2038D01*
X2471Y2049D01*
X2465Y2062D01*
X2459Y2076D01*
X2452Y2092D01*
Y2093D01*
X2451Y2094D01*
X2450Y2099D01*
X2448Y2108D01*
X2445Y2119D01*
X2442Y2133D01*
X2440Y2148D01*
X2439Y2164D01*
X2438Y2181D01*
Y2182D01*
Y2186D01*
X2439Y2191D01*
Y2198D01*
X2440Y2207D01*
X2441Y2217D01*
X2443Y2228D01*
X2446Y2241D01*
X2450Y2254D01*
X2454Y2268D01*
X2459Y2282D01*
X2465Y2296D01*
X2473Y2310D01*
X2481Y2324D01*
X2491Y2338D01*
X2503Y2350D01*
X2504Y2351D01*
X2506Y2353D01*
X2511Y2357D01*
X2515Y2361D01*
X2522Y2366D01*
X2530Y2371D01*
X2539Y2378D01*
X2550Y2384D01*
X2561Y2391D01*
X2574Y2397D01*
X2588Y2402D01*
X2603Y2407D01*
X2619Y2412D01*
X2636Y2415D01*
X2654Y2417D01*
X2673Y2418D01*
X2680D01*
X2686Y2417D01*
X2693D01*
X2700Y2416D01*
X2709Y2414D01*
X2718Y2413D01*
X2740Y2409D01*
X2762Y2401D01*
X2786Y2391D01*
X2797Y2386D01*
X2808Y2379D01*
X2853Y2432D01*
X2900Y2392D01*
D02*
G37*
G36*
X5787Y2417D02*
X5798Y2415D01*
X5812Y2412D01*
X5826Y2409D01*
X5840Y2404D01*
X5854Y2397D01*
X5856Y2396D01*
X5859Y2393D01*
X5866Y2389D01*
X5874Y2382D01*
X5882Y2373D01*
X5891Y2363D01*
X5900Y2351D01*
X5907Y2337D01*
X5908Y2336D01*
X5909Y2331D01*
X5910Y2324D01*
X5913Y2314D01*
X5916Y2301D01*
X5918Y2285D01*
X5919Y2265D01*
X5920Y2242D01*
Y1951D01*
X5798D01*
Y2211D01*
Y2212D01*
Y2214D01*
Y2217D01*
Y2222D01*
X5797Y2234D01*
X5797Y2248D01*
X5796Y2262D01*
X5793Y2277D01*
X5790Y2289D01*
X5787Y2294D01*
X5786Y2299D01*
X5785Y2299D01*
X5782Y2303D01*
X5778Y2307D01*
X5773Y2312D01*
X5766Y2317D01*
X5756Y2321D01*
X5746Y2324D01*
X5734Y2325D01*
X5729D01*
X5725Y2324D01*
X5718Y2323D01*
X5711Y2321D01*
X5703Y2319D01*
X5694Y2315D01*
X5685Y2309D01*
X5685Y2309D01*
X5682Y2307D01*
X5678Y2303D01*
X5674Y2298D01*
X5668Y2291D01*
X5663Y2284D01*
X5658Y2275D01*
X5654Y2264D01*
Y2262D01*
X5652Y2258D01*
X5651Y2251D01*
X5649Y2241D01*
X5647Y2227D01*
X5646Y2211D01*
X5644Y2192D01*
Y2169D01*
Y1951D01*
X5523D01*
Y2200D01*
Y2201D01*
Y2203D01*
Y2207D01*
Y2211D01*
Y2222D01*
X5522Y2236D01*
X5521Y2250D01*
X5521Y2264D01*
X5519Y2277D01*
X5517Y2282D01*
X5516Y2286D01*
Y2287D01*
X5515Y2289D01*
X5513Y2293D01*
X5511Y2297D01*
X5505Y2307D01*
X5501Y2311D01*
X5496Y2315D01*
X5495Y2316D01*
X5493Y2317D01*
X5490Y2319D01*
X5487Y2320D01*
X5481Y2322D01*
X5475Y2323D01*
X5468Y2325D01*
X5455D01*
X5449Y2324D01*
X5443Y2323D01*
X5435Y2321D01*
X5427Y2319D01*
X5419Y2315D01*
X5409Y2309D01*
X5408Y2309D01*
X5406Y2307D01*
X5402Y2303D01*
X5398Y2299D01*
X5392Y2292D01*
X5387Y2285D01*
X5382Y2276D01*
X5378Y2266D01*
Y2265D01*
X5376Y2260D01*
X5375Y2253D01*
X5373Y2244D01*
X5371Y2230D01*
X5370Y2215D01*
X5368Y2195D01*
Y2172D01*
Y1951D01*
X5247D01*
Y2408D01*
X5358D01*
Y2345D01*
X5359Y2346D01*
X5361Y2348D01*
X5365Y2351D01*
X5369Y2357D01*
X5375Y2362D01*
X5381Y2368D01*
X5389Y2375D01*
X5398Y2381D01*
X5408Y2388D01*
X5419Y2395D01*
X5443Y2407D01*
X5457Y2412D01*
X5470Y2415D01*
X5485Y2417D01*
X5501Y2418D01*
X5508D01*
X5516Y2417D01*
X5526Y2416D01*
X5538Y2413D01*
X5551Y2411D01*
X5563Y2406D01*
X5576Y2400D01*
X5578Y2399D01*
X5582Y2396D01*
X5588Y2392D01*
X5595Y2386D01*
X5603Y2378D01*
X5613Y2369D01*
X5622Y2357D01*
X5630Y2344D01*
X5632Y2346D01*
X5635Y2350D01*
X5641Y2357D01*
X5649Y2365D01*
X5659Y2374D01*
X5670Y2383D01*
X5682Y2392D01*
X5695Y2400D01*
X5696Y2401D01*
X5701Y2402D01*
X5708Y2405D01*
X5717Y2409D01*
X5728Y2412D01*
X5741Y2415D01*
X5755Y2417D01*
X5769Y2418D01*
X5777D01*
X5787Y2417D01*
D02*
G37*
G36*
X5003D02*
X5015Y2415D01*
X5029Y2412D01*
X5042Y2409D01*
X5057Y2404D01*
X5071Y2397D01*
X5072Y2396D01*
X5076Y2393D01*
X5082Y2389D01*
X5091Y2382D01*
X5099Y2373D01*
X5108Y2363D01*
X5116Y2351D01*
X5123Y2337D01*
X5124Y2336D01*
X5125Y2331D01*
X5127Y2324D01*
X5130Y2314D01*
X5132Y2301D01*
X5134Y2285D01*
X5135Y2265D01*
X5136Y2242D01*
Y1951D01*
X5015D01*
Y2211D01*
Y2212D01*
Y2214D01*
Y2217D01*
Y2222D01*
X5014Y2234D01*
X5013Y2248D01*
X5012Y2262D01*
X5009Y2277D01*
X5007Y2289D01*
X5004Y2294D01*
X5002Y2299D01*
X5001Y2299D01*
X4999Y2303D01*
X4995Y2307D01*
X4989Y2312D01*
X4982Y2317D01*
X4973Y2321D01*
X4962Y2324D01*
X4950Y2325D01*
X4946D01*
X4941Y2324D01*
X4935Y2323D01*
X4927Y2321D01*
X4919Y2319D01*
X4910Y2315D01*
X4902Y2309D01*
X4901Y2309D01*
X4898Y2307D01*
X4895Y2303D01*
X4890Y2298D01*
X4885Y2291D01*
X4879Y2284D01*
X4875Y2275D01*
X4870Y2264D01*
Y2262D01*
X4868Y2258D01*
X4867Y2251D01*
X4866Y2241D01*
X4864Y2227D01*
X4863Y2211D01*
X4861Y2192D01*
Y2169D01*
Y1951D01*
X4740D01*
Y2200D01*
Y2201D01*
Y2203D01*
Y2207D01*
Y2211D01*
Y2222D01*
X4739Y2236D01*
X4738Y2250D01*
X4737Y2264D01*
X4735Y2277D01*
X4733Y2282D01*
X4733Y2286D01*
Y2287D01*
X4732Y2289D01*
X4730Y2293D01*
X4728Y2297D01*
X4722Y2307D01*
X4717Y2311D01*
X4712Y2315D01*
X4712Y2316D01*
X4710Y2317D01*
X4707Y2319D01*
X4703Y2320D01*
X4698Y2322D01*
X4692Y2323D01*
X4684Y2325D01*
X4671D01*
X4666Y2324D01*
X4660Y2323D01*
X4651Y2321D01*
X4643Y2319D01*
X4635Y2315D01*
X4626Y2309D01*
X4625Y2309D01*
X4622Y2307D01*
X4619Y2303D01*
X4614Y2299D01*
X4609Y2292D01*
X4603Y2285D01*
X4599Y2276D01*
X4594Y2266D01*
Y2265D01*
X4592Y2260D01*
X4591Y2253D01*
X4590Y2244D01*
X4588Y2230D01*
X4587Y2215D01*
X4585Y2195D01*
Y2172D01*
Y1951D01*
X4464D01*
Y2408D01*
X4575D01*
Y2345D01*
X4576Y2346D01*
X4578Y2348D01*
X4581Y2351D01*
X4586Y2357D01*
X4591Y2362D01*
X4598Y2368D01*
X4606Y2375D01*
X4615Y2381D01*
X4625Y2388D01*
X4636Y2395D01*
X4660Y2407D01*
X4673Y2412D01*
X4687Y2415D01*
X4702Y2417D01*
X4717Y2418D01*
X4724D01*
X4733Y2417D01*
X4743Y2416D01*
X4754Y2413D01*
X4767Y2411D01*
X4780Y2406D01*
X4793Y2400D01*
X4794Y2399D01*
X4798Y2396D01*
X4805Y2392D01*
X4812Y2386D01*
X4820Y2378D01*
X4829Y2369D01*
X4838Y2357D01*
X4846Y2344D01*
X4848Y2346D01*
X4852Y2350D01*
X4857Y2357D01*
X4866Y2365D01*
X4876Y2374D01*
X4886Y2383D01*
X4898Y2392D01*
X4911Y2400D01*
X4913Y2401D01*
X4917Y2402D01*
X4925Y2405D01*
X4934Y2409D01*
X4945Y2412D01*
X4958Y2415D01*
X4971Y2417D01*
X4986Y2418D01*
X4994D01*
X5003Y2417D01*
D02*
G37*
G36*
X3434Y2584D02*
X3443Y2583D01*
X3451Y2582D01*
X3461Y2580D01*
X3471Y2577D01*
X3494Y2571D01*
X3505Y2566D01*
X3518Y2560D01*
X3530Y2554D01*
X3541Y2546D01*
X3553Y2537D01*
X3563Y2527D01*
X3564Y2526D01*
X3565Y2525D01*
X3567Y2523D01*
X3570Y2519D01*
X3577Y2510D01*
X3586Y2497D01*
X3594Y2482D01*
X3600Y2463D01*
X3606Y2443D01*
X3607Y2433D01*
X3607Y2422D01*
Y2422D01*
Y2419D01*
X3607Y2414D01*
X3606Y2409D01*
X3605Y2401D01*
X3603Y2393D01*
X3600Y2384D01*
X3597Y2374D01*
X3591Y2364D01*
X3586Y2353D01*
X3578Y2342D01*
X3569Y2331D01*
X3558Y2320D01*
X3546Y2309D01*
X3533Y2299D01*
X3516Y2289D01*
X3517D01*
X3519Y2289D01*
X3522D01*
X3525Y2287D01*
X3535Y2284D01*
X3547Y2279D01*
X3561Y2271D01*
X3576Y2262D01*
X3590Y2250D01*
X3603Y2237D01*
X3605Y2235D01*
X3608Y2229D01*
X3613Y2221D01*
X3619Y2209D01*
X3626Y2196D01*
X3630Y2178D01*
X3634Y2160D01*
X3636Y2139D01*
Y2138D01*
Y2135D01*
Y2131D01*
X3635Y2125D01*
X3634Y2118D01*
X3632Y2110D01*
X3630Y2100D01*
X3628Y2090D01*
X3621Y2068D01*
X3616Y2056D01*
X3610Y2043D01*
X3603Y2032D01*
X3595Y2020D01*
X3586Y2008D01*
X3575Y1997D01*
X3574Y1996D01*
X3572Y1994D01*
X3568Y1992D01*
X3564Y1988D01*
X3557Y1983D01*
X3551Y1979D01*
X3542Y1973D01*
X3533Y1968D01*
X3523Y1962D01*
X3511Y1957D01*
X3498Y1952D01*
X3485Y1948D01*
X3471Y1944D01*
X3456Y1941D01*
X3440Y1940D01*
X3423Y1939D01*
X3415D01*
X3409Y1940D01*
X3402Y1941D01*
X3393Y1941D01*
X3384Y1943D01*
X3373Y1945D01*
X3351Y1951D01*
X3328Y1960D01*
X3315Y1965D01*
X3304Y1971D01*
X3292Y1980D01*
X3281Y1988D01*
X3280Y1989D01*
X3279Y1991D01*
X3276Y1993D01*
X3272Y1997D01*
X3268Y2002D01*
X3263Y2008D01*
X3258Y2014D01*
X3252Y2023D01*
X3247Y2032D01*
X3240Y2041D01*
X3230Y2063D01*
X3222Y2088D01*
X3218Y2102D01*
X3217Y2116D01*
X3333Y2131D01*
Y2130D01*
Y2129D01*
X3334Y2124D01*
X3336Y2115D01*
X3339Y2105D01*
X3343Y2094D01*
X3348Y2083D01*
X3355Y2072D01*
X3363Y2062D01*
X3364Y2061D01*
X3368Y2058D01*
X3373Y2054D01*
X3380Y2051D01*
X3389Y2046D01*
X3399Y2043D01*
X3410Y2040D01*
X3423Y2039D01*
X3424D01*
X3429Y2040D01*
X3435Y2041D01*
X3444Y2043D01*
X3454Y2046D01*
X3464Y2051D01*
X3475Y2058D01*
X3485Y2067D01*
X3486Y2068D01*
X3490Y2073D01*
X3494Y2079D01*
X3499Y2087D01*
X3504Y2098D01*
X3508Y2112D01*
X3511Y2127D01*
X3512Y2145D01*
Y2146D01*
Y2146D01*
Y2152D01*
X3511Y2160D01*
X3509Y2171D01*
X3505Y2183D01*
X3501Y2195D01*
X3494Y2207D01*
X3486Y2217D01*
X3485Y2218D01*
X3482Y2222D01*
X3476Y2227D01*
X3470Y2231D01*
X3461Y2237D01*
X3451Y2240D01*
X3440Y2244D01*
X3427Y2245D01*
X3418D01*
X3412Y2244D01*
X3403Y2243D01*
X3393Y2241D01*
X3383Y2238D01*
X3371Y2236D01*
X3384Y2333D01*
X3392D01*
X3402Y2334D01*
X3412Y2335D01*
X3424Y2338D01*
X3437Y2341D01*
X3449Y2347D01*
X3460Y2354D01*
X3461Y2355D01*
X3464Y2359D01*
X3468Y2363D01*
X3474Y2371D01*
X3478Y2379D01*
X3483Y2389D01*
X3485Y2401D01*
X3486Y2414D01*
Y2416D01*
Y2420D01*
X3485Y2425D01*
X3484Y2432D01*
X3482Y2441D01*
X3478Y2449D01*
X3474Y2458D01*
X3467Y2465D01*
X3466Y2466D01*
X3464Y2468D01*
X3460Y2472D01*
X3453Y2475D01*
X3446Y2478D01*
X3438Y2482D01*
X3427Y2483D01*
X3416Y2484D01*
X3411D01*
X3405Y2483D01*
X3398Y2482D01*
X3390Y2479D01*
X3381Y2475D01*
X3371Y2470D01*
X3363Y2463D01*
X3362Y2462D01*
X3360Y2459D01*
X3356Y2453D01*
X3351Y2446D01*
X3347Y2438D01*
X3343Y2427D01*
X3340Y2414D01*
X3337Y2400D01*
X3226Y2418D01*
Y2419D01*
X3227Y2421D01*
Y2423D01*
X3228Y2428D01*
X3230Y2438D01*
X3234Y2452D01*
X3239Y2466D01*
X3245Y2482D01*
X3252Y2496D01*
X3260Y2510D01*
X3261Y2512D01*
X3265Y2515D01*
X3270Y2522D01*
X3278Y2530D01*
X3287Y2538D01*
X3298Y2547D01*
X3311Y2556D01*
X3326Y2565D01*
X3327D01*
X3328Y2565D01*
X3333Y2567D01*
X3342Y2571D01*
X3353Y2575D01*
X3367Y2578D01*
X3383Y2582D01*
X3401Y2584D01*
X3420Y2585D01*
X3428D01*
X3434Y2584D01*
D02*
G37*
G36*
X4180D02*
X4188Y2583D01*
X4197Y2582D01*
X4207Y2580D01*
X4218Y2578D01*
X4241Y2572D01*
X4265Y2563D01*
X4278Y2557D01*
X4289Y2551D01*
X4301Y2543D01*
X4311Y2534D01*
X4312Y2533D01*
X4313Y2532D01*
X4315Y2528D01*
X4319Y2524D01*
X4323Y2520D01*
X4328Y2514D01*
X4333Y2507D01*
X4338Y2499D01*
X4347Y2481D01*
X4356Y2460D01*
X4360Y2448D01*
X4362Y2435D01*
X4364Y2422D01*
X4364Y2408D01*
Y2406D01*
Y2401D01*
X4364Y2392D01*
X4363Y2382D01*
X4361Y2370D01*
X4358Y2356D01*
X4354Y2341D01*
X4349Y2327D01*
X4348Y2325D01*
X4346Y2320D01*
X4343Y2312D01*
X4337Y2302D01*
X4331Y2290D01*
X4323Y2277D01*
X4313Y2262D01*
X4301Y2247D01*
X4300Y2246D01*
X4296Y2241D01*
X4291Y2235D01*
X4282Y2226D01*
X4272Y2215D01*
X4258Y2200D01*
X4241Y2185D01*
X4221Y2166D01*
X4221Y2165D01*
X4219Y2164D01*
X4216Y2161D01*
X4212Y2157D01*
X4202Y2148D01*
X4190Y2137D01*
X4179Y2125D01*
X4167Y2114D01*
X4156Y2104D01*
X4152Y2099D01*
X4149Y2095D01*
X4148Y2094D01*
X4146Y2093D01*
X4143Y2089D01*
X4139Y2084D01*
X4131Y2074D01*
X4124Y2063D01*
X4364D01*
Y1951D01*
X3941D01*
Y1951D01*
Y1953D01*
X3942Y1957D01*
X3943Y1961D01*
X3944Y1967D01*
X3945Y1973D01*
X3948Y1990D01*
X3954Y2008D01*
X3961Y2028D01*
X3970Y2050D01*
X3982Y2071D01*
Y2072D01*
X3984Y2074D01*
X3986Y2077D01*
X3989Y2081D01*
X3993Y2087D01*
X3998Y2094D01*
X4005Y2102D01*
X4012Y2111D01*
X4020Y2122D01*
X4030Y2133D01*
X4041Y2146D01*
X4054Y2159D01*
X4067Y2173D01*
X4083Y2188D01*
X4099Y2205D01*
X4118Y2222D01*
X4119Y2223D01*
X4121Y2226D01*
X4125Y2229D01*
X4130Y2235D01*
X4138Y2240D01*
X4145Y2248D01*
X4161Y2264D01*
X4178Y2281D01*
X4194Y2299D01*
X4201Y2306D01*
X4209Y2314D01*
X4214Y2320D01*
X4218Y2326D01*
X4219Y2328D01*
X4221Y2332D01*
X4226Y2340D01*
X4231Y2350D01*
X4235Y2360D01*
X4240Y2373D01*
X4242Y2386D01*
X4243Y2400D01*
Y2401D01*
Y2401D01*
Y2406D01*
X4242Y2414D01*
X4241Y2423D01*
X4238Y2433D01*
X4234Y2443D01*
X4229Y2453D01*
X4221Y2463D01*
X4221Y2463D01*
X4218Y2466D01*
X4212Y2470D01*
X4206Y2473D01*
X4197Y2477D01*
X4187Y2481D01*
X4175Y2483D01*
X4161Y2484D01*
X4155D01*
X4148Y2483D01*
X4139Y2482D01*
X4129Y2479D01*
X4119Y2474D01*
X4109Y2469D01*
X4100Y2462D01*
X4099Y2461D01*
X4097Y2457D01*
X4093Y2452D01*
X4089Y2443D01*
X4085Y2433D01*
X4081Y2420D01*
X4078Y2404D01*
X4076Y2386D01*
X3955Y2398D01*
Y2399D01*
X3956Y2402D01*
Y2407D01*
X3958Y2414D01*
X3959Y2422D01*
X3962Y2432D01*
X3965Y2442D01*
X3967Y2453D01*
X3976Y2476D01*
X3987Y2500D01*
X3995Y2512D01*
X4003Y2523D01*
X4012Y2532D01*
X4022Y2541D01*
X4023Y2542D01*
X4025Y2543D01*
X4027Y2545D01*
X4032Y2548D01*
X4037Y2551D01*
X4045Y2555D01*
X4052Y2559D01*
X4061Y2563D01*
X4071Y2567D01*
X4082Y2571D01*
X4106Y2578D01*
X4134Y2583D01*
X4149Y2584D01*
X4164Y2585D01*
X4173D01*
X4180Y2584D01*
D02*
G37*
G36*
X3855Y1985D02*
Y1984D01*
Y1983D01*
Y1981D01*
Y1977D01*
Y1967D01*
X3854Y1955D01*
X3853Y1942D01*
X3852Y1929D01*
X3849Y1915D01*
X3846Y1903D01*
Y1902D01*
X3844Y1898D01*
X3842Y1892D01*
X3839Y1885D01*
X3833Y1876D01*
X3828Y1867D01*
X3821Y1858D01*
X3812Y1849D01*
X3811Y1848D01*
X3807Y1845D01*
X3801Y1840D01*
X3794Y1835D01*
X3785Y1828D01*
X3774Y1822D01*
X3761Y1816D01*
X3748Y1810D01*
X3724Y1860D01*
X3726Y1861D01*
X3730Y1863D01*
X3737Y1866D01*
X3744Y1869D01*
X3753Y1874D01*
X3761Y1880D01*
X3770Y1887D01*
X3776Y1894D01*
X3777Y1895D01*
X3779Y1898D01*
X3781Y1902D01*
X3784Y1909D01*
X3788Y1917D01*
X3791Y1927D01*
X3792Y1938D01*
X3793Y1951D01*
X3734D01*
Y2072D01*
X3855D01*
Y1985D01*
D02*
G37*
G36*
X18261Y11963D02*
X18001D01*
X18000D01*
X17998D01*
X17994D01*
X17990D01*
X17978Y11962D01*
X17964Y11961D01*
X17950Y11960D01*
X17935Y11957D01*
X17922Y11955D01*
X17918Y11952D01*
X17913Y11950D01*
X17912Y11949D01*
X17909Y11946D01*
X17905Y11943D01*
X17900Y11937D01*
X17895Y11930D01*
X17890Y11921D01*
X17888Y11910D01*
X17887Y11898D01*
Y11893D01*
X17888Y11889D01*
X17889Y11883D01*
X17890Y11875D01*
X17893Y11867D01*
X17897Y11858D01*
X17902Y11850D01*
X17903Y11849D01*
X17905Y11846D01*
X17909Y11842D01*
X17914Y11838D01*
X17920Y11832D01*
X17928Y11827D01*
X17937Y11822D01*
X17948Y11818D01*
X17950D01*
X17953Y11816D01*
X17961Y11815D01*
X17971Y11813D01*
X17984Y11811D01*
X18001Y11811D01*
X18020Y11809D01*
X18043D01*
X18261D01*
Y11688D01*
X18012D01*
X18011D01*
X18009D01*
X18005D01*
X18001D01*
X17990D01*
X17976Y11687D01*
X17961Y11686D01*
X17948Y11685D01*
X17935Y11683D01*
X17930Y11681D01*
X17926Y11680D01*
X17925D01*
X17922Y11679D01*
X17919Y11678D01*
X17915Y11676D01*
X17905Y11669D01*
X17900Y11665D01*
X17897Y11660D01*
X17896Y11659D01*
X17895Y11658D01*
X17893Y11655D01*
X17891Y11651D01*
X17889Y11646D01*
X17889Y11639D01*
X17887Y11632D01*
Y11619D01*
X17888Y11614D01*
X17889Y11607D01*
X17890Y11599D01*
X17893Y11591D01*
X17897Y11583D01*
X17902Y11574D01*
X17903Y11573D01*
X17905Y11570D01*
X17909Y11566D01*
X17913Y11562D01*
X17920Y11556D01*
X17927Y11551D01*
X17936Y11546D01*
X17946Y11542D01*
X17947D01*
X17951Y11540D01*
X17959Y11539D01*
X17968Y11537D01*
X17982Y11535D01*
X17997Y11535D01*
X18017Y11533D01*
X18040D01*
X18261D01*
Y11412D01*
X17804D01*
Y11523D01*
X17867D01*
X17866Y11524D01*
X17864Y11525D01*
X17860Y11529D01*
X17855Y11534D01*
X17849Y11539D01*
X17844Y11545D01*
X17837Y11554D01*
X17830Y11563D01*
X17824Y11573D01*
X17817Y11584D01*
X17805Y11607D01*
X17800Y11621D01*
X17797Y11635D01*
X17795Y11649D01*
X17794Y11665D01*
Y11672D01*
X17795Y11680D01*
X17796Y11690D01*
X17798Y11702D01*
X17801Y11715D01*
X17806Y11728D01*
X17812Y11740D01*
X17813Y11742D01*
X17816Y11746D01*
X17819Y11752D01*
X17826Y11760D01*
X17834Y11768D01*
X17843Y11777D01*
X17855Y11786D01*
X17868Y11794D01*
X17866Y11796D01*
X17861Y11800D01*
X17855Y11805D01*
X17847Y11813D01*
X17838Y11823D01*
X17828Y11834D01*
X17819Y11846D01*
X17812Y11859D01*
X17811Y11861D01*
X17809Y11865D01*
X17807Y11873D01*
X17803Y11882D01*
X17799Y11893D01*
X17797Y11905D01*
X17795Y11919D01*
X17794Y11934D01*
Y11942D01*
X17795Y11951D01*
X17797Y11963D01*
X17799Y11976D01*
X17803Y11990D01*
X17808Y12005D01*
X17815Y12018D01*
X17816Y12020D01*
X17818Y12024D01*
X17823Y12030D01*
X17829Y12038D01*
X17838Y12047D01*
X17849Y12056D01*
X17860Y12064D01*
X17875Y12071D01*
X17876Y12072D01*
X17880Y12073D01*
X17888Y12075D01*
X17898Y12078D01*
X17910Y12080D01*
X17927Y12082D01*
X17947Y12083D01*
X17970Y12084D01*
X18261D01*
Y11963D01*
D02*
G37*
G36*
Y11179D02*
X18001D01*
X18000D01*
X17998D01*
X17994D01*
X17990D01*
X17978Y11178D01*
X17964Y11177D01*
X17950Y11177D01*
X17935Y11174D01*
X17922Y11171D01*
X17918Y11168D01*
X17913Y11167D01*
X17912Y11166D01*
X17909Y11163D01*
X17905Y11159D01*
X17900Y11154D01*
X17895Y11146D01*
X17890Y11137D01*
X17888Y11126D01*
X17887Y11115D01*
Y11110D01*
X17888Y11105D01*
X17889Y11099D01*
X17890Y11092D01*
X17893Y11084D01*
X17897Y11075D01*
X17902Y11066D01*
X17903Y11065D01*
X17905Y11063D01*
X17909Y11059D01*
X17914Y11054D01*
X17920Y11049D01*
X17928Y11044D01*
X17937Y11039D01*
X17948Y11034D01*
X17950D01*
X17953Y11033D01*
X17961Y11032D01*
X17971Y11030D01*
X17984Y11028D01*
X18001Y11027D01*
X18020Y11025D01*
X18043D01*
X18261D01*
Y10904D01*
X18012D01*
X18011D01*
X18009D01*
X18005D01*
X18001D01*
X17990D01*
X17976Y10903D01*
X17961Y10902D01*
X17948Y10901D01*
X17935Y10900D01*
X17930Y10898D01*
X17926Y10897D01*
X17925D01*
X17922Y10896D01*
X17919Y10894D01*
X17915Y10892D01*
X17905Y10886D01*
X17900Y10881D01*
X17897Y10877D01*
X17896Y10876D01*
X17895Y10874D01*
X17893Y10871D01*
X17891Y10868D01*
X17889Y10862D01*
X17889Y10856D01*
X17887Y10849D01*
Y10836D01*
X17888Y10830D01*
X17889Y10824D01*
X17890Y10816D01*
X17893Y10808D01*
X17897Y10799D01*
X17902Y10790D01*
X17903Y10789D01*
X17905Y10787D01*
X17909Y10783D01*
X17913Y10778D01*
X17920Y10773D01*
X17927Y10767D01*
X17936Y10763D01*
X17946Y10758D01*
X17947D01*
X17951Y10757D01*
X17959Y10756D01*
X17968Y10754D01*
X17982Y10752D01*
X17997Y10751D01*
X18017Y10749D01*
X18040D01*
X18261D01*
Y10628D01*
X17804D01*
Y10739D01*
X17867D01*
X17866Y10740D01*
X17864Y10742D01*
X17860Y10746D01*
X17855Y10750D01*
X17849Y10756D01*
X17844Y10762D01*
X17837Y10770D01*
X17830Y10779D01*
X17824Y10789D01*
X17817Y10800D01*
X17805Y10824D01*
X17800Y10838D01*
X17797Y10851D01*
X17795Y10866D01*
X17794Y10881D01*
Y10889D01*
X17795Y10897D01*
X17796Y10907D01*
X17798Y10919D01*
X17801Y10931D01*
X17806Y10944D01*
X17812Y10957D01*
X17813Y10959D01*
X17816Y10962D01*
X17819Y10969D01*
X17826Y10976D01*
X17834Y10984D01*
X17843Y10993D01*
X17855Y11003D01*
X17868Y11011D01*
X17866Y11013D01*
X17861Y11016D01*
X17855Y11022D01*
X17847Y11030D01*
X17838Y11040D01*
X17828Y11051D01*
X17819Y11063D01*
X17812Y11075D01*
X17811Y11077D01*
X17809Y11082D01*
X17807Y11089D01*
X17803Y11098D01*
X17799Y11109D01*
X17797Y11122D01*
X17795Y11136D01*
X17794Y11150D01*
Y11158D01*
X17795Y11167D01*
X17797Y11179D01*
X17799Y11193D01*
X17803Y11207D01*
X17808Y11221D01*
X17815Y11235D01*
X17816Y11237D01*
X17818Y11240D01*
X17823Y11247D01*
X17829Y11255D01*
X17838Y11263D01*
X17849Y11272D01*
X17860Y11280D01*
X17875Y11288D01*
X17876Y11289D01*
X17880Y11289D01*
X17888Y11291D01*
X17898Y11294D01*
X17910Y11297D01*
X17927Y11299D01*
X17947Y11300D01*
X17970Y11300D01*
X18261D01*
Y11179D01*
D02*
G37*
G36*
X18091Y10533D02*
X18098Y10532D01*
X18107Y10532D01*
X18116Y10530D01*
X18126Y10527D01*
X18149Y10521D01*
X18161Y10516D01*
X18173Y10511D01*
X18185Y10504D01*
X18197Y10496D01*
X18207Y10488D01*
X18218Y10478D01*
X18219Y10477D01*
X18221Y10475D01*
X18224Y10472D01*
X18227Y10468D01*
X18231Y10462D01*
X18236Y10455D01*
X18240Y10448D01*
X18246Y10439D01*
X18251Y10429D01*
X18256Y10417D01*
X18260Y10405D01*
X18265Y10392D01*
X18268Y10378D01*
X18270Y10362D01*
X18272Y10347D01*
X18273Y10329D01*
Y10321D01*
X18272Y10315D01*
X18271Y10307D01*
X18270Y10299D01*
X18269Y10290D01*
X18268Y10279D01*
X18262Y10256D01*
X18254Y10233D01*
X18249Y10221D01*
X18243Y10209D01*
X18237Y10197D01*
X18228Y10186D01*
X18227Y10185D01*
X18226Y10184D01*
X18223Y10180D01*
X18218Y10175D01*
X18213Y10171D01*
X18207Y10165D01*
X18198Y10159D01*
X18190Y10153D01*
X18180Y10146D01*
X18169Y10140D01*
X18157Y10134D01*
X18144Y10130D01*
X18130Y10125D01*
X18115Y10122D01*
X18099Y10120D01*
X18082Y10119D01*
X18081D01*
X18079D01*
X18076D01*
X18073D01*
X18063Y10120D01*
X18051Y10122D01*
X18036Y10125D01*
X18020Y10129D01*
X18003Y10135D01*
X17987Y10143D01*
X17986D01*
X17985Y10144D01*
X17980Y10148D01*
X17972Y10154D01*
X17962Y10164D01*
X17951Y10174D01*
X17941Y10188D01*
X17931Y10204D01*
X17920Y10224D01*
Y10223D01*
X17920Y10222D01*
X17917Y10216D01*
X17912Y10208D01*
X17907Y10198D01*
X17899Y10186D01*
X17889Y10175D01*
X17879Y10164D01*
X17867Y10155D01*
X17865Y10154D01*
X17860Y10152D01*
X17854Y10149D01*
X17844Y10145D01*
X17833Y10141D01*
X17819Y10138D01*
X17806Y10135D01*
X17790Y10134D01*
X17789D01*
X17787D01*
X17784D01*
X17778Y10135D01*
X17773Y10136D01*
X17766Y10137D01*
X17749Y10141D01*
X17731Y10146D01*
X17711Y10155D01*
X17702Y10161D01*
X17692Y10167D01*
X17683Y10175D01*
X17674Y10184D01*
X17673Y10184D01*
X17672Y10186D01*
X17669Y10189D01*
X17666Y10193D01*
X17663Y10198D01*
X17659Y10204D01*
X17654Y10211D01*
X17650Y10220D01*
X17646Y10229D01*
X17642Y10239D01*
X17638Y10251D01*
X17634Y10264D01*
X17632Y10277D01*
X17629Y10292D01*
X17628Y10307D01*
X17627Y10324D01*
Y10333D01*
X17628Y10338D01*
X17629Y10347D01*
X17630Y10355D01*
X17631Y10365D01*
X17633Y10375D01*
X17638Y10398D01*
X17646Y10421D01*
X17652Y10432D01*
X17658Y10444D01*
X17665Y10454D01*
X17674Y10464D01*
X17675Y10465D01*
X17675Y10466D01*
X17678Y10469D01*
X17682Y10472D01*
X17686Y10476D01*
X17692Y10480D01*
X17705Y10490D01*
X17723Y10499D01*
X17742Y10506D01*
X17765Y10512D01*
X17777Y10513D01*
X17790Y10514D01*
X17791D01*
X17792D01*
X17797D01*
X17806Y10513D01*
X17817Y10511D01*
X17828Y10509D01*
X17841Y10504D01*
X17855Y10499D01*
X17869Y10491D01*
X17870Y10490D01*
X17874Y10486D01*
X17880Y10481D01*
X17888Y10474D01*
X17897Y10465D01*
X17905Y10454D01*
X17913Y10441D01*
X17920Y10427D01*
Y10428D01*
X17921Y10430D01*
X17922Y10432D01*
X17924Y10436D01*
X17930Y10445D01*
X17937Y10457D01*
X17945Y10470D01*
X17956Y10483D01*
X17969Y10496D01*
X17983Y10507D01*
X17985Y10508D01*
X17991Y10511D01*
X17999Y10516D01*
X18010Y10521D01*
X18023Y10526D01*
X18040Y10530D01*
X18057Y10533D01*
X18076Y10534D01*
X18077D01*
X18080D01*
X18084D01*
X18091Y10533D01*
D02*
G37*
G36*
X18257Y10019D02*
X18269Y10018D01*
X18283Y10016D01*
X18297Y10013D01*
X18309Y10010D01*
X18309D01*
X18314Y10009D01*
X18319Y10006D01*
X18327Y10003D01*
X18336Y9998D01*
X18345Y9992D01*
X18354Y9985D01*
X18363Y9976D01*
X18364Y9975D01*
X18367Y9971D01*
X18371Y9966D01*
X18377Y9959D01*
X18383Y9949D01*
X18390Y9938D01*
X18396Y9926D01*
X18401Y9912D01*
X18351Y9888D01*
X18350Y9890D01*
X18349Y9895D01*
X18346Y9901D01*
X18342Y9908D01*
X18338Y9918D01*
X18331Y9926D01*
X18325Y9934D01*
X18318Y9940D01*
X18317Y9941D01*
X18314Y9943D01*
X18309Y9946D01*
X18303Y9949D01*
X18295Y9952D01*
X18285Y9955D01*
X18274Y9957D01*
X18261Y9958D01*
Y9898D01*
X18140D01*
Y10020D01*
X18227D01*
X18227D01*
X18228D01*
X18231D01*
X18235D01*
X18245D01*
X18257Y10019D01*
D02*
G37*
G36*
X18086Y9799D02*
X18094Y9798D01*
X18102Y9796D01*
X18112Y9795D01*
X18122Y9793D01*
X18144Y9785D01*
X18156Y9780D01*
X18168Y9775D01*
X18180Y9767D01*
X18192Y9759D01*
X18204Y9750D01*
X18215Y9739D01*
X18216Y9738D01*
X18217Y9736D01*
X18220Y9733D01*
X18224Y9728D01*
X18228Y9722D01*
X18233Y9715D01*
X18238Y9706D01*
X18244Y9697D01*
X18249Y9687D01*
X18255Y9675D01*
X18259Y9662D01*
X18264Y9650D01*
X18268Y9635D01*
X18270Y9621D01*
X18272Y9604D01*
X18273Y9588D01*
Y9580D01*
X18272Y9573D01*
X18271Y9566D01*
X18270Y9558D01*
X18268Y9549D01*
X18267Y9538D01*
X18261Y9516D01*
X18252Y9492D01*
X18247Y9479D01*
X18240Y9468D01*
X18232Y9457D01*
X18224Y9446D01*
X18223Y9445D01*
X18221Y9443D01*
X18218Y9440D01*
X18215Y9437D01*
X18210Y9432D01*
X18204Y9427D01*
X18197Y9422D01*
X18189Y9416D01*
X18180Y9411D01*
X18171Y9405D01*
X18149Y9395D01*
X18124Y9386D01*
X18110Y9383D01*
X18095Y9381D01*
X18081Y9498D01*
X18082D01*
X18083D01*
X18088Y9498D01*
X18096Y9500D01*
X18106Y9503D01*
X18117Y9508D01*
X18129Y9512D01*
X18140Y9519D01*
X18150Y9528D01*
X18151Y9529D01*
X18154Y9532D01*
X18157Y9538D01*
X18161Y9544D01*
X18166Y9553D01*
X18169Y9563D01*
X18172Y9574D01*
X18173Y9587D01*
Y9589D01*
X18172Y9593D01*
X18171Y9600D01*
X18169Y9609D01*
X18166Y9619D01*
X18161Y9629D01*
X18154Y9640D01*
X18145Y9650D01*
X18144Y9651D01*
X18139Y9654D01*
X18133Y9658D01*
X18125Y9663D01*
X18114Y9668D01*
X18100Y9672D01*
X18084Y9675D01*
X18067Y9676D01*
X18066D01*
X18065D01*
X18060D01*
X18052Y9675D01*
X18041Y9673D01*
X18029Y9670D01*
X18017Y9665D01*
X18005Y9659D01*
X17994Y9651D01*
X17993Y9650D01*
X17990Y9646D01*
X17985Y9641D01*
X17981Y9634D01*
X17975Y9625D01*
X17971Y9615D01*
X17968Y9604D01*
X17967Y9591D01*
Y9582D01*
X17968Y9576D01*
X17969Y9568D01*
X17971Y9558D01*
X17973Y9548D01*
X17976Y9536D01*
X17879Y9549D01*
Y9557D01*
X17878Y9566D01*
X17877Y9577D01*
X17874Y9589D01*
X17870Y9601D01*
X17865Y9613D01*
X17858Y9624D01*
X17857Y9625D01*
X17853Y9629D01*
X17849Y9632D01*
X17841Y9638D01*
X17833Y9642D01*
X17823Y9647D01*
X17811Y9650D01*
X17797Y9651D01*
X17796D01*
X17792D01*
X17787Y9650D01*
X17779Y9648D01*
X17771Y9646D01*
X17763Y9642D01*
X17754Y9638D01*
X17746Y9631D01*
X17746Y9631D01*
X17744Y9628D01*
X17740Y9624D01*
X17736Y9618D01*
X17734Y9611D01*
X17730Y9602D01*
X17728Y9591D01*
X17727Y9580D01*
Y9575D01*
X17728Y9570D01*
X17730Y9562D01*
X17733Y9554D01*
X17736Y9545D01*
X17742Y9536D01*
X17749Y9528D01*
X17750Y9527D01*
X17753Y9524D01*
X17758Y9520D01*
X17766Y9516D01*
X17774Y9511D01*
X17785Y9508D01*
X17797Y9504D01*
X17812Y9501D01*
X17794Y9390D01*
X17793D01*
X17791Y9391D01*
X17788D01*
X17784Y9392D01*
X17774Y9395D01*
X17760Y9398D01*
X17746Y9404D01*
X17730Y9409D01*
X17716Y9416D01*
X17702Y9425D01*
X17700Y9426D01*
X17696Y9429D01*
X17690Y9435D01*
X17682Y9442D01*
X17674Y9451D01*
X17664Y9462D01*
X17655Y9476D01*
X17647Y9490D01*
Y9491D01*
X17646Y9492D01*
X17644Y9498D01*
X17641Y9507D01*
X17637Y9518D01*
X17634Y9531D01*
X17630Y9548D01*
X17628Y9565D01*
X17627Y9584D01*
Y9592D01*
X17628Y9599D01*
X17629Y9607D01*
X17630Y9615D01*
X17632Y9625D01*
X17634Y9635D01*
X17641Y9658D01*
X17645Y9670D01*
X17652Y9682D01*
X17658Y9694D01*
X17665Y9705D01*
X17675Y9717D01*
X17685Y9727D01*
X17685Y9728D01*
X17686Y9729D01*
X17689Y9732D01*
X17693Y9734D01*
X17702Y9742D01*
X17715Y9750D01*
X17730Y9758D01*
X17748Y9764D01*
X17768Y9770D01*
X17778Y9771D01*
X17789Y9772D01*
X17790D01*
X17793D01*
X17797Y9771D01*
X17803Y9770D01*
X17810Y9769D01*
X17818Y9767D01*
X17828Y9764D01*
X17838Y9761D01*
X17848Y9755D01*
X17859Y9750D01*
X17869Y9743D01*
X17880Y9734D01*
X17891Y9723D01*
X17902Y9711D01*
X17912Y9697D01*
X17922Y9681D01*
Y9682D01*
X17923Y9683D01*
Y9686D01*
X17925Y9690D01*
X17928Y9700D01*
X17933Y9712D01*
X17941Y9725D01*
X17950Y9740D01*
X17961Y9754D01*
X17975Y9767D01*
X17977Y9769D01*
X17982Y9773D01*
X17991Y9777D01*
X18002Y9784D01*
X18016Y9790D01*
X18033Y9795D01*
X18052Y9798D01*
X18073Y9800D01*
X18074D01*
X18076D01*
X18081D01*
X18086Y9799D01*
D02*
G37*
G36*
X18063Y9321D02*
X18070D01*
X18078Y9319D01*
X18087Y9318D01*
X18096Y9316D01*
X18118Y9311D01*
X18142Y9303D01*
X18155Y9297D01*
X18166Y9292D01*
X18178Y9284D01*
X18190Y9276D01*
X18191Y9275D01*
X18194Y9273D01*
X18197Y9270D01*
X18203Y9265D01*
X18209Y9259D01*
X18217Y9251D01*
X18224Y9242D01*
X18231Y9232D01*
X18239Y9220D01*
X18247Y9207D01*
X18254Y9193D01*
X18260Y9178D01*
X18266Y9161D01*
X18269Y9144D01*
X18272Y9125D01*
X18273Y9105D01*
Y9097D01*
X18272Y9090D01*
X18271Y9083D01*
X18270Y9074D01*
X18269Y9065D01*
X18268Y9054D01*
X18262Y9032D01*
X18253Y9007D01*
X18248Y8996D01*
X18242Y8984D01*
X18235Y8973D01*
X18227Y8962D01*
X18226Y8961D01*
X18225Y8959D01*
X18222Y8956D01*
X18218Y8953D01*
X18213Y8949D01*
X18207Y8944D01*
X18201Y8939D01*
X18194Y8934D01*
X18185Y8927D01*
X18176Y8922D01*
X18154Y8912D01*
X18129Y8903D01*
X18115Y8900D01*
X18101Y8897D01*
X18088Y9017D01*
X18090D01*
X18094Y9018D01*
X18103Y9020D01*
X18112Y9023D01*
X18122Y9027D01*
X18133Y9032D01*
X18143Y9039D01*
X18153Y9048D01*
X18154Y9048D01*
X18156Y9052D01*
X18160Y9058D01*
X18165Y9065D01*
X18169Y9073D01*
X18173Y9083D01*
X18176Y9095D01*
X18176Y9107D01*
Y9109D01*
X18176Y9113D01*
X18175Y9120D01*
X18173Y9130D01*
X18169Y9140D01*
X18164Y9150D01*
X18156Y9161D01*
X18145Y9171D01*
X18144Y9172D01*
X18140Y9176D01*
X18133Y9180D01*
X18122Y9185D01*
X18109Y9190D01*
X18094Y9194D01*
X18074Y9197D01*
X18053Y9198D01*
X18052D01*
X18050D01*
X18047D01*
X18043D01*
X18033Y9197D01*
X18020Y9194D01*
X18005Y9191D01*
X17991Y9187D01*
X17977Y9181D01*
X17965Y9171D01*
X17964Y9171D01*
X17961Y9167D01*
X17956Y9160D01*
X17950Y9153D01*
X17944Y9143D01*
X17940Y9131D01*
X17936Y9118D01*
X17935Y9103D01*
Y9098D01*
X17936Y9094D01*
X17938Y9085D01*
X17941Y9072D01*
X17946Y9058D01*
X17954Y9042D01*
X17960Y9034D01*
X17966Y9026D01*
X17973Y9017D01*
X17982Y9009D01*
X17968Y8912D01*
X17639Y8974D01*
Y9294D01*
X17752D01*
Y9065D01*
X17859Y9046D01*
Y9047D01*
X17859Y9048D01*
X17856Y9053D01*
X17853Y9061D01*
X17849Y9071D01*
X17845Y9084D01*
X17842Y9098D01*
X17839Y9113D01*
X17838Y9129D01*
Y9137D01*
X17839Y9142D01*
X17840Y9149D01*
X17841Y9157D01*
X17843Y9166D01*
X17846Y9176D01*
X17853Y9197D01*
X17858Y9209D01*
X17863Y9220D01*
X17870Y9232D01*
X17879Y9243D01*
X17888Y9254D01*
X17898Y9265D01*
X17899Y9266D01*
X17900Y9268D01*
X17904Y9271D01*
X17909Y9274D01*
X17914Y9278D01*
X17921Y9283D01*
X17930Y9288D01*
X17939Y9294D01*
X17949Y9299D01*
X17961Y9304D01*
X17973Y9309D01*
X17986Y9313D01*
X18001Y9316D01*
X18016Y9319D01*
X18033Y9321D01*
X18050Y9322D01*
X18051D01*
X18053D01*
X18057D01*
X18063Y9321D01*
D02*
G37*
G36*
X9698Y22481D02*
X9710Y22479D01*
X9724Y22476D01*
X9738Y22473D01*
X9752Y22468D01*
X9766Y22461D01*
X9768Y22460D01*
X9771Y22457D01*
X9778Y22453D01*
X9786Y22446D01*
X9794Y22437D01*
X9803Y22427D01*
X9811Y22415D01*
X9819Y22401D01*
X9820Y22400D01*
X9821Y22395D01*
X9822Y22388D01*
X9825Y22378D01*
X9828Y22365D01*
X9830Y22349D01*
X9831Y22329D01*
X9832Y22306D01*
Y22014D01*
X9710D01*
Y22275D01*
Y22276D01*
Y22278D01*
Y22281D01*
Y22286D01*
X9709Y22298D01*
X9709Y22311D01*
X9708Y22326D01*
X9705Y22341D01*
X9702Y22353D01*
X9699Y22358D01*
X9698Y22362D01*
X9697Y22363D01*
X9694Y22367D01*
X9690Y22371D01*
X9685Y22376D01*
X9678Y22381D01*
X9668Y22385D01*
X9657Y22388D01*
X9646Y22389D01*
X9641D01*
X9637Y22388D01*
X9630Y22387D01*
X9623Y22385D01*
X9615Y22382D01*
X9606Y22379D01*
X9597Y22373D01*
X9596Y22372D01*
X9594Y22371D01*
X9590Y22367D01*
X9586Y22361D01*
X9580Y22355D01*
X9575Y22348D01*
X9570Y22339D01*
X9565Y22328D01*
Y22326D01*
X9564Y22322D01*
X9563Y22315D01*
X9561Y22305D01*
X9559Y22291D01*
X9558Y22275D01*
X9556Y22256D01*
Y22233D01*
Y22014D01*
X9435D01*
Y22264D01*
Y22265D01*
Y22267D01*
Y22270D01*
Y22275D01*
Y22286D01*
X9434Y22300D01*
X9433Y22314D01*
X9432Y22328D01*
X9431Y22341D01*
X9429Y22346D01*
X9428Y22350D01*
Y22351D01*
X9427Y22353D01*
X9425Y22357D01*
X9423Y22361D01*
X9417Y22371D01*
X9412Y22375D01*
X9408Y22379D01*
X9407Y22380D01*
X9405Y22381D01*
X9402Y22382D01*
X9399Y22384D01*
X9393Y22386D01*
X9387Y22387D01*
X9380Y22389D01*
X9367D01*
X9361Y22388D01*
X9355Y22387D01*
X9347Y22385D01*
X9339Y22382D01*
X9330Y22379D01*
X9321Y22373D01*
X9320Y22372D01*
X9318Y22371D01*
X9314Y22367D01*
X9309Y22362D01*
X9304Y22356D01*
X9299Y22349D01*
X9294Y22340D01*
X9289Y22330D01*
Y22329D01*
X9288Y22324D01*
X9287Y22317D01*
X9285Y22308D01*
X9283Y22294D01*
X9282Y22279D01*
X9280Y22259D01*
Y22236D01*
Y22014D01*
X9159D01*
Y22472D01*
X9270D01*
Y22409D01*
X9271Y22410D01*
X9273Y22412D01*
X9277Y22415D01*
X9281Y22421D01*
X9287Y22426D01*
X9293Y22432D01*
X9301Y22439D01*
X9310Y22445D01*
X9320Y22452D01*
X9331Y22459D01*
X9355Y22471D01*
X9369Y22475D01*
X9382Y22479D01*
X9397Y22481D01*
X9412Y22482D01*
X9420D01*
X9428Y22481D01*
X9438Y22480D01*
X9450Y22477D01*
X9463Y22474D01*
X9475Y22470D01*
X9488Y22464D01*
X9490Y22463D01*
X9494Y22460D01*
X9500Y22456D01*
X9507Y22450D01*
X9515Y22442D01*
X9524Y22433D01*
X9534Y22421D01*
X9542Y22408D01*
X9544Y22410D01*
X9547Y22414D01*
X9553Y22421D01*
X9561Y22429D01*
X9571Y22438D01*
X9582Y22447D01*
X9594Y22456D01*
X9606Y22464D01*
X9608Y22464D01*
X9613Y22466D01*
X9620Y22469D01*
X9629Y22473D01*
X9640Y22476D01*
X9653Y22479D01*
X9667Y22481D01*
X9681Y22482D01*
X9689D01*
X9698Y22481D01*
D02*
G37*
G36*
X8915D02*
X8927Y22479D01*
X8941Y22476D01*
X8954Y22473D01*
X8969Y22468D01*
X8982Y22461D01*
X8984Y22460D01*
X8988Y22457D01*
X8994Y22453D01*
X9002Y22446D01*
X9011Y22437D01*
X9020Y22427D01*
X9028Y22415D01*
X9035Y22401D01*
X9036Y22400D01*
X9037Y22395D01*
X9039Y22388D01*
X9042Y22378D01*
X9044Y22365D01*
X9046Y22349D01*
X9047Y22329D01*
X9048Y22306D01*
Y22014D01*
X8927D01*
Y22275D01*
Y22276D01*
Y22278D01*
Y22281D01*
Y22286D01*
X8926Y22298D01*
X8925Y22311D01*
X8924Y22326D01*
X8921Y22341D01*
X8919Y22353D01*
X8916Y22358D01*
X8914Y22362D01*
X8913Y22363D01*
X8910Y22367D01*
X8907Y22371D01*
X8901Y22376D01*
X8894Y22381D01*
X8885Y22385D01*
X8874Y22388D01*
X8862Y22389D01*
X8858D01*
X8853Y22388D01*
X8847Y22387D01*
X8839Y22385D01*
X8831Y22382D01*
X8822Y22379D01*
X8814Y22373D01*
X8813Y22372D01*
X8810Y22371D01*
X8807Y22367D01*
X8802Y22361D01*
X8797Y22355D01*
X8791Y22348D01*
X8787Y22339D01*
X8782Y22328D01*
Y22326D01*
X8780Y22322D01*
X8779Y22315D01*
X8777Y22305D01*
X8776Y22291D01*
X8775Y22275D01*
X8773Y22256D01*
Y22233D01*
Y22014D01*
X8652D01*
Y22264D01*
Y22265D01*
Y22267D01*
Y22270D01*
Y22275D01*
Y22286D01*
X8651Y22300D01*
X8650Y22314D01*
X8649Y22328D01*
X8647Y22341D01*
X8645Y22346D01*
X8644Y22350D01*
Y22351D01*
X8644Y22353D01*
X8642Y22357D01*
X8640Y22361D01*
X8634Y22371D01*
X8629Y22375D01*
X8624Y22379D01*
X8624Y22380D01*
X8622Y22381D01*
X8619Y22382D01*
X8615Y22384D01*
X8610Y22386D01*
X8603Y22387D01*
X8596Y22389D01*
X8583D01*
X8578Y22388D01*
X8572Y22387D01*
X8563Y22385D01*
X8555Y22382D01*
X8547Y22379D01*
X8538Y22373D01*
X8537Y22372D01*
X8534Y22371D01*
X8531Y22367D01*
X8526Y22362D01*
X8521Y22356D01*
X8515Y22349D01*
X8511Y22340D01*
X8506Y22330D01*
Y22329D01*
X8504Y22324D01*
X8503Y22317D01*
X8501Y22308D01*
X8500Y22294D01*
X8499Y22279D01*
X8497Y22259D01*
Y22236D01*
Y22014D01*
X8376D01*
Y22472D01*
X8487D01*
Y22409D01*
X8488Y22410D01*
X8490Y22412D01*
X8493Y22415D01*
X8498Y22421D01*
X8503Y22426D01*
X8510Y22432D01*
X8518Y22439D01*
X8527Y22445D01*
X8537Y22452D01*
X8548Y22459D01*
X8572Y22471D01*
X8585Y22475D01*
X8599Y22479D01*
X8613Y22481D01*
X8629Y22482D01*
X8636D01*
X8644Y22481D01*
X8654Y22480D01*
X8666Y22477D01*
X8679Y22474D01*
X8692Y22470D01*
X8705Y22464D01*
X8706Y22463D01*
X8710Y22460D01*
X8716Y22456D01*
X8724Y22450D01*
X8732Y22442D01*
X8741Y22433D01*
X8750Y22421D01*
X8758Y22408D01*
X8760Y22410D01*
X8764Y22414D01*
X8769Y22421D01*
X8777Y22429D01*
X8787Y22438D01*
X8798Y22447D01*
X8810Y22456D01*
X8823Y22464D01*
X8825Y22464D01*
X8829Y22466D01*
X8837Y22469D01*
X8846Y22473D01*
X8857Y22476D01*
X8869Y22479D01*
X8883Y22481D01*
X8898Y22482D01*
X8906D01*
X8915Y22481D01*
D02*
G37*
G36*
X8081Y22648D02*
X8090Y22647D01*
X8098Y22646D01*
X8108Y22644D01*
X8118Y22641D01*
X8141Y22635D01*
X8153Y22630D01*
X8165Y22624D01*
X8177Y22617D01*
X8188Y22610D01*
X8200Y22601D01*
X8210Y22591D01*
X8211Y22590D01*
X8212Y22589D01*
X8214Y22587D01*
X8217Y22583D01*
X8224Y22574D01*
X8233Y22561D01*
X8241Y22546D01*
X8247Y22527D01*
X8253Y22507D01*
X8254Y22497D01*
X8255Y22486D01*
Y22485D01*
Y22483D01*
X8254Y22478D01*
X8253Y22473D01*
X8252Y22465D01*
X8250Y22457D01*
X8247Y22448D01*
X8244Y22438D01*
X8238Y22428D01*
X8233Y22417D01*
X8225Y22406D01*
X8216Y22395D01*
X8205Y22384D01*
X8194Y22373D01*
X8180Y22363D01*
X8163Y22353D01*
X8164D01*
X8166Y22352D01*
X8169D01*
X8173Y22351D01*
X8183Y22348D01*
X8194Y22342D01*
X8208Y22335D01*
X8223Y22326D01*
X8237Y22314D01*
X8250Y22300D01*
X8252Y22299D01*
X8255Y22293D01*
X8260Y22285D01*
X8266Y22273D01*
X8273Y22259D01*
X8277Y22242D01*
X8281Y22224D01*
X8283Y22203D01*
Y22202D01*
Y22199D01*
Y22195D01*
X8282Y22189D01*
X8281Y22182D01*
X8279Y22174D01*
X8277Y22164D01*
X8276Y22154D01*
X8268Y22132D01*
X8263Y22120D01*
X8257Y22107D01*
X8250Y22095D01*
X8242Y22084D01*
X8233Y22072D01*
X8222Y22061D01*
X8221Y22060D01*
X8219Y22058D01*
X8215Y22055D01*
X8211Y22052D01*
X8204Y22047D01*
X8198Y22043D01*
X8189Y22037D01*
X8180Y22032D01*
X8170Y22026D01*
X8158Y22021D01*
X8145Y22016D01*
X8132Y22012D01*
X8118Y22008D01*
X8103Y22005D01*
X8087Y22003D01*
X8071Y22003D01*
X8062D01*
X8056Y22003D01*
X8049Y22004D01*
X8040Y22005D01*
X8031Y22007D01*
X8020Y22009D01*
X7999Y22014D01*
X7975Y22024D01*
X7962Y22029D01*
X7951Y22035D01*
X7939Y22044D01*
X7928Y22052D01*
X7928Y22053D01*
X7926Y22054D01*
X7923Y22057D01*
X7919Y22061D01*
X7915Y22065D01*
X7910Y22072D01*
X7905Y22078D01*
X7899Y22086D01*
X7894Y22095D01*
X7887Y22105D01*
X7877Y22126D01*
X7869Y22152D01*
X7866Y22166D01*
X7864Y22180D01*
X7980Y22195D01*
Y22194D01*
Y22193D01*
X7981Y22187D01*
X7983Y22179D01*
X7986Y22169D01*
X7990Y22158D01*
X7995Y22146D01*
X8002Y22136D01*
X8010Y22126D01*
X8011Y22125D01*
X8015Y22122D01*
X8020Y22118D01*
X8027Y22115D01*
X8036Y22110D01*
X8046Y22106D01*
X8057Y22104D01*
X8070Y22103D01*
X8071D01*
X8076Y22104D01*
X8082Y22105D01*
X8091Y22106D01*
X8102Y22110D01*
X8112Y22115D01*
X8122Y22122D01*
X8132Y22131D01*
X8133Y22132D01*
X8137Y22136D01*
X8141Y22143D01*
X8146Y22151D01*
X8151Y22162D01*
X8155Y22176D01*
X8158Y22191D01*
X8159Y22208D01*
Y22209D01*
Y22210D01*
Y22216D01*
X8158Y22224D01*
X8156Y22235D01*
X8153Y22247D01*
X8148Y22259D01*
X8142Y22270D01*
X8133Y22281D01*
X8132Y22282D01*
X8129Y22286D01*
X8123Y22290D01*
X8117Y22295D01*
X8108Y22300D01*
X8098Y22304D01*
X8087Y22308D01*
X8074Y22309D01*
X8065D01*
X8059Y22308D01*
X8050Y22307D01*
X8040Y22305D01*
X8030Y22302D01*
X8019Y22300D01*
X8031Y22397D01*
X8040D01*
X8049Y22398D01*
X8060Y22399D01*
X8071Y22402D01*
X8084Y22405D01*
X8096Y22411D01*
X8107Y22418D01*
X8108Y22419D01*
X8112Y22423D01*
X8115Y22427D01*
X8121Y22434D01*
X8125Y22443D01*
X8130Y22453D01*
X8132Y22464D01*
X8133Y22478D01*
Y22480D01*
Y22484D01*
X8132Y22489D01*
X8131Y22496D01*
X8129Y22505D01*
X8125Y22513D01*
X8121Y22522D01*
X8114Y22529D01*
X8113Y22530D01*
X8111Y22532D01*
X8107Y22535D01*
X8101Y22539D01*
X8093Y22542D01*
X8085Y22546D01*
X8074Y22547D01*
X8063Y22548D01*
X8058D01*
X8052Y22547D01*
X8045Y22546D01*
X8037Y22543D01*
X8028Y22539D01*
X8019Y22534D01*
X8010Y22526D01*
X8009Y22525D01*
X8007Y22523D01*
X8003Y22517D01*
X7999Y22510D01*
X7994Y22502D01*
X7990Y22491D01*
X7987Y22478D01*
X7984Y22464D01*
X7873Y22482D01*
Y22483D01*
X7874Y22484D01*
Y22487D01*
X7875Y22492D01*
X7877Y22502D01*
X7881Y22515D01*
X7887Y22530D01*
X7892Y22546D01*
X7899Y22560D01*
X7907Y22574D01*
X7908Y22576D01*
X7912Y22579D01*
X7917Y22586D01*
X7925Y22594D01*
X7934Y22602D01*
X7945Y22611D01*
X7958Y22620D01*
X7973Y22628D01*
X7974D01*
X7975Y22629D01*
X7980Y22631D01*
X7989Y22635D01*
X8000Y22638D01*
X8014Y22642D01*
X8030Y22646D01*
X8048Y22648D01*
X8067Y22648D01*
X8075D01*
X8081Y22648D01*
D02*
G37*
G36*
X7356D02*
X7365Y22647D01*
X7374Y22646D01*
X7384Y22644D01*
X7395Y22642D01*
X7418Y22636D01*
X7442Y22627D01*
X7455Y22621D01*
X7466Y22615D01*
X7477Y22607D01*
X7487Y22597D01*
X7488Y22597D01*
X7490Y22596D01*
X7492Y22592D01*
X7496Y22588D01*
X7500Y22584D01*
X7505Y22577D01*
X7509Y22571D01*
X7515Y22563D01*
X7524Y22545D01*
X7533Y22524D01*
X7537Y22512D01*
X7539Y22499D01*
X7540Y22485D01*
X7541Y22472D01*
Y22470D01*
Y22464D01*
X7540Y22456D01*
X7539Y22446D01*
X7538Y22433D01*
X7535Y22420D01*
X7531Y22405D01*
X7526Y22391D01*
X7525Y22389D01*
X7523Y22384D01*
X7519Y22376D01*
X7514Y22366D01*
X7508Y22354D01*
X7499Y22341D01*
X7489Y22326D01*
X7477Y22310D01*
X7477Y22310D01*
X7473Y22305D01*
X7467Y22299D01*
X7459Y22290D01*
X7448Y22279D01*
X7435Y22264D01*
X7418Y22249D01*
X7398Y22229D01*
X7397Y22228D01*
X7395Y22228D01*
X7393Y22225D01*
X7389Y22221D01*
X7379Y22212D01*
X7367Y22201D01*
X7355Y22189D01*
X7344Y22177D01*
X7333Y22167D01*
X7329Y22163D01*
X7325Y22159D01*
X7324Y22158D01*
X7323Y22157D01*
X7320Y22153D01*
X7316Y22148D01*
X7308Y22138D01*
X7301Y22126D01*
X7541D01*
Y22014D01*
X7118D01*
Y22015D01*
Y22017D01*
X7119Y22021D01*
X7119Y22025D01*
X7120Y22031D01*
X7121Y22037D01*
X7125Y22054D01*
X7130Y22072D01*
X7138Y22092D01*
X7147Y22114D01*
X7159Y22135D01*
Y22136D01*
X7160Y22137D01*
X7162Y22141D01*
X7166Y22145D01*
X7170Y22151D01*
X7175Y22157D01*
X7181Y22166D01*
X7189Y22175D01*
X7197Y22186D01*
X7207Y22197D01*
X7218Y22209D01*
X7231Y22223D01*
X7244Y22237D01*
X7260Y22252D01*
X7276Y22269D01*
X7294Y22286D01*
X7295Y22287D01*
X7298Y22290D01*
X7302Y22293D01*
X7307Y22299D01*
X7314Y22304D01*
X7322Y22311D01*
X7338Y22328D01*
X7354Y22345D01*
X7371Y22362D01*
X7378Y22370D01*
X7385Y22378D01*
X7391Y22384D01*
X7395Y22390D01*
X7395Y22392D01*
X7398Y22396D01*
X7403Y22403D01*
X7407Y22413D01*
X7412Y22424D01*
X7416Y22437D01*
X7419Y22450D01*
X7420Y22464D01*
Y22464D01*
Y22465D01*
Y22470D01*
X7419Y22478D01*
X7417Y22487D01*
X7415Y22497D01*
X7411Y22507D01*
X7406Y22517D01*
X7398Y22526D01*
X7397Y22527D01*
X7395Y22530D01*
X7389Y22534D01*
X7383Y22537D01*
X7374Y22541D01*
X7364Y22545D01*
X7352Y22547D01*
X7338Y22548D01*
X7332D01*
X7324Y22547D01*
X7316Y22546D01*
X7306Y22543D01*
X7296Y22538D01*
X7286Y22533D01*
X7277Y22525D01*
X7276Y22525D01*
X7273Y22521D01*
X7270Y22515D01*
X7266Y22507D01*
X7262Y22497D01*
X7258Y22484D01*
X7254Y22468D01*
X7252Y22450D01*
X7132Y22462D01*
Y22463D01*
X7133Y22466D01*
Y22471D01*
X7135Y22478D01*
X7136Y22486D01*
X7139Y22495D01*
X7141Y22505D01*
X7144Y22517D01*
X7153Y22540D01*
X7164Y22564D01*
X7171Y22576D01*
X7180Y22587D01*
X7189Y22596D01*
X7199Y22605D01*
X7200Y22606D01*
X7201Y22607D01*
X7204Y22608D01*
X7209Y22612D01*
X7214Y22615D01*
X7221Y22618D01*
X7229Y22623D01*
X7238Y22627D01*
X7248Y22631D01*
X7259Y22635D01*
X7283Y22642D01*
X7311Y22647D01*
X7325Y22648D01*
X7341Y22648D01*
X7350D01*
X7356Y22648D01*
D02*
G37*
G36*
X6997Y22247D02*
X7076D01*
Y22141D01*
X6997D01*
Y22014D01*
X6881D01*
Y22141D01*
X6622D01*
Y22246D01*
X6895Y22648D01*
X6997D01*
Y22247D01*
D02*
G37*
G36*
X7767Y22049D02*
Y22048D01*
Y22047D01*
Y22044D01*
Y22041D01*
Y22031D01*
X7766Y22019D01*
X7765Y22006D01*
X7764Y21993D01*
X7761Y21979D01*
X7758Y21967D01*
Y21966D01*
X7756Y21962D01*
X7754Y21956D01*
X7751Y21949D01*
X7745Y21940D01*
X7740Y21931D01*
X7733Y21921D01*
X7723Y21912D01*
X7723Y21911D01*
X7719Y21909D01*
X7713Y21904D01*
X7706Y21899D01*
X7697Y21892D01*
X7686Y21886D01*
X7673Y21880D01*
X7660Y21874D01*
X7636Y21924D01*
X7638Y21925D01*
X7642Y21927D01*
X7649Y21930D01*
X7656Y21933D01*
X7665Y21938D01*
X7673Y21944D01*
X7682Y21951D01*
X7688Y21958D01*
X7689Y21959D01*
X7691Y21962D01*
X7693Y21966D01*
X7696Y21972D01*
X7700Y21981D01*
X7702Y21991D01*
X7704Y22002D01*
X7705Y22014D01*
X7646D01*
Y22136D01*
X7767D01*
Y22049D01*
D02*
G37*
%LPC*%
G36*
X-923Y10414D02*
X-943D01*
X-944D01*
X-948D01*
X-954D01*
X-962D01*
X-971D01*
X-981Y10413D01*
X-993D01*
X-1004Y10412D01*
X-1030Y10411D01*
X-1055Y10409D01*
X-1066Y10407D01*
X-1078Y10405D01*
X-1088Y10404D01*
X-1096Y10402D01*
X-1097D01*
X-1098Y10401D01*
X-1103Y10400D01*
X-1110Y10397D01*
X-1119Y10394D01*
X-1128Y10390D01*
X-1137Y10385D01*
X-1146Y10380D01*
X-1152Y10374D01*
X-1153Y10373D01*
X-1155Y10372D01*
X-1157Y10368D01*
X-1159Y10363D01*
X-1162Y10358D01*
X-1165Y10352D01*
X-1166Y10344D01*
X-1167Y10336D01*
Y10332D01*
X-1166Y10328D01*
X-1165Y10323D01*
X-1163Y10317D01*
X-1160Y10311D01*
X-1157Y10303D01*
X-1152Y10297D01*
X-1151Y10296D01*
X-1149Y10294D01*
X-1146Y10292D01*
X-1141Y10288D01*
X-1134Y10283D01*
X-1126Y10280D01*
X-1115Y10275D01*
X-1102Y10271D01*
X-1101D01*
X-1100Y10271D01*
X-1096D01*
X-1093Y10270D01*
X-1087Y10269D01*
X-1081Y10268D01*
X-1074Y10267D01*
X-1065Y10266D01*
X-1054Y10264D01*
X-1043Y10263D01*
X-1029Y10262D01*
X-1015Y10261D01*
X-999Y10261D01*
X-983D01*
X-963Y10260D01*
X-943D01*
X-943D01*
X-939D01*
X-932D01*
X-925D01*
X-916D01*
X-906Y10261D01*
X-894D01*
X-882Y10261D01*
X-857Y10262D01*
X-831Y10264D01*
X-820Y10265D01*
X-809Y10267D01*
X-799Y10269D01*
X-789Y10271D01*
X-788Y10271D01*
X-783Y10272D01*
X-776Y10275D01*
X-768Y10278D01*
X-758Y10282D01*
X-749Y10287D01*
X-741Y10292D01*
X-735Y10298D01*
X-734Y10299D01*
X-733Y10301D01*
X-730Y10304D01*
X-728Y10309D01*
X-726Y10314D01*
X-723Y10321D01*
X-722Y10328D01*
X-721Y10336D01*
Y10340D01*
X-722Y10344D01*
X-723Y10349D01*
X-725Y10355D01*
X-727Y10362D01*
X-730Y10368D01*
X-735Y10374D01*
X-736Y10375D01*
X-738Y10377D01*
X-741Y10381D01*
X-747Y10384D01*
X-753Y10388D01*
X-762Y10393D01*
X-772Y10397D01*
X-785Y10401D01*
X-786D01*
X-787Y10402D01*
X-790D01*
X-794Y10403D01*
X-799Y10404D01*
X-806Y10404D01*
X-813Y10406D01*
X-822Y10407D01*
X-832Y10408D01*
X-844Y10410D01*
X-857Y10411D01*
X-871Y10412D01*
X-887Y10413D01*
X-904D01*
X-923Y10414D01*
D02*
G37*
G36*
X-1096Y9677D02*
X-1097D01*
X-1101D01*
X-1107Y9676D01*
X-1115Y9674D01*
X-1124Y9671D01*
X-1133Y9667D01*
X-1142Y9663D01*
X-1150Y9656D01*
X-1151Y9655D01*
X-1154Y9652D01*
X-1157Y9647D01*
X-1161Y9641D01*
X-1165Y9633D01*
X-1168Y9624D01*
X-1170Y9613D01*
X-1171Y9601D01*
Y9595D01*
X-1170Y9589D01*
X-1168Y9581D01*
X-1166Y9572D01*
X-1162Y9563D01*
X-1157Y9554D01*
X-1150Y9545D01*
X-1149Y9544D01*
X-1147Y9543D01*
X-1142Y9539D01*
X-1136Y9535D01*
X-1127Y9532D01*
X-1118Y9528D01*
X-1107Y9526D01*
X-1095Y9525D01*
X-1093D01*
X-1088D01*
X-1082Y9526D01*
X-1074Y9528D01*
X-1065Y9530D01*
X-1055Y9534D01*
X-1046Y9539D01*
X-1038Y9545D01*
X-1037Y9546D01*
X-1035Y9549D01*
X-1032Y9554D01*
X-1028Y9560D01*
X-1024Y9568D01*
X-1021Y9577D01*
X-1019Y9588D01*
X-1018Y9600D01*
Y9606D01*
X-1019Y9612D01*
X-1021Y9620D01*
X-1023Y9629D01*
X-1026Y9638D01*
X-1032Y9647D01*
X-1038Y9656D01*
X-1039Y9657D01*
X-1042Y9659D01*
X-1046Y9662D01*
X-1054Y9667D01*
X-1062Y9670D01*
X-1071Y9673D01*
X-1083Y9676D01*
X-1096Y9677D01*
D02*
G37*
G36*
X-823Y9691D02*
X-824D01*
X-825D01*
X-830D01*
X-839Y9690D01*
X-849Y9688D01*
X-861Y9685D01*
X-872Y9680D01*
X-884Y9674D01*
X-895Y9666D01*
X-896Y9665D01*
X-900Y9661D01*
X-904Y9656D01*
X-909Y9648D01*
X-914Y9639D01*
X-918Y9628D01*
X-922Y9616D01*
X-922Y9602D01*
Y9595D01*
X-921Y9586D01*
X-919Y9577D01*
X-915Y9566D01*
X-910Y9555D01*
X-902Y9544D01*
X-891Y9535D01*
X-890Y9534D01*
X-886Y9532D01*
X-880Y9529D01*
X-871Y9525D01*
X-861Y9521D01*
X-850Y9518D01*
X-838Y9515D01*
X-825Y9514D01*
X-824D01*
X-823D01*
X-820D01*
X-817D01*
X-808Y9516D01*
X-796Y9518D01*
X-783Y9521D01*
X-770Y9525D01*
X-758Y9532D01*
X-746Y9540D01*
X-745Y9541D01*
X-741Y9544D01*
X-738Y9550D01*
X-732Y9557D01*
X-728Y9566D01*
X-723Y9577D01*
X-719Y9590D01*
X-718Y9604D01*
Y9610D01*
X-720Y9616D01*
X-722Y9626D01*
X-725Y9636D01*
X-729Y9646D01*
X-736Y9656D01*
X-745Y9666D01*
X-746Y9667D01*
X-750Y9669D01*
X-756Y9674D01*
X-765Y9678D01*
X-776Y9683D01*
X-789Y9688D01*
X-805Y9690D01*
X-823Y9691D01*
D02*
G37*
G36*
X-865Y9145D02*
X-1082D01*
X-865Y8998D01*
Y9145D01*
D02*
G37*
G36*
X-2168Y20180D02*
X-2169D01*
X-2170D01*
X-2173D01*
X-2178D01*
X-2188Y20178D01*
X-2201Y20176D01*
X-2216Y20174D01*
X-2231Y20168D01*
X-2246Y20162D01*
X-2260Y20153D01*
X-2261Y20152D01*
X-2265Y20148D01*
X-2270Y20143D01*
X-2276Y20135D01*
X-2282Y20126D01*
X-2287Y20115D01*
X-2291Y20103D01*
X-2292Y20091D01*
Y20085D01*
X-2291Y20079D01*
X-2289Y20072D01*
X-2286Y20062D01*
X-2281Y20053D01*
X-2274Y20044D01*
X-2265Y20035D01*
X-2264Y20034D01*
X-2260Y20031D01*
X-2253Y20028D01*
X-2244Y20024D01*
X-2232Y20021D01*
X-2217Y20017D01*
X-2199Y20014D01*
X-2178Y20013D01*
X-2177D01*
X-2175D01*
X-2172D01*
X-2168D01*
X-2157Y20014D01*
X-2144Y20016D01*
X-2128Y20019D01*
X-2114Y20023D01*
X-2099Y20029D01*
X-2087Y20037D01*
X-2087Y20038D01*
X-2083Y20042D01*
X-2078Y20046D01*
X-2074Y20053D01*
X-2068Y20062D01*
X-2064Y20073D01*
X-2060Y20084D01*
X-2059Y20097D01*
Y20099D01*
X-2060Y20103D01*
X-2061Y20109D01*
X-2063Y20117D01*
X-2066Y20126D01*
X-2071Y20136D01*
X-2077Y20146D01*
X-2087Y20155D01*
X-2087Y20156D01*
X-2092Y20159D01*
X-2098Y20164D01*
X-2107Y20168D01*
X-2118Y20172D01*
X-2132Y20176D01*
X-2149Y20179D01*
X-2168Y20180D01*
D02*
G37*
G36*
X7344Y-1405D02*
X7338D01*
X7331Y-1407D01*
X7323Y-1409D01*
X7313Y-1412D01*
X7303Y-1417D01*
X7293Y-1424D01*
X7284Y-1433D01*
X7283Y-1434D01*
X7281Y-1439D01*
X7277Y-1445D01*
X7272Y-1453D01*
X7268Y-1465D01*
X7264Y-1479D01*
X7262Y-1495D01*
X7261Y-1514D01*
Y-1515D01*
Y-1517D01*
Y-1520D01*
Y-1524D01*
X7262Y-1534D01*
X7264Y-1548D01*
X7267Y-1563D01*
X7272Y-1578D01*
X7278Y-1593D01*
X7287Y-1606D01*
X7288Y-1606D01*
X7292Y-1610D01*
X7298Y-1616D01*
X7305Y-1621D01*
X7314Y-1627D01*
X7324Y-1632D01*
X7336Y-1636D01*
X7349Y-1637D01*
X7354D01*
X7361Y-1636D01*
X7369Y-1634D01*
X7377Y-1631D01*
X7387Y-1626D01*
X7396Y-1620D01*
X7406Y-1612D01*
X7406Y-1611D01*
X7409Y-1606D01*
X7413Y-1600D01*
X7417Y-1591D01*
X7421Y-1579D01*
X7425Y-1565D01*
X7427Y-1546D01*
X7428Y-1525D01*
Y-1524D01*
Y-1523D01*
Y-1519D01*
Y-1515D01*
X7427Y-1504D01*
X7426Y-1491D01*
X7422Y-1476D01*
X7418Y-1461D01*
X7412Y-1446D01*
X7404Y-1434D01*
X7403Y-1433D01*
X7399Y-1430D01*
X7395Y-1425D01*
X7387Y-1420D01*
X7378Y-1414D01*
X7368Y-1410D01*
X7356Y-1406D01*
X7344Y-1405D01*
D02*
G37*
G36*
X15563Y-2353D02*
X15558D01*
X15551Y-2355D01*
X15544Y-2357D01*
X15535Y-2360D01*
X15526Y-2365D01*
X15517Y-2372D01*
X15508Y-2381D01*
X15507Y-2382D01*
X15504Y-2386D01*
X15500Y-2393D01*
X15497Y-2402D01*
X15493Y-2414D01*
X15489Y-2429D01*
X15487Y-2447D01*
X15486Y-2468D01*
Y-2469D01*
Y-2471D01*
Y-2474D01*
Y-2478D01*
X15487Y-2489D01*
X15488Y-2502D01*
X15491Y-2517D01*
X15496Y-2532D01*
X15501Y-2547D01*
X15509Y-2558D01*
X15510Y-2559D01*
X15514Y-2563D01*
X15519Y-2568D01*
X15526Y-2572D01*
X15535Y-2578D01*
X15545Y-2582D01*
X15557Y-2586D01*
X15570Y-2587D01*
X15571D01*
X15575Y-2586D01*
X15581Y-2585D01*
X15590Y-2583D01*
X15599Y-2580D01*
X15609Y-2575D01*
X15619Y-2568D01*
X15628Y-2559D01*
X15629Y-2558D01*
X15631Y-2554D01*
X15636Y-2547D01*
X15641Y-2539D01*
X15644Y-2527D01*
X15649Y-2514D01*
X15652Y-2497D01*
X15652Y-2478D01*
Y-2477D01*
Y-2476D01*
Y-2473D01*
Y-2468D01*
X15651Y-2458D01*
X15649Y-2445D01*
X15646Y-2430D01*
X15641Y-2414D01*
X15634Y-2400D01*
X15625Y-2386D01*
X15624Y-2384D01*
X15621Y-2381D01*
X15615Y-2376D01*
X15608Y-2370D01*
X15599Y-2363D01*
X15588Y-2359D01*
X15576Y-2355D01*
X15563Y-2353D01*
D02*
G37*
G36*
X2541Y19003D02*
X2536D01*
X2532Y19002D01*
X2523Y19001D01*
X2512Y18998D01*
X2500Y18994D01*
X2486Y18987D01*
X2472Y18977D01*
X2459Y18965D01*
X2457Y18963D01*
X2453Y18957D01*
X2448Y18949D01*
X2442Y18937D01*
X2436Y18923D01*
X2430Y18905D01*
X2427Y18884D01*
X2425Y18860D01*
Y18858D01*
Y18853D01*
X2426Y18844D01*
X2427Y18834D01*
X2428Y18823D01*
X2430Y18810D01*
X2433Y18797D01*
X2437Y18783D01*
X2606Y18979D01*
X2605Y18980D01*
X2602Y18983D01*
X2595Y18987D01*
X2587Y18991D01*
X2578Y18996D01*
X2567Y18999D01*
X2554Y19002D01*
X2541Y19003D01*
D02*
G37*
G36*
X2644Y18926D02*
X2475Y18732D01*
X2476Y18732D01*
X2481Y18730D01*
X2486Y18726D01*
X2494Y18722D01*
X2503Y18719D01*
X2514Y18715D01*
X2526Y18713D01*
X2540Y18712D01*
X2544D01*
X2548Y18713D01*
X2557Y18714D01*
X2569Y18717D01*
X2582Y18721D01*
X2595Y18728D01*
X2609Y18737D01*
X2623Y18749D01*
X2624Y18751D01*
X2628Y18756D01*
X2634Y18764D01*
X2640Y18776D01*
X2645Y18791D01*
X2651Y18808D01*
X2655Y18829D01*
X2656Y18853D01*
Y18854D01*
Y18855D01*
Y18860D01*
X2655Y18867D01*
X2655Y18877D01*
X2654Y18889D01*
X2651Y18901D01*
X2648Y18914D01*
X2644Y18926D01*
D02*
G37*
G36*
X11103Y18964D02*
X11098D01*
X11095Y18963D01*
X11086Y18962D01*
X11075Y18959D01*
X11062Y18955D01*
X11048Y18947D01*
X11035Y18938D01*
X11021Y18925D01*
X11019Y18924D01*
X11015Y18918D01*
X11010Y18910D01*
X11005Y18898D01*
X10998Y18883D01*
X10993Y18865D01*
X10989Y18844D01*
X10987Y18821D01*
Y18819D01*
Y18813D01*
X10988Y18805D01*
X10989Y18795D01*
X10990Y18783D01*
X10993Y18770D01*
X10995Y18758D01*
X10999Y18744D01*
X11169Y18940D01*
X11168Y18941D01*
X11164Y18944D01*
X11158Y18947D01*
X11149Y18952D01*
X11140Y18956D01*
X11129Y18960D01*
X11117Y18963D01*
X11103Y18964D01*
D02*
G37*
G36*
X11206Y18887D02*
X11037Y18693D01*
X11038Y18692D01*
X11043Y18690D01*
X11048Y18687D01*
X11056Y18683D01*
X11066Y18679D01*
X11077Y18676D01*
X11088Y18674D01*
X11102Y18673D01*
X11107D01*
X11110Y18674D01*
X11119Y18675D01*
X11131Y18678D01*
X11144Y18682D01*
X11158Y18688D01*
X11171Y18698D01*
X11185Y18709D01*
X11187Y18711D01*
X11190Y18717D01*
X11196Y18725D01*
X11202Y18737D01*
X11208Y18751D01*
X11213Y18769D01*
X11217Y18790D01*
X11219Y18813D01*
Y18814D01*
Y18815D01*
Y18821D01*
X11218Y18828D01*
X11217Y18838D01*
X11216Y18850D01*
X11213Y18862D01*
X11210Y18874D01*
X11206Y18887D01*
D02*
G37*
G36*
X11064Y2231D02*
X11059D01*
X11055Y2230D01*
X11046Y2230D01*
X11035Y2227D01*
X11023Y2222D01*
X11009Y2215D01*
X10995Y2206D01*
X10982Y2193D01*
X10980Y2191D01*
X10976Y2186D01*
X10971Y2178D01*
X10965Y2166D01*
X10959Y2151D01*
X10953Y2133D01*
X10950Y2112D01*
X10948Y2088D01*
Y2086D01*
Y2081D01*
X10949Y2073D01*
X10950Y2063D01*
X10951Y2051D01*
X10953Y2038D01*
X10956Y2025D01*
X10960Y2012D01*
X11129Y2208D01*
X11128Y2209D01*
X11125Y2211D01*
X11118Y2215D01*
X11110Y2219D01*
X11101Y2224D01*
X11090Y2228D01*
X11077Y2230D01*
X11064Y2231D01*
D02*
G37*
G36*
X11166Y2155D02*
X10998Y1961D01*
X10999Y1960D01*
X11003Y1958D01*
X11009Y1954D01*
X11017Y1951D01*
X11026Y1947D01*
X11037Y1943D01*
X11049Y1942D01*
X11063Y1941D01*
X11067D01*
X11071Y1942D01*
X11080Y1943D01*
X11092Y1945D01*
X11105Y1950D01*
X11118Y1956D01*
X11132Y1965D01*
X11146Y1977D01*
X11147Y1979D01*
X11151Y1984D01*
X11156Y1993D01*
X11163Y2005D01*
X11168Y2019D01*
X11174Y2036D01*
X11177Y2057D01*
X11179Y2081D01*
Y2082D01*
Y2083D01*
Y2088D01*
X11178Y2096D01*
X11177Y2106D01*
X11177Y2117D01*
X11174Y2129D01*
X11171Y2142D01*
X11166Y2155D01*
D02*
G37*
G36*
X2674Y2325D02*
X2669D01*
X2665Y2324D01*
X2656Y2323D01*
X2645Y2320D01*
X2633Y2316D01*
X2619Y2309D01*
X2605Y2299D01*
X2592Y2287D01*
X2590Y2285D01*
X2586Y2279D01*
X2581Y2271D01*
X2575Y2259D01*
X2569Y2245D01*
X2563Y2227D01*
X2560Y2206D01*
X2558Y2182D01*
Y2180D01*
Y2175D01*
X2559Y2166D01*
X2560Y2156D01*
X2561Y2145D01*
X2563Y2132D01*
X2566Y2119D01*
X2570Y2105D01*
X2739Y2301D01*
X2738Y2302D01*
X2735Y2305D01*
X2728Y2309D01*
X2720Y2313D01*
X2711Y2318D01*
X2700Y2321D01*
X2687Y2324D01*
X2674Y2325D01*
D02*
G37*
G36*
X2777Y2248D02*
X2608Y2054D01*
X2609Y2053D01*
X2614Y2052D01*
X2619Y2048D01*
X2627Y2044D01*
X2636Y2041D01*
X2647Y2037D01*
X2659Y2035D01*
X2673Y2034D01*
X2677D01*
X2681Y2035D01*
X2690Y2036D01*
X2702Y2039D01*
X2715Y2043D01*
X2728Y2050D01*
X2742Y2059D01*
X2756Y2071D01*
X2757Y2073D01*
X2761Y2078D01*
X2767Y2086D01*
X2773Y2098D01*
X2778Y2113D01*
X2784Y2130D01*
X2788Y2151D01*
X2789Y2175D01*
Y2176D01*
Y2176D01*
Y2182D01*
X2788Y2189D01*
X2788Y2199D01*
X2787Y2211D01*
X2784Y2223D01*
X2781Y2236D01*
X2777Y2248D01*
D02*
G37*
G36*
X17798Y10400D02*
X17797D01*
X17793D01*
X17787Y10399D01*
X17779Y10398D01*
X17770Y10395D01*
X17761Y10391D01*
X17752Y10387D01*
X17744Y10379D01*
X17743Y10379D01*
X17740Y10376D01*
X17737Y10371D01*
X17733Y10365D01*
X17729Y10357D01*
X17726Y10348D01*
X17724Y10337D01*
X17723Y10325D01*
Y10319D01*
X17724Y10313D01*
X17726Y10305D01*
X17728Y10296D01*
X17732Y10286D01*
X17736Y10277D01*
X17744Y10269D01*
X17745Y10268D01*
X17747Y10266D01*
X17752Y10263D01*
X17758Y10259D01*
X17767Y10256D01*
X17776Y10252D01*
X17787Y10250D01*
X17799Y10249D01*
X17801D01*
X17806D01*
X17812Y10250D01*
X17820Y10252D01*
X17829Y10254D01*
X17838Y10257D01*
X17848Y10263D01*
X17856Y10269D01*
X17857Y10270D01*
X17859Y10273D01*
X17862Y10277D01*
X17866Y10284D01*
X17869Y10292D01*
X17873Y10301D01*
X17875Y10312D01*
X17876Y10324D01*
Y10329D01*
X17875Y10336D01*
X17873Y10344D01*
X17871Y10353D01*
X17868Y10362D01*
X17862Y10371D01*
X17856Y10379D01*
X17855Y10380D01*
X17852Y10383D01*
X17848Y10386D01*
X17840Y10390D01*
X17832Y10394D01*
X17823Y10397D01*
X17811Y10399D01*
X17798Y10400D01*
D02*
G37*
G36*
X18071Y10415D02*
X18070D01*
X18069D01*
X18063D01*
X18055Y10414D01*
X18045Y10412D01*
X18033Y10409D01*
X18022Y10404D01*
X18010Y10398D01*
X17999Y10389D01*
X17998Y10389D01*
X17994Y10385D01*
X17990Y10379D01*
X17985Y10372D01*
X17980Y10363D01*
X17976Y10352D01*
X17972Y10339D01*
X17971Y10326D01*
Y10318D01*
X17973Y10310D01*
X17975Y10301D01*
X17979Y10290D01*
X17984Y10279D01*
X17992Y10268D01*
X18002Y10259D01*
X18004Y10258D01*
X18008Y10256D01*
X18014Y10253D01*
X18023Y10249D01*
X18033Y10245D01*
X18043Y10242D01*
X18056Y10239D01*
X18069Y10238D01*
X18070D01*
X18071D01*
X18074D01*
X18077D01*
X18086Y10240D01*
X18098Y10242D01*
X18111Y10245D01*
X18124Y10249D01*
X18136Y10256D01*
X18148Y10264D01*
X18149Y10265D01*
X18153Y10268D01*
X18156Y10274D01*
X18162Y10281D01*
X18166Y10290D01*
X18171Y10301D01*
X18175Y10314D01*
X18176Y10327D01*
Y10334D01*
X18174Y10340D01*
X18172Y10349D01*
X18169Y10359D01*
X18165Y10369D01*
X18158Y10379D01*
X18149Y10389D01*
X18148Y10390D01*
X18144Y10393D01*
X18138Y10398D01*
X18129Y10402D01*
X18118Y10407D01*
X18104Y10411D01*
X18089Y10414D01*
X18071Y10415D01*
D02*
G37*
G36*
X6881Y22464D02*
X6734Y22247D01*
X6881D01*
Y22464D01*
D02*
G37*
%LPD*%
D11*
X1772Y20039D02*
G03*
X1772Y20039I-630J0D01*
G01*
X16142D02*
G03*
X16142Y20039I-630J0D01*
G01*
X1772Y1142D02*
G03*
X1772Y1142I-630J0D01*
G01*
X16142D02*
G03*
X16142Y1142I-630J0D01*
G01*
X-1020Y20039D02*
X-820Y19439D01*
X-1220D02*
X-1020Y20039D01*
X-1220Y1742D02*
X-1020Y1142D01*
X-820Y1742D01*
X-1020Y12195D02*
Y20039D01*
Y1142D02*
Y8786D01*
X-1120Y20039D02*
X412D01*
X-1120Y1142D02*
X412D01*
X-984Y20039D02*
X-784Y19439D01*
X-1184D02*
X-984Y20039D01*
X-1184Y21781D02*
X-984Y21181D01*
X-784Y21781D01*
X-984Y19039D02*
Y20039D01*
Y21181D02*
Y22181D01*
X-1084Y21181D02*
X-159D01*
X-1084Y20039D02*
X412D01*
X14912Y-1539D02*
X15512Y-1339D01*
X14912Y-1139D02*
X15512Y-1339D01*
X1142D02*
X1742Y-1139D01*
X1142Y-1339D02*
X1742Y-1539D01*
X9923Y-1339D02*
X15512D01*
X1142D02*
X6530D01*
X15512Y-1439D02*
Y412D01*
X1142Y-1439D02*
Y412D01*
X14912Y-1539D02*
X15512Y-1339D01*
X14912Y-1139D02*
X15512Y-1339D01*
X16654D02*
X17254Y-1139D01*
X16654Y-1339D02*
X17254Y-1539D01*
X14512Y-1339D02*
X15512D01*
X16654D02*
X17654D01*
X16654Y-1439D02*
Y-159D01*
X15512Y-1439D02*
Y412D01*
X1587Y19594D02*
X2153Y19311D01*
X1587Y19594D02*
X1870Y19028D01*
X1587Y19594D02*
X2165Y19016D01*
X2205D01*
X131Y20768D02*
X696Y20485D01*
X413Y21050D02*
X696Y20485D01*
X-11Y21192D02*
X696Y20485D01*
X14784Y19028D02*
X15066Y19594D01*
X14501Y19311D02*
X15066Y19594D01*
X14468Y18996D02*
X15066Y19594D01*
X14449Y18976D02*
X14468Y18996D01*
X15957Y20485D02*
X16240Y21050D01*
X15957Y20485D02*
X16523Y20768D01*
X15957Y20485D02*
X16664Y21192D01*
X14501Y1870D02*
X15066Y1587D01*
X14784Y2153D02*
X15066Y1587D01*
X14429Y2225D02*
X15066Y1587D01*
X14409Y2244D02*
X14429Y2225D01*
X15957Y696D02*
X16523Y413D01*
X15957Y696D02*
X16240Y131D01*
X15957Y696D02*
X16664Y-11D01*
X1587Y1587D02*
X1870Y2153D01*
X1587Y1587D02*
X2153Y1870D01*
X1587Y1587D02*
X1837Y1837D01*
X2338Y2338D01*
X413Y131D02*
X696Y696D01*
X131Y413D02*
X696Y696D01*
X-11Y-11D02*
X696Y696D01*
X17674Y600D02*
X17874Y0D01*
X18074Y600D01*
X17874Y21181D02*
X18074Y20581D01*
X17674D02*
X17874Y21181D01*
Y0D02*
Y8797D01*
Y12184D02*
Y21181D01*
X16813Y0D02*
X17974D01*
X16813Y21181D02*
X17974D01*
X16054Y22202D02*
X16654Y22402D01*
X16054Y22602D02*
X16654Y22402D01*
X0D02*
X600Y22602D01*
X0Y22402D02*
X600Y22202D01*
X9931Y22402D02*
X16654D01*
X0D02*
X6522D01*
X16654Y21340D02*
Y22502D01*
X0Y21340D02*
Y22502D01*
D16*
Y0D02*
X16654D01*
Y21181D01*
X0D02*
X16654D01*
X0Y0D02*
Y21181D01*
M02*
